# MagicaVoxel @ Ephtracy

# group
o 

# material
mtllib assets01_copia03-3.mtl
usemtl palette

# normals
vn -1 0 0
vn 1 0 0
vn 0 0 1
vn 0 0 -1
vn 0 -1 0
vn 0 1 0

# texcoords
vt 0.0371094 0.5
vt 0.0410156 0.5
vt 0.0683594 0.5

# verts
v -5 0 1.3
v -5 0 1.1
v -5 0.1 1.5
v -5 0.1 1.4
v -5 0.1 1.3
v -5 0.1 1.2
v -5 0.1 1.1
v -5 0.2 1.5
v -5 0.2 1.4
v -5 0.2 1.3
v -5 0.2 1.2
v -5 0.3 1.5
v -5 0.3 1.4
v -5 0.3 1.3
v -5 0.3 1.2
v -4.9 0 1.5
v -4.9 0 1.4
v -4.9 0.1 1.5
v -4.9 0.1 1.4
v -4.9 0.1 1.2
v -4.9 0.1 1.1
v -4.9 0.2 1.2
v -4.9 0.2 1.1
v -4.8 0 1.6
v -4.8 0 1.5
v -4.8 0 1.4
v -4.8 0 1.3
v -4.8 0.1 1.7
v -4.8 0.1 1.6
v -4.8 0.1 1.5
v -4.8 0.1 1.4
v -4.8 0.1 1.3
v -4.8 0.2 1.7
v -4.8 0.2 1.6
v -4.8 0.2 1.4
v -4.8 0.2 1.3
v -4.8 0.2 1.2
v -4.8 0.2 1.1
v -4.8 0.3 1.7
v -4.8 0.3 1.6
v -4.8 0.3 1.4
v -4.8 0.3 1.3
v -4.8 0.3 1.2
v -4.8 0.3 1.1
v -4.7 0 1.3
v -4.7 0 1.2
v -4.7 0.1 1.6
v -4.7 0.1 1.5
v -4.7 0.1 1.3
v -4.7 0.1 1.2
v -4.7 0.2 1.6
v -4.7 0.2 1.5
v -4.7 0.2 1.3
v -4.7 0.2 1.2
v -4.9 0 1.2
v -4.9 0 1.1
v -4.9 0.1 1.3
v -4.9 0.1 1.2
v -4.9 0.1 1.1
v -4.9 0.2 1.5
v -4.9 0.2 1.4
v -4.9 0.2 1.3
v -4.9 0.2 1.2
v -4.9 0.3 1.5
v -4.9 0.3 1.4
v -4.9 0.3 1.3
v -4.9 0.3 1.2
v -4.8 0 1.5
v -4.8 0 1.4
v -4.8 0 1.3
v -4.8 0 1.2
v -4.8 0.1 1.5
v -4.8 0.1 1.4
v -4.8 0.1 1.3
v -4.8 0.1 1.2
v -4.8 0.2 1.5
v -4.8 0.2 1.4
v -4.7 0 1.4
v -4.7 0 1.3
v -4.7 0.1 1.7
v -4.7 0.1 1.6
v -4.7 0.1 1.4
v -4.7 0.1 1.3
v -4.7 0.1 1.2
v -4.7 0.1 1.1
v -4.7 0.2 1.7
v -4.7 0.2 1.6
v -4.7 0.2 1.4
v -4.7 0.2 1.3
v -4.7 0.2 1.2
v -4.7 0.2 1.1
v -4.7 0.3 1.7
v -4.7 0.3 1.6
v -4.7 0.3 1.4
v -4.7 0.3 1.3
v -4.7 0.3 1.2
v -4.7 0.3 1.1
v -4.6 0 1.6
v -4.6 0 1.5
v -4.6 0 1.3
v -4.6 0 1.2
v -4.6 0.1 1.6
v -4.6 0.1 1.5
v -4.6 0.1 1.3
v -4.6 0.1 1.2
v -4.6 0.2 1.6
v -4.6 0.2 1.5
v -4.6 0.2 1.3
v -4.6 0.2 1.2
v -4.8 0.1 1.7
v -4.8 0.2 1.7
v -4.8 0.3 1.7
v -4.7 0.1 1.7
v -4.7 0.2 1.7
v -4.7 0.3 1.7
v -4.8 0 1.6
v -4.8 0.1 1.6
v -4.7 0 1.6
v -4.7 0.1 1.6
v -4.7 0.2 1.6
v -4.6 0 1.6
v -4.6 0.1 1.6
v -4.6 0.2 1.6
v -5 0.1 1.5
v -5 0.2 1.5
v -5 0.3 1.5
v -4.9 0 1.5
v -4.9 0.1 1.5
v -4.9 0.2 1.5
v -4.9 0.3 1.5
v -4.8 0 1.5
v -4.8 0.1 1.5
v -4.8 0.2 1.5
v -4.8 0 1.4
v -4.8 0.1 1.4
v -4.8 0.2 1.4
v -4.8 0.3 1.4
v -4.7 0 1.4
v -4.7 0.1 1.4
v -4.7 0.2 1.4
v -4.7 0.3 1.4
v -5 0 1.3
v -5 0.1 1.3
v -5 0.2 1.3
v -5 0.3 1.3
v -4.9 0.1 1.3
v -4.9 0.2 1.3
v -4.9 0.3 1.3
v -4.8 0 1.3
v -4.8 0.1 1.3
v -4.7 0 1.3
v -4.7 0.1 1.3
v -4.7 0.2 1.3
v -4.6 0 1.3
v -4.6 0.1 1.3
v -4.6 0.2 1.3
v -4.9 0.1 1.2
v -4.9 0.2 1.2
v -4.8 0.1 1.2
v -4.8 0.2 1.2
v -4.8 0.3 1.2
v -4.7 0.1 1.2
v -4.7 0.2 1.2
v -4.7 0.3 1.2
v -4.8 0.1 1.6
v -4.8 0.2 1.6
v -4.8 0.3 1.6
v -4.7 0.1 1.6
v -4.7 0.2 1.6
v -4.7 0.3 1.6
v -4.8 0 1.5
v -4.8 0.1 1.5
v -4.7 0 1.5
v -4.7 0.1 1.5
v -4.7 0.2 1.5
v -4.6 0 1.5
v -4.6 0.1 1.5
v -4.6 0.2 1.5
v -5 0.1 1.4
v -5 0.2 1.4
v -5 0.3 1.4
v -4.9 0 1.4
v -4.9 0.1 1.4
v -4.9 0.2 1.4
v -4.9 0.3 1.4
v -4.8 0 1.4
v -4.8 0.1 1.4
v -4.8 0.2 1.4
v -4.8 0 1.3
v -4.8 0.1 1.3
v -4.8 0.2 1.3
v -4.8 0.3 1.3
v -4.7 0 1.3
v -4.7 0.1 1.3
v -4.7 0.2 1.3
v -4.7 0.3 1.3
v -5 0.1 1.2
v -5 0.2 1.2
v -5 0.3 1.2
v -4.9 0 1.2
v -4.9 0.1 1.2
v -4.9 0.2 1.2
v -4.9 0.3 1.2
v -4.8 0 1.2
v -4.8 0.1 1.2
v -4.7 0 1.2
v -4.7 0.1 1.2
v -4.7 0.2 1.2
v -4.6 0 1.2
v -4.6 0.1 1.2
v -4.6 0.2 1.2
v -5 0 1.1
v -5 0.1 1.1
v -4.9 0 1.1
v -4.9 0.1 1.1
v -4.9 0.2 1.1
v -4.8 0.2 1.1
v -4.8 0.3 1.1
v -4.7 0.1 1.1
v -4.7 0.2 1.1
v -4.7 0.3 1.1
v -4.8 0 1.6
v -4.7 0 1.6
v -4.6 0 1.6
v -4.9 0 1.5
v -4.8 0 1.5
v -4.7 0 1.5
v -4.6 0 1.5
v -4.9 0 1.4
v -4.8 0 1.4
v -4.7 0 1.4
v -5 0 1.3
v -4.8 0 1.3
v -4.7 0 1.3
v -4.6 0 1.3
v -4.9 0 1.2
v -4.8 0 1.2
v -4.7 0 1.2
v -4.6 0 1.2
v -5 0 1.1
v -4.9 0 1.1
v -4.8 0.1 1.7
v -4.7 0.1 1.7
v -4.8 0.1 1.6
v -4.7 0.1 1.6
v -5 0.1 1.5
v -4.9 0.1 1.5
v -5 0.1 1.4
v -4.9 0.1 1.4
v -4.9 0.1 1.2
v -4.8 0.1 1.2
v -4.7 0.1 1.2
v -4.9 0.1 1.1
v -4.7 0.1 1.1
v -4.8 0.1 1.6
v -4.7 0.1 1.6
v -4.8 0.1 1.5
v -4.7 0.1 1.5
v -4.9 0.1 1.3
v -4.8 0.1 1.3
v -5 0.1 1.2
v -4.9 0.1 1.2
v -4.8 0.1 1.2
v -5 0.1 1.1
v -4.9 0.1 1.1
v -4.7 0.2 1.6
v -4.6 0.2 1.6
v -4.9 0.2 1.5
v -4.8 0.2 1.5
v -4.7 0.2 1.5
v -4.6 0.2 1.5
v -4.9 0.2 1.4
v -4.8 0.2 1.4
v -4.7 0.2 1.3
v -4.6 0.2 1.3
v -4.9 0.2 1.2
v -4.8 0.2 1.2
v -4.7 0.2 1.2
v -4.6 0.2 1.2
v -4.9 0.2 1.1
v -4.8 0.2 1.1
v -4.8 0.3 1.7
v -4.7 0.3 1.7
v -4.8 0.3 1.6
v -4.7 0.3 1.6
v -5 0.3 1.5
v -4.9 0.3 1.5
v -5 0.3 1.4
v -4.9 0.3 1.4
v -4.8 0.3 1.4
v -4.7 0.3 1.4
v -5 0.3 1.3
v -4.9 0.3 1.3
v -4.8 0.3 1.3
v -4.7 0.3 1.3
v -5 0.3 1.2
v -4.9 0.3 1.2
v -4.8 0.3 1.2
v -4.7 0.3 1.2
v -4.8 0.3 1.1
v -4.7 0.3 1.1

# faces
f 5/1/1 2/1/1 1/1/1
f 6/1/1 2/1/1 5/1/1
f 7/1/1 2/1/1 6/1/1
f 8/2/1 4/2/1 3/2/1
f 9/2/1 4/2/1 8/2/1
f 10/2/1 6/2/1 5/2/1
f 11/2/1 6/2/1 10/2/1
f 12/3/1 9/3/1 8/3/1
f 13/3/1 9/3/1 12/3/1
f 14/3/1 11/3/1 10/3/1
f 15/3/1 11/3/1 14/3/1
f 18/1/1 17/1/1 16/1/1
f 19/1/1 17/1/1 18/1/1
f 22/2/1 21/2/1 20/2/1
f 23/2/1 21/2/1 22/2/1
f 29/1/1 25/1/1 24/1/1
f 30/1/1 25/1/1 29/1/1
f 31/1/1 27/1/1 26/1/1
f 32/1/1 27/1/1 31/1/1
f 33/2/1 29/2/1 28/2/1
f 34/2/1 29/2/1 33/2/1
f 35/2/1 32/2/1 31/2/1
f 36/2/1 32/2/1 35/2/1
f 39/3/1 34/3/1 33/3/1
f 40/3/1 34/3/1 39/3/1
f 41/3/1 36/3/1 35/3/1
f 42/3/1 36/3/1 41/3/1
f 43/3/1 38/3/1 37/3/1
f 44/3/1 38/3/1 43/3/1
f 49/2/1 46/2/1 45/2/1
f 50/2/1 46/2/1 49/2/1
f 51/3/1 48/3/1 47/3/1
f 52/3/1 48/3/1 51/3/1
f 53/3/1 50/3/1 49/3/1
f 54/3/1 50/3/1 53/3/1
f 55/1/2 56/1/2 58/1/2
f 58/1/2 56/1/2 59/1/2
f 57/2/2 58/2/2 62/2/2
f 62/2/2 58/2/2 63/2/2
f 60/3/2 61/3/2 64/3/2
f 64/3/2 61/3/2 65/3/2
f 62/3/2 63/3/2 66/3/2
f 66/3/2 63/3/2 67/3/2
f 68/1/2 69/1/2 72/1/2
f 72/1/2 69/1/2 73/1/2
f 70/1/2 71/1/2 74/1/2
f 74/1/2 71/1/2 75/1/2
f 72/2/2 73/2/2 76/2/2
f 76/2/2 73/2/2 77/2/2
f 78/1/2 79/1/2 82/1/2
f 82/1/2 79/1/2 83/1/2
f 80/2/2 81/2/2 86/2/2
f 86/2/2 81/2/2 87/2/2
f 82/2/2 83/2/2 88/2/2
f 88/2/2 83/2/2 89/2/2
f 84/2/2 85/2/2 90/2/2
f 90/2/2 85/2/2 91/2/2
f 86/3/2 87/3/2 92/3/2
f 92/3/2 87/3/2 93/3/2
f 88/3/2 89/3/2 94/3/2
f 94/3/2 89/3/2 95/3/2
f 90/3/2 91/3/2 96/3/2
f 96/3/2 91/3/2 97/3/2
f 98/2/2 99/2/2 102/2/2
f 102/2/2 99/2/2 103/2/2
f 100/2/2 101/2/2 104/2/2
f 104/2/2 101/2/2 105/2/2
f 102/3/2 103/3/2 106/3/2
f 106/3/2 103/3/2 107/3/2
f 104/3/2 105/3/2 108/3/2
f 108/3/2 105/3/2 109/3/2
f 113/2/3 111/2/3 110/2/3
f 114/3/3 112/3/3 111/3/3
f 114/2/3 111/2/3 113/2/3
f 115/3/3 112/3/3 114/3/3
f 118/1/3 117/1/3 116/1/3
f 119/1/3 117/1/3 118/1/3
f 121/2/3 119/2/3 118/2/3
f 122/3/3 120/3/3 119/3/3
f 122/2/3 119/2/3 121/2/3
f 123/3/3 120/3/3 122/3/3
f 128/2/3 125/2/3 124/2/3
f 129/3/3 126/3/3 125/3/3
f 129/2/3 125/2/3 128/2/3
f 130/3/3 126/3/3 129/3/3
f 131/1/3 128/1/3 127/1/3
f 132/2/3 129/2/3 128/2/3
f 132/1/3 128/1/3 131/1/3
f 133/2/3 129/2/3 132/2/3
f 138/1/3 135/1/3 134/1/3
f 139/2/3 136/2/3 135/2/3
f 139/1/3 135/1/3 138/1/3
f 140/3/3 137/3/3 136/3/3
f 140/2/3 136/2/3 139/2/3
f 141/3/3 137/3/3 140/3/3
f 146/1/3 143/1/3 142/1/3
f 146/2/3 144/2/3 143/2/3
f 147/3/3 145/3/3 144/3/3
f 147/2/3 144/2/3 146/2/3
f 148/3/3 145/3/3 147/3/3
f 149/1/3 146/1/3 142/1/3
f 150/1/3 146/1/3 149/1/3
f 154/2/3 152/2/3 151/2/3
f 155/3/3 153/3/3 152/3/3
f 155/2/3 152/2/3 154/2/3
f 156/3/3 153/3/3 155/3/3
f 159/2/3 158/2/3 157/2/3
f 160/2/3 158/2/3 159/2/3
f 162/2/3 160/2/3 159/2/3
f 163/3/3 161/3/3 160/3/3
f 163/2/3 160/2/3 162/2/3
f 164/3/3 161/3/3 163/3/3
f 165/2/4 166/2/4 168/2/4
f 166/3/4 167/3/4 169/3/4
f 168/2/4 166/2/4 169/2/4
f 169/3/4 167/3/4 170/3/4
f 171/1/4 172/1/4 173/1/4
f 173/1/4 172/1/4 174/1/4
f 173/2/4 174/2/4 176/2/4
f 174/3/4 175/3/4 177/3/4
f 176/2/4 174/2/4 177/2/4
f 177/3/4 175/3/4 178/3/4
f 179/2/4 180/2/4 183/2/4
f 180/3/4 181/3/4 184/3/4
f 183/2/4 180/2/4 184/2/4
f 184/3/4 181/3/4 185/3/4
f 182/1/4 183/1/4 186/1/4
f 183/2/4 184/2/4 187/2/4
f 186/1/4 183/1/4 187/1/4
f 187/2/4 184/2/4 188/2/4
f 189/1/4 190/1/4 193/1/4
f 190/2/4 191/2/4 194/2/4
f 193/1/4 190/1/4 194/1/4
f 191/3/4 192/3/4 195/3/4
f 194/2/4 191/2/4 195/2/4
f 195/3/4 192/3/4 196/3/4
f 197/2/4 198/2/4 201/2/4
f 198/3/4 199/3/4 202/3/4
f 201/2/4 198/2/4 202/2/4
f 202/3/4 199/3/4 203/3/4
f 200/1/4 201/1/4 204/1/4
f 204/1/4 201/1/4 205/1/4
f 206/2/4 207/2/4 209/2/4
f 207/3/4 208/3/4 210/3/4
f 209/2/4 207/2/4 210/2/4
f 210/3/4 208/3/4 211/3/4
f 212/1/4 213/1/4 214/1/4
f 214/1/4 213/1/4 215/1/4
f 215/2/4 216/2/4 217/2/4
f 215/2/4 217/2/4 219/2/4
f 217/3/4 218/3/4 220/3/4
f 219/2/4 217/2/4 220/2/4
f 220/3/4 218/3/4 221/3/4
f 226/1/5 223/1/5 222/1/5
f 227/2/5 224/2/5 223/2/5
f 227/1/5 223/1/5 226/1/5
f 228/2/5 224/2/5 227/2/5
f 229/1/5 226/1/5 225/1/5
f 230/1/5 226/1/5 229/1/5
f 233/1/5 231/1/5 230/1/5
f 234/1/5 231/1/5 233/1/5
f 236/1/5 233/1/5 232/1/5
f 237/1/5 233/1/5 236/1/5
f 238/2/5 235/2/5 234/2/5
f 239/2/5 235/2/5 238/2/5
f 240/1/5 236/1/5 232/1/5
f 241/1/5 236/1/5 240/1/5
f 244/2/5 243/2/5 242/2/5
f 245/2/5 243/2/5 244/2/5
f 248/2/5 247/2/5 246/2/5
f 249/2/5 247/2/5 248/2/5
f 253/2/5 251/2/5 250/2/5
f 253/2/5 252/2/5 251/2/5
f 254/2/5 252/2/5 253/2/5
f 255/1/6 256/1/6 257/1/6
f 257/1/6 256/1/6 258/1/6
f 259/1/6 260/1/6 262/1/6
f 262/1/6 260/1/6 263/1/6
f 261/1/6 262/1/6 264/1/6
f 264/1/6 262/1/6 265/1/6
f 266/3/6 267/3/6 270/3/6
f 270/3/6 267/3/6 271/3/6
f 268/2/6 269/2/6 272/2/6
f 272/2/6 269/2/6 273/2/6
f 274/3/6 275/3/6 278/3/6
f 278/3/6 275/3/6 279/3/6
f 276/2/6 277/2/6 280/2/6
f 280/2/6 277/2/6 281/2/6
f 282/3/6 283/3/6 284/3/6
f 284/3/6 283/3/6 285/3/6
f 286/3/6 287/3/6 288/3/6
f 288/3/6 287/3/6 289/3/6
f 290/3/6 291/3/6 294/3/6
f 294/3/6 291/3/6 295/3/6
f 292/3/6 293/3/6 296/3/6
f 296/3/6 293/3/6 297/3/6
f 298/3/6 299/3/6 300/3/6
f 300/3/6 299/3/6 301/3/6
