# MagicaVoxel @ Ephtracy

# group
o 

# material
mtllib assets01_copia03-4.mtl
usemtl palette

# normals
vn -1 0 0
vn 1 0 0
vn 0 0 1
vn 0 0 -1
vn 0 -1 0
vn 0 1 0

# texcoords
vt 0.0214844 0.5
vt 0.0371094 0.5
vt 0.0410156 0.5
vt 0.0683594 0.5
vt 0.0761719 0.5

# verts
v -5 0.5 -0.9
v -5 0.5 -1
v -5 0.6 -0.9
v -5 0.6 -1
v -4.9 0.5 -0.7
v -4.9 0.5 -0.8
v -4.9 0.5 -0.9
v -4.9 0.5 -1
v -4.9 0.5 -1.1
v -4.9 0.5 -1.2
v -4.9 0.6 -0.7
v -4.9 0.6 -0.8
v -4.9 0.6 -0.9
v -4.9 0.6 -1
v -4.9 0.6 -1.1
v -4.9 0.6 -1.2
v -4.9 0.7 -0.7
v -4.9 0.7 -0.8
v -4.9 0.7 -0.9
v -4.9 0.7 -1
v -4.9 0.7 -1.1
v -4.9 0.7 -1.2
v -4.9 0.8 -0.7
v -4.9 0.8 -0.8
v -4.9 0.8 -1.1
v -4.9 0.8 -1.2
v -4.8 0 -0.9
v -4.8 0 -1
v -4.8 0.1 -0.9
v -4.8 0.1 -1
v -4.8 0.4 -0.9
v -4.8 0.4 -1
v -4.8 0.5 -0.9
v -4.8 0.5 -1
v -4.8 0.6 -0.7
v -4.8 0.6 -0.8
v -4.8 0.6 -0.9
v -4.8 0.6 -1
v -4.8 0.6 -1.1
v -4.8 0.6 -1.2
v -4.8 0.7 -0.7
v -4.8 0.7 -0.8
v -4.8 0.7 -0.9
v -4.8 0.7 -1
v -4.8 0.7 -1.1
v -4.8 0.7 -1.2
v -4.8 0.8 -0.8
v -4.8 0.8 -0.9
v -4.8 0.8 -1
v -4.8 0.8 -1.1
v -4.8 0.9 -0.9
v -4.8 0.9 -1
v -4.8 1 -0.9
v -4.8 1 -1
v -4.7 0 -0.8
v -4.7 0 -0.9
v -4.7 0 -1
v -4.7 0 -1.1
v -4.7 0.1 -0.8
v -4.7 0.1 -0.9
v -4.7 0.1 -1
v -4.7 0.2 -0.8
v -4.7 0.2 -0.9
v -4.7 0.2 -1
v -4.7 0.2 -1.1
v -4.7 0.3 -0.8
v -4.7 0.3 -0.9
v -4.7 0.3 -1
v -4.7 0.3 -1.1
v -4.7 0.4 -0.9
v -4.7 0.4 -1
v -4.7 0.4 -1.1
v -4.7 0.5 -0.6
v -4.7 0.5 -0.7
v -4.7 0.5 -0.8
v -4.7 0.5 -0.9
v -4.7 0.5 -1
v -4.7 0.5 -1.1
v -4.7 0.5 -1.2
v -4.7 0.5 -1.3
v -4.7 0.6 -0.6
v -4.7 0.6 -0.7
v -4.7 0.6 -1.2
v -4.7 0.6 -1.3
v -4.7 0.7 -0.9
v -4.7 0.7 -1
v -4.7 0.8 -0.9
v -4.7 0.8 -1
v -4.7 0.9 -0.8
v -4.7 0.9 -0.9
v -4.7 0.9 -1
v -4.7 0.9 -1.1
v -4.7 1 -0.8
v -4.7 1 -0.9
v -4.7 1 -1
v -4.7 1 -1.1
v -4.6 0.6 -0.7
v -4.6 0.6 -0.8
v -4.6 0.6 -1.1
v -4.6 0.6 -1.2
v -4.6 0.7 -0.7
v -4.6 0.7 -0.8
v -4.6 0.7 -0.9
v -4.6 0.7 -1
v -4.6 0.7 -1.1
v -4.6 0.7 -1.2
v -4.6 0.8 -0.8
v -4.6 0.8 -0.9
v -4.6 0.8 -1
v -4.6 0.8 -1.1
v -4.6 0.9 -0.9
v -4.6 0.9 -1
v -4.6 1 -0.9
v -4.6 1 -1
v -4.5 0.7 -0.7
v -4.5 0.7 -0.8
v -4.5 0.7 -1.1
v -4.5 0.7 -1.2
v -4.5 0.8 -0.7
v -4.5 0.8 -0.8
v -4.5 0.8 -1.1
v -4.5 0.8 -1.2
v -4.8 0.7 -0.7
v -4.8 0.7 -0.8
v -4.8 0.7 -1.1
v -4.8 0.7 -1.2
v -4.8 0.8 -0.7
v -4.8 0.8 -0.8
v -4.8 0.8 -1.1
v -4.8 0.8 -1.2
v -4.7 0.6 -0.7
v -4.7 0.6 -0.8
v -4.7 0.6 -1.1
v -4.7 0.6 -1.2
v -4.7 0.7 -0.7
v -4.7 0.7 -0.8
v -4.7 0.7 -0.9
v -4.7 0.7 -1
v -4.7 0.7 -1.1
v -4.7 0.7 -1.2
v -4.7 0.8 -0.8
v -4.7 0.8 -0.9
v -4.7 0.8 -1
v -4.7 0.8 -1.1
v -4.7 0.9 -0.9
v -4.7 0.9 -1
v -4.7 1 -0.9
v -4.7 1 -1
v -4.6 0 -0.8
v -4.6 0 -0.9
v -4.6 0 -1
v -4.6 0 -1.1
v -4.6 0.1 -0.8
v -4.6 0.1 -0.9
v -4.6 0.1 -1
v -4.6 0.2 -0.8
v -4.6 0.2 -0.9
v -4.6 0.2 -1
v -4.6 0.2 -1.1
v -4.6 0.3 -0.8
v -4.6 0.3 -0.9
v -4.6 0.3 -1
v -4.6 0.3 -1.1
v -4.6 0.4 -1
v -4.6 0.4 -1.1
v -4.6 0.5 -0.6
v -4.6 0.5 -0.7
v -4.6 0.5 -0.8
v -4.6 0.5 -0.9
v -4.6 0.5 -1
v -4.6 0.5 -1.1
v -4.6 0.5 -1.2
v -4.6 0.5 -1.3
v -4.6 0.6 -0.6
v -4.6 0.6 -0.7
v -4.6 0.6 -1.2
v -4.6 0.6 -1.3
v -4.6 0.7 -0.9
v -4.6 0.7 -1
v -4.6 0.8 -0.9
v -4.6 0.8 -1
v -4.6 0.9 -0.8
v -4.6 0.9 -0.9
v -4.6 0.9 -1
v -4.6 0.9 -1.1
v -4.6 1 -0.8
v -4.6 1 -0.9
v -4.6 1 -1
v -4.6 1 -1.1
v -4.5 0 -0.9
v -4.5 0 -1
v -4.5 0.1 -0.9
v -4.5 0.1 -1
v -4.5 0.2 -0.9
v -4.5 0.2 -1
v -4.5 0.3 -0.9
v -4.5 0.3 -1
v -4.5 0.5 -0.9
v -4.5 0.5 -1
v -4.5 0.6 -0.7
v -4.5 0.6 -0.8
v -4.5 0.6 -0.9
v -4.5 0.6 -1
v -4.5 0.6 -1.1
v -4.5 0.6 -1.2
v -4.5 0.7 -0.7
v -4.5 0.7 -0.8
v -4.5 0.7 -0.9
v -4.5 0.7 -1
v -4.5 0.7 -1.1
v -4.5 0.7 -1.2
v -4.5 0.8 -0.8
v -4.5 0.8 -0.9
v -4.5 0.8 -1
v -4.5 0.8 -1.1
v -4.5 0.9 -0.9
v -4.5 0.9 -1
v -4.5 1 -0.9
v -4.5 1 -1
v -4.4 0.5 -0.7
v -4.4 0.5 -0.8
v -4.4 0.5 -0.9
v -4.4 0.5 -1
v -4.4 0.5 -1.1
v -4.4 0.5 -1.2
v -4.4 0.6 -0.7
v -4.4 0.6 -0.8
v -4.4 0.6 -0.9
v -4.4 0.6 -1
v -4.4 0.6 -1.1
v -4.4 0.6 -1.2
v -4.4 0.7 -0.7
v -4.4 0.7 -0.8
v -4.4 0.7 -0.9
v -4.4 0.7 -1
v -4.4 0.7 -1.1
v -4.4 0.7 -1.2
v -4.4 0.8 -0.7
v -4.4 0.8 -0.8
v -4.4 0.8 -1.1
v -4.4 0.8 -1.2
v -4.3 0.5 -0.9
v -4.3 0.5 -1
v -4.3 0.6 -0.9
v -4.3 0.6 -1
v -4.7 0.5 -0.6
v -4.7 0.6 -0.6
v -4.6 0.5 -0.6
v -4.6 0.6 -0.6
v -4.9 0.5 -0.7
v -4.9 0.6 -0.7
v -4.9 0.7 -0.7
v -4.9 0.8 -0.7
v -4.8 0.5 -0.7
v -4.8 0.6 -0.7
v -4.8 0.7 -0.7
v -4.8 0.8 -0.7
v -4.7 0.5 -0.7
v -4.7 0.6 -0.7
v -4.7 0.7 -0.7
v -4.6 0.5 -0.7
v -4.6 0.6 -0.7
v -4.6 0.7 -0.7
v -4.5 0.5 -0.7
v -4.5 0.6 -0.7
v -4.5 0.7 -0.7
v -4.5 0.8 -0.7
v -4.4 0.5 -0.7
v -4.4 0.6 -0.7
v -4.4 0.7 -0.7
v -4.4 0.8 -0.7
v -4.9 0.6 -0.8
v -4.9 0.7 -0.8
v -4.8 0.6 -0.8
v -4.8 0.7 -0.8
v -4.8 0.8 -0.8
v -4.7 0 -0.8
v -4.7 0.1 -0.8
v -4.7 0.2 -0.8
v -4.7 0.3 -0.8
v -4.7 0.5 -0.8
v -4.7 0.6 -0.8
v -4.7 0.7 -0.8
v -4.7 0.8 -0.8
v -4.7 0.9 -0.8
v -4.7 1 -0.8
v -4.6 0 -0.8
v -4.6 0.1 -0.8
v -4.6 0.2 -0.8
v -4.6 0.3 -0.8
v -4.6 0.5 -0.8
v -4.6 0.6 -0.8
v -4.6 0.7 -0.8
v -4.6 0.8 -0.8
v -4.6 0.9 -0.8
v -4.6 1 -0.8
v -4.5 0.6 -0.8
v -4.5 0.7 -0.8
v -4.5 0.8 -0.8
v -4.4 0.6 -0.8
v -4.4 0.7 -0.8
v -5 0.5 -0.9
v -5 0.6 -0.9
v -4.9 0.5 -0.9
v -4.9 0.6 -0.9
v -4.8 0 -0.9
v -4.8 0.1 -0.9
v -4.8 0.4 -0.9
v -4.8 0.5 -0.9
v -4.8 0.9 -0.9
v -4.8 1 -0.9
v -4.7 0 -0.9
v -4.7 0.1 -0.9
v -4.7 0.2 -0.9
v -4.7 0.3 -0.9
v -4.7 0.4 -0.9
v -4.7 0.5 -0.9
v -4.7 0.7 -0.9
v -4.7 0.8 -0.9
v -4.7 0.9 -0.9
v -4.7 1 -0.9
v -4.6 0 -0.9
v -4.6 0.1 -0.9
v -4.6 0.2 -0.9
v -4.6 0.3 -0.9
v -4.6 0.5 -0.9
v -4.6 0.7 -0.9
v -4.6 0.8 -0.9
v -4.6 0.9 -0.9
v -4.6 1 -0.9
v -4.5 0 -0.9
v -4.5 0.1 -0.9
v -4.5 0.2 -0.9
v -4.5 0.3 -0.9
v -4.5 0.5 -0.9
v -4.5 0.9 -0.9
v -4.5 1 -0.9
v -4.4 0.5 -0.9
v -4.4 0.6 -0.9
v -4.3 0.5 -0.9
v -4.3 0.6 -0.9
v -4.9 0.6 -1
v -4.9 0.7 -1
v -4.8 0.6 -1
v -4.8 0.7 -1
v -4.8 0.8 -1
v -4.7 0.7 -1
v -4.7 0.8 -1
v -4.7 0.9 -1
v -4.7 1 -1
v -4.6 0.7 -1
v -4.6 0.8 -1
v -4.6 0.9 -1
v -4.6 1 -1
v -4.5 0.6 -1
v -4.5 0.7 -1
v -4.5 0.8 -1
v -4.4 0.6 -1
v -4.4 0.7 -1
v -4.9 0.7 -1.1
v -4.9 0.8 -1.1
v -4.8 0.7 -1.1
v -4.8 0.8 -1.1
v -4.5 0.7 -1.1
v -4.5 0.8 -1.1
v -4.4 0.7 -1.1
v -4.4 0.8 -1.1
v -4.9 0.7 -0.8
v -4.9 0.8 -0.8
v -4.8 0.7 -0.8
v -4.8 0.8 -0.8
v -4.5 0.7 -0.8
v -4.5 0.8 -0.8
v -4.4 0.7 -0.8
v -4.4 0.8 -0.8
v -4.9 0.6 -0.9
v -4.9 0.7 -0.9
v -4.8 0.6 -0.9
v -4.8 0.7 -0.9
v -4.8 0.8 -0.9
v -4.7 0.7 -0.9
v -4.7 0.8 -0.9
v -4.7 0.9 -0.9
v -4.7 1 -0.9
v -4.6 0.7 -0.9
v -4.6 0.8 -0.9
v -4.6 0.9 -0.9
v -4.6 1 -0.9
v -4.5 0.6 -0.9
v -4.5 0.7 -0.9
v -4.5 0.8 -0.9
v -4.4 0.6 -0.9
v -4.4 0.7 -0.9
v -5 0.5 -1
v -5 0.6 -1
v -4.9 0.5 -1
v -4.9 0.6 -1
v -4.8 0 -1
v -4.8 0.1 -1
v -4.8 0.4 -1
v -4.8 0.5 -1
v -4.8 0.9 -1
v -4.8 1 -1
v -4.7 0 -1
v -4.7 0.1 -1
v -4.7 0.2 -1
v -4.7 0.3 -1
v -4.7 0.4 -1
v -4.7 0.5 -1
v -4.7 0.7 -1
v -4.7 0.8 -1
v -4.7 0.9 -1
v -4.7 1 -1
v -4.6 0 -1
v -4.6 0.1 -1
v -4.6 0.2 -1
v -4.6 0.3 -1
v -4.6 0.4 -1
v -4.6 0.5 -1
v -4.6 0.7 -1
v -4.6 0.8 -1
v -4.6 0.9 -1
v -4.6 1 -1
v -4.5 0 -1
v -4.5 0.1 -1
v -4.5 0.2 -1
v -4.5 0.3 -1
v -4.5 0.5 -1
v -4.5 0.9 -1
v -4.5 1 -1
v -4.4 0.5 -1
v -4.4 0.6 -1
v -4.3 0.5 -1
v -4.3 0.6 -1
v -4.9 0.6 -1.1
v -4.9 0.7 -1.1
v -4.8 0.6 -1.1
v -4.8 0.7 -1.1
v -4.8 0.8 -1.1
v -4.7 0 -1.1
v -4.7 0.2 -1.1
v -4.7 0.3 -1.1
v -4.7 0.4 -1.1
v -4.7 0.5 -1.1
v -4.7 0.6 -1.1
v -4.7 0.7 -1.1
v -4.7 0.8 -1.1
v -4.7 0.9 -1.1
v -4.7 1 -1.1
v -4.6 0 -1.1
v -4.6 0.2 -1.1
v -4.6 0.3 -1.1
v -4.6 0.4 -1.1
v -4.6 0.5 -1.1
v -4.6 0.6 -1.1
v -4.6 0.7 -1.1
v -4.6 0.8 -1.1
v -4.6 0.9 -1.1
v -4.6 1 -1.1
v -4.5 0.6 -1.1
v -4.5 0.7 -1.1
v -4.5 0.8 -1.1
v -4.4 0.6 -1.1
v -4.4 0.7 -1.1
v -4.9 0.5 -1.2
v -4.9 0.6 -1.2
v -4.9 0.7 -1.2
v -4.9 0.8 -1.2
v -4.8 0.5 -1.2
v -4.8 0.6 -1.2
v -4.8 0.7 -1.2
v -4.8 0.8 -1.2
v -4.7 0.5 -1.2
v -4.7 0.6 -1.2
v -4.7 0.7 -1.2
v -4.6 0.5 -1.2
v -4.6 0.6 -1.2
v -4.6 0.7 -1.2
v -4.5 0.5 -1.2
v -4.5 0.6 -1.2
v -4.5 0.7 -1.2
v -4.5 0.8 -1.2
v -4.4 0.5 -1.2
v -4.4 0.6 -1.2
v -4.4 0.7 -1.2
v -4.4 0.8 -1.2
v -4.7 0.5 -1.3
v -4.7 0.6 -1.3
v -4.6 0.5 -1.3
v -4.6 0.6 -1.3
v -4.7 0 -0.8
v -4.6 0 -0.8
v -4.8 0 -0.9
v -4.7 0 -0.9
v -4.6 0 -0.9
v -4.5 0 -0.9
v -4.8 0 -1
v -4.7 0 -1
v -4.6 0 -1
v -4.5 0 -1
v -4.7 0 -1.1
v -4.6 0 -1.1
v -4.7 0.5 -0.6
v -4.6 0.5 -0.6
v -4.9 0.5 -0.7
v -4.8 0.5 -0.7
v -4.7 0.5 -0.7
v -4.6 0.5 -0.7
v -4.5 0.5 -0.7
v -4.4 0.5 -0.7
v -4.9 0.5 -0.8
v -4.8 0.5 -0.8
v -4.7 0.5 -0.8
v -4.6 0.5 -0.8
v -4.5 0.5 -0.8
v -4.4 0.5 -0.8
v -5 0.5 -0.9
v -4.9 0.5 -0.9
v -4.8 0.5 -0.9
v -4.7 0.5 -0.9
v -4.6 0.5 -0.9
v -4.5 0.5 -0.9
v -4.4 0.5 -0.9
v -4.3 0.5 -0.9
v -5 0.5 -1
v -4.9 0.5 -1
v -4.8 0.5 -1
v -4.7 0.5 -1
v -4.6 0.5 -1
v -4.5 0.5 -1
v -4.4 0.5 -1
v -4.3 0.5 -1
v -4.9 0.5 -1.1
v -4.8 0.5 -1.1
v -4.7 0.5 -1.1
v -4.6 0.5 -1.1
v -4.5 0.5 -1.1
v -4.4 0.5 -1.1
v -4.9 0.5 -1.2
v -4.8 0.5 -1.2
v -4.7 0.5 -1.2
v -4.6 0.5 -1.2
v -4.5 0.5 -1.2
v -4.4 0.5 -1.2
v -4.7 0.5 -1.3
v -4.6 0.5 -1.3
v -4.9 0.7 -0.7
v -4.8 0.7 -0.7
v -4.5 0.7 -0.7
v -4.4 0.7 -0.7
v -4.9 0.7 -0.8
v -4.8 0.7 -0.8
v -4.5 0.7 -0.8
v -4.4 0.7 -0.8
v -4.9 0.7 -1.1
v -4.8 0.7 -1.1
v -4.5 0.7 -1.1
v -4.4 0.7 -1.1
v -4.9 0.7 -1.2
v -4.8 0.7 -1.2
v -4.5 0.7 -1.2
v -4.4 0.7 -1.2
v -4.7 0.9 -0.8
v -4.6 0.9 -0.8
v -4.8 0.9 -0.9
v -4.7 0.9 -0.9
v -4.6 0.9 -0.9
v -4.5 0.9 -0.9
v -4.8 0.9 -1
v -4.7 0.9 -1
v -4.6 0.9 -1
v -4.5 0.9 -1
v -4.7 0.9 -1.1
v -4.6 0.9 -1.1
v -4.7 0.6 -0.6
v -4.6 0.6 -0.6
v -4.9 0.6 -0.7
v -4.8 0.6 -0.7
v -4.7 0.6 -0.7
v -4.6 0.6 -0.7
v -4.5 0.6 -0.7
v -4.4 0.6 -0.7
v -4.9 0.6 -0.8
v -4.8 0.6 -0.8
v -4.7 0.6 -0.8
v -4.6 0.6 -0.8
v -4.5 0.6 -0.8
v -4.4 0.6 -0.8
v -5 0.6 -0.9
v -4.9 0.6 -0.9
v -4.8 0.6 -0.9
v -4.5 0.6 -0.9
v -4.4 0.6 -0.9
v -4.3 0.6 -0.9
v -5 0.6 -1
v -4.9 0.6 -1
v -4.8 0.6 -1
v -4.5 0.6 -1
v -4.4 0.6 -1
v -4.3 0.6 -1
v -4.9 0.6 -1.1
v -4.8 0.6 -1.1
v -4.7 0.6 -1.1
v -4.6 0.6 -1.1
v -4.5 0.6 -1.1
v -4.4 0.6 -1.1
v -4.9 0.6 -1.2
v -4.8 0.6 -1.2
v -4.7 0.6 -1.2
v -4.6 0.6 -1.2
v -4.5 0.6 -1.2
v -4.4 0.6 -1.2
v -4.7 0.6 -1.3
v -4.6 0.6 -1.3
v -4.8 0.7 -0.7
v -4.7 0.7 -0.7
v -4.6 0.7 -0.7
v -4.5 0.7 -0.7
v -4.9 0.7 -0.8
v -4.8 0.7 -0.8
v -4.7 0.7 -0.8
v -4.6 0.7 -0.8
v -4.5 0.7 -0.8
v -4.4 0.7 -0.8
v -4.9 0.7 -0.9
v -4.8 0.7 -0.9
v -4.7 0.7 -0.9
v -4.6 0.7 -0.9
v -4.5 0.7 -0.9
v -4.4 0.7 -0.9
v -4.9 0.7 -1
v -4.8 0.7 -1
v -4.7 0.7 -1
v -4.6 0.7 -1
v -4.5 0.7 -1
v -4.4 0.7 -1
v -4.9 0.7 -1.1
v -4.8 0.7 -1.1
v -4.7 0.7 -1.1
v -4.6 0.7 -1.1
v -4.5 0.7 -1.1
v -4.4 0.7 -1.1
v -4.8 0.7 -1.2
v -4.7 0.7 -1.2
v -4.6 0.7 -1.2
v -4.5 0.7 -1.2
v -4.9 0.8 -0.7
v -4.8 0.8 -0.7
v -4.5 0.8 -0.7
v -4.4 0.8 -0.7
v -4.9 0.8 -0.8
v -4.8 0.8 -0.8
v -4.7 0.8 -0.8
v -4.6 0.8 -0.8
v -4.5 0.8 -0.8
v -4.4 0.8 -0.8
v -4.8 0.8 -0.9
v -4.7 0.8 -0.9
v -4.6 0.8 -0.9
v -4.5 0.8 -0.9
v -4.8 0.8 -1
v -4.7 0.8 -1
v -4.6 0.8 -1
v -4.5 0.8 -1
v -4.9 0.8 -1.1
v -4.8 0.8 -1.1
v -4.7 0.8 -1.1
v -4.6 0.8 -1.1
v -4.5 0.8 -1.1
v -4.4 0.8 -1.1
v -4.9 0.8 -1.2
v -4.8 0.8 -1.2
v -4.5 0.8 -1.2
v -4.4 0.8 -1.2
v -4.7 0.9 -0.9
v -4.6 0.9 -0.9
v -4.7 0.9 -1
v -4.6 0.9 -1
v -4.7 1 -0.8
v -4.6 1 -0.8
v -4.8 1 -0.9
v -4.7 1 -0.9
v -4.6 1 -0.9
v -4.5 1 -0.9
v -4.8 1 -1
v -4.7 1 -1
v -4.6 1 -1
v -4.5 1 -1
v -4.7 1 -1.1
v -4.6 1 -1.1

# faces
f 3/4/1 2/4/1 1/4/1
f 4/4/1 2/4/1 3/4/1
f 11/5/1 6/5/1 5/5/1
f 12/4/1 7/4/1 6/4/1
f 12/5/1 6/5/1 11/5/1
f 13/4/1 7/4/1 12/4/1
f 14/4/1 9/4/1 8/4/1
f 15/5/1 10/5/1 9/5/1
f 15/4/1 9/4/1 14/4/1
f 16/5/1 10/5/1 15/5/1
f 18/4/1 13/4/1 12/4/1
f 19/4/1 13/4/1 18/4/1
f 20/4/1 15/4/1 14/4/1
f 21/4/1 15/4/1 20/4/1
f 23/4/1 18/4/1 17/4/1
f 24/4/1 18/4/1 23/4/1
f 25/4/1 22/4/1 21/4/1
f 26/4/1 22/4/1 25/4/1
f 29/2/1 28/2/1 27/2/1
f 30/2/1 28/2/1 29/2/1
f 31/3/1 30/3/1 29/3/1
f 32/3/1 30/3/1 31/3/1
f 33/2/1 32/2/1 31/2/1
f 34/2/1 32/2/1 33/2/1
f 41/4/1 36/4/1 35/4/1
f 42/4/1 36/4/1 41/4/1
f 43/5/1 38/5/1 37/5/1
f 44/5/1 38/5/1 43/5/1
f 45/4/1 40/4/1 39/4/1
f 46/4/1 40/4/1 45/4/1
f 47/5/1 43/5/1 42/5/1
f 48/5/1 43/5/1 47/5/1
f 49/5/1 45/5/1 44/5/1
f 50/5/1 45/5/1 49/5/1
f 53/1/1 52/1/1 51/1/1
f 54/1/1 52/1/1 53/1/1
f 59/3/1 56/3/1 55/3/1
f 60/3/1 56/3/1 59/3/1
f 61/3/1 58/3/1 57/3/1
f 62/2/1 60/2/1 59/2/1
f 63/2/1 60/2/1 62/2/1
f 64/3/1 58/3/1 61/3/1
f 65/3/1 58/3/1 64/3/1
f 66/3/1 63/3/1 62/3/1
f 67/3/1 63/3/1 66/3/1
f 68/2/1 65/2/1 64/2/1
f 69/2/1 65/2/1 68/2/1
f 70/2/1 67/2/1 66/2/1
f 71/3/1 69/3/1 68/3/1
f 72/3/1 69/3/1 71/3/1
f 75/2/1 70/2/1 66/2/1
f 76/2/1 70/2/1 75/2/1
f 77/2/1 72/2/1 71/2/1
f 78/2/1 72/2/1 77/2/1
f 81/4/1 74/4/1 73/4/1
f 82/4/1 74/4/1 81/4/1
f 83/4/1 80/4/1 79/4/1
f 84/4/1 80/4/1 83/4/1
f 87/4/1 86/4/1 85/4/1
f 88/4/1 86/4/1 87/4/1
f 90/4/1 88/4/1 87/4/1
f 91/4/1 88/4/1 90/4/1
f 93/1/1 90/1/1 89/1/1
f 94/1/1 90/1/1 93/1/1
f 95/1/1 92/1/1 91/1/1
f 96/1/1 92/1/1 95/1/1
f 101/4/1 98/4/1 97/4/1
f 102/4/1 98/4/1 101/4/1
f 105/4/1 100/4/1 99/4/1
f 106/4/1 100/4/1 105/4/1
f 107/5/1 103/5/1 102/5/1
f 108/5/1 103/5/1 107/5/1
f 109/5/1 105/5/1 104/5/1
f 110/5/1 105/5/1 109/5/1
f 113/1/1 112/1/1 111/1/1
f 114/1/1 112/1/1 113/1/1
f 119/4/1 116/4/1 115/4/1
f 120/4/1 116/4/1 119/4/1
f 121/4/1 118/4/1 117/4/1
f 122/4/1 118/4/1 121/4/1
f 123/4/2 124/4/2 127/4/2
f 127/4/2 124/4/2 128/4/2
f 125/4/2 126/4/2 129/4/2
f 129/4/2 126/4/2 130/4/2
f 131/4/2 132/4/2 135/4/2
f 135/4/2 132/4/2 136/4/2
f 133/4/2 134/4/2 139/4/2
f 139/4/2 134/4/2 140/4/2
f 136/5/2 137/5/2 141/5/2
f 141/5/2 137/5/2 142/5/2
f 138/5/2 139/5/2 143/5/2
f 143/5/2 139/5/2 144/5/2
f 145/1/2 146/1/2 147/1/2
f 147/1/2 146/1/2 148/1/2
f 149/3/2 150/3/2 153/3/2
f 153/3/2 150/3/2 154/3/2
f 151/3/2 152/3/2 155/3/2
f 153/2/2 154/2/2 156/2/2
f 156/2/2 154/2/2 157/2/2
f 155/3/2 152/3/2 158/3/2
f 158/3/2 152/3/2 159/3/2
f 156/3/2 157/3/2 160/3/2
f 160/3/2 157/3/2 161/3/2
f 158/2/2 159/2/2 162/2/2
f 162/2/2 159/2/2 163/2/2
f 162/3/2 163/3/2 164/3/2
f 164/3/2 163/3/2 165/3/2
f 160/2/2 161/2/2 168/2/2
f 168/2/2 161/2/2 169/2/2
f 164/2/2 165/2/2 170/2/2
f 170/2/2 165/2/2 171/2/2
f 166/4/2 167/4/2 174/4/2
f 174/4/2 167/4/2 175/4/2
f 172/4/2 173/4/2 176/4/2
f 176/4/2 173/4/2 177/4/2
f 178/4/2 179/4/2 180/4/2
f 180/4/2 179/4/2 181/4/2
f 180/4/2 181/4/2 183/4/2
f 183/4/2 181/4/2 184/4/2
f 182/1/2 183/1/2 186/1/2
f 186/1/2 183/1/2 187/1/2
f 184/1/2 185/1/2 188/1/2
f 188/1/2 185/1/2 189/1/2
f 190/3/2 191/3/2 192/3/2
f 192/3/2 191/3/2 193/3/2
f 192/2/2 193/2/2 194/2/2
f 194/2/2 193/2/2 195/2/2
f 194/3/2 195/3/2 196/3/2
f 196/3/2 195/3/2 197/3/2
f 196/2/2 197/2/2 198/2/2
f 198/2/2 197/2/2 199/2/2
f 200/4/2 201/4/2 206/4/2
f 206/4/2 201/4/2 207/4/2
f 202/5/2 203/5/2 208/5/2
f 208/5/2 203/5/2 209/5/2
f 204/4/2 205/4/2 210/4/2
f 210/4/2 205/4/2 211/4/2
f 207/5/2 208/5/2 212/5/2
f 212/5/2 208/5/2 213/5/2
f 209/5/2 210/5/2 214/5/2
f 214/5/2 210/5/2 215/5/2
f 216/1/2 217/1/2 218/1/2
f 218/1/2 217/1/2 219/1/2
f 220/5/2 221/5/2 226/5/2
f 221/4/2 222/4/2 227/4/2
f 226/5/2 221/5/2 227/5/2
f 227/4/2 222/4/2 228/4/2
f 223/4/2 224/4/2 229/4/2
f 224/5/2 225/5/2 230/5/2
f 229/4/2 224/4/2 230/4/2
f 230/5/2 225/5/2 231/5/2
f 227/4/2 228/4/2 233/4/2
f 233/4/2 228/4/2 234/4/2
f 229/4/2 230/4/2 235/4/2
f 235/4/2 230/4/2 236/4/2
f 232/4/2 233/4/2 238/4/2
f 238/4/2 233/4/2 239/4/2
f 236/4/2 237/4/2 240/4/2
f 240/4/2 237/4/2 241/4/2
f 242/4/2 243/4/2 244/4/2
f 244/4/2 243/4/2 245/4/2
f 248/4/3 247/4/3 246/4/3
f 249/4/3 247/4/3 248/4/3
f 254/5/3 251/5/3 250/5/3
f 255/5/3 251/5/3 254/5/3
f 256/4/3 253/4/3 252/4/3
f 257/4/3 253/4/3 256/4/3
f 258/4/3 255/4/3 254/4/3
f 258/4/3 256/4/3 255/4/3
f 259/4/3 256/4/3 258/4/3
f 260/4/3 256/4/3 259/4/3
f 264/4/3 262/4/3 261/4/3
f 264/4/3 263/4/3 262/4/3
f 265/4/3 263/4/3 264/4/3
f 266/4/3 263/4/3 265/4/3
f 268/5/3 265/5/3 264/5/3
f 269/5/3 265/5/3 268/5/3
f 270/4/3 267/4/3 266/4/3
f 271/4/3 267/4/3 270/4/3
f 274/4/3 273/4/3 272/4/3
f 275/4/3 273/4/3 274/4/3
f 283/5/3 276/5/3 275/5/3
f 284/5/3 276/5/3 283/5/3
f 287/3/3 278/3/3 277/3/3
f 288/2/3 279/2/3 278/2/3
f 288/3/3 278/3/3 287/3/3
f 289/3/3 280/3/3 279/3/3
f 289/2/3 279/2/3 288/2/3
f 290/2/3 281/2/3 280/2/3
f 290/3/3 280/3/3 289/3/3
f 291/2/3 281/2/3 290/2/3
f 292/5/3 283/5/3 282/5/3
f 293/5/3 283/5/3 292/5/3
f 295/1/3 286/1/3 285/1/3
f 296/1/3 286/1/3 295/1/3
f 298/5/3 294/5/3 293/5/3
f 299/5/3 294/5/3 298/5/3
f 300/4/3 298/4/3 297/4/3
f 301/4/3 298/4/3 300/4/3
f 304/4/3 303/4/3 302/4/3
f 305/4/3 303/4/3 304/4/3
f 312/2/3 307/2/3 306/2/3
f 313/3/3 308/3/3 307/3/3
f 313/2/3 307/2/3 312/2/3
f 314/3/3 308/3/3 313/3/3
f 315/3/3 308/3/3 314/3/3
f 316/2/3 309/2/3 308/2/3
f 316/3/3 308/3/3 315/3/3
f 317/2/3 309/2/3 316/2/3
f 320/1/3 311/1/3 310/1/3
f 321/1/3 311/1/3 320/1/3
f 327/4/3 319/4/3 318/4/3
f 327/4/3 320/4/3 319/4/3
f 328/4/3 320/4/3 327/4/3
f 329/4/3 320/4/3 328/4/3
f 331/3/3 323/3/3 322/3/3
f 332/2/3 324/2/3 323/2/3
f 332/3/3 323/3/3 331/3/3
f 333/3/3 325/3/3 324/3/3
f 333/2/3 324/2/3 332/2/3
f 334/2/3 326/2/3 325/2/3
f 334/3/3 325/3/3 333/3/3
f 335/2/3 326/2/3 334/2/3
f 336/1/3 330/1/3 329/1/3
f 337/1/3 330/1/3 336/1/3
f 340/4/3 339/4/3 338/4/3
f 341/4/3 339/4/3 340/4/3
f 344/4/3 343/4/3 342/4/3
f 345/4/3 343/4/3 344/4/3
f 347/5/3 346/5/3 345/5/3
f 348/5/3 346/5/3 347/5/3
f 353/1/3 350/1/3 349/1/3
f 354/1/3 350/1/3 353/1/3
f 356/5/3 352/5/3 351/5/3
f 357/5/3 352/5/3 356/5/3
f 358/4/3 356/4/3 355/4/3
f 359/4/3 356/4/3 358/4/3
f 362/4/3 361/4/3 360/4/3
f 363/4/3 361/4/3 362/4/3
f 366/4/3 365/4/3 364/4/3
f 367/4/3 365/4/3 366/4/3
f 368/4/4 369/4/4 370/4/4
f 370/4/4 369/4/4 371/4/4
f 372/4/4 373/4/4 374/4/4
f 374/4/4 373/4/4 375/4/4
f 376/4/4 377/4/4 378/4/4
f 378/4/4 377/4/4 379/4/4
f 379/5/4 380/5/4 381/5/4
f 381/5/4 380/5/4 382/5/4
f 383/1/4 384/1/4 387/1/4
f 387/1/4 384/1/4 388/1/4
f 385/5/4 386/5/4 390/5/4
f 390/5/4 386/5/4 391/5/4
f 389/4/4 390/4/4 392/4/4
f 392/4/4 390/4/4 393/4/4
f 394/4/4 395/4/4 396/4/4
f 396/4/4 395/4/4 397/4/4
f 398/2/4 399/2/4 404/2/4
f 399/3/4 400/3/4 405/3/4
f 404/2/4 399/2/4 405/2/4
f 405/3/4 400/3/4 406/3/4
f 406/3/4 400/3/4 407/3/4
f 400/2/4 401/2/4 408/2/4
f 407/3/4 400/3/4 408/3/4
f 408/2/4 401/2/4 409/2/4
f 402/1/4 403/1/4 412/1/4
f 412/1/4 403/1/4 413/1/4
f 410/4/4 411/4/4 420/4/4
f 411/4/4 412/4/4 420/4/4
f 420/4/4 412/4/4 421/4/4
f 421/4/4 412/4/4 422/4/4
f 414/3/4 415/3/4 424/3/4
f 415/2/4 416/2/4 425/2/4
f 424/3/4 415/3/4 425/3/4
f 416/3/4 417/3/4 426/3/4
f 425/2/4 416/2/4 426/2/4
f 418/2/4 419/2/4 427/2/4
f 426/3/4 417/3/4 427/3/4
f 417/2/4 418/2/4 427/2/4
f 427/2/4 419/2/4 428/2/4
f 422/1/4 423/1/4 429/1/4
f 429/1/4 423/1/4 430/1/4
f 431/4/4 432/4/4 433/4/4
f 433/4/4 432/4/4 434/4/4
f 435/4/4 436/4/4 437/4/4
f 437/4/4 436/4/4 438/4/4
f 438/5/4 439/5/4 446/5/4
f 446/5/4 439/5/4 447/5/4
f 440/3/4 441/3/4 450/3/4
f 441/2/4 442/2/4 451/2/4
f 450/3/4 441/3/4 451/3/4
f 442/3/4 443/3/4 452/3/4
f 451/2/4 442/2/4 452/2/4
f 443/2/4 444/2/4 453/2/4
f 452/3/4 443/3/4 453/3/4
f 453/2/4 444/2/4 454/2/4
f 445/5/4 446/5/4 455/5/4
f 455/5/4 446/5/4 456/5/4
f 448/1/4 449/1/4 458/1/4
f 458/1/4 449/1/4 459/1/4
f 456/5/4 457/5/4 461/5/4
f 461/5/4 457/5/4 462/5/4
f 460/4/4 461/4/4 463/4/4
f 463/4/4 461/4/4 464/4/4
f 465/5/4 466/5/4 469/5/4
f 469/5/4 466/5/4 470/5/4
f 467/4/4 468/4/4 471/4/4
f 471/4/4 468/4/4 472/4/4
f 469/4/4 470/4/4 473/4/4
f 470/4/4 471/4/4 473/4/4
f 473/4/4 471/4/4 474/4/4
f 474/4/4 471/4/4 475/4/4
f 476/4/4 477/4/4 479/4/4
f 477/4/4 478/4/4 479/4/4
f 479/4/4 478/4/4 480/4/4
f 480/4/4 478/4/4 481/4/4
f 479/5/4 480/5/4 483/5/4
f 483/5/4 480/5/4 484/5/4
f 481/4/4 482/4/4 485/4/4
f 485/4/4 482/4/4 486/4/4
f 487/4/4 488/4/4 489/4/4
f 489/4/4 488/4/4 490/4/4
f 494/3/5 492/3/5 491/3/5
f 495/3/5 492/3/5 494/3/5
f 497/2/5 494/2/5 493/2/5
f 498/3/5 496/3/5 495/3/5
f 498/2/5 494/2/5 497/2/5
f 498/3/5 495/3/5 494/3/5
f 499/3/5 496/3/5 498/3/5
f 500/3/5 496/3/5 499/3/5
f 501/3/5 499/3/5 498/3/5
f 502/3/5 499/3/5 501/3/5
f 507/4/5 504/4/5 503/4/5
f 508/4/5 504/4/5 507/4/5
f 511/5/5 506/5/5 505/5/5
f 512/4/5 507/4/5 506/4/5
f 512/5/5 506/5/5 511/5/5
f 512/4/5 508/4/5 507/4/5
f 512/4/5 509/4/5 508/4/5
f 513/4/5 509/4/5 512/4/5
f 514/4/5 509/4/5 513/4/5
f 515/5/5 510/5/5 509/5/5
f 515/4/5 509/4/5 514/4/5
f 516/5/5 510/5/5 515/5/5
f 518/4/5 512/4/5 511/4/5
f 519/5/5 513/5/5 512/5/5
f 519/4/5 512/4/5 518/4/5
f 520/5/5 513/5/5 519/5/5
f 521/5/5 515/5/5 514/5/5
f 522/4/5 516/4/5 515/4/5
f 522/5/5 515/5/5 521/5/5
f 523/4/5 516/4/5 522/4/5
f 525/4/5 518/4/5 517/4/5
f 525/4/5 519/4/5 518/4/5
f 526/4/5 519/4/5 525/4/5
f 527/4/5 519/4/5 526/4/5
f 530/4/5 523/4/5 522/4/5
f 530/4/5 524/4/5 523/4/5
f 531/4/5 524/4/5 530/4/5
f 532/4/5 524/4/5 531/4/5
f 533/4/5 527/4/5 526/4/5
f 534/5/5 528/5/5 527/5/5
f 534/4/5 527/4/5 533/4/5
f 535/5/5 528/5/5 534/5/5
f 536/5/5 530/5/5 529/5/5
f 537/4/5 531/4/5 530/4/5
f 537/5/5 530/5/5 536/5/5
f 538/4/5 531/4/5 537/4/5
f 539/5/5 534/5/5 533/5/5
f 540/4/5 536/4/5 535/4/5
f 540/5/5 534/5/5 539/5/5
f 540/4/5 535/4/5 534/4/5
f 540/4/5 537/4/5 536/4/5
f 541/4/5 537/4/5 540/4/5
f 542/4/5 537/4/5 541/4/5
f 543/5/5 538/5/5 537/5/5
f 543/4/5 537/4/5 542/4/5
f 544/5/5 538/5/5 543/5/5
f 545/4/5 542/4/5 541/4/5
f 546/4/5 542/4/5 545/4/5
f 551/4/5 548/4/5 547/4/5
f 552/4/5 548/4/5 551/4/5
f 553/4/5 550/4/5 549/4/5
f 554/4/5 550/4/5 553/4/5
f 559/4/5 556/4/5 555/4/5
f 560/4/5 556/4/5 559/4/5
f 561/4/5 558/4/5 557/4/5
f 562/4/5 558/4/5 561/4/5
f 566/1/5 564/1/5 563/1/5
f 567/1/5 564/1/5 566/1/5
f 569/1/5 566/1/5 565/1/5
f 570/1/5 566/1/5 569/1/5
f 571/1/5 568/1/5 567/1/5
f 572/1/5 568/1/5 571/1/5
f 573/1/5 571/1/5 570/1/5
f 574/1/5 571/1/5 573/1/5
f 575/4/6 576/4/6 579/4/6
f 579/4/6 576/4/6 580/4/6
f 577/5/6 578/5/6 583/5/6
f 583/5/6 578/5/6 584/5/6
f 579/4/6 580/4/6 585/4/6
f 585/4/6 580/4/6 586/4/6
f 581/5/6 582/5/6 587/5/6
f 587/5/6 582/5/6 588/5/6
f 589/4/6 590/4/6 595/4/6
f 590/4/6 591/4/6 595/4/6
f 595/4/6 591/4/6 596/4/6
f 596/4/6 591/4/6 597/4/6
f 592/4/6 593/4/6 598/4/6
f 593/4/6 594/4/6 598/4/6
f 598/4/6 594/4/6 599/4/6
f 599/4/6 594/4/6 600/4/6
f 601/5/6 602/5/6 607/5/6
f 607/5/6 602/5/6 608/5/6
f 603/4/6 604/4/6 609/4/6
f 609/4/6 604/4/6 610/4/6
f 605/5/6 606/5/6 611/5/6
f 611/5/6 606/5/6 612/5/6
f 609/4/6 610/4/6 613/4/6
f 613/4/6 610/4/6 614/4/6
f 615/4/6 616/4/6 620/4/6
f 620/4/6 616/4/6 621/4/6
f 617/4/6 618/4/6 622/4/6
f 622/4/6 618/4/6 623/4/6
f 619/4/6 620/4/6 625/4/6
f 625/4/6 620/4/6 626/4/6
f 621/5/6 622/5/6 627/5/6
f 627/5/6 622/5/6 628/5/6
f 623/4/6 624/4/6 629/4/6
f 629/4/6 624/4/6 630/4/6
f 626/5/6 627/5/6 632/5/6
f 632/5/6 627/5/6 633/5/6
f 628/5/6 629/5/6 634/5/6
f 634/5/6 629/5/6 635/5/6
f 631/4/6 632/4/6 637/4/6
f 637/4/6 632/4/6 638/4/6
f 633/5/6 634/5/6 639/5/6
f 639/5/6 634/5/6 640/5/6
f 635/4/6 636/4/6 641/4/6
f 641/4/6 636/4/6 642/4/6
f 638/4/6 639/4/6 643/4/6
f 643/4/6 639/4/6 644/4/6
f 640/4/6 641/4/6 645/4/6
f 645/4/6 641/4/6 646/4/6
f 647/4/6 648/4/6 651/4/6
f 651/4/6 648/4/6 652/4/6
f 649/4/6 650/4/6 655/4/6
f 655/4/6 650/4/6 656/4/6
f 652/5/6 653/5/6 657/5/6
f 657/5/6 653/5/6 658/5/6
f 654/5/6 655/5/6 659/5/6
f 659/5/6 655/5/6 660/5/6
f 661/5/6 662/5/6 666/5/6
f 666/5/6 662/5/6 667/5/6
f 663/5/6 664/5/6 668/5/6
f 668/5/6 664/5/6 669/5/6
f 665/4/6 666/4/6 671/4/6
f 671/4/6 666/4/6 672/4/6
f 669/4/6 670/4/6 673/4/6
f 673/4/6 670/4/6 674/4/6
f 675/4/6 676/4/6 677/4/6
f 677/4/6 676/4/6 678/4/6
f 679/1/6 680/1/6 682/1/6
f 682/1/6 680/1/6 683/1/6
f 681/1/6 682/1/6 685/1/6
f 685/1/6 682/1/6 686/1/6
f 683/1/6 684/1/6 687/1/6
f 687/1/6 684/1/6 688/1/6
f 686/1/6 687/1/6 689/1/6
f 689/1/6 687/1/6 690/1/6
