# MagicaVoxel @ Ephtracy

# group
o 

# material
mtllib assets01_copia03-3.mtl
usemtl palette

# normals
vn -1 0 0
vn 1 0 0
vn 0 0 1
vn 0 0 -1
vn 0 -1 0
vn 0 1 0

# texcoords
vt 0.0449219 0.5
vt 0.0527344 0.5
vt 0.0605469 0.5

# verts
v -4.9 0 4.3
v -4.9 0 4.1
v -4.9 0 3.7
v -4.9 0 3.5
v -4.9 1.8 4.3
v -4.9 1.8 4.1
v -4.9 1.8 3.7
v -4.9 1.8 3.5
v -4.8 0.1 4.4
v -4.8 0.1 4.3
v -4.8 0.1 4.1
v -4.8 0.1 3.8
v -4.8 0.1 3.7
v -4.8 0.1 3.5
v -4.8 0.1 3.4
v -4.8 0.2 4.1
v -4.8 0.2 3.9
v -4.8 0.2 3.8
v -4.8 0.2 3.7
v -4.8 0.2 3.5
v -4.8 0.2 3.4
v -4.8 0.3 4.4
v -4.8 0.3 4.3
v -4.8 0.3 4.1
v -4.8 0.3 3.9
v -4.8 0.3 3.7
v -4.8 0.3 3.5
v -4.8 0.3 3.4
v -4.8 0.4 4.4
v -4.8 0.4 4.3
v -4.8 0.4 4.1
v -4.8 0.4 4
v -4.8 0.4 3.9
v -4.8 0.4 3.8
v -4.8 0.4 3.7
v -4.8 0.4 3.5
v -4.8 0.4 3.4
v -4.8 0.5 3.8
v -4.8 0.5 3.7
v -4.8 0.6 4.4
v -4.8 0.6 4.3
v -4.8 0.6 4.1
v -4.8 0.6 4
v -4.8 0.6 3.9
v -4.8 0.6 3.7
v -4.8 0.6 3.5
v -4.8 0.6 3.4
v -4.8 0.7 4.4
v -4.8 0.7 4.3
v -4.8 0.7 4.1
v -4.8 0.7 3.9
v -4.8 0.7 3.7
v -4.8 0.7 3.5
v -4.8 0.7 3.4
v -4.8 0.8 4.4
v -4.8 0.8 4.3
v -4.8 0.8 4.1
v -4.8 0.8 3.9
v -4.8 0.8 3.5
v -4.8 0.8 3.4
v -4.8 0.9 4.4
v -4.8 0.9 4.3
v -4.8 0.9 4.1
v -4.8 0.9 3.7
v -4.8 0.9 3.5
v -4.8 0.9 3.4
v -4.8 1 4.4
v -4.8 1 4.3
v -4.8 1 4.1
v -4.8 1 3.7
v -4.8 1 3.5
v -4.8 1 3.4
v -4.8 1.1 3.9
v -4.8 1.1 3.7
v -4.8 1.2 4.4
v -4.8 1.2 4.3
v -4.8 1.2 4.1
v -4.8 1.2 3.9
v -4.8 1.2 3.7
v -4.8 1.2 3.5
v -4.8 1.2 3.4
v -4.8 1.3 4.4
v -4.8 1.3 4.3
v -4.8 1.3 4.1
v -4.8 1.3 3.7
v -4.8 1.3 3.5
v -4.8 1.3 3.4
v -4.8 1.4 4.4
v -4.8 1.4 4.3
v -4.8 1.4 4
v -4.8 1.4 3.8
v -4.8 1.4 3.5
v -4.8 1.4 3.4
v -4.8 1.5 4.4
v -4.8 1.5 4.3
v -4.8 1.5 4.1
v -4.8 1.5 4
v -4.8 1.5 3.8
v -4.8 1.5 3.7
v -4.8 1.5 3.5
v -4.8 1.5 3.4
v -4.8 1.6 4.4
v -4.8 1.6 4.3
v -4.8 1.6 4.1
v -4.8 1.6 3.8
v -4.8 1.6 3.7
v -4.8 1.6 3.5
v -4.8 1.6 3.4
v -4.8 1.7 3.8
v -4.8 1.7 3.7
v -4.8 1.7 3.5
v -4.8 1.7 3.4
v -4.8 1.8 4.4
v -4.8 1.8 4.3
v -4.8 1.8 4.1
v -4.8 1.8 3.7
v -4.8 1.8 3.5
v -4.8 1.8 3.4
v -4.8 0 4.3
v -4.8 0 4.1
v -4.8 0 3.7
v -4.8 0 3.5
v -4.8 0.1 4.3
v -4.8 0.1 4.1
v -4.8 0.1 3.7
v -4.8 0.1 3.6
v -4.8 0.1 3.5
v -4.8 0.3 4.3
v -4.8 0.3 4.1
v -4.8 0.3 3.7
v -4.8 0.3 3.5
v -4.8 0.4 4.3
v -4.8 0.4 4.1
v -4.8 0.4 3.7
v -4.8 0.4 3.6
v -4.8 0.4 3.5
v -4.8 0.6 4.3
v -4.8 0.6 4.1
v -4.8 0.6 3.7
v -4.8 0.6 3.5
v -4.8 0.7 4.3
v -4.8 0.7 4.1
v -4.8 0.7 3.7
v -4.8 0.7 3.5
v -4.8 0.9 4.3
v -4.8 0.9 4.1
v -4.8 0.9 3.7
v -4.8 0.9 3.6
v -4.8 0.9 3.5
v -4.8 1 4.3
v -4.8 1 4.1
v -4.8 1 3.7
v -4.8 1 3.6
v -4.8 1 3.5
v -4.8 1.2 4.3
v -4.8 1.2 4.2
v -4.8 1.2 4.1
v -4.8 1.2 3.7
v -4.8 1.2 3.6
v -4.8 1.2 3.5
v -4.8 1.3 4.3
v -4.8 1.3 4.2
v -4.8 1.3 4.1
v -4.8 1.3 3.7
v -4.8 1.3 3.6
v -4.8 1.3 3.5
v -4.8 1.5 4.3
v -4.8 1.5 4.1
v -4.8 1.5 3.7
v -4.8 1.5 3.5
v -4.8 1.6 4.3
v -4.8 1.6 4.1
v -4.8 1.6 3.7
v -4.8 1.6 3.6
v -4.8 1.6 3.5
v -4.7 0.1 4.4
v -4.7 0.1 4.3
v -4.7 0.1 3.8
v -4.7 0.1 3.6
v -4.7 0.1 3.4
v -4.7 0.2 4.1
v -4.7 0.2 3.9
v -4.7 0.2 3.8
v -4.7 0.2 3.6
v -4.7 0.2 3.5
v -4.7 0.2 3.4
v -4.7 0.3 4.4
v -4.7 0.3 4.3
v -4.7 0.3 4.1
v -4.7 0.3 3.9
v -4.7 0.3 3.5
v -4.7 0.3 3.4
v -4.7 0.4 4.4
v -4.7 0.4 4
v -4.7 0.4 3.9
v -4.7 0.4 3.8
v -4.7 0.4 3.6
v -4.7 0.4 3.4
v -4.7 0.5 4.3
v -4.7 0.5 4.1
v -4.7 0.5 3.8
v -4.7 0.5 3.6
v -4.7 0.6 4.4
v -4.7 0.6 4.3
v -4.7 0.6 4.1
v -4.7 0.6 4
v -4.7 0.6 3.9
v -4.7 0.6 3.4
v -4.7 0.7 4.4
v -4.7 0.7 4.3
v -4.7 0.7 4.1
v -4.7 0.7 3.9
v -4.7 0.7 3.4
v -4.7 0.8 4.4
v -4.7 0.8 4.3
v -4.7 0.8 4.1
v -4.7 0.8 3.9
v -4.7 0.8 3.6
v -4.7 0.8 3.4
v -4.7 0.9 4.4
v -4.7 0.9 3.6
v -4.7 0.9 3.4
v -4.7 1 4.4
v -4.7 1 4.3
v -4.7 1 4.1
v -4.7 1 3.6
v -4.7 1 3.5
v -4.7 1 3.4
v -4.7 1.1 4.2
v -4.7 1.1 4.1
v -4.7 1.1 3.9
v -4.7 1.1 3.7
v -4.7 1.2 4.4
v -4.7 1.2 4.3
v -4.7 1.2 4.2
v -4.7 1.2 3.9
v -4.7 1.2 3.7
v -4.7 1.2 3.6
v -4.7 1.2 3.5
v -4.7 1.2 3.4
v -4.7 1.3 4.4
v -4.7 1.3 4.2
v -4.7 1.3 4.1
v -4.7 1.3 3.6
v -4.7 1.3 3.4
v -4.7 1.4 4.4
v -4.7 1.4 4.3
v -4.7 1.4 4.2
v -4.7 1.4 4.1
v -4.7 1.4 4
v -4.7 1.4 3.8
v -4.7 1.4 3.6
v -4.7 1.4 3.4
v -4.7 1.5 4.4
v -4.7 1.5 4.3
v -4.7 1.5 4
v -4.7 1.5 3.8
v -4.7 1.5 3.4
v -4.7 1.6 4.4
v -4.7 1.6 3.8
v -4.7 1.6 3.6
v -4.7 1.6 3.4
v -4.7 1.7 4.3
v -4.7 1.7 4.1
v -4.7 1.7 3.8
v -4.7 1.7 3.6
v -4.7 1.7 3.5
v -4.7 1.7 3.4
v -4.7 1.8 4.4
v -4.7 1.8 4.3
v -4.7 1.8 4.1
v -4.7 1.8 3.5
v -4.7 1.8 3.4
v -4.8 0.1 4.4
v -4.8 0.3 4.4
v -4.8 0.4 4.4
v -4.8 0.6 4.4
v -4.8 0.7 4.4
v -4.8 0.8 4.4
v -4.8 0.9 4.4
v -4.8 1 4.4
v -4.8 1.2 4.4
v -4.8 1.3 4.4
v -4.8 1.4 4.4
v -4.8 1.5 4.4
v -4.8 1.6 4.4
v -4.8 1.8 4.4
v -4.7 0.1 4.4
v -4.7 0.3 4.4
v -4.7 0.4 4.4
v -4.7 0.6 4.4
v -4.7 0.7 4.4
v -4.7 0.8 4.4
v -4.7 0.9 4.4
v -4.7 1 4.4
v -4.7 1.2 4.4
v -4.7 1.3 4.4
v -4.7 1.4 4.4
v -4.7 1.5 4.4
v -4.7 1.6 4.4
v -4.7 1.8 4.4
v -4.9 0 4.3
v -4.9 1.8 4.3
v -4.8 0 4.3
v -4.8 0.1 4.3
v -4.8 0.3 4.3
v -4.8 0.4 4.3
v -4.8 0.6 4.3
v -4.8 0.7 4.3
v -4.8 0.8 4.3
v -4.8 0.9 4.3
v -4.8 1 4.3
v -4.8 1.2 4.3
v -4.8 1.3 4.3
v -4.8 1.4 4.3
v -4.8 1.5 4.3
v -4.8 1.6 4.3
v -4.8 1.8 4.3
v -4.9 0 3.7
v -4.9 1.8 3.7
v -4.8 0 3.7
v -4.8 0.1 3.7
v -4.8 0.2 3.7
v -4.8 0.3 3.7
v -4.8 0.4 3.7
v -4.8 0.5 3.7
v -4.8 0.6 3.7
v -4.8 0.7 3.7
v -4.8 0.9 3.7
v -4.8 1 3.7
v -4.8 1.1 3.7
v -4.8 1.2 3.7
v -4.8 1.3 3.7
v -4.8 1.5 3.7
v -4.8 1.6 3.7
v -4.8 1.7 3.7
v -4.8 1.8 3.7
v -4.9 0 4.1
v -4.9 1.8 4.1
v -4.8 0 4.1
v -4.8 0.1 4.1
v -4.8 0.2 4.1
v -4.8 0.3 4.1
v -4.8 0.4 4.1
v -4.8 0.6 4.1
v -4.8 0.7 4.1
v -4.8 0.8 4.1
v -4.8 0.9 4.1
v -4.8 1 4.1
v -4.8 1.2 4.1
v -4.8 1.3 4.1
v -4.8 1.5 4.1
v -4.8 1.6 4.1
v -4.8 1.8 4.1
v -4.9 0 3.5
v -4.9 1.8 3.5
v -4.8 0 3.5
v -4.8 0.1 3.5
v -4.8 0.2 3.5
v -4.8 0.3 3.5
v -4.8 0.4 3.5
v -4.8 0.6 3.5
v -4.8 0.7 3.5
v -4.8 0.8 3.5
v -4.8 0.9 3.5
v -4.8 1 3.5
v -4.8 1.2 3.5
v -4.8 1.3 3.5
v -4.8 1.4 3.5
v -4.8 1.5 3.5
v -4.8 1.6 3.5
v -4.8 1.7 3.5
v -4.8 1.8 3.5
v -4.8 0.1 3.4
v -4.8 0.2 3.4
v -4.8 0.3 3.4
v -4.8 0.4 3.4
v -4.8 0.6 3.4
v -4.8 0.7 3.4
v -4.8 0.8 3.4
v -4.8 0.9 3.4
v -4.8 1 3.4
v -4.8 1.2 3.4
v -4.8 1.3 3.4
v -4.8 1.4 3.4
v -4.8 1.5 3.4
v -4.8 1.6 3.4
v -4.8 1.7 3.4
v -4.8 1.8 3.4
v -4.7 0.1 3.4
v -4.7 0.2 3.4
v -4.7 0.3 3.4
v -4.7 0.4 3.4
v -4.7 0.6 3.4
v -4.7 0.7 3.4
v -4.7 0.8 3.4
v -4.7 0.9 3.4
v -4.7 1 3.4
v -4.7 1.2 3.4
v -4.7 1.3 3.4
v -4.7 1.4 3.4
v -4.7 1.5 3.4
v -4.7 1.6 3.4
v -4.7 1.7 3.4
v -4.7 1.8 3.4
v -4.9 0 4.3
v -4.8 0 4.3
v -4.9 0 4.1
v -4.8 0 4.1
v -4.9 0 3.7
v -4.8 0 3.7
v -4.9 0 3.5
v -4.8 0 3.5
v -4.8 0.1 4.4
v -4.7 0.1 4.4
v -4.8 0.1 4.3
v -4.7 0.1 4.3
v -4.8 0.1 4.1
v -4.8 0.1 3.8
v -4.7 0.1 3.8
v -4.8 0.1 3.7
v -4.8 0.1 3.6
v -4.7 0.1 3.6
v -4.8 0.1 3.5
v -4.8 0.1 3.4
v -4.7 0.1 3.4
v -4.8 0.4 4.4
v -4.7 0.4 4.4
v -4.8 0.4 4.3
v -4.8 0.4 4.1
v -4.8 0.4 4
v -4.7 0.4 4
v -4.8 0.4 3.9
v -4.7 0.4 3.9
v -4.8 0.4 3.8
v -4.7 0.4 3.8
v -4.8 0.4 3.7
v -4.8 0.4 3.6
v -4.7 0.4 3.6
v -4.8 0.4 3.5
v -4.8 0.4 3.4
v -4.7 0.4 3.4
v -4.8 0.7 4.4
v -4.7 0.7 4.4
v -4.8 0.7 4.3
v -4.7 0.7 4.3
v -4.8 0.7 4.1
v -4.7 0.7 4.1
v -4.8 0.7 3.9
v -4.7 0.7 3.9
v -4.8 0.7 3.7
v -4.8 0.7 3.5
v -4.8 0.7 3.4
v -4.7 0.7 3.4
v -4.8 1 4.4
v -4.7 1 4.4
v -4.8 1 4.3
v -4.7 1 4.3
v -4.8 1 4.1
v -4.7 1 4.1
v -4.8 1 3.7
v -4.8 1 3.6
v -4.7 1 3.6
v -4.8 1 3.5
v -4.7 1 3.5
v -4.8 1 3.4
v -4.7 1 3.4
v -4.8 1.3 4.4
v -4.7 1.3 4.4
v -4.8 1.3 4.3
v -4.8 1.3 4.2
v -4.7 1.3 4.2
v -4.8 1.3 4.1
v -4.7 1.3 4.1
v -4.8 1.3 3.7
v -4.8 1.3 3.6
v -4.7 1.3 3.6
v -4.8 1.3 3.5
v -4.8 1.3 3.4
v -4.7 1.3 3.4
v -4.8 1.6 4.4
v -4.7 1.6 4.4
v -4.8 1.6 4.3
v -4.8 1.6 4.1
v -4.8 1.6 3.8
v -4.7 1.6 3.8
v -4.8 1.6 3.7
v -4.8 1.6 3.6
v -4.7 1.6 3.6
v -4.8 1.6 3.5
v -4.8 1.6 3.4
v -4.7 1.6 3.4
v -4.8 0.3 4.4
v -4.7 0.3 4.4
v -4.8 0.3 4.3
v -4.7 0.3 4.3
v -4.8 0.3 4.1
v -4.7 0.3 4.1
v -4.8 0.3 3.9
v -4.7 0.3 3.9
v -4.8 0.3 3.7
v -4.8 0.3 3.5
v -4.7 0.3 3.5
v -4.8 0.3 3.4
v -4.7 0.3 3.4
v -4.8 0.6 4.4
v -4.7 0.6 4.4
v -4.8 0.6 4.3
v -4.7 0.6 4.3
v -4.8 0.6 4.1
v -4.7 0.6 4.1
v -4.8 0.6 4
v -4.7 0.6 4
v -4.8 0.6 3.9
v -4.7 0.6 3.9
v -4.8 0.6 3.7
v -4.8 0.6 3.5
v -4.8 0.6 3.4
v -4.7 0.6 3.4
v -4.8 0.9 4.4
v -4.7 0.9 4.4
v -4.8 0.9 4.3
v -4.8 0.9 4.1
v -4.8 0.9 3.7
v -4.8 0.9 3.6
v -4.7 0.9 3.6
v -4.8 0.9 3.5
v -4.8 0.9 3.4
v -4.7 0.9 3.4
v -4.8 1.2 4.4
v -4.7 1.2 4.4
v -4.8 1.2 4.3
v -4.7 1.2 4.3
v -4.8 1.2 4.2
v -4.7 1.2 4.2
v -4.8 1.2 4.1
v -4.8 1.2 3.9
v -4.7 1.2 3.9
v -4.8 1.2 3.7
v -4.7 1.2 3.7
v -4.8 1.2 3.6
v -4.7 1.2 3.6
v -4.8 1.2 3.5
v -4.7 1.2 3.5
v -4.8 1.2 3.4
v -4.7 1.2 3.4
v -4.8 1.5 4.4
v -4.7 1.5 4.4
v -4.8 1.5 4.3
v -4.7 1.5 4.3
v -4.8 1.5 4.1
v -4.8 1.5 4
v -4.7 1.5 4
v -4.8 1.5 3.8
v -4.7 1.5 3.8
v -4.8 1.5 3.7
v -4.8 1.5 3.5
v -4.8 1.5 3.4
v -4.7 1.5 3.4
v -4.8 1.8 4.4
v -4.7 1.8 4.4
v -4.9 1.8 4.3
v -4.8 1.8 4.3
v -4.7 1.8 4.3
v -4.9 1.8 4.1
v -4.8 1.8 4.1
v -4.7 1.8 4.1
v -4.9 1.8 3.7
v -4.8 1.8 3.7
v -4.9 1.8 3.5
v -4.8 1.8 3.5
v -4.7 1.8 3.5
v -4.8 1.8 3.4
v -4.7 1.8 3.4

# faces
f 5/1/1 2/1/1 1/1/1
f 6/1/1 2/1/1 5/1/1
f 7/1/1 4/1/1 3/1/1
f 8/1/1 4/1/1 7/1/1
f 16/2/1 12/2/1 11/2/1
f 17/2/1 12/2/1 16/2/1
f 18/3/1 13/3/1 12/3/1
f 18/2/1 12/2/1 17/2/1
f 19/3/1 13/3/1 18/3/1
f 20/2/1 15/2/1 14/2/1
f 21/2/1 15/2/1 20/2/1
f 22/3/1 10/3/1 9/3/1
f 23/3/1 10/3/1 22/3/1
f 24/3/1 17/3/1 16/3/1
f 25/2/1 19/2/1 18/2/1
f 25/3/1 17/3/1 24/3/1
f 25/2/1 18/2/1 17/2/1
f 26/2/1 19/2/1 25/2/1
f 27/3/1 21/3/1 20/3/1
f 28/3/1 21/3/1 27/3/1
f 38/2/1 34/2/1 33/2/1
f 38/3/1 35/3/1 34/3/1
f 39/3/1 35/3/1 38/3/1
f 40/2/1 30/2/1 29/2/1
f 41/2/1 30/2/1 40/2/1
f 42/2/1 32/2/1 31/2/1
f 43/3/1 33/3/1 32/3/1
f 43/2/1 32/2/1 42/2/1
f 44/2/1 38/2/1 33/2/1
f 44/3/1 33/3/1 43/3/1
f 44/2/1 39/2/1 38/2/1
f 45/2/1 39/2/1 44/2/1
f 46/2/1 37/2/1 36/2/1
f 47/2/1 37/2/1 46/2/1
f 55/3/1 49/3/1 48/3/1
f 56/3/1 49/3/1 55/3/1
f 57/3/1 51/3/1 50/3/1
f 58/2/1 52/2/1 51/2/1
f 58/3/1 51/3/1 57/3/1
f 59/2/1 54/2/1 53/2/1
f 60/2/1 54/2/1 59/2/1
f 61/2/1 56/2/1 55/2/1
f 62/2/1 56/2/1 61/2/1
f 63/2/1 58/2/1 57/2/1
f 64/2/1 52/2/1 58/2/1
f 64/2/1 58/2/1 63/2/1
f 65/3/1 60/3/1 59/3/1
f 66/3/1 60/3/1 65/3/1
f 73/2/1 70/2/1 69/2/1
f 74/2/1 70/2/1 73/2/1
f 75/2/1 68/2/1 67/2/1
f 76/2/1 68/2/1 75/2/1
f 77/2/1 73/2/1 69/2/1
f 78/3/1 74/3/1 73/3/1
f 78/2/1 73/2/1 77/2/1
f 79/3/1 74/3/1 78/3/1
f 80/2/1 72/2/1 71/2/1
f 81/2/1 72/2/1 80/2/1
f 88/2/1 83/2/1 82/2/1
f 89/2/1 83/2/1 88/2/1
f 90/2/1 85/2/1 84/2/1
f 91/2/1 85/2/1 90/2/1
f 92/3/1 87/3/1 86/3/1
f 93/3/1 87/3/1 92/3/1
f 94/3/1 89/3/1 88/3/1
f 95/3/1 89/3/1 94/3/1
f 96/2/1 90/2/1 84/2/1
f 97/3/1 91/3/1 90/3/1
f 97/2/1 90/2/1 96/2/1
f 98/2/1 85/2/1 91/2/1
f 98/3/1 91/3/1 97/3/1
f 99/2/1 85/2/1 98/2/1
f 100/2/1 93/2/1 92/2/1
f 101/2/1 93/2/1 100/2/1
f 109/2/1 105/2/1 104/2/1
f 109/3/1 106/3/1 105/3/1
f 110/3/1 106/3/1 109/3/1
f 111/2/1 108/2/1 107/2/1
f 112/2/1 108/2/1 111/2/1
f 113/2/1 103/2/1 102/2/1
f 114/2/1 103/2/1 113/2/1
f 115/2/1 110/2/1 109/2/1
f 115/2/1 109/2/1 104/2/1
f 116/2/1 110/2/1 115/2/1
f 117/3/1 112/3/1 111/3/1
f 118/3/1 112/3/1 117/3/1
f 119/1/2 120/1/2 123/1/2
f 123/1/2 120/1/2 124/1/2
f 121/1/2 122/1/2 125/1/2
f 125/1/2 122/1/2 126/1/2
f 126/1/2 122/1/2 127/1/2
f 128/1/2 129/1/2 132/1/2
f 132/1/2 129/1/2 133/1/2
f 130/1/2 131/1/2 134/1/2
f 134/1/2 131/1/2 135/1/2
f 135/1/2 131/1/2 136/1/2
f 137/1/2 138/1/2 141/1/2
f 141/1/2 138/1/2 142/1/2
f 139/1/2 140/1/2 143/1/2
f 143/1/2 140/1/2 144/1/2
f 145/1/2 146/1/2 150/1/2
f 150/1/2 146/1/2 151/1/2
f 148/1/2 149/1/2 152/1/2
f 147/1/2 148/1/2 152/1/2
f 152/1/2 149/1/2 153/1/2
f 153/1/2 149/1/2 154/1/2
f 155/1/2 156/1/2 161/1/2
f 156/1/2 157/1/2 161/1/2
f 161/1/2 157/1/2 162/1/2
f 162/1/2 157/1/2 163/1/2
f 159/1/2 160/1/2 164/1/2
f 158/1/2 159/1/2 164/1/2
f 164/1/2 160/1/2 165/1/2
f 165/1/2 160/1/2 166/1/2
f 167/1/2 168/1/2 171/1/2
f 171/1/2 168/1/2 172/1/2
f 169/1/2 170/1/2 173/1/2
f 173/1/2 170/1/2 174/1/2
f 174/1/2 170/1/2 175/1/2
f 177/2/2 178/2/2 181/2/2
f 181/2/2 178/2/2 182/2/2
f 178/3/2 179/3/2 183/3/2
f 182/2/2 178/2/2 183/2/2
f 179/2/2 180/2/2 184/2/2
f 183/3/2 179/3/2 184/3/2
f 184/2/2 180/2/2 185/2/2
f 185/2/2 180/2/2 186/2/2
f 176/3/2 177/3/2 187/3/2
f 177/2/2 181/2/2 188/2/2
f 187/3/2 177/3/2 188/3/2
f 181/3/2 182/3/2 189/3/2
f 188/2/2 181/2/2 189/2/2
f 182/2/2 183/2/2 190/2/2
f 189/3/2 182/3/2 190/3/2
f 183/2/2 184/2/2 190/2/2
f 184/2/2 185/2/2 190/2/2
f 185/3/2 186/3/2 191/3/2
f 190/2/2 185/2/2 191/2/2
f 191/3/2 186/3/2 192/3/2
f 193/2/2 194/2/2 199/2/2
f 199/2/2 194/2/2 200/2/2
f 195/2/2 196/2/2 201/2/2
f 196/3/2 197/3/2 201/3/2
f 197/2/2 198/2/2 202/2/2
f 201/3/2 197/3/2 202/3/2
f 193/2/2 199/2/2 203/2/2
f 199/3/2 200/3/2 204/3/2
f 203/2/2 199/2/2 204/2/2
f 200/2/2 194/2/2 205/2/2
f 204/3/2 200/3/2 205/3/2
f 194/3/2 195/3/2 206/3/2
f 205/2/2 194/2/2 206/2/2
f 195/2/2 201/2/2 207/2/2
f 206/3/2 195/3/2 207/3/2
f 201/2/2 202/2/2 207/2/2
f 202/2/2 198/2/2 208/2/2
f 207/2/2 202/2/2 208/2/2
f 209/3/2 210/3/2 214/3/2
f 210/2/2 211/2/2 215/2/2
f 214/3/2 210/3/2 215/3/2
f 211/3/2 212/3/2 216/3/2
f 215/2/2 211/2/2 216/2/2
f 212/2/2 213/2/2 217/2/2
f 216/3/2 212/3/2 217/3/2
f 217/2/2 213/2/2 218/2/2
f 218/2/2 213/2/2 219/2/2
f 215/2/2 216/2/2 220/2/2
f 214/2/2 215/2/2 220/2/2
f 216/2/2 217/2/2 220/2/2
f 217/2/2 218/2/2 220/2/2
f 218/3/2 219/3/2 221/3/2
f 220/2/2 218/2/2 221/2/2
f 221/3/2 219/3/2 222/3/2
f 224/3/2 225/3/2 229/3/2
f 225/2/2 226/2/2 230/2/2
f 229/3/2 225/3/2 230/3/2
f 230/2/2 226/2/2 231/2/2
f 231/2/2 226/2/2 232/2/2
f 223/2/2 224/2/2 233/2/2
f 224/3/2 229/3/2 234/3/2
f 233/2/2 224/2/2 234/2/2
f 229/2/2 230/2/2 235/2/2
f 234/3/2 229/3/2 235/3/2
f 230/2/2 231/2/2 235/2/2
f 231/3/2 232/3/2 236/3/2
f 235/2/2 231/2/2 236/2/2
f 232/2/2 226/2/2 237/2/2
f 236/3/2 232/3/2 237/3/2
f 226/3/2 227/3/2 238/3/2
f 237/2/2 226/2/2 238/2/2
f 227/2/2 228/2/2 239/2/2
f 238/3/2 227/3/2 239/3/2
f 239/2/2 228/2/2 240/2/2
f 241/2/2 242/2/2 246/2/2
f 246/2/2 242/2/2 247/2/2
f 242/3/2 243/3/2 248/3/2
f 247/2/2 242/2/2 248/2/2
f 243/2/2 244/2/2 249/2/2
f 248/3/2 243/3/2 249/3/2
f 249/2/2 244/2/2 250/2/2
f 250/2/2 244/2/2 251/2/2
f 244/3/2 245/3/2 252/3/2
f 251/2/2 244/2/2 252/2/2
f 252/3/2 245/3/2 253/3/2
f 246/3/2 247/3/2 254/3/2
f 247/2/2 248/2/2 255/2/2
f 254/3/2 247/3/2 255/3/2
f 248/2/2 249/2/2 255/2/2
f 249/2/2 250/2/2 255/2/2
f 250/3/2 251/3/2 256/3/2
f 255/2/2 250/2/2 256/2/2
f 252/2/2 253/2/2 257/2/2
f 256/3/2 251/3/2 257/3/2
f 251/2/2 252/2/2 257/2/2
f 257/2/2 253/2/2 258/2/2
f 259/2/2 260/2/2 263/2/2
f 263/2/2 260/2/2 264/2/2
f 260/3/2 261/3/2 265/3/2
f 264/2/2 260/2/2 265/2/2
f 261/2/2 262/2/2 266/2/2
f 265/3/2 261/3/2 266/3/2
f 266/2/2 262/2/2 267/2/2
f 267/2/2 262/2/2 268/2/2
f 259/2/2 263/2/2 269/2/2
f 263/3/2 264/3/2 270/3/2
f 269/2/2 263/2/2 270/2/2
f 264/2/2 265/2/2 271/2/2
f 270/3/2 264/3/2 271/3/2
f 265/2/2 266/2/2 271/2/2
f 266/2/2 267/2/2 271/2/2
f 267/3/2 268/3/2 272/3/2
f 271/2/2 267/2/2 272/2/2
f 272/3/2 268/3/2 273/3/2
f 288/3/3 275/3/3 274/3/3
f 289/3/3 275/3/3 288/3/3
f 290/2/3 277/2/3 276/2/3
f 291/2/3 277/2/3 290/2/3
f 292/3/3 279/3/3 278/3/3
f 293/2/3 280/2/3 279/2/3
f 293/3/3 279/3/3 292/3/3
f 294/2/3 280/2/3 293/2/3
f 295/2/3 282/2/3 281/2/3
f 296/2/3 282/2/3 295/2/3
f 297/2/3 284/2/3 283/2/3
f 298/3/3 285/3/3 284/3/3
f 298/2/3 284/2/3 297/2/3
f 299/3/3 285/3/3 298/3/3
f 300/2/3 287/2/3 286/2/3
f 301/2/3 287/2/3 300/2/3
f 304/1/3 303/1/3 302/1/3
f 305/1/3 303/1/3 304/1/3
f 306/1/3 303/1/3 305/1/3
f 307/1/3 303/1/3 306/1/3
f 308/1/3 303/1/3 307/1/3
f 309/1/3 303/1/3 308/1/3
f 310/1/3 303/1/3 309/1/3
f 311/1/3 303/1/3 310/1/3
f 312/1/3 303/1/3 311/1/3
f 313/1/3 303/1/3 312/1/3
f 314/1/3 303/1/3 313/1/3
f 315/1/3 303/1/3 314/1/3
f 316/1/3 303/1/3 315/1/3
f 317/1/3 303/1/3 316/1/3
f 318/1/3 303/1/3 317/1/3
f 321/1/3 320/1/3 319/1/3
f 322/1/3 320/1/3 321/1/3
f 323/1/3 320/1/3 322/1/3
f 324/1/3 320/1/3 323/1/3
f 325/1/3 320/1/3 324/1/3
f 326/1/3 320/1/3 325/1/3
f 327/1/3 320/1/3 326/1/3
f 328/1/3 320/1/3 327/1/3
f 329/1/3 320/1/3 328/1/3
f 330/1/3 320/1/3 329/1/3
f 331/1/3 320/1/3 330/1/3
f 332/1/3 320/1/3 331/1/3
f 333/1/3 320/1/3 332/1/3
f 334/1/3 320/1/3 333/1/3
f 335/1/3 320/1/3 334/1/3
f 336/1/3 320/1/3 335/1/3
f 337/1/3 320/1/3 336/1/3
f 338/1/4 339/1/4 340/1/4
f 340/1/4 339/1/4 341/1/4
f 341/1/4 339/1/4 342/1/4
f 342/1/4 339/1/4 343/1/4
f 343/1/4 339/1/4 344/1/4
f 344/1/4 339/1/4 345/1/4
f 345/1/4 339/1/4 346/1/4
f 346/1/4 339/1/4 347/1/4
f 347/1/4 339/1/4 348/1/4
f 348/1/4 339/1/4 349/1/4
f 349/1/4 339/1/4 350/1/4
f 350/1/4 339/1/4 351/1/4
f 351/1/4 339/1/4 352/1/4
f 352/1/4 339/1/4 353/1/4
f 353/1/4 339/1/4 354/1/4
f 355/1/4 356/1/4 357/1/4
f 357/1/4 356/1/4 358/1/4
f 358/1/4 356/1/4 359/1/4
f 359/1/4 356/1/4 360/1/4
f 360/1/4 356/1/4 361/1/4
f 361/1/4 356/1/4 362/1/4
f 362/1/4 356/1/4 363/1/4
f 363/1/4 356/1/4 364/1/4
f 364/1/4 356/1/4 365/1/4
f 365/1/4 356/1/4 366/1/4
f 366/1/4 356/1/4 367/1/4
f 367/1/4 356/1/4 368/1/4
f 368/1/4 356/1/4 369/1/4
f 369/1/4 356/1/4 370/1/4
f 370/1/4 356/1/4 371/1/4
f 371/1/4 356/1/4 372/1/4
f 372/1/4 356/1/4 373/1/4
f 374/2/4 375/2/4 390/2/4
f 375/3/4 376/3/4 391/3/4
f 390/2/4 375/2/4 391/2/4
f 391/3/4 376/3/4 392/3/4
f 377/2/4 378/2/4 393/2/4
f 393/2/4 378/2/4 394/2/4
f 379/2/4 380/2/4 395/2/4
f 380/3/4 381/3/4 396/3/4
f 395/2/4 380/2/4 396/2/4
f 396/3/4 381/3/4 397/3/4
f 382/2/4 383/2/4 398/2/4
f 398/2/4 383/2/4 399/2/4
f 384/3/4 385/3/4 400/3/4
f 385/2/4 386/2/4 401/2/4
f 400/3/4 385/3/4 401/3/4
f 401/2/4 386/2/4 402/2/4
f 387/2/4 388/2/4 403/2/4
f 388/3/4 389/3/4 404/3/4
f 403/2/4 388/2/4 404/2/4
f 404/3/4 389/3/4 405/3/4
f 408/1/5 407/1/5 406/1/5
f 409/1/5 407/1/5 408/1/5
f 412/1/5 411/1/5 410/1/5
f 413/1/5 411/1/5 412/1/5
f 416/3/5 415/3/5 414/3/5
f 417/3/5 415/3/5 416/3/5
f 418/2/5 417/2/5 416/2/5
f 419/2/5 417/2/5 418/2/5
f 420/2/5 417/2/5 419/2/5
f 421/3/5 420/3/5 419/3/5
f 422/3/5 420/3/5 421/3/5
f 423/3/5 420/3/5 422/3/5
f 424/2/5 423/2/5 422/2/5
f 425/2/5 423/2/5 424/2/5
f 426/2/5 423/2/5 425/2/5
f 429/2/5 428/2/5 427/2/5
f 430/2/5 428/2/5 429/2/5
f 431/2/5 428/2/5 430/2/5
f 432/2/5 428/2/5 431/2/5
f 433/3/5 432/3/5 431/3/5
f 434/3/5 432/3/5 433/3/5
f 435/2/5 434/2/5 433/2/5
f 436/2/5 434/2/5 435/2/5
f 437/3/5 436/3/5 435/3/5
f 438/3/5 436/3/5 437/3/5
f 439/3/5 436/3/5 438/3/5
f 440/2/5 439/2/5 438/2/5
f 441/2/5 439/2/5 440/2/5
f 442/2/5 439/2/5 441/2/5
f 445/3/5 444/3/5 443/3/5
f 446/3/5 444/3/5 445/3/5
f 447/2/5 446/2/5 445/2/5
f 448/2/5 446/2/5 447/2/5
f 449/3/5 448/3/5 447/3/5
f 450/3/5 448/3/5 449/3/5
f 451/2/5 450/2/5 449/2/5
f 452/2/5 450/2/5 451/2/5
f 453/2/5 450/2/5 452/2/5
f 454/2/5 450/2/5 453/2/5
f 457/2/5 456/2/5 455/2/5
f 458/2/5 456/2/5 457/2/5
f 459/3/5 458/3/5 457/3/5
f 460/3/5 458/3/5 459/3/5
f 461/2/5 460/2/5 459/2/5
f 462/2/5 460/2/5 461/2/5
f 463/2/5 460/2/5 462/2/5
f 464/3/5 463/3/5 462/3/5
f 465/3/5 463/3/5 464/3/5
f 466/2/5 465/2/5 464/2/5
f 467/2/5 465/2/5 466/2/5
f 470/2/5 469/2/5 468/2/5
f 471/2/5 469/2/5 470/2/5
f 472/2/5 469/2/5 471/2/5
f 473/3/5 472/3/5 471/3/5
f 474/3/5 472/3/5 473/3/5
f 475/2/5 474/2/5 473/2/5
f 476/2/5 474/2/5 475/2/5
f 477/2/5 474/2/5 476/2/5
f 478/3/5 477/3/5 476/3/5
f 479/3/5 477/3/5 478/3/5
f 480/3/5 477/3/5 479/3/5
f 483/2/5 482/2/5 481/2/5
f 484/2/5 482/2/5 483/2/5
f 485/2/5 482/2/5 484/2/5
f 486/2/5 482/2/5 485/2/5
f 487/3/5 486/3/5 485/3/5
f 488/3/5 486/3/5 487/3/5
f 489/3/5 486/3/5 488/3/5
f 490/2/5 489/2/5 488/2/5
f 491/2/5 489/2/5 490/2/5
f 492/2/5 489/2/5 491/2/5
f 493/3/6 494/3/6 495/3/6
f 495/3/6 494/3/6 496/3/6
f 495/2/6 496/2/6 497/2/6
f 497/2/6 496/2/6 498/2/6
f 497/3/6 498/3/6 499/3/6
f 499/3/6 498/3/6 500/3/6
f 499/2/6 500/2/6 501/2/6
f 501/2/6 500/2/6 502/2/6
f 502/2/6 500/2/6 503/2/6
f 502/3/6 503/3/6 504/3/6
f 504/3/6 503/3/6 505/3/6
f 506/2/6 507/2/6 508/2/6
f 508/2/6 507/2/6 509/2/6
f 508/3/6 509/3/6 510/3/6
f 510/3/6 509/3/6 511/3/6
f 510/2/6 511/2/6 512/2/6
f 512/2/6 511/2/6 513/2/6
f 512/3/6 513/3/6 514/3/6
f 514/3/6 513/3/6 515/3/6
f 514/2/6 515/2/6 516/2/6
f 516/2/6 515/2/6 517/2/6
f 517/2/6 515/2/6 518/2/6
f 518/2/6 515/2/6 519/2/6
f 520/2/6 521/2/6 522/2/6
f 522/2/6 521/2/6 523/2/6
f 523/2/6 521/2/6 524/2/6
f 524/2/6 521/2/6 525/2/6
f 525/2/6 521/2/6 526/2/6
f 525/3/6 526/3/6 527/3/6
f 527/3/6 526/3/6 528/3/6
f 528/3/6 526/3/6 529/3/6
f 530/2/6 531/2/6 532/2/6
f 532/2/6 531/2/6 533/2/6
f 532/3/6 533/3/6 534/3/6
f 534/3/6 533/3/6 535/3/6
f 534/2/6 535/2/6 536/2/6
f 536/2/6 535/2/6 537/2/6
f 537/2/6 535/2/6 538/2/6
f 537/3/6 538/3/6 539/3/6
f 539/3/6 538/3/6 540/3/6
f 539/2/6 540/2/6 541/2/6
f 541/2/6 540/2/6 542/2/6
f 541/3/6 542/3/6 543/3/6
f 543/3/6 542/3/6 544/3/6
f 543/2/6 544/2/6 545/2/6
f 545/2/6 544/2/6 546/2/6
f 547/3/6 548/3/6 549/3/6
f 549/3/6 548/3/6 550/3/6
f 549/2/6 550/2/6 551/2/6
f 551/2/6 550/2/6 552/2/6
f 552/2/6 550/2/6 553/2/6
f 552/3/6 553/3/6 554/3/6
f 554/3/6 553/3/6 555/3/6
f 554/2/6 555/2/6 556/2/6
f 556/2/6 555/2/6 557/2/6
f 557/2/6 555/2/6 558/2/6
f 558/2/6 555/2/6 559/2/6
f 560/2/6 561/2/6 563/2/6
f 563/2/6 561/2/6 564/2/6
f 562/1/6 563/1/6 565/1/6
f 563/3/6 564/3/6 566/3/6
f 565/1/6 563/1/6 566/1/6
f 566/3/6 564/3/6 567/3/6
f 566/2/6 567/2/6 569/2/6
f 568/1/6 569/1/6 570/1/6
f 569/2/6 567/2/6 571/2/6
f 570/1/6 569/1/6 571/1/6
f 571/2/6 567/2/6 572/2/6
f 571/3/6 572/3/6 573/3/6
f 573/3/6 572/3/6 574/3/6
