# MagicaVoxel @ Ephtracy

# group
o 

# material
mtllib puente_medio.mtl
usemtl palette

# normals
vn -1 0 0
vn 1 0 0
vn 0 0 1
vn 0 0 -1
vn 0 -1 0
vn 0 1 0

# texcoords
vt 0.158203 0.5
vt 0.162109 0.5
vt 0.291016 0.5
vt 0.294922 0.5

# verts
v -1 1.7 2
v -1 1.7 -2
v -1 1.9 2
v -1 1.9 -2
v -1 3.2 1.9
v -1 3.2 1.8
v -1 3.2 -1.8
v -1 3.2 -1.9
v -1 3.3 1.9
v -1 3.3 1.8
v -1 3.3 -1.8
v -1 3.3 -1.9
v -0.3 3.1 1.9
v -0.3 3.1 1.8
v -0.3 3.1 -1.8
v -0.3 3.1 -1.9
v -0.3 3.2 1.9
v -0.3 3.2 1.8
v -0.3 3.2 -1.8
v -0.3 3.2 -1.9
v 0.4 3.2 1.9
v 0.4 3.2 1.8
v 0.4 3.2 -1.8
v 0.4 3.2 -1.9
v 0.4 3.3 1.9
v 0.4 3.3 1.8
v 0.4 3.3 -1.8
v 0.4 3.3 -1.9
v -0.3 3.2 1.9
v -0.3 3.2 1.8
v -0.3 3.2 -1.8
v -0.3 3.2 -1.9
v -0.3 3.3 1.9
v -0.3 3.3 1.8
v -0.3 3.3 -1.8
v -0.3 3.3 -1.9
v 0.4 3.1 1.9
v 0.4 3.1 1.8
v 0.4 3.1 -1.8
v 0.4 3.1 -1.9
v 0.4 3.2 1.9
v 0.4 3.2 1.8
v 0.4 3.2 -1.8
v 0.4 3.2 -1.9
v 1.1 1.7 2
v 1.1 1.7 -2
v 1.1 1.9 2
v 1.1 1.9 -2
v 1.1 3.2 1.9
v 1.1 3.2 1.8
v 1.1 3.2 -1.8
v 1.1 3.2 -1.9
v 1.1 3.3 1.9
v 1.1 3.3 1.8
v 1.1 3.3 -1.8
v 1.1 3.3 -1.9
v -1 1.7 2
v -1 1.9 2
v -0.7 1.7 2
v -0.7 1.9 2
v -0.4 1.7 2
v -0.4 1.9 2
v -0.0999999 1.7 2
v -0.0999999 1.9 2
v 0.2 1.7 2
v 0.2 1.9 2
v 0.5 1.7 2
v 0.5 1.9 2
v 0.8 1.7 2
v 0.8 1.9 2
v 1.1 1.7 2
v 1.1 1.9 2
v -1 3.2 1.9
v -1 3.3 1.9
v -0.9 3.2 1.9
v -0.9 3.3 1.9
v -0.6 3.2 1.9
v -0.6 3.3 1.9
v -0.4 3.2 1.9
v -0.4 3.3 1.9
v -0.3 3.1 1.9
v -0.3 3.2 1.9
v -0.3 3.3 1.9
v -0.2 3.1 1.9
v -0.2 3.2 1.9
v 1.19209e-007 3.1 1.9
v 1.19209e-007 3.2 1.9
v 0.2 3.1 1.9
v 0.2 3.2 1.9
v 0.4 3.1 1.9
v 0.4 3.2 1.9
v 0.4 3.3 1.9
v 0.6 3.2 1.9
v 0.6 3.3 1.9
v 0.8 3.2 1.9
v 0.8 3.3 1.9
v 1 3.2 1.9
v 1 3.3 1.9
v 1.1 3.2 1.9
v 1.1 3.3 1.9
v -1 3.2 -1.8
v -1 3.3 -1.8
v -0.9 3.2 -1.8
v -0.9 3.3 -1.8
v -0.6 3.2 -1.8
v -0.6 3.3 -1.8
v -0.4 3.2 -1.8
v -0.4 3.3 -1.8
v -0.3 3.1 -1.8
v -0.3 3.2 -1.8
v -0.3 3.3 -1.8
v -0.2 3.1 -1.8
v -0.2 3.2 -1.8
v 1.19209e-007 3.1 -1.8
v 1.19209e-007 3.2 -1.8
v 0.2 3.1 -1.8
v 0.2 3.2 -1.8
v 0.4 3.1 -1.8
v 0.4 3.2 -1.8
v 0.4 3.3 -1.8
v 0.6 3.2 -1.8
v 0.6 3.3 -1.8
v 0.8 3.2 -1.8
v 0.8 3.3 -1.8
v 1 3.2 -1.8
v 1 3.3 -1.8
v 1.1 3.2 -1.8
v 1.1 3.3 -1.8
v -1 3.2 1.8
v -1 3.3 1.8
v -0.9 3.2 1.8
v -0.9 3.3 1.8
v -0.6 3.2 1.8
v -0.6 3.3 1.8
v -0.4 3.2 1.8
v -0.4 3.3 1.8
v -0.3 3.1 1.8
v -0.3 3.2 1.8
v -0.3 3.3 1.8
v -0.2 3.1 1.8
v -0.2 3.2 1.8
v 1.19209e-007 3.1 1.8
v 1.19209e-007 3.2 1.8
v 0.2 3.1 1.8
v 0.2 3.2 1.8
v 0.4 3.1 1.8
v 0.4 3.2 1.8
v 0.4 3.3 1.8
v 0.6 3.2 1.8
v 0.6 3.3 1.8
v 0.8 3.2 1.8
v 0.8 3.3 1.8
v 1 3.2 1.8
v 1 3.3 1.8
v 1.1 3.2 1.8
v 1.1 3.3 1.8
v -1 3.2 -1.9
v -1 3.3 -1.9
v -0.9 3.2 -1.9
v -0.9 3.3 -1.9
v -0.6 3.2 -1.9
v -0.6 3.3 -1.9
v -0.4 3.2 -1.9
v -0.4 3.3 -1.9
v -0.3 3.1 -1.9
v -0.3 3.2 -1.9
v -0.3 3.3 -1.9
v -0.2 3.1 -1.9
v -0.2 3.2 -1.9
v 1.19209e-007 3.1 -1.9
v 1.19209e-007 3.2 -1.9
v 0.2 3.1 -1.9
v 0.2 3.2 -1.9
v 0.4 3.1 -1.9
v 0.4 3.2 -1.9
v 0.4 3.3 -1.9
v 0.6 3.2 -1.9
v 0.6 3.3 -1.9
v 0.8 3.2 -1.9
v 0.8 3.3 -1.9
v 1 3.2 -1.9
v 1 3.3 -1.9
v 1.1 3.2 -1.9
v 1.1 3.3 -1.9
v -1 1.7 -2
v -1 1.9 -2
v -0.7 1.7 -2
v -0.7 1.9 -2
v -0.4 1.7 -2
v -0.4 1.9 -2
v -0.0999999 1.7 -2
v -0.0999999 1.9 -2
v 0.2 1.7 -2
v 0.2 1.9 -2
v 0.5 1.7 -2
v 0.5 1.9 -2
v 0.8 1.7 -2
v 0.8 1.9 -2
v 1.1 1.7 -2
v 1.1 1.9 -2
v -1 1.7 2
v -0.7 1.7 2
v -0.4 1.7 2
v -0.0999999 1.7 2
v 0.2 1.7 2
v 0.5 1.7 2
v 0.8 1.7 2
v 1.1 1.7 2
v -1 1.7 -2
v -0.7 1.7 -2
v -0.4 1.7 -2
v -0.0999999 1.7 -2
v 0.2 1.7 -2
v 0.5 1.7 -2
v 0.8 1.7 -2
v 1.1 1.7 -2
v -0.3 3.1 1.9
v -0.2 3.1 1.9
v 1.19209e-007 3.1 1.9
v 0.2 3.1 1.9
v 0.4 3.1 1.9
v -0.3 3.1 1.8
v -0.2 3.1 1.8
v 1.19209e-007 3.1 1.8
v 0.2 3.1 1.8
v 0.4 3.1 1.8
v -0.3 3.1 -1.8
v -0.2 3.1 -1.8
v 1.19209e-007 3.1 -1.8
v 0.2 3.1 -1.8
v 0.4 3.1 -1.8
v -0.3 3.1 -1.9
v -0.2 3.1 -1.9
v 1.19209e-007 3.1 -1.9
v 0.2 3.1 -1.9
v 0.4 3.1 -1.9
v -1 3.2 1.9
v -0.9 3.2 1.9
v -0.6 3.2 1.9
v -0.4 3.2 1.9
v -0.3 3.2 1.9
v 0.4 3.2 1.9
v 0.6 3.2 1.9
v 0.8 3.2 1.9
v 1 3.2 1.9
v 1.1 3.2 1.9
v -1 3.2 1.8
v -0.9 3.2 1.8
v -0.6 3.2 1.8
v -0.4 3.2 1.8
v -0.3 3.2 1.8
v 0.4 3.2 1.8
v 0.6 3.2 1.8
v 0.8 3.2 1.8
v 1 3.2 1.8
v 1.1 3.2 1.8
v -1 3.2 -1.8
v -0.9 3.2 -1.8
v -0.6 3.2 -1.8
v -0.4 3.2 -1.8
v -0.3 3.2 -1.8
v 0.4 3.2 -1.8
v 0.6 3.2 -1.8
v 0.8 3.2 -1.8
v 1 3.2 -1.8
v 1.1 3.2 -1.8
v -1 3.2 -1.9
v -0.9 3.2 -1.9
v -0.6 3.2 -1.9
v -0.4 3.2 -1.9
v -0.3 3.2 -1.9
v 0.4 3.2 -1.9
v 0.6 3.2 -1.9
v 0.8 3.2 -1.9
v 1 3.2 -1.9
v 1.1 3.2 -1.9
v -1 1.9 2
v -0.7 1.9 2
v -0.4 1.9 2
v -0.0999999 1.9 2
v 0.2 1.9 2
v 0.5 1.9 2
v 0.8 1.9 2
v 1.1 1.9 2
v -1 1.9 -2
v -0.7 1.9 -2
v -0.4 1.9 -2
v -0.0999999 1.9 -2
v 0.2 1.9 -2
v 0.5 1.9 -2
v 0.8 1.9 -2
v 1.1 1.9 -2
v -0.3 3.2 1.9
v -0.2 3.2 1.9
v 1.19209e-007 3.2 1.9
v 0.2 3.2 1.9
v 0.4 3.2 1.9
v -0.3 3.2 1.8
v -0.2 3.2 1.8
v 1.19209e-007 3.2 1.8
v 0.2 3.2 1.8
v 0.4 3.2 1.8
v -0.3 3.2 -1.8
v -0.2 3.2 -1.8
v 1.19209e-007 3.2 -1.8
v 0.2 3.2 -1.8
v 0.4 3.2 -1.8
v -0.3 3.2 -1.9
v -0.2 3.2 -1.9
v 1.19209e-007 3.2 -1.9
v 0.2 3.2 -1.9
v 0.4 3.2 -1.9
v -1 3.3 1.9
v -0.9 3.3 1.9
v -0.6 3.3 1.9
v -0.4 3.3 1.9
v -0.3 3.3 1.9
v 0.4 3.3 1.9
v 0.6 3.3 1.9
v 0.8 3.3 1.9
v 1 3.3 1.9
v 1.1 3.3 1.9
v -1 3.3 1.8
v -0.9 3.3 1.8
v -0.6 3.3 1.8
v -0.4 3.3 1.8
v -0.3 3.3 1.8
v 0.4 3.3 1.8
v 0.6 3.3 1.8
v 0.8 3.3 1.8
v 1 3.3 1.8
v 1.1 3.3 1.8
v -1 3.3 -1.8
v -0.9 3.3 -1.8
v -0.6 3.3 -1.8
v -0.4 3.3 -1.8
v -0.3 3.3 -1.8
v 0.4 3.3 -1.8
v 0.6 3.3 -1.8
v 0.8 3.3 -1.8
v 1 3.3 -1.8
v 1.1 3.3 -1.8
v -1 3.3 -1.9
v -0.9 3.3 -1.9
v -0.6 3.3 -1.9
v -0.4 3.3 -1.9
v -0.3 3.3 -1.9
v 0.4 3.3 -1.9
v 0.6 3.3 -1.9
v 0.8 3.3 -1.9
v 1 3.3 -1.9
v 1.1 3.3 -1.9

# faces
f 3/4/1 2/4/1 1/4/1
f 4/4/1 2/4/1 3/4/1
f 9/2/1 6/2/1 5/2/1
f 10/2/1 6/2/1 9/2/1
f 11/2/1 8/2/1 7/2/1
f 12/2/1 8/2/1 11/2/1
f 17/1/1 14/1/1 13/1/1
f 18/1/1 14/1/1 17/1/1
f 19/1/1 16/1/1 15/1/1
f 20/1/1 16/1/1 19/1/1
f 25/1/1 22/1/1 21/1/1
f 26/1/1 22/1/1 25/1/1
f 27/1/1 24/1/1 23/1/1
f 28/1/1 24/1/1 27/1/1
f 29/1/2 30/1/2 33/1/2
f 33/1/2 30/1/2 34/1/2
f 31/1/2 32/1/2 35/1/2
f 35/1/2 32/1/2 36/1/2
f 37/2/2 38/2/2 41/2/2
f 41/2/2 38/2/2 42/2/2
f 39/2/2 40/2/2 43/2/2
f 43/2/2 40/2/2 44/2/2
f 45/4/2 46/4/2 47/4/2
f 47/4/2 46/4/2 48/4/2
f 49/2/2 50/2/2 53/2/2
f 53/2/2 50/2/2 54/2/2
f 51/2/2 52/2/2 55/2/2
f 55/2/2 52/2/2 56/2/2
f 59/4/3 58/4/3 57/4/3
f 60/4/3 58/4/3 59/4/3
f 61/3/3 60/3/3 59/3/3
f 62/3/3 60/3/3 61/3/3
f 63/4/3 62/4/3 61/4/3
f 64/4/3 62/4/3 63/4/3
f 65/3/3 64/3/3 63/3/3
f 66/3/3 64/3/3 65/3/3
f 67/4/3 66/4/3 65/4/3
f 68/4/3 66/4/3 67/4/3
f 69/3/3 68/3/3 67/3/3
f 70/3/3 68/3/3 69/3/3
f 71/4/3 70/4/3 69/4/3
f 72/4/3 70/4/3 71/4/3
f 75/2/3 74/2/3 73/2/3
f 76/2/3 74/2/3 75/2/3
f 77/1/3 76/1/3 75/1/3
f 78/1/3 76/1/3 77/1/3
f 79/2/3 78/2/3 77/2/3
f 80/2/3 78/2/3 79/2/3
f 82/1/3 80/1/3 79/1/3
f 83/1/3 80/1/3 82/1/3
f 84/1/3 82/1/3 81/1/3
f 85/1/3 82/1/3 84/1/3
f 86/2/3 85/2/3 84/2/3
f 87/2/3 85/2/3 86/2/3
f 88/1/3 87/1/3 86/1/3
f 89/1/3 87/1/3 88/1/3
f 90/2/3 89/2/3 88/2/3
f 91/2/3 89/2/3 90/2/3
f 93/1/3 92/1/3 91/1/3
f 94/1/3 92/1/3 93/1/3
f 95/2/3 94/2/3 93/2/3
f 96/2/3 94/2/3 95/2/3
f 97/1/3 96/1/3 95/1/3
f 98/1/3 96/1/3 97/1/3
f 99/2/3 98/2/3 97/2/3
f 100/2/3 98/2/3 99/2/3
f 103/2/3 102/2/3 101/2/3
f 104/2/3 102/2/3 103/2/3
f 105/1/3 104/1/3 103/1/3
f 106/1/3 104/1/3 105/1/3
f 107/2/3 106/2/3 105/2/3
f 108/2/3 106/2/3 107/2/3
f 110/1/3 108/1/3 107/1/3
f 111/1/3 108/1/3 110/1/3
f 112/1/3 110/1/3 109/1/3
f 113/1/3 110/1/3 112/1/3
f 114/2/3 113/2/3 112/2/3
f 115/2/3 113/2/3 114/2/3
f 116/1/3 115/1/3 114/1/3
f 117/1/3 115/1/3 116/1/3
f 118/2/3 117/2/3 116/2/3
f 119/2/3 117/2/3 118/2/3
f 121/1/3 120/1/3 119/1/3
f 122/1/3 120/1/3 121/1/3
f 123/2/3 122/2/3 121/2/3
f 124/2/3 122/2/3 123/2/3
f 125/1/3 124/1/3 123/1/3
f 126/1/3 124/1/3 125/1/3
f 127/2/3 126/2/3 125/2/3
f 128/2/3 126/2/3 127/2/3
f 129/2/4 130/2/4 131/2/4
f 131/2/4 130/2/4 132/2/4
f 131/1/4 132/1/4 133/1/4
f 133/1/4 132/1/4 134/1/4
f 133/2/4 134/2/4 135/2/4
f 135/2/4 134/2/4 136/2/4
f 135/1/4 136/1/4 138/1/4
f 138/1/4 136/1/4 139/1/4
f 137/1/4 138/1/4 140/1/4
f 140/1/4 138/1/4 141/1/4
f 140/2/4 141/2/4 142/2/4
f 142/2/4 141/2/4 143/2/4
f 142/1/4 143/1/4 144/1/4
f 144/1/4 143/1/4 145/1/4
f 144/2/4 145/2/4 146/2/4
f 146/2/4 145/2/4 147/2/4
f 147/1/4 148/1/4 149/1/4
f 149/1/4 148/1/4 150/1/4
f 149/2/4 150/2/4 151/2/4
f 151/2/4 150/2/4 152/2/4
f 151/1/4 152/1/4 153/1/4
f 153/1/4 152/1/4 154/1/4
f 153/2/4 154/2/4 155/2/4
f 155/2/4 154/2/4 156/2/4
f 157/2/4 158/2/4 159/2/4
f 159/2/4 158/2/4 160/2/4
f 159/1/4 160/1/4 161/1/4
f 161/1/4 160/1/4 162/1/4
f 161/2/4 162/2/4 163/2/4
f 163/2/4 162/2/4 164/2/4
f 163/1/4 164/1/4 166/1/4
f 166/1/4 164/1/4 167/1/4
f 165/1/4 166/1/4 168/1/4
f 168/1/4 166/1/4 169/1/4
f 168/2/4 169/2/4 170/2/4
f 170/2/4 169/2/4 171/2/4
f 170/1/4 171/1/4 172/1/4
f 172/1/4 171/1/4 173/1/4
f 172/2/4 173/2/4 174/2/4
f 174/2/4 173/2/4 175/2/4
f 175/1/4 176/1/4 177/1/4
f 177/1/4 176/1/4 178/1/4
f 177/2/4 178/2/4 179/2/4
f 179/2/4 178/2/4 180/2/4
f 179/1/4 180/1/4 181/1/4
f 181/1/4 180/1/4 182/1/4
f 181/2/4 182/2/4 183/2/4
f 183/2/4 182/2/4 184/2/4
f 185/4/4 186/4/4 187/4/4
f 187/4/4 186/4/4 188/4/4
f 187/3/4 188/3/4 189/3/4
f 189/3/4 188/3/4 190/3/4
f 189/4/4 190/4/4 191/4/4
f 191/4/4 190/4/4 192/4/4
f 191/3/4 192/3/4 193/3/4
f 193/3/4 192/3/4 194/3/4
f 193/4/4 194/4/4 195/4/4
f 195/4/4 194/4/4 196/4/4
f 195/3/4 196/3/4 197/3/4
f 197/3/4 196/3/4 198/3/4
f 197/4/4 198/4/4 199/4/4
f 199/4/4 198/4/4 200/4/4
f 209/4/5 202/4/5 201/4/5
f 210/3/5 203/3/5 202/3/5
f 210/4/5 202/4/5 209/4/5
f 211/4/5 204/4/5 203/4/5
f 211/3/5 203/3/5 210/3/5
f 212/3/5 205/3/5 204/3/5
f 212/4/5 204/4/5 211/4/5
f 213/4/5 206/4/5 205/4/5
f 213/3/5 205/3/5 212/3/5
f 214/3/5 207/3/5 206/3/5
f 214/4/5 206/4/5 213/4/5
f 215/4/5 208/4/5 207/4/5
f 215/3/5 207/3/5 214/3/5
f 216/4/5 208/4/5 215/4/5
f 222/1/5 218/1/5 217/1/5
f 223/2/5 219/2/5 218/2/5
f 223/1/5 218/1/5 222/1/5
f 224/1/5 220/1/5 219/1/5
f 224/2/5 219/2/5 223/2/5
f 225/2/5 221/2/5 220/2/5
f 225/1/5 220/1/5 224/1/5
f 226/2/5 221/2/5 225/2/5
f 232/1/5 228/1/5 227/1/5
f 233/2/5 229/2/5 228/2/5
f 233/1/5 228/1/5 232/1/5
f 234/1/5 230/1/5 229/1/5
f 234/2/5 229/2/5 233/2/5
f 235/2/5 231/2/5 230/2/5
f 235/1/5 230/1/5 234/1/5
f 236/2/5 231/2/5 235/2/5
f 247/2/5 238/2/5 237/2/5
f 248/1/5 239/1/5 238/1/5
f 248/2/5 238/2/5 247/2/5
f 249/2/5 240/2/5 239/2/5
f 249/1/5 239/1/5 248/1/5
f 250/1/5 241/1/5 240/1/5
f 250/2/5 240/2/5 249/2/5
f 251/1/5 241/1/5 250/1/5
f 252/1/5 243/1/5 242/1/5
f 253/2/5 244/2/5 243/2/5
f 253/1/5 243/1/5 252/1/5
f 254/1/5 245/1/5 244/1/5
f 254/2/5 244/2/5 253/2/5
f 255/2/5 246/2/5 245/2/5
f 255/1/5 245/1/5 254/1/5
f 256/2/5 246/2/5 255/2/5
f 267/2/5 258/2/5 257/2/5
f 268/1/5 259/1/5 258/1/5
f 268/2/5 258/2/5 267/2/5
f 269/2/5 260/2/5 259/2/5
f 269/1/5 259/1/5 268/1/5
f 270/1/5 261/1/5 260/1/5
f 270/2/5 260/2/5 269/2/5
f 271/1/5 261/1/5 270/1/5
f 272/1/5 263/1/5 262/1/5
f 273/2/5 264/2/5 263/2/5
f 273/1/5 263/1/5 272/1/5
f 274/1/5 265/1/5 264/1/5
f 274/2/5 264/2/5 273/2/5
f 275/2/5 266/2/5 265/2/5
f 275/1/5 265/1/5 274/1/5
f 276/2/5 266/2/5 275/2/5
f 277/4/6 278/4/6 285/4/6
f 278/3/6 279/3/6 286/3/6
f 285/4/6 278/4/6 286/4/6
f 279/4/6 280/4/6 287/4/6
f 286/3/6 279/3/6 287/3/6
f 280/3/6 281/3/6 288/3/6
f 287/4/6 280/4/6 288/4/6
f 281/4/6 282/4/6 289/4/6
f 288/3/6 281/3/6 289/3/6
f 282/3/6 283/3/6 290/3/6
f 289/4/6 282/4/6 290/4/6
f 283/4/6 284/4/6 291/4/6
f 290/3/6 283/3/6 291/3/6
f 291/4/6 284/4/6 292/4/6
f 293/1/6 294/1/6 298/1/6
f 294/2/6 295/2/6 299/2/6
f 298/1/6 294/1/6 299/1/6
f 295/1/6 296/1/6 300/1/6
f 299/2/6 295/2/6 300/2/6
f 296/2/6 297/2/6 301/2/6
f 300/1/6 296/1/6 301/1/6
f 301/2/6 297/2/6 302/2/6
f 303/1/6 304/1/6 308/1/6
f 304/2/6 305/2/6 309/2/6
f 308/1/6 304/1/6 309/1/6
f 305/1/6 306/1/6 310/1/6
f 309/2/6 305/2/6 310/2/6
f 306/2/6 307/2/6 311/2/6
f 310/1/6 306/1/6 311/1/6
f 311/2/6 307/2/6 312/2/6
f 313/2/6 314/2/6 323/2/6
f 314/1/6 315/1/6 324/1/6
f 323/2/6 314/2/6 324/2/6
f 315/2/6 316/2/6 325/2/6
f 324/1/6 315/1/6 325/1/6
f 316/1/6 317/1/6 326/1/6
f 325/2/6 316/2/6 326/2/6
f 326/1/6 317/1/6 327/1/6
f 318/1/6 319/1/6 328/1/6
f 319/2/6 320/2/6 329/2/6
f 328/1/6 319/1/6 329/1/6
f 320/1/6 321/1/6 330/1/6
f 329/2/6 320/2/6 330/2/6
f 321/2/6 322/2/6 331/2/6
f 330/1/6 321/1/6 331/1/6
f 331/2/6 322/2/6 332/2/6
f 333/2/6 334/2/6 343/2/6
f 334/1/6 335/1/6 344/1/6
f 343/2/6 334/2/6 344/2/6
f 335/2/6 336/2/6 345/2/6
f 344/1/6 335/1/6 345/1/6
f 336/1/6 337/1/6 346/1/6
f 345/2/6 336/2/6 346/2/6
f 346/1/6 337/1/6 347/1/6
f 338/1/6 339/1/6 348/1/6
f 339/2/6 340/2/6 349/2/6
f 348/1/6 339/1/6 349/1/6
f 340/1/6 341/1/6 350/1/6
f 349/2/6 340/2/6 350/2/6
f 341/2/6 342/2/6 351/2/6
f 350/1/6 341/1/6 351/1/6
f 351/2/6 342/2/6 352/2/6
