# MagicaVoxel @ Ephtracy

# group
o 

# material
mtllib Floors-17.mtl
usemtl palette

# normals
vn -1 0 0
vn 1 0 0
vn 0 0 1
vn 0 0 -1
vn 0 -1 0
vn 0 1 0

# texcoords
vt 0.0332031 0.5
vt 0.189453 0.5

# verts
v -0.9 2.4 0.8
v -0.9 2.4 -0.8
v -0.9 3.2 -0.8
v -0.9 3.2 -0.9
v -0.9 3.3 0.9
v -0.9 3.3 0.8
v -0.9 3.5 1
v -0.9 3.5 0.9
v -0.9 3.5 -0.9
v -0.9 3.5 -1
v -0.9 3.6 0.8
v -0.9 3.6 -0.8
v -0.9 3.7 1
v -0.9 3.7 0.9
v -0.9 3.7 -0.9
v -0.9 3.7 -1
v -0.9 3.8 0.9
v -0.9 3.8 -0.9
v -0.8 3.2 0.9
v -0.8 3.2 0.8
v -0.8 3.3 1
v -0.8 3.3 0.9
v -0.8 3.3 0.8
v -0.8 3.3 -0.9
v -0.8 3.3 -1
v -0.8 3.5 1
v -0.8 3.5 0.9
v -0.8 3.5 -0.9
v -0.8 3.5 -1
v -0.6 3.1 0.9
v -0.6 3.1 0.8
v -0.6 3.1 -0.8
v -0.6 3.1 -0.9
v -0.6 3.2 1
v -0.6 3.2 0.9
v -0.6 3.2 0.8
v -0.6 3.2 -0.8
v -0.6 3.2 -0.9
v -0.6 3.2 -1
v -0.6 3.3 1
v -0.6 3.3 0.9
v -0.6 3.3 -0.9
v -0.6 3.3 -1
v -0.5 3 0.9
v -0.5 3 0.8
v -0.5 3 -0.8
v -0.5 3 -0.9
v -0.5 3.1 1
v -0.5 3.1 0.9
v -0.5 3.1 0.8
v -0.5 3.1 -0.8
v -0.5 3.1 -0.9
v -0.5 3.1 -1
v -0.5 3.2 1
v -0.5 3.2 0.9
v -0.5 3.2 -0.9
v -0.5 3.2 -1
v -0.4 2.8 0.9
v -0.4 2.8 0.8
v -0.4 2.8 -0.8
v -0.4 2.8 -0.9
v -0.4 3 0.9
v -0.4 3 0.8
v -0.4 3 -0.8
v -0.4 3 -0.9
v 0.2 3.2 0.9
v 0.2 3.2 0.8
v 0.2 3.2 -0.8
v 0.2 3.2 -0.9
v 0.2 3.4 1
v 0.2 3.4 0.9
v 0.2 3.4 0.8
v 0.2 3.4 -0.9
v 0.2 3.4 -1
v 0.2 3.5 1
v 0.2 3.5 0.9
v 0.2 3.5 -0.8
v 0.2 3.5 -1
v 0.3 3.1 0.9
v 0.3 3.1 0.8
v 0.3 3.1 -0.8
v 0.3 3.1 -0.9
v 0.3 3.2 1
v 0.3 3.2 0.9
v 0.3 3.2 0.8
v 0.3 3.2 -0.8
v 0.3 3.2 -0.9
v 0.3 3.2 -1
v 0.3 3.4 1
v 0.3 3.4 0.9
v 0.3 3.4 -0.9
v 0.3 3.4 -1
v 0.4 3 0.9
v 0.4 3 0.8
v 0.4 3 -0.8
v 0.4 3 -0.9
v 0.4 3.1 1
v 0.4 3.1 0.9
v 0.4 3.1 0.8
v 0.4 3.1 -0.8
v 0.4 3.1 -0.9
v 0.4 3.1 -1
v 0.4 3.2 1
v 0.4 3.2 0.9
v 0.4 3.2 -0.9
v 0.4 3.2 -1
v 0.5 2.8 0.9
v 0.5 2.8 0.8
v 0.5 2.8 -0.8
v 0.5 2.8 -0.9
v 0.5 3 0.9
v 0.5 3 0.8
v 0.5 3 -0.8
v 0.5 3 -0.9
v -0.3 2.8 0.9
v -0.3 2.8 0.8
v -0.3 2.8 -0.8
v -0.3 2.8 -0.9
v -0.3 3.1 1
v -0.3 3.1 0.9
v -0.3 3.1 0.8
v -0.3 3.1 -0.8
v -0.3 3.1 -0.9
v -0.3 3.1 -1
v -0.3 3.2 1
v -0.3 3.2 0.9
v -0.3 3.2 -0.9
v -0.3 3.2 -1
v -0.2 3.1 0.9
v -0.2 3.1 0.8
v -0.2 3.1 -0.8
v -0.2 3.1 -0.9
v -0.2 3.2 1
v -0.2 3.2 0.9
v -0.2 3.2 0.8
v -0.2 3.2 -0.9
v -0.2 3.2 -1
v -0.2 3.3 1
v -0.2 3.3 0.9
v -0.2 3.3 -0.8
v -0.2 3.3 -1
v -0.1 3.2 0.9
v -0.1 3.2 0.8
v -0.1 3.3 1
v -0.1 3.3 0.9
v -0.1 3.3 0.8
v -0.1 3.3 -0.8
v -0.1 3.3 -1
v -0.1 3.4 1
v -0.1 3.4 0.9
v -0.1 3.4 -0.8
v -0.1 3.4 -1
v 0 3.3 0.9
v 0 3.3 0.8
v 0 3.4 1
v 0 3.4 0.9
v 0 3.4 0.8
v 0 3.4 -0.9
v 0 3.4 -1
v 0 3.5 1
v 0 3.5 0.9
v 0 3.5 -0.9
v 0 3.5 -1
v 0.1 3.4 -0.8
v 0.1 3.4 -0.9
v 0.1 3.5 -0.8
v 0.1 3.5 -0.9
v 0.6 2.8 0.9
v 0.6 2.8 0.8
v 0.6 2.8 -0.8
v 0.6 2.8 -0.9
v 0.6 3.1 1
v 0.6 3.1 0.9
v 0.6 3.1 0.8
v 0.6 3.1 -0.8
v 0.6 3.1 -0.9
v 0.6 3.1 -1
v 0.6 3.2 1
v 0.6 3.2 0.9
v 0.6 3.2 -0.9
v 0.6 3.2 -1
v 0.7 3.1 0.9
v 0.7 3.1 0.8
v 0.7 3.1 -0.8
v 0.7 3.1 -0.9
v 0.7 3.2 1
v 0.7 3.2 0.9
v 0.7 3.2 0.8
v 0.7 3.2 -0.8
v 0.7 3.2 -0.9
v 0.7 3.2 -1
v 0.7 3.3 1
v 0.7 3.3 0.9
v 0.7 3.3 -0.9
v 0.7 3.3 -1
v 0.9 2.4 0.8
v 0.9 2.4 -0.8
v 0.9 3.2 0.9
v 0.9 3.2 0.8
v 0.9 3.2 -0.8
v 0.9 3.2 -0.9
v 0.9 3.3 1
v 0.9 3.3 0.9
v 0.9 3.3 -0.9
v 0.9 3.3 -1
v 0.9 3.6 0.8
v 0.9 3.6 -0.8
v 0.9 3.7 1
v 0.9 3.7 0.9
v 0.9 3.7 -0.9
v 0.9 3.7 -1
v 0.9 3.8 0.9
v 0.9 3.8 -0.9
v -0.9 3.5 1
v -0.9 3.7 1
v -0.8 3.3 1
v -0.8 3.5 1
v -0.6 3.2 1
v -0.6 3.3 1
v -0.5 3.1 1
v -0.5 3.2 1
v -0.3 3.1 1
v -0.3 3.2 1
v -0.2 3.2 1
v -0.2 3.3 1
v -0.1 3.3 1
v -0.1 3.4 1
v 0 3.4 1
v 0 3.5 1
v 0.2 3.4 1
v 0.2 3.5 1
v 0.3 3.2 1
v 0.3 3.4 1
v 0.4 3.1 1
v 0.4 3.2 1
v 0.6 3.1 1
v 0.6 3.2 1
v 0.7 3.2 1
v 0.7 3.3 1
v 0.9 3.3 1
v 0.9 3.7 1
v -0.9 3.3 0.9
v -0.9 3.5 0.9
v -0.9 3.7 0.9
v -0.9 3.8 0.9
v -0.8 3.2 0.9
v -0.8 3.3 0.9
v -0.8 3.5 0.9
v -0.6 3.1 0.9
v -0.6 3.2 0.9
v -0.6 3.3 0.9
v -0.5 3 0.9
v -0.5 3.1 0.9
v -0.5 3.2 0.9
v -0.4 2.8 0.9
v -0.4 3 0.9
v -0.3 2.8 0.9
v -0.3 3.1 0.9
v -0.3 3.2 0.9
v -0.2 3.1 0.9
v -0.2 3.2 0.9
v -0.2 3.3 0.9
v -0.1 3.2 0.9
v -0.1 3.3 0.9
v -0.1 3.4 0.9
v 0 3.3 0.9
v 0 3.4 0.9
v 0 3.5 0.9
v 0.2 3.2 0.9
v 0.2 3.4 0.9
v 0.2 3.5 0.9
v 0.3 3.1 0.9
v 0.3 3.2 0.9
v 0.3 3.4 0.9
v 0.4 3 0.9
v 0.4 3.1 0.9
v 0.4 3.2 0.9
v 0.5 2.8 0.9
v 0.5 3 0.9
v 0.6 2.8 0.9
v 0.6 3.1 0.9
v 0.6 3.2 0.9
v 0.7 3.1 0.9
v 0.7 3.2 0.9
v 0.7 3.3 0.9
v 0.9 3.2 0.9
v 0.9 3.3 0.9
v 0.9 3.7 0.9
v 0.9 3.8 0.9
v -0.9 2.4 0.8
v -0.9 3.3 0.8
v -0.8 3.2 0.8
v -0.8 3.3 0.8
v -0.6 3.1 0.8
v -0.6 3.2 0.8
v -0.5 3 0.8
v -0.5 3.1 0.8
v -0.4 2.8 0.8
v -0.4 3 0.8
v -0.3 2.8 0.8
v -0.3 3.1 0.8
v -0.2 3.1 0.8
v -0.2 3.2 0.8
v -0.1 3.2 0.8
v -0.1 3.3 0.8
v 0 3.3 0.8
v 0 3.4 0.8
v 0.2 3.2 0.8
v 0.2 3.4 0.8
v 0.3 3.1 0.8
v 0.3 3.2 0.8
v 0.4 3 0.8
v 0.4 3.1 0.8
v 0.5 2.8 0.8
v 0.5 3 0.8
v 0.6 2.8 0.8
v 0.6 3.1 0.8
v 0.7 3.1 0.8
v 0.7 3.2 0.8
v 0.9 2.4 0.8
v 0.9 3.2 0.8
v -0.9 2.4 -0.8
v -0.9 3.2 -0.8
v -0.6 3.1 -0.8
v -0.6 3.2 -0.8
v -0.5 3 -0.8
v -0.5 3.1 -0.8
v -0.4 2.8 -0.8
v -0.4 3 -0.8
v -0.3 2.8 -0.8
v -0.3 3.1 -0.8
v -0.2 3.1 -0.8
v -0.2 3.3 -0.8
v -0.1 3.3 -0.8
v -0.1 3.4 -0.8
v 0.1 3.4 -0.8
v 0.1 3.5 -0.8
v 0.2 3.2 -0.8
v 0.2 3.5 -0.8
v 0.3 3.1 -0.8
v 0.3 3.2 -0.8
v 0.4 3 -0.8
v 0.4 3.1 -0.8
v 0.5 2.8 -0.8
v 0.5 3 -0.8
v 0.6 2.8 -0.8
v 0.6 3.1 -0.8
v 0.7 3.1 -0.8
v 0.7 3.2 -0.8
v 0.9 2.4 -0.8
v 0.9 3.2 -0.8
v -0.9 3.2 -0.9
v -0.9 3.5 -0.9
v -0.9 3.7 -0.9
v -0.9 3.8 -0.9
v -0.8 3.3 -0.9
v -0.8 3.5 -0.9
v -0.6 3.1 -0.9
v -0.6 3.2 -0.9
v -0.6 3.3 -0.9
v -0.5 3 -0.9
v -0.5 3.1 -0.9
v -0.5 3.2 -0.9
v -0.4 2.8 -0.9
v -0.4 3 -0.9
v -0.3 2.8 -0.9
v -0.3 3.1 -0.9
v -0.3 3.2 -0.9
v -0.2 3.1 -0.9
v -0.2 3.2 -0.9
v 0 3.4 -0.9
v 0 3.5 -0.9
v 0.1 3.4 -0.9
v 0.1 3.5 -0.9
v 0.2 3.2 -0.9
v 0.2 3.4 -0.9
v 0.3 3.1 -0.9
v 0.3 3.2 -0.9
v 0.3 3.4 -0.9
v 0.4 3 -0.9
v 0.4 3.1 -0.9
v 0.4 3.2 -0.9
v 0.5 2.8 -0.9
v 0.5 3 -0.9
v 0.6 2.8 -0.9
v 0.6 3.1 -0.9
v 0.6 3.2 -0.9
v 0.7 3.1 -0.9
v 0.7 3.2 -0.9
v 0.7 3.3 -0.9
v 0.9 3.2 -0.9
v 0.9 3.3 -0.9
v 0.9 3.7 -0.9
v 0.9 3.8 -0.9
v -0.9 3.5 -1
v -0.9 3.7 -1
v -0.8 3.3 -1
v -0.8 3.5 -1
v -0.6 3.2 -1
v -0.6 3.3 -1
v -0.5 3.1 -1
v -0.5 3.2 -1
v -0.3 3.1 -1
v -0.3 3.2 -1
v -0.2 3.2 -1
v -0.2 3.3 -1
v -0.1 3.3 -1
v -0.1 3.4 -1
v 0 3.4 -1
v 0 3.5 -1
v 0.2 3.4 -1
v 0.2 3.5 -1
v 0.3 3.2 -1
v 0.3 3.4 -1
v 0.4 3.1 -1
v 0.4 3.2 -1
v 0.6 3.1 -1
v 0.6 3.2 -1
v 0.7 3.2 -1
v 0.7 3.3 -1
v 0.9 3.3 -1
v 0.9 3.7 -1
v -0.9 2.4 0.8
v 0.9 2.4 0.8
v -0.9 2.4 -0.8
v 0.9 2.4 -0.8
v -0.4 2.8 0.9
v -0.3 2.8 0.9
v 0.5 2.8 0.9
v 0.6 2.8 0.9
v -0.4 2.8 0.8
v -0.3 2.8 0.8
v 0.5 2.8 0.8
v 0.6 2.8 0.8
v -0.4 2.8 -0.8
v -0.3 2.8 -0.8
v 0.5 2.8 -0.8
v 0.6 2.8 -0.8
v -0.4 2.8 -0.9
v -0.3 2.8 -0.9
v 0.5 2.8 -0.9
v 0.6 2.8 -0.9
v -0.5 3 0.9
v -0.4 3 0.9
v 0.4 3 0.9
v 0.5 3 0.9
v -0.5 3 0.8
v -0.4 3 0.8
v 0.4 3 0.8
v 0.5 3 0.8
v -0.5 3 -0.8
v -0.4 3 -0.8
v 0.4 3 -0.8
v 0.5 3 -0.8
v -0.5 3 -0.9
v -0.4 3 -0.9
v 0.4 3 -0.9
v 0.5 3 -0.9
v -0.5 3.1 1
v -0.3 3.1 1
v 0.4 3.1 1
v 0.6 3.1 1
v -0.6 3.1 0.9
v -0.5 3.1 0.9
v -0.3 3.1 0.9
v -0.2 3.1 0.9
v 0.3 3.1 0.9
v 0.4 3.1 0.9
v 0.6 3.1 0.9
v 0.7 3.1 0.9
v -0.6 3.1 0.8
v -0.5 3.1 0.8
v -0.3 3.1 0.8
v -0.2 3.1 0.8
v 0.3 3.1 0.8
v 0.4 3.1 0.8
v 0.6 3.1 0.8
v 0.7 3.1 0.8
v -0.6 3.1 -0.8
v -0.5 3.1 -0.8
v -0.3 3.1 -0.8
v -0.2 3.1 -0.8
v 0.3 3.1 -0.8
v 0.4 3.1 -0.8
v 0.6 3.1 -0.8
v 0.7 3.1 -0.8
v -0.6 3.1 -0.9
v -0.5 3.1 -0.9
v -0.3 3.1 -0.9
v -0.2 3.1 -0.9
v 0.3 3.1 -0.9
v 0.4 3.1 -0.9
v 0.6 3.1 -0.9
v 0.7 3.1 -0.9
v -0.5 3.1 -1
v -0.3 3.1 -1
v 0.4 3.1 -1
v 0.6 3.1 -1
v -0.6 3.2 1
v -0.5 3.2 1
v -0.3 3.2 1
v -0.2 3.2 1
v 0.3 3.2 1
v 0.4 3.2 1
v 0.6 3.2 1
v 0.7 3.2 1
v -0.8 3.2 0.9
v -0.6 3.2 0.9
v -0.5 3.2 0.9
v -0.3 3.2 0.9
v -0.2 3.2 0.9
v -0.1 3.2 0.9
v 0.2 3.2 0.9
v 0.3 3.2 0.9
v 0.4 3.2 0.9
v 0.6 3.2 0.9
v 0.7 3.2 0.9
v 0.9 3.2 0.9
v -0.8 3.2 0.8
v -0.6 3.2 0.8
v -0.2 3.2 0.8
v -0.1 3.2 0.8
v 0.2 3.2 0.8
v 0.3 3.2 0.8
v 0.7 3.2 0.8
v 0.9 3.2 0.8
v -0.9 3.2 -0.8
v -0.6 3.2 -0.8
v 0.2 3.2 -0.8
v 0.3 3.2 -0.8
v 0.7 3.2 -0.8
v 0.9 3.2 -0.8
v -0.9 3.2 -0.9
v -0.6 3.2 -0.9
v -0.5 3.2 -0.9
v -0.3 3.2 -0.9
v -0.2 3.2 -0.9
v 0.2 3.2 -0.9
v 0.3 3.2 -0.9
v 0.4 3.2 -0.9
v 0.6 3.2 -0.9
v 0.7 3.2 -0.9
v 0.9 3.2 -0.9
v -0.6 3.2 -1
v -0.5 3.2 -1
v -0.3 3.2 -1
v -0.2 3.2 -1
v 0.3 3.2 -1
v 0.4 3.2 -1
v 0.6 3.2 -1
v 0.7 3.2 -1
v -0.8 3.3 1
v -0.6 3.3 1
v -0.2 3.3 1
v -0.1 3.3 1
v 0.7 3.3 1
v 0.9 3.3 1
v -0.9 3.3 0.9
v -0.8 3.3 0.9
v -0.6 3.3 0.9
v -0.2 3.3 0.9
v -0.1 3.3 0.9
v 0 3.3 0.9
v 0.7 3.3 0.9
v 0.9 3.3 0.9
v -0.9 3.3 0.8
v -0.8 3.3 0.8
v -0.1 3.3 0.8
v 0 3.3 0.8
v -0.2 3.3 -0.8
v -0.1 3.3 -0.8
v -0.8 3.3 -0.9
v -0.6 3.3 -0.9
v 0.7 3.3 -0.9
v 0.9 3.3 -0.9
v -0.8 3.3 -1
v -0.6 3.3 -1
v -0.2 3.3 -1
v -0.1 3.3 -1
v 0.7 3.3 -1
v 0.9 3.3 -1
v -0.1 3.4 1
v 0 3.4 1
v 0.2 3.4 1
v 0.3 3.4 1
v -0.1 3.4 0.9
v 0 3.4 0.9
v 0.2 3.4 0.9
v 0.3 3.4 0.9
v 0 3.4 0.8
v 0.2 3.4 0.8
v -0.1 3.4 -0.8
v 0.1 3.4 -0.8
v 0 3.4 -0.9
v 0.1 3.4 -0.9
v 0.2 3.4 -0.9
v 0.3 3.4 -0.9
v -0.1 3.4 -1
v 0 3.4 -1
v 0.2 3.4 -1
v 0.3 3.4 -1
v -0.9 3.5 1
v -0.8 3.5 1
v 0 3.5 1
v 0.2 3.5 1
v -0.9 3.5 0.9
v -0.8 3.5 0.9
v 0 3.5 0.9
v 0.2 3.5 0.9
v 0.1 3.5 -0.8
v 0.2 3.5 -0.8
v -0.9 3.5 -0.9
v -0.8 3.5 -0.9
v 0 3.5 -0.9
v 0.1 3.5 -0.9
v -0.9 3.5 -1
v -0.8 3.5 -1
v 0 3.5 -1
v 0.2 3.5 -1
v -0.9 3.7 1
v 0.9 3.7 1
v -0.9 3.7 0.9
v 0.9 3.7 0.9
v -0.9 3.7 -0.9
v 0.9 3.7 -0.9
v -0.9 3.7 -1
v 0.9 3.7 -1
v -0.9 3.8 0.9
v 0.9 3.8 0.9
v -0.9 3.8 -0.9
v 0.9 3.8 -0.9

# faces
f 3/1/1 2/1/1 1/1/1
f 6/1/1 3/1/1 1/1/1
f 8/2/1 6/2/1 5/2/1
f 9/2/1 4/2/1 3/2/1
f 11/2/1 8/2/1 7/2/1
f 11/1/1 3/1/1 6/1/1
f 11/2/1 6/2/1 8/2/1
f 12/2/1 10/2/1 9/2/1
f 12/1/1 3/1/1 11/1/1
f 12/2/1 9/2/1 3/2/1
f 13/2/1 11/2/1 7/2/1
f 13/2/1 12/2/1 11/2/1
f 14/2/1 12/2/1 13/2/1
f 15/2/1 10/2/1 12/2/1
f 15/2/1 12/2/1 14/2/1
f 16/2/1 10/2/1 15/2/1
f 17/2/1 15/2/1 14/2/1
f 18/2/1 15/2/1 17/2/1
f 22/2/1 20/2/1 19/2/1
f 23/2/1 20/2/1 22/2/1
f 26/2/1 22/2/1 21/2/1
f 27/2/1 22/2/1 26/2/1
f 28/2/1 25/2/1 24/2/1
f 29/2/1 25/2/1 28/2/1
f 35/2/1 31/2/1 30/2/1
f 36/2/1 31/2/1 35/2/1
f 37/2/1 33/2/1 32/2/1
f 38/2/1 33/2/1 37/2/1
f 40/2/1 35/2/1 34/2/1
f 41/2/1 35/2/1 40/2/1
f 42/2/1 39/2/1 38/2/1
f 43/2/1 39/2/1 42/2/1
f 49/2/1 45/2/1 44/2/1
f 50/2/1 45/2/1 49/2/1
f 51/2/1 47/2/1 46/2/1
f 52/2/1 47/2/1 51/2/1
f 54/2/1 49/2/1 48/2/1
f 55/2/1 49/2/1 54/2/1
f 56/2/1 53/2/1 52/2/1
f 57/2/1 53/2/1 56/2/1
f 62/2/1 59/2/1 58/2/1
f 63/2/1 59/2/1 62/2/1
f 64/2/1 61/2/1 60/2/1
f 65/2/1 61/2/1 64/2/1
f 71/2/1 67/2/1 66/2/1
f 72/2/1 67/2/1 71/2/1
f 73/2/1 69/2/1 68/2/1
f 75/2/1 71/2/1 70/2/1
f 76/2/1 71/2/1 75/2/1
f 77/2/1 74/2/1 73/2/1
f 77/2/1 73/2/1 68/2/1
f 78/2/1 74/2/1 77/2/1
f 84/2/1 80/2/1 79/2/1
f 85/2/1 80/2/1 84/2/1
f 86/2/1 82/2/1 81/2/1
f 87/2/1 82/2/1 86/2/1
f 89/2/1 84/2/1 83/2/1
f 90/2/1 84/2/1 89/2/1
f 91/2/1 88/2/1 87/2/1
f 92/2/1 88/2/1 91/2/1
f 98/2/1 94/2/1 93/2/1
f 99/2/1 94/2/1 98/2/1
f 100/2/1 96/2/1 95/2/1
f 101/2/1 96/2/1 100/2/1
f 103/2/1 98/2/1 97/2/1
f 104/2/1 98/2/1 103/2/1
f 105/2/1 102/2/1 101/2/1
f 106/2/1 102/2/1 105/2/1
f 111/2/1 108/2/1 107/2/1
f 112/2/1 108/2/1 111/2/1
f 113/2/1 110/2/1 109/2/1
f 114/2/1 110/2/1 113/2/1
f 115/2/2 116/2/2 120/2/2
f 120/2/2 116/2/2 121/2/2
f 117/2/2 118/2/2 122/2/2
f 122/2/2 118/2/2 123/2/2
f 119/2/2 120/2/2 125/2/2
f 125/2/2 120/2/2 126/2/2
f 123/2/2 124/2/2 127/2/2
f 127/2/2 124/2/2 128/2/2
f 129/2/2 130/2/2 134/2/2
f 134/2/2 130/2/2 135/2/2
f 131/2/2 132/2/2 136/2/2
f 133/2/2 134/2/2 138/2/2
f 138/2/2 134/2/2 139/2/2
f 136/2/2 137/2/2 140/2/2
f 131/2/2 136/2/2 140/2/2
f 140/2/2 137/2/2 141/2/2
f 142/2/2 143/2/2 145/2/2
f 145/2/2 143/2/2 146/2/2
f 144/2/2 145/2/2 149/2/2
f 149/2/2 145/2/2 150/2/2
f 147/2/2 148/2/2 151/2/2
f 151/2/2 148/2/2 152/2/2
f 153/2/2 154/2/2 156/2/2
f 156/2/2 154/2/2 157/2/2
f 155/2/2 156/2/2 160/2/2
f 160/2/2 156/2/2 161/2/2
f 158/2/2 159/2/2 162/2/2
f 162/2/2 159/2/2 163/2/2
f 164/2/2 165/2/2 166/2/2
f 166/2/2 165/2/2 167/2/2
f 168/2/2 169/2/2 173/2/2
f 173/2/2 169/2/2 174/2/2
f 170/2/2 171/2/2 175/2/2
f 175/2/2 171/2/2 176/2/2
f 172/2/2 173/2/2 178/2/2
f 178/2/2 173/2/2 179/2/2
f 176/2/2 177/2/2 180/2/2
f 180/2/2 177/2/2 181/2/2
f 182/2/2 183/2/2 187/2/2
f 187/2/2 183/2/2 188/2/2
f 184/2/2 185/2/2 189/2/2
f 189/2/2 185/2/2 190/2/2
f 186/2/2 187/2/2 192/2/2
f 192/2/2 187/2/2 193/2/2
f 190/2/2 191/2/2 194/2/2
f 194/2/2 191/2/2 195/2/2
f 196/1/2 197/1/2 199/1/2
f 199/1/2 197/1/2 200/1/2
f 198/2/2 199/2/2 203/2/2
f 200/2/2 201/2/2 204/2/2
f 202/2/2 203/2/2 206/2/2
f 199/1/2 200/1/2 206/1/2
f 203/2/2 199/2/2 206/2/2
f 204/2/2 205/2/2 207/2/2
f 206/1/2 200/1/2 207/1/2
f 200/2/2 204/2/2 207/2/2
f 202/2/2 206/2/2 208/2/2
f 206/2/2 207/2/2 208/2/2
f 208/2/2 207/2/2 209/2/2
f 207/2/2 205/2/2 210/2/2
f 209/2/2 207/2/2 210/2/2
f 210/2/2 205/2/2 211/2/2
f 209/2/2 210/2/2 212/2/2
f 212/2/2 210/2/2 213/2/2
f 217/2/3 215/2/3 214/2/3
f 219/2/3 217/2/3 216/2/3
f 221/2/3 219/2/3 218/2/3
f 222/2/3 221/2/3 220/2/3
f 223/2/3 219/2/3 221/2/3
f 223/2/3 221/2/3 222/2/3
f 224/2/3 219/2/3 223/2/3
f 225/2/3 217/2/3 219/2/3
f 225/2/3 219/2/3 224/2/3
f 226/2/3 217/2/3 225/2/3
f 227/2/3 217/2/3 226/2/3
f 228/2/3 217/2/3 227/2/3
f 229/2/3 215/2/3 217/2/3
f 229/2/3 217/2/3 228/2/3
f 231/2/3 215/2/3 229/2/3
f 233/2/3 231/2/3 230/2/3
f 235/2/3 233/2/3 232/2/3
f 236/2/3 235/2/3 234/2/3
f 237/2/3 233/2/3 235/2/3
f 237/2/3 235/2/3 236/2/3
f 238/2/3 233/2/3 237/2/3
f 239/2/3 233/2/3 238/2/3
f 240/2/3 233/2/3 239/2/3
f 241/2/3 215/2/3 231/2/3
f 241/2/3 233/2/3 240/2/3
f 241/2/3 231/2/3 233/2/3
f 247/2/3 243/2/3 242/2/3
f 248/2/3 243/2/3 247/2/3
f 250/2/3 247/2/3 246/2/3
f 251/2/3 247/2/3 250/2/3
f 253/2/3 250/2/3 249/2/3
f 254/2/3 250/2/3 253/2/3
f 256/2/3 253/2/3 252/2/3
f 257/2/3 256/2/3 255/2/3
f 258/2/3 253/2/3 256/2/3
f 258/2/3 256/2/3 257/2/3
f 260/2/3 259/2/3 258/2/3
f 261/2/3 259/2/3 260/2/3
f 263/2/3 262/2/3 261/2/3
f 264/2/3 262/2/3 263/2/3
f 266/2/3 265/2/3 264/2/3
f 267/2/3 265/2/3 266/2/3
f 270/2/3 268/2/3 267/2/3
f 271/2/3 268/2/3 270/2/3
f 273/2/3 270/2/3 269/2/3
f 274/2/3 270/2/3 273/2/3
f 276/2/3 273/2/3 272/2/3
f 277/2/3 273/2/3 276/2/3
f 279/2/3 276/2/3 275/2/3
f 280/2/3 279/2/3 278/2/3
f 281/2/3 276/2/3 279/2/3
f 281/2/3 279/2/3 280/2/3
f 283/2/3 282/2/3 281/2/3
f 284/2/3 282/2/3 283/2/3
f 286/2/3 285/2/3 284/2/3
f 287/2/3 285/2/3 286/2/3
f 288/2/3 245/2/3 244/2/3
f 289/2/3 245/2/3 288/2/3
f 292/1/3 291/1/3 290/1/3
f 293/1/3 291/1/3 292/1/3
f 294/1/3 292/1/3 290/1/3
f 295/1/3 292/1/3 294/1/3
f 296/1/3 294/1/3 290/1/3
f 297/1/3 294/1/3 296/1/3
f 298/1/3 296/1/3 290/1/3
f 299/1/3 296/1/3 298/1/3
f 300/1/3 298/1/3 290/1/3
f 302/1/3 301/1/3 300/1/3
f 304/1/3 303/1/3 302/1/3
f 306/1/3 305/1/3 304/1/3
f 308/1/3 306/1/3 304/1/3
f 308/1/3 307/1/3 306/1/3
f 308/1/3 304/1/3 302/1/3
f 309/1/3 307/1/3 308/1/3
f 310/1/3 302/1/3 300/1/3
f 310/1/3 308/1/3 302/1/3
f 311/1/3 308/1/3 310/1/3
f 312/1/3 310/1/3 300/1/3
f 313/1/3 310/1/3 312/1/3
f 314/1/3 300/1/3 290/1/3
f 314/1/3 312/1/3 300/1/3
f 315/1/3 312/1/3 314/1/3
f 316/1/3 314/1/3 290/1/3
f 318/1/3 317/1/3 316/1/3
f 320/1/3 318/1/3 316/1/3
f 320/1/3 319/1/3 318/1/3
f 320/1/3 316/1/3 290/1/3
f 321/1/3 319/1/3 320/1/3
f 322/1/4 323/1/4 324/1/4
f 324/1/4 323/1/4 325/1/4
f 322/1/4 324/1/4 326/1/4
f 326/1/4 324/1/4 327/1/4
f 322/1/4 326/1/4 328/1/4
f 328/1/4 326/1/4 329/1/4
f 322/1/4 328/1/4 330/1/4
f 330/1/4 331/1/4 332/1/4
f 332/1/4 333/1/4 334/1/4
f 334/1/4 335/1/4 336/1/4
f 332/1/4 334/1/4 338/1/4
f 336/1/4 337/1/4 338/1/4
f 334/1/4 336/1/4 338/1/4
f 338/1/4 337/1/4 339/1/4
f 330/1/4 332/1/4 340/1/4
f 332/1/4 338/1/4 340/1/4
f 340/1/4 338/1/4 341/1/4
f 330/1/4 340/1/4 342/1/4
f 342/1/4 340/1/4 343/1/4
f 322/1/4 330/1/4 344/1/4
f 330/1/4 342/1/4 344/1/4
f 344/1/4 342/1/4 345/1/4
f 322/1/4 344/1/4 346/1/4
f 346/1/4 347/1/4 348/1/4
f 346/1/4 348/1/4 350/1/4
f 348/1/4 349/1/4 350/1/4
f 322/1/4 346/1/4 350/1/4
f 350/1/4 349/1/4 351/1/4
f 352/2/4 353/2/4 356/2/4
f 356/2/4 353/2/4 357/2/4
f 352/2/4 356/2/4 359/2/4
f 359/2/4 356/2/4 360/2/4
f 358/2/4 359/2/4 362/2/4
f 362/2/4 359/2/4 363/2/4
f 361/2/4 362/2/4 365/2/4
f 364/2/4 365/2/4 366/2/4
f 365/2/4 362/2/4 367/2/4
f 366/2/4 365/2/4 367/2/4
f 367/2/4 368/2/4 369/2/4
f 369/2/4 368/2/4 370/2/4
f 371/2/4 372/2/4 373/2/4
f 373/2/4 372/2/4 374/2/4
f 375/2/4 376/2/4 378/2/4
f 378/2/4 376/2/4 379/2/4
f 377/2/4 378/2/4 381/2/4
f 381/2/4 378/2/4 382/2/4
f 380/2/4 381/2/4 384/2/4
f 383/2/4 384/2/4 385/2/4
f 384/2/4 381/2/4 386/2/4
f 385/2/4 384/2/4 386/2/4
f 386/2/4 387/2/4 388/2/4
f 388/2/4 387/2/4 389/2/4
f 389/2/4 390/2/4 391/2/4
f 391/2/4 390/2/4 392/2/4
f 354/2/4 355/2/4 393/2/4
f 393/2/4 355/2/4 394/2/4
f 395/2/4 396/2/4 398/2/4
f 397/2/4 398/2/4 400/2/4
f 399/2/4 400/2/4 402/2/4
f 401/2/4 402/2/4 403/2/4
f 402/2/4 400/2/4 404/2/4
f 403/2/4 402/2/4 404/2/4
f 404/2/4 400/2/4 405/2/4
f 400/2/4 398/2/4 406/2/4
f 405/2/4 400/2/4 406/2/4
f 406/2/4 398/2/4 407/2/4
f 407/2/4 398/2/4 408/2/4
f 408/2/4 398/2/4 409/2/4
f 398/2/4 396/2/4 410/2/4
f 409/2/4 398/2/4 410/2/4
f 410/2/4 396/2/4 412/2/4
f 411/2/4 412/2/4 414/2/4
f 413/2/4 414/2/4 416/2/4
f 415/2/4 416/2/4 417/2/4
f 416/2/4 414/2/4 418/2/4
f 417/2/4 416/2/4 418/2/4
f 418/2/4 414/2/4 419/2/4
f 419/2/4 414/2/4 420/2/4
f 420/2/4 414/2/4 421/2/4
f 412/2/4 396/2/4 422/2/4
f 421/2/4 414/2/4 422/2/4
f 414/2/4 412/2/4 422/2/4
f 425/1/5 424/1/5 423/1/5
f 426/1/5 424/1/5 425/1/5
f 431/2/5 428/2/5 427/2/5
f 432/2/5 428/2/5 431/2/5
f 433/2/5 430/2/5 429/2/5
f 434/2/5 430/2/5 433/2/5
f 439/2/5 436/2/5 435/2/5
f 440/2/5 436/2/5 439/2/5
f 441/2/5 438/2/5 437/2/5
f 442/2/5 438/2/5 441/2/5
f 447/2/5 444/2/5 443/2/5
f 448/2/5 444/2/5 447/2/5
f 449/2/5 446/2/5 445/2/5
f 450/2/5 446/2/5 449/2/5
f 455/2/5 452/2/5 451/2/5
f 456/2/5 452/2/5 455/2/5
f 457/2/5 454/2/5 453/2/5
f 458/2/5 454/2/5 457/2/5
f 464/2/5 460/2/5 459/2/5
f 465/2/5 460/2/5 464/2/5
f 468/2/5 462/2/5 461/2/5
f 469/2/5 462/2/5 468/2/5
f 471/2/5 464/2/5 463/2/5
f 472/2/5 464/2/5 471/2/5
f 473/2/5 466/2/5 465/2/5
f 474/2/5 466/2/5 473/2/5
f 475/2/5 468/2/5 467/2/5
f 476/2/5 468/2/5 475/2/5
f 477/2/5 470/2/5 469/2/5
f 478/2/5 470/2/5 477/2/5
f 487/2/5 480/2/5 479/2/5
f 488/2/5 480/2/5 487/2/5
f 489/2/5 482/2/5 481/2/5
f 490/2/5 482/2/5 489/2/5
f 491/2/5 484/2/5 483/2/5
f 492/2/5 484/2/5 491/2/5
f 493/2/5 486/2/5 485/2/5
f 494/2/5 486/2/5 493/2/5
f 495/2/5 489/2/5 488/2/5
f 496/2/5 489/2/5 495/2/5
f 497/2/5 493/2/5 492/2/5
f 498/2/5 493/2/5 497/2/5
f 508/2/5 500/2/5 499/2/5
f 509/2/5 500/2/5 508/2/5
f 510/2/5 502/2/5 501/2/5
f 511/2/5 502/2/5 510/2/5
f 514/2/5 504/2/5 503/2/5
f 515/2/5 504/2/5 514/2/5
f 516/2/5 506/2/5 505/2/5
f 517/2/5 506/2/5 516/2/5
f 519/2/5 508/2/5 507/2/5
f 520/2/5 508/2/5 519/2/5
f 521/2/5 512/2/5 511/2/5
f 522/2/5 512/2/5 521/2/5
f 523/2/5 514/2/5 513/2/5
f 524/2/5 514/2/5 523/2/5
f 525/2/5 518/2/5 517/2/5
f 526/2/5 518/2/5 525/2/5
f 533/2/5 528/2/5 527/2/5
f 534/2/5 528/2/5 533/2/5
f 538/2/5 530/2/5 529/2/5
f 539/2/5 530/2/5 538/2/5
f 542/2/5 532/2/5 531/2/5
f 543/2/5 532/2/5 542/2/5
f 544/2/5 535/2/5 534/2/5
f 545/2/5 535/2/5 544/2/5
f 546/2/5 537/2/5 536/2/5
f 547/2/5 537/2/5 546/2/5
f 548/2/5 540/2/5 539/2/5
f 549/2/5 540/2/5 548/2/5
f 550/2/5 542/2/5 541/2/5
f 551/2/5 542/2/5 550/2/5
f 559/2/5 553/2/5 552/2/5
f 560/2/5 553/2/5 559/2/5
f 561/2/5 555/2/5 554/2/5
f 562/2/5 555/2/5 561/2/5
f 564/2/5 557/2/5 556/2/5
f 565/2/5 557/2/5 564/2/5
f 566/2/5 559/2/5 558/2/5
f 567/2/5 559/2/5 566/2/5
f 568/2/5 563/2/5 562/2/5
f 569/2/5 563/2/5 568/2/5
f 576/2/5 573/2/5 572/2/5
f 577/2/5 573/2/5 576/2/5
f 578/2/5 571/2/5 570/2/5
f 579/2/5 571/2/5 578/2/5
f 580/2/5 575/2/5 574/2/5
f 581/2/5 575/2/5 580/2/5
f 586/2/5 583/2/5 582/2/5
f 587/2/5 583/2/5 586/2/5
f 588/2/5 585/2/5 584/2/5
f 589/2/5 585/2/5 588/2/5
f 590/2/5 588/2/5 587/2/5
f 591/2/5 588/2/5 590/2/5
f 594/2/5 593/2/5 592/2/5
f 595/2/5 593/2/5 594/2/5
f 598/2/5 594/2/5 592/2/5
f 599/2/5 594/2/5 598/2/5
f 600/2/5 597/2/5 596/2/5
f 601/2/5 597/2/5 600/2/5
f 606/2/5 603/2/5 602/2/5
f 607/2/5 603/2/5 606/2/5
f 608/2/5 605/2/5 604/2/5
f 609/2/5 605/2/5 608/2/5
f 615/2/5 611/2/5 610/2/5
f 616/2/5 613/2/5 612/2/5
f 617/2/5 613/2/5 616/2/5
f 618/2/5 615/2/5 614/2/5
f 619/2/5 611/2/5 615/2/5
f 619/2/5 615/2/5 618/2/5
f 620/2/6 621/2/6 622/2/6
f 622/2/6 621/2/6 623/2/6
f 624/2/6 625/2/6 626/2/6
f 626/2/6 625/2/6 627/2/6
f 628/2/6 629/2/6 630/2/6
f 630/2/6 629/2/6 631/2/6
