# MagicaVoxel @ Ephtracy

# group
o 

# material
mtllib Floors-5.mtl
usemtl palette

# normals
vn -1 0 0
vn 1 0 0
vn 0 0 1
vn 0 0 -1
vn 0 -1 0
vn 0 1 0

# texcoords
vt 0.0253906 0.5
vt 0.0292969 0.5

# verts
v 5.3 0 0.8
v 5.3 0 -0.8
v 5.3 0.2 0.9
v 5.3 0.2 0.8
v 5.3 0.2 -0.8
v 5.3 0.2 -0.9
v 5.3 0.3 1
v 5.3 0.3 0.9
v 5.3 0.3 -0.9
v 5.3 0.3 -1
v 5.3 0.7 0.8
v 5.3 0.7 -0.8
v 5.3 0.9 1
v 5.3 0.9 -1
v 5.4 0.9 1
v 5.4 0.9 -0.9
v 5.4 1 1
v 5.4 1 -0.9
v 6.1 0.4 -0.9
v 6.1 0.4 -1
v 6.1 0.5 -0.9
v 6.1 0.5 -1
v 6.6 0.2 0.9
v 6.6 0.2 0.8
v 6.6 0.5 1
v 6.6 0.5 0.9
v 6.6 0.7 0.8
v 6.6 0.7 -0.4
v 6.6 1 1
v 6.6 1 -0.4
v 6.7 0 0.8
v 6.7 0 -0.5
v 6.7 0.2 0.8
v 6.7 0.7 0.8
v 6.7 0.7 -0.5
v 5.7 0 0.8
v 5.7 0 -0.5
v 5.7 0.2 0.8
v 5.7 0.7 0.8
v 5.7 0.7 -0.5
v 5.8 0.2 0.9
v 5.8 0.2 0.8
v 5.8 0.3 1
v 5.8 0.3 0.9
v 5.8 0.3 -0.9
v 5.8 0.3 -1
v 5.8 0.5 -0.9
v 5.8 0.5 -1
v 5.8 0.7 0.8
v 5.8 0.7 -0.4
v 5.8 1 1
v 5.8 1 -0.4
v 6.7 0.4 -0.9
v 6.7 0.4 -1
v 6.7 0.5 -0.9
v 6.7 0.5 -1
v 7 0.9 1
v 7 0.9 -0.9
v 7 1 1
v 7 1 -0.9
v 7.1 0 0.8
v 7.1 0 -0.8
v 7.1 0.2 0.9
v 7.1 0.2 0.8
v 7.1 0.2 -0.8
v 7.1 0.2 -0.9
v 7.1 0.5 1
v 7.1 0.5 0.9
v 7.1 0.5 -0.9
v 7.1 0.5 -1
v 7.1 0.7 0.8
v 7.1 0.7 -0.8
v 7.1 0.9 1
v 7.1 0.9 -1
v 5.3 0.3 1
v 5.3 0.9 1
v 5.4 0.9 1
v 5.4 1 1
v 5.8 0.3 1
v 5.8 1 1
v 6.6 0.5 1
v 6.6 1 1
v 7 0.9 1
v 7 1 1
v 7.1 0.5 1
v 7.1 0.9 1
v 5.3 0.2 0.9
v 5.3 0.3 0.9
v 5.8 0.2 0.9
v 5.8 0.3 0.9
v 6.6 0.2 0.9
v 6.6 0.5 0.9
v 7.1 0.2 0.9
v 7.1 0.5 0.9
v 5.3 0 0.8
v 5.3 0.2 0.8
v 5.7 0 0.8
v 5.7 0.2 0.8
v 6.7 0 0.8
v 6.7 0.2 0.8
v 7.1 0 0.8
v 7.1 0.2 0.8
v 5.8 0.7 -0.4
v 5.8 1 -0.4
v 6.6 0.7 -0.4
v 6.6 1 -0.4
v 5.7 0 -0.5
v 5.7 0.7 -0.5
v 6.7 0 -0.5
v 6.7 0.7 -0.5
v 5.7 0.2 0.8
v 5.7 0.7 0.8
v 5.8 0.2 0.8
v 5.8 0.7 0.8
v 6.6 0.2 0.8
v 6.6 0.7 0.8
v 6.7 0.2 0.8
v 6.7 0.7 0.8
v 5.3 0 -0.8
v 5.3 0.2 -0.8
v 7.1 0 -0.8
v 7.1 0.2 -0.8
v 5.3 0.2 -0.9
v 5.3 0.3 -0.9
v 5.4 0.9 -0.9
v 5.4 1 -0.9
v 5.8 0.3 -0.9
v 5.8 0.5 -0.9
v 6.1 0.4 -0.9
v 6.1 0.5 -0.9
v 6.7 0.4 -0.9
v 6.7 0.5 -0.9
v 7 0.9 -0.9
v 7 1 -0.9
v 7.1 0.2 -0.9
v 7.1 0.5 -0.9
v 5.3 0.3 -1
v 5.3 0.9 -1
v 5.8 0.3 -1
v 5.8 0.5 -1
v 6.1 0.4 -1
v 6.1 0.5 -1
v 6.7 0.4 -1
v 6.7 0.5 -1
v 7.1 0.5 -1
v 7.1 0.9 -1
v 5.3 0 0.8
v 5.7 0 0.8
v 6.7 0 0.8
v 7.1 0 0.8
v 5.7 0 -0.5
v 6.7 0 -0.5
v 5.3 0 -0.8
v 7.1 0 -0.8
v 5.3 0.2 0.9
v 5.8 0.2 0.9
v 6.6 0.2 0.9
v 7.1 0.2 0.9
v 5.3 0.2 0.8
v 5.7 0.2 0.8
v 5.8 0.2 0.8
v 6.6 0.2 0.8
v 6.7 0.2 0.8
v 7.1 0.2 0.8
v 5.3 0.2 -0.8
v 7.1 0.2 -0.8
v 5.3 0.2 -0.9
v 7.1 0.2 -0.9
v 5.3 0.3 1
v 5.8 0.3 1
v 5.3 0.3 0.9
v 5.8 0.3 0.9
v 5.3 0.3 -0.9
v 5.8 0.3 -0.9
v 5.3 0.3 -1
v 5.8 0.3 -1
v 6.1 0.4 -0.9
v 6.7 0.4 -0.9
v 6.1 0.4 -1
v 6.7 0.4 -1
v 6.6 0.5 1
v 7.1 0.5 1
v 6.6 0.5 0.9
v 7.1 0.5 0.9
v 5.8 0.5 -0.9
v 6.1 0.5 -0.9
v 6.7 0.5 -0.9
v 7.1 0.5 -0.9
v 5.8 0.5 -1
v 6.1 0.5 -1
v 6.7 0.5 -1
v 7.1 0.5 -1
v 5.7 0.7 0.8
v 5.8 0.7 0.8
v 6.6 0.7 0.8
v 6.7 0.7 0.8
v 5.8 0.7 -0.4
v 6.6 0.7 -0.4
v 5.7 0.7 -0.5
v 6.7 0.7 -0.5
v 5.3 0.9 1
v 5.4 0.9 1
v 7 0.9 1
v 7.1 0.9 1
v 5.4 0.9 -0.9
v 7 0.9 -0.9
v 5.3 0.9 -1
v 7.1 0.9 -1
v 5.4 1 1
v 5.8 1 1
v 6.6 1 1
v 7 1 1
v 5.8 1 -0.4
v 6.6 1 -0.4
v 5.4 1 -0.9
v 7 1 -0.9

# faces
f 4/1/1 2/1/1 1/1/1
f 5/1/1 2/1/1 4/1/1
f 8/2/1 4/2/1 3/2/1
f 9/2/1 6/2/1 5/2/1
f 11/2/1 8/2/1 7/2/1
f 11/1/1 5/1/1 4/1/1
f 11/2/1 4/2/1 8/2/1
f 12/2/1 10/2/1 9/2/1
f 12/1/1 5/1/1 11/1/1
f 12/2/1 9/2/1 5/2/1
f 13/2/1 11/2/1 7/2/1
f 13/2/1 12/2/1 11/2/1
f 14/2/1 10/2/1 12/2/1
f 14/2/1 12/2/1 13/2/1
f 17/2/1 16/2/1 15/2/1
f 18/2/1 16/2/1 17/2/1
f 21/2/1 20/2/1 19/2/1
f 22/2/1 20/2/1 21/2/1
f 26/2/1 24/2/1 23/2/1
f 27/2/1 24/2/1 26/2/1
f 27/2/1 26/2/1 25/2/1
f 29/2/1 27/2/1 25/2/1
f 29/2/1 28/2/1 27/2/1
f 30/2/1 28/2/1 29/2/1
f 33/1/1 32/1/1 31/1/1
f 34/1/1 32/1/1 33/1/1
f 35/1/1 32/1/1 34/1/1
f 36/1/2 37/1/2 38/1/2
f 38/1/2 37/1/2 39/1/2
f 39/1/2 37/1/2 40/1/2
f 41/2/2 42/2/2 44/2/2
f 45/2/2 46/2/2 47/2/2
f 47/2/2 46/2/2 48/2/2
f 44/2/2 42/2/2 49/2/2
f 43/2/2 44/2/2 49/2/2
f 43/2/2 49/2/2 51/2/2
f 49/2/2 50/2/2 51/2/2
f 51/2/2 50/2/2 52/2/2
f 53/2/2 54/2/2 55/2/2
f 55/2/2 54/2/2 56/2/2
f 57/2/2 58/2/2 59/2/2
f 59/2/2 58/2/2 60/2/2
f 61/1/2 62/1/2 64/1/2
f 64/1/2 62/1/2 65/1/2
f 63/2/2 64/2/2 68/2/2
f 65/2/2 66/2/2 69/2/2
f 67/2/2 68/2/2 71/2/2
f 64/1/2 65/1/2 71/1/2
f 68/2/2 64/2/2 71/2/2
f 69/2/2 70/2/2 72/2/2
f 71/1/2 65/1/2 72/1/2
f 65/2/2 69/2/2 72/2/2
f 67/2/2 71/2/2 73/2/2
f 71/2/2 72/2/2 73/2/2
f 72/2/2 70/2/2 74/2/2
f 73/2/2 72/2/2 74/2/2
f 77/2/3 76/2/3 75/2/3
f 79/2/3 77/2/3 75/2/3
f 79/2/3 78/2/3 77/2/3
f 80/2/3 78/2/3 79/2/3
f 83/2/3 82/2/3 81/2/3
f 84/2/3 82/2/3 83/2/3
f 85/2/3 83/2/3 81/2/3
f 86/2/3 83/2/3 85/2/3
f 89/2/3 88/2/3 87/2/3
f 90/2/3 88/2/3 89/2/3
f 93/2/3 92/2/3 91/2/3
f 94/2/3 92/2/3 93/2/3
f 97/1/3 96/1/3 95/1/3
f 98/1/3 96/1/3 97/1/3
f 101/1/3 100/1/3 99/1/3
f 102/1/3 100/1/3 101/1/3
f 105/2/3 104/2/3 103/2/3
f 106/2/3 104/2/3 105/2/3
f 109/1/3 108/1/3 107/1/3
f 110/1/3 108/1/3 109/1/3
f 111/2/4 112/2/4 113/2/4
f 113/2/4 112/2/4 114/2/4
f 115/2/4 116/2/4 117/2/4
f 117/2/4 116/2/4 118/2/4
f 119/1/4 120/1/4 121/1/4
f 121/1/4 120/1/4 122/1/4
f 123/2/4 124/2/4 127/2/4
f 127/2/4 128/2/4 129/2/4
f 129/2/4 128/2/4 130/2/4
f 127/2/4 129/2/4 131/2/4
f 125/2/4 126/2/4 133/2/4
f 133/2/4 126/2/4 134/2/4
f 131/2/4 132/2/4 135/2/4
f 123/2/4 127/2/4 135/2/4
f 127/2/4 131/2/4 135/2/4
f 135/2/4 132/2/4 136/2/4
f 137/2/4 138/2/4 139/2/4
f 139/2/4 138/2/4 140/2/4
f 140/2/4 138/2/4 142/2/4
f 141/2/4 142/2/4 143/2/4
f 142/2/4 138/2/4 144/2/4
f 143/2/4 142/2/4 144/2/4
f 144/2/4 138/2/4 145/2/4
f 145/2/4 138/2/4 146/2/4
f 151/1/5 148/1/5 147/1/5
f 152/1/5 150/1/5 149/1/5
f 153/1/5 151/1/5 147/1/5
f 153/1/5 152/1/5 151/1/5
f 154/1/5 150/1/5 152/1/5
f 154/1/5 152/1/5 153/1/5
f 159/2/5 156/2/5 155/2/5
f 160/2/5 156/2/5 159/2/5
f 161/2/5 156/2/5 160/2/5
f 162/2/5 158/2/5 157/2/5
f 163/2/5 158/2/5 162/2/5
f 164/2/5 158/2/5 163/2/5
f 167/2/5 166/2/5 165/2/5
f 168/2/5 166/2/5 167/2/5
f 171/2/5 170/2/5 169/2/5
f 172/2/5 170/2/5 171/2/5
f 175/2/5 174/2/5 173/2/5
f 176/2/5 174/2/5 175/2/5
f 179/2/5 178/2/5 177/2/5
f 180/2/5 178/2/5 179/2/5
f 183/2/5 182/2/5 181/2/5
f 184/2/5 182/2/5 183/2/5
f 189/2/5 186/2/5 185/2/5
f 190/2/5 186/2/5 189/2/5
f 191/2/5 188/2/5 187/2/5
f 192/2/5 188/2/5 191/2/5
f 197/2/5 194/2/5 193/2/5
f 198/2/5 196/2/5 195/2/5
f 199/2/5 197/2/5 193/2/5
f 199/2/5 198/2/5 197/2/5
f 200/2/5 196/2/5 198/2/5
f 200/2/5 198/2/5 199/2/5
f 201/2/6 202/2/6 205/2/6
f 203/2/6 204/2/6 206/2/6
f 201/2/6 205/2/6 207/2/6
f 205/2/6 206/2/6 207/2/6
f 206/2/6 204/2/6 208/2/6
f 207/2/6 206/2/6 208/2/6
f 209/2/6 210/2/6 213/2/6
f 211/2/6 212/2/6 214/2/6
f 209/2/6 213/2/6 215/2/6
f 213/2/6 214/2/6 215/2/6
f 214/2/6 212/2/6 216/2/6
f 215/2/6 214/2/6 216/2/6
