# MagicaVoxel @ Ephtracy

# group
o 

# material
mtllib Floors-7.mtl
usemtl palette

# normals
vn -1 0 0
vn 1 0 0
vn 0 0 1
vn 0 0 -1
vn 0 -1 0
vn 0 1 0

# texcoords
vt 0.0332031 0.5
vt 0.0371094 0.5
vt 0.189453 0.5

# verts
v 5.3 4.8 0.8
v 5.3 4.8 -0.8
v 5.3 5.1 -0.8
v 5.3 5.1 -0.9
v 5.3 5.2 0.9
v 5.3 5.2 0.8
v 5.3 5.4 1
v 5.3 5.4 0.9
v 5.3 5.4 -0.9
v 5.3 5.4 -1
v 5.3 5.5 0.9
v 5.3 5.5 0.8
v 5.3 5.5 -0.8
v 5.3 5.5 -0.9
v 5.3 5.6 1
v 5.3 5.6 0.7
v 5.3 5.6 -0.3
v 5.3 5.6 -1
v 5.3 5.7 0.7
v 5.3 5.7 -0.3
v 5.4 5.1 0.9
v 5.4 5.1 0.8
v 5.4 5.2 0.9
v 5.4 5.2 0.8
v 5.4 5.6 0.9
v 5.4 5.6 0.7
v 5.4 5.6 -0.3
v 5.4 5.6 -0.9
v 5.4 5.7 0.9
v 5.4 5.7 0.7
v 5.4 5.7 -0.3
v 5.4 5.7 -0.9
v 5.5 5.2 1
v 5.5 5.2 0.9
v 5.5 5.2 -0.9
v 5.5 5.2 -1
v 5.5 5.4 1
v 5.5 5.4 0.9
v 5.5 5.4 -0.9
v 5.5 5.4 -1
v 5.6 5 0.9
v 5.6 5 0.8
v 5.6 5 -0.8
v 5.6 5 -0.9
v 5.6 5.1 1
v 5.6 5.1 0.9
v 5.6 5.1 0.8
v 5.6 5.1 -0.8
v 5.6 5.1 -0.9
v 5.6 5.1 -1
v 5.6 5.2 1
v 5.6 5.2 0.9
v 5.6 5.2 -0.9
v 5.6 5.2 -1
v 5.6 5.6 -0.9
v 5.6 5.6 -1
v 5.6 5.7 -0.9
v 5.6 5.7 -1
v 5.7 4.9 0.9
v 5.7 4.9 0.8
v 5.7 4.9 -0.8
v 5.7 4.9 -0.9
v 5.7 5 1
v 5.7 5 0.9
v 5.7 5 0.8
v 5.7 5 -0.8
v 5.7 5 -0.9
v 5.7 5 -1
v 5.7 5.1 1
v 5.7 5.1 0.9
v 5.7 5.1 -0.9
v 5.7 5.1 -1
v 5.8 4.8 -0.8
v 5.8 4.8 -0.9
v 5.8 4.9 -0.8
v 5.8 4.9 -0.9
v 6.4 5.1 -0.8
v 6.4 5.1 -0.9
v 6.4 5.4 -0.8
v 6.4 5.4 -0.9
v 6.4 5.4 -1
v 6.4 5.5 -0.9
v 6.4 5.5 -1
v 6.5 5 -0.8
v 6.5 5 -0.9
v 6.5 5.1 -0.8
v 6.5 5.1 -0.9
v 6.5 5.1 -1
v 6.5 5.4 -0.9
v 6.5 5.4 -1
v 6.5 5.6 -0.9
v 6.5 5.6 -1
v 6.5 5.7 -0.9
v 6.5 5.7 -1
v 6.6 4.9 0.9
v 6.6 4.9 0.8
v 6.6 4.9 -0.8
v 6.6 4.9 -0.9
v 6.6 5 1
v 6.6 5 0.9
v 6.6 5 -0.8
v 6.6 5 -0.9
v 6.6 5 -1
v 6.6 5.1 -0.9
v 6.6 5.1 -1
v 6.6 5.5 0.9
v 6.6 5.5 0.8
v 6.6 5.5 -0.4
v 6.6 5.6 1
v 6.6 5.6 0.9
v 6.6 5.7 0.9
v 6.6 5.7 -0.4
v 6.7 4.8 0.9
v 6.7 4.8 0.8
v 6.7 4.8 -0.5
v 6.7 4.8 -0.8
v 6.7 4.8 -0.9
v 6.7 4.9 0.9
v 6.7 4.9 0.8
v 6.7 4.9 -0.8
v 6.7 4.9 -0.9
v 6.7 5.5 0.8
v 6.7 5.5 -0.5
v 5.7 4.8 0.8
v 5.7 4.8 -0.5
v 5.7 4.9 0.8
v 5.7 5.5 0.8
v 5.7 5.5 -0.5
v 5.8 4.9 0.9
v 5.8 4.9 0.8
v 5.8 5 1
v 5.8 5 0.9
v 5.8 5.5 0.9
v 5.8 5.5 0.8
v 5.8 5.5 -0.4
v 5.8 5.6 1
v 5.8 5.6 0.9
v 5.8 5.7 0.9
v 5.8 5.7 -0.4
v 5.9 4.8 -0.8
v 5.9 4.8 -0.9
v 5.9 5 -0.8
v 5.9 5 -0.9
v 5.9 5 -1
v 5.9 5.2 -0.9
v 5.9 5.2 -1
v 6 5 -0.8
v 6 5 -0.9
v 6 5.2 -0.8
v 6 5.2 -0.9
v 6 5.2 -1
v 6 5.3 -0.9
v 6 5.3 -1
v 6 5.6 -0.9
v 6 5.6 -1
v 6 5.7 -0.9
v 6 5.7 -1
v 6.1 5.2 -0.8
v 6.1 5.2 -0.9
v 6.1 5.3 -0.8
v 6.1 5.3 -0.9
v 6.1 5.3 -1
v 6.1 5.4 -0.9
v 6.1 5.4 -1
v 6.3 5.3 -0.8
v 6.3 5.3 -0.9
v 6.3 5.4 -0.8
v 6.3 5.4 -0.9
v 6.3 5.4 -1
v 6.3 5.5 -0.9
v 6.3 5.5 -1
v 6.8 4.8 0.9
v 6.8 4.8 0.8
v 6.8 4.8 -0.8
v 6.8 4.8 -0.9
v 6.8 5 1
v 6.8 5 0.9
v 6.8 5 0.8
v 6.8 5 -0.8
v 6.8 5 -0.9
v 6.8 5 -1
v 6.8 5.1 1
v 6.8 5.1 0.9
v 6.8 5.1 -0.9
v 6.8 5.1 -1
v 6.9 5 0.9
v 6.9 5 0.8
v 6.9 5 -0.8
v 6.9 5 -0.9
v 6.9 5.1 1
v 6.9 5.1 0.9
v 6.9 5.1 0.8
v 6.9 5.1 -0.8
v 6.9 5.1 -0.9
v 6.9 5.1 -1
v 6.9 5.2 1
v 6.9 5.2 0.9
v 6.9 5.2 -0.9
v 6.9 5.2 -1
v 6.9 5.6 -0.9
v 6.9 5.6 -1
v 6.9 5.7 -0.9
v 6.9 5.7 -1
v 7 5.6 0.9
v 7 5.6 0.3
v 7 5.6 0
v 7 5.6 -0.4
v 7 5.6 -0.7
v 7 5.6 -0.9
v 7 5.7 0.9
v 7 5.7 0.3
v 7 5.7 0
v 7 5.7 -0.4
v 7 5.7 -0.7
v 7 5.7 -0.9
v 7.1 4.8 0.8
v 7.1 4.8 -0.8
v 7.1 5.1 0.9
v 7.1 5.1 0.8
v 7.1 5.1 -0.8
v 7.1 5.1 -0.9
v 7.1 5.2 1
v 7.1 5.2 0.9
v 7.1 5.2 -0.9
v 7.1 5.2 -1
v 7.1 5.5 0.9
v 7.1 5.5 0.8
v 7.1 5.5 -0.8
v 7.1 5.5 -0.9
v 7.1 5.6 1
v 7.1 5.6 0.3
v 7.1 5.6 0
v 7.1 5.6 -0.4
v 7.1 5.6 -0.7
v 7.1 5.6 -1
v 7.1 5.7 0.3
v 7.1 5.7 0
v 7.1 5.7 -0.4
v 7.1 5.7 -0.7
v 5.3 5.4 1
v 5.3 5.6 1
v 5.5 5.2 1
v 5.5 5.4 1
v 5.6 5.1 1
v 5.6 5.2 1
v 5.7 5 1
v 5.7 5.1 1
v 5.8 5 1
v 5.8 5.6 1
v 6.6 5 1
v 6.6 5.6 1
v 6.8 5 1
v 6.8 5.1 1
v 6.9 5.1 1
v 6.9 5.2 1
v 7.1 5.2 1
v 7.1 5.6 1
v 5.3 5.2 0.9
v 5.3 5.4 0.9
v 5.4 5.1 0.9
v 5.4 5.2 0.9
v 5.4 5.6 0.9
v 5.4 5.7 0.9
v 5.5 5.2 0.9
v 5.5 5.4 0.9
v 5.6 5 0.9
v 5.6 5.1 0.9
v 5.6 5.2 0.9
v 5.7 4.9 0.9
v 5.7 5 0.9
v 5.7 5.1 0.9
v 5.8 4.9 0.9
v 5.8 5 0.9
v 5.8 5.6 0.9
v 5.8 5.7 0.9
v 6.6 4.9 0.9
v 6.6 5 0.9
v 6.6 5.6 0.9
v 6.6 5.7 0.9
v 6.7 4.8 0.9
v 6.7 4.9 0.9
v 6.8 4.8 0.9
v 6.8 5 0.9
v 6.8 5.1 0.9
v 6.9 5 0.9
v 6.9 5.1 0.9
v 6.9 5.2 0.9
v 7 5.6 0.9
v 7 5.7 0.9
v 7.1 5.1 0.9
v 7.1 5.2 0.9
v 5.3 4.8 0.8
v 5.3 5.2 0.8
v 5.4 5.1 0.8
v 5.4 5.2 0.8
v 5.6 5 0.8
v 5.6 5.1 0.8
v 5.7 4.8 0.8
v 5.7 4.9 0.8
v 5.7 5 0.8
v 6.8 4.8 0.8
v 6.8 5 0.8
v 6.9 5 0.8
v 6.9 5.1 0.8
v 7.1 4.8 0.8
v 7.1 5.1 0.8
v 5.3 5.6 0.7
v 5.3 5.7 0.7
v 5.4 5.6 0.7
v 5.4 5.7 0.7
v 7 5.6 0.3
v 7 5.7 0.3
v 7.1 5.6 0.3
v 7.1 5.7 0.3
v 5.8 5.5 -0.4
v 5.8 5.7 -0.4
v 6.6 5.5 -0.4
v 6.6 5.7 -0.4
v 7 5.6 -0.4
v 7 5.7 -0.4
v 7.1 5.6 -0.4
v 7.1 5.7 -0.4
v 5.7 4.8 -0.5
v 5.7 5.5 -0.5
v 6.7 4.8 -0.5
v 6.7 5.5 -0.5
v 5.7 4.9 0.8
v 5.7 5.5 0.8
v 5.8 4.9 0.8
v 5.8 5.5 0.8
v 6.6 4.9 0.8
v 6.6 5.5 0.8
v 6.7 4.9 0.8
v 6.7 5.5 0.8
v 7 5.6 0
v 7 5.7 0
v 7.1 5.6 0
v 7.1 5.7 0
v 5.3 5.6 -0.3
v 5.3 5.7 -0.3
v 5.4 5.6 -0.3
v 5.4 5.7 -0.3
v 7 5.6 -0.7
v 7 5.7 -0.7
v 7.1 5.6 -0.7
v 7.1 5.7 -0.7
v 5.3 4.8 -0.8
v 5.3 5.1 -0.8
v 5.6 5 -0.8
v 5.6 5.1 -0.8
v 5.7 4.9 -0.8
v 5.7 5 -0.8
v 5.8 4.8 -0.8
v 5.8 4.9 -0.8
v 5.9 4.8 -0.8
v 5.9 5 -0.8
v 6 5 -0.8
v 6 5.2 -0.8
v 6.1 5.2 -0.8
v 6.1 5.3 -0.8
v 6.3 5.3 -0.8
v 6.3 5.4 -0.8
v 6.4 5.1 -0.8
v 6.4 5.4 -0.8
v 6.5 5 -0.8
v 6.5 5.1 -0.8
v 6.6 4.9 -0.8
v 6.6 5 -0.8
v 6.7 4.8 -0.8
v 6.7 4.9 -0.8
v 6.8 4.8 -0.8
v 6.8 5 -0.8
v 6.9 5 -0.8
v 6.9 5.1 -0.8
v 7.1 4.8 -0.8
v 7.1 5.1 -0.8
v 5.3 5.1 -0.9
v 5.3 5.4 -0.9
v 5.4 5.6 -0.9
v 5.4 5.7 -0.9
v 5.5 5.2 -0.9
v 5.5 5.4 -0.9
v 5.6 5 -0.9
v 5.6 5.1 -0.9
v 5.6 5.2 -0.9
v 5.6 5.6 -0.9
v 5.6 5.7 -0.9
v 5.7 4.9 -0.9
v 5.7 5 -0.9
v 5.7 5.1 -0.9
v 5.8 4.8 -0.9
v 5.8 4.9 -0.9
v 5.9 4.8 -0.9
v 5.9 5 -0.9
v 5.9 5.2 -0.9
v 6 5 -0.9
v 6 5.2 -0.9
v 6 5.3 -0.9
v 6 5.6 -0.9
v 6 5.7 -0.9
v 6.1 5.2 -0.9
v 6.1 5.3 -0.9
v 6.1 5.4 -0.9
v 6.3 5.3 -0.9
v 6.3 5.4 -0.9
v 6.3 5.5 -0.9
v 6.4 5.1 -0.9
v 6.4 5.4 -0.9
v 6.4 5.5 -0.9
v 6.5 5 -0.9
v 6.5 5.1 -0.9
v 6.5 5.4 -0.9
v 6.5 5.6 -0.9
v 6.5 5.7 -0.9
v 6.6 4.9 -0.9
v 6.6 5 -0.9
v 6.6 5.1 -0.9
v 6.7 4.8 -0.9
v 6.7 4.9 -0.9
v 6.8 4.8 -0.9
v 6.8 5 -0.9
v 6.8 5.1 -0.9
v 6.9 5 -0.9
v 6.9 5.1 -0.9
v 6.9 5.2 -0.9
v 6.9 5.6 -0.9
v 6.9 5.7 -0.9
v 7 5.6 -0.9
v 7 5.7 -0.9
v 7.1 5.1 -0.9
v 7.1 5.2 -0.9
v 5.3 5.4 -1
v 5.3 5.6 -1
v 5.5 5.2 -1
v 5.5 5.4 -1
v 5.6 5.1 -1
v 5.6 5.2 -1
v 5.6 5.6 -1
v 5.6 5.7 -1
v 5.7 5 -1
v 5.7 5.1 -1
v 5.9 5 -1
v 5.9 5.2 -1
v 6 5.2 -1
v 6 5.3 -1
v 6 5.6 -1
v 6 5.7 -1
v 6.1 5.3 -1
v 6.1 5.4 -1
v 6.3 5.4 -1
v 6.3 5.5 -1
v 6.4 5.4 -1
v 6.4 5.5 -1
v 6.5 5.1 -1
v 6.5 5.4 -1
v 6.5 5.6 -1
v 6.5 5.7 -1
v 6.6 5 -1
v 6.6 5.1 -1
v 6.8 5 -1
v 6.8 5.1 -1
v 6.9 5.1 -1
v 6.9 5.2 -1
v 6.9 5.6 -1
v 6.9 5.7 -1
v 7.1 5.2 -1
v 7.1 5.6 -1
v 6.7 4.8 0.9
v 6.8 4.8 0.9
v 5.3 4.8 0.8
v 5.7 4.8 0.8
v 6.7 4.8 0.8
v 6.8 4.8 0.8
v 7.1 4.8 0.8
v 5.7 4.8 -0.5
v 6.7 4.8 -0.5
v 5.3 4.8 -0.8
v 5.8 4.8 -0.8
v 5.9 4.8 -0.8
v 6.7 4.8 -0.8
v 6.8 4.8 -0.8
v 7.1 4.8 -0.8
v 5.8 4.8 -0.9
v 5.9 4.8 -0.9
v 6.7 4.8 -0.9
v 6.8 4.8 -0.9
v 5.7 4.9 0.9
v 5.8 4.9 0.9
v 6.6 4.9 0.9
v 6.7 4.9 0.9
v 5.7 4.9 0.8
v 5.8 4.9 0.8
v 6.6 4.9 0.8
v 6.7 4.9 0.8
v 5.7 4.9 -0.8
v 5.8 4.9 -0.8
v 6.6 4.9 -0.8
v 6.7 4.9 -0.8
v 5.7 4.9 -0.9
v 5.8 4.9 -0.9
v 6.6 4.9 -0.9
v 6.7 4.9 -0.9
v 5.7 5 1
v 5.8 5 1
v 6.6 5 1
v 6.8 5 1
v 5.6 5 0.9
v 5.7 5 0.9
v 5.8 5 0.9
v 6.6 5 0.9
v 6.8 5 0.9
v 6.9 5 0.9
v 5.6 5 0.8
v 5.7 5 0.8
v 6.8 5 0.8
v 6.9 5 0.8
v 5.6 5 -0.8
v 5.7 5 -0.8
v 5.9 5 -0.8
v 6 5 -0.8
v 6.5 5 -0.8
v 6.6 5 -0.8
v 6.8 5 -0.8
v 6.9 5 -0.8
v 5.6 5 -0.9
v 5.7 5 -0.9
v 5.9 5 -0.9
v 6 5 -0.9
v 6.5 5 -0.9
v 6.6 5 -0.9
v 6.8 5 -0.9
v 6.9 5 -0.9
v 5.7 5 -1
v 5.9 5 -1
v 6.6 5 -1
v 6.8 5 -1
v 5.6 5.1 1
v 5.7 5.1 1
v 6.8 5.1 1
v 6.9 5.1 1
v 5.4 5.1 0.9
v 5.6 5.1 0.9
v 5.7 5.1 0.9
v 6.8 5.1 0.9
v 6.9 5.1 0.9
v 7.1 5.1 0.9
v 5.4 5.1 0.8
v 5.6 5.1 0.8
v 6.9 5.1 0.8
v 7.1 5.1 0.8
v 5.3 5.1 -0.8
v 5.6 5.1 -0.8
v 6.4 5.1 -0.8
v 6.5 5.1 -0.8
v 6.9 5.1 -0.8
v 7.1 5.1 -0.8
v 5.3 5.1 -0.9
v 5.6 5.1 -0.9
v 5.7 5.1 -0.9
v 6.4 5.1 -0.9
v 6.5 5.1 -0.9
v 6.6 5.1 -0.9
v 6.8 5.1 -0.9
v 6.9 5.1 -0.9
v 7.1 5.1 -0.9
v 5.6 5.1 -1
v 5.7 5.1 -1
v 6.5 5.1 -1
v 6.6 5.1 -1
v 6.8 5.1 -1
v 6.9 5.1 -1
v 5.5 5.2 1
v 5.6 5.2 1
v 6.9 5.2 1
v 7.1 5.2 1
v 5.3 5.2 0.9
v 5.4 5.2 0.9
v 5.5 5.2 0.9
v 5.6 5.2 0.9
v 6.9 5.2 0.9
v 7.1 5.2 0.9
v 5.3 5.2 0.8
v 5.4 5.2 0.8
v 6 5.2 -0.8
v 6.1 5.2 -0.8
v 5.5 5.2 -0.9
v 5.6 5.2 -0.9
v 5.9 5.2 -0.9
v 6 5.2 -0.9
v 6.1 5.2 -0.9
v 6.9 5.2 -0.9
v 7.1 5.2 -0.9
v 5.5 5.2 -1
v 5.6 5.2 -1
v 5.9 5.2 -1
v 6 5.2 -1
v 6.9 5.2 -1
v 7.1 5.2 -1
v 6.1 5.3 -0.8
v 6.3 5.3 -0.8
v 6 5.3 -0.9
v 6.1 5.3 -0.9
v 6.3 5.3 -0.9
v 6 5.3 -1
v 6.1 5.3 -1
v 5.3 5.4 1
v 5.5 5.4 1
v 5.3 5.4 0.9
v 5.5 5.4 0.9
v 6.3 5.4 -0.8
v 6.4 5.4 -0.8
v 5.3 5.4 -0.9
v 5.5 5.4 -0.9
v 6.1 5.4 -0.9
v 6.3 5.4 -0.9
v 6.4 5.4 -0.9
v 6.5 5.4 -0.9
v 5.3 5.4 -1
v 5.5 5.4 -1
v 6.1 5.4 -1
v 6.3 5.4 -1
v 6.4 5.4 -1
v 6.5 5.4 -1
v 5.7 5.5 0.8
v 5.8 5.5 0.8
v 6.6 5.5 0.8
v 6.7 5.5 0.8
v 5.8 5.5 -0.4
v 6.6 5.5 -0.4
v 5.7 5.5 -0.5
v 6.7 5.5 -0.5
v 6.3 5.5 -0.9
v 6.4 5.5 -0.9
v 6.3 5.5 -1
v 6.4 5.5 -1
v 5.3 5.6 1
v 5.8 5.6 1
v 6.6 5.6 1
v 7.1 5.6 1
v 5.4 5.6 0.9
v 5.8 5.6 0.9
v 6.6 5.6 0.9
v 7 5.6 0.9
v 5.3 5.6 0.7
v 5.4 5.6 0.7
v 7 5.6 0.3
v 7.1 5.6 0.3
v 7 5.6 0
v 7.1 5.6 0
v 5.3 5.6 -0.3
v 5.4 5.6 -0.3
v 7 5.6 -0.4
v 7.1 5.6 -0.4
v 7 5.6 -0.7
v 7.1 5.6 -0.7
v 5.4 5.6 -0.9
v 5.6 5.6 -0.9
v 6 5.6 -0.9
v 6.5 5.6 -0.9
v 6.9 5.6 -0.9
v 7 5.6 -0.9
v 5.3 5.6 -1
v 5.6 5.6 -1
v 6 5.6 -1
v 6.5 5.6 -1
v 6.9 5.6 -1
v 7.1 5.6 -1
v 5.4 5.7 0.9
v 5.8 5.7 0.9
v 6.6 5.7 0.9
v 7 5.7 0.9
v 5.3 5.7 0.7
v 5.4 5.7 0.7
v 7 5.7 0.3
v 7.1 5.7 0.3
v 7 5.7 0
v 7.1 5.7 0
v 5.3 5.7 -0.3
v 5.4 5.7 -0.3
v 5.8 5.7 -0.4
v 6.6 5.7 -0.4
v 7 5.7 -0.4
v 7.1 5.7 -0.4
v 7 5.7 -0.7
v 7.1 5.7 -0.7
v 5.4 5.7 -0.9
v 5.6 5.7 -0.9
v 6 5.7 -0.9
v 6.5 5.7 -0.9
v 6.9 5.7 -0.9
v 7 5.7 -0.9
v 5.6 5.7 -1
v 6 5.7 -1
v 6.5 5.7 -1
v 6.9 5.7 -1

# faces
f 3/1/1 2/1/1 1/1/1
f 6/1/1 3/1/1 1/1/1
f 8/3/1 6/3/1 5/3/1
f 9/3/1 4/3/1 3/3/1
f 11/2/1 8/2/1 7/2/1
f 11/3/1 6/3/1 8/3/1
f 12/1/1 3/1/1 6/1/1
f 12/3/1 6/3/1 11/3/1
f 13/3/1 9/3/1 3/3/1
f 13/1/1 3/1/1 12/1/1
f 14/2/1 10/2/1 9/2/1
f 14/3/1 9/3/1 13/3/1
f 15/2/1 13/2/1 12/2/1
f 15/2/1 11/2/1 7/2/1
f 15/2/1 14/2/1 13/2/1
f 15/2/1 12/2/1 11/2/1
f 16/2/1 14/2/1 15/2/1
f 17/2/1 14/2/1 16/2/1
f 18/2/1 10/2/1 14/2/1
f 18/2/1 14/2/1 17/2/1
f 19/2/1 17/2/1 16/2/1
f 20/2/1 17/2/1 19/2/1
f 23/3/1 22/3/1 21/3/1
f 24/3/1 22/3/1 23/3/1
f 29/2/1 26/2/1 25/2/1
f 30/2/1 26/2/1 29/2/1
f 31/2/1 28/2/1 27/2/1
f 32/2/1 28/2/1 31/2/1
f 37/2/1 34/2/1 33/2/1
f 38/2/1 34/2/1 37/2/1
f 39/2/1 36/2/1 35/2/1
f 40/2/1 36/2/1 39/2/1
f 46/3/1 42/3/1 41/3/1
f 47/3/1 42/3/1 46/3/1
f 48/3/1 44/3/1 43/3/1
f 49/3/1 44/3/1 48/3/1
f 51/2/1 46/2/1 45/2/1
f 52/2/1 46/2/1 51/2/1
f 53/2/1 50/2/1 49/2/1
f 54/2/1 50/2/1 53/2/1
f 57/2/1 56/2/1 55/2/1
f 58/2/1 56/2/1 57/2/1
f 64/3/1 60/3/1 59/3/1
f 65/3/1 60/3/1 64/3/1
f 66/3/1 62/3/1 61/3/1
f 67/3/1 62/3/1 66/3/1
f 69/2/1 64/2/1 63/2/1
f 70/2/1 64/2/1 69/2/1
f 71/2/1 68/2/1 67/2/1
f 72/2/1 68/2/1 71/2/1
f 75/3/1 74/3/1 73/3/1
f 76/3/1 74/3/1 75/3/1
f 79/3/1 78/3/1 77/3/1
f 80/3/1 78/3/1 79/3/1
f 82/2/1 81/2/1 80/2/1
f 83/2/1 81/2/1 82/2/1
f 86/3/1 85/3/1 84/3/1
f 87/3/1 85/3/1 86/3/1
f 89/2/1 88/2/1 87/2/1
f 90/2/1 88/2/1 89/2/1
f 93/2/1 92/2/1 91/2/1
f 94/2/1 92/2/1 93/2/1
f 100/3/1 96/3/1 95/3/1
f 101/3/1 98/3/1 97/3/1
f 102/3/1 98/3/1 101/3/1
f 104/2/1 103/2/1 102/2/1
f 105/2/1 103/2/1 104/2/1
f 106/2/1 100/2/1 99/2/1
f 106/3/1 96/3/1 100/3/1
f 107/3/1 96/3/1 106/3/1
f 109/2/1 106/2/1 99/2/1
f 109/2/1 108/2/1 107/2/1
f 109/2/1 107/2/1 106/2/1
f 110/2/1 108/2/1 109/2/1
f 111/2/1 108/2/1 110/2/1
f 112/2/1 108/2/1 111/2/1
f 118/3/1 114/3/1 113/3/1
f 119/1/1 115/1/1 114/1/1
f 119/3/1 114/3/1 118/3/1
f 120/3/1 117/3/1 116/3/1
f 121/3/1 117/3/1 120/3/1
f 122/1/1 115/1/1 119/1/1
f 123/1/1 115/1/1 122/1/1
f 124/1/2 125/1/2 126/1/2
f 126/1/2 125/1/2 127/1/2
f 127/1/2 125/1/2 128/1/2
f 129/3/2 130/3/2 132/3/2
f 132/3/2 130/3/2 133/3/2
f 131/2/2 132/2/2 133/2/2
f 133/3/2 130/3/2 134/3/2
f 131/2/2 133/2/2 136/2/2
f 134/2/2 135/2/2 136/2/2
f 133/2/2 134/2/2 136/2/2
f 136/2/2 135/2/2 137/2/2
f 137/2/2 135/2/2 138/2/2
f 138/2/2 135/2/2 139/2/2
f 140/3/2 141/3/2 142/3/2
f 142/3/2 141/3/2 143/3/2
f 143/2/2 144/2/2 145/2/2
f 145/2/2 144/2/2 146/2/2
f 147/3/2 148/3/2 149/3/2
f 149/3/2 148/3/2 150/3/2
f 150/2/2 151/2/2 152/2/2
f 152/2/2 151/2/2 153/2/2
f 154/2/2 155/2/2 156/2/2
f 156/2/2 155/2/2 157/2/2
f 158/3/2 159/3/2 160/3/2
f 160/3/2 159/3/2 161/3/2
f 161/2/2 162/2/2 163/2/2
f 163/2/2 162/2/2 164/2/2
f 165/3/2 166/3/2 167/3/2
f 167/3/2 166/3/2 168/3/2
f 168/2/2 169/2/2 170/2/2
f 170/2/2 169/2/2 171/2/2
f 172/3/2 173/3/2 177/3/2
f 177/3/2 173/3/2 178/3/2
f 174/3/2 175/3/2 179/3/2
f 179/3/2 175/3/2 180/3/2
f 176/2/2 177/2/2 182/2/2
f 182/2/2 177/2/2 183/2/2
f 180/2/2 181/2/2 184/2/2
f 184/2/2 181/2/2 185/2/2
f 186/3/2 187/3/2 191/3/2
f 191/3/2 187/3/2 192/3/2
f 188/3/2 189/3/2 193/3/2
f 193/3/2 189/3/2 194/3/2
f 190/2/2 191/2/2 196/2/2
f 196/2/2 191/2/2 197/2/2
f 194/2/2 195/2/2 198/2/2
f 198/2/2 195/2/2 199/2/2
f 200/2/2 201/2/2 202/2/2
f 202/2/2 201/2/2 203/2/2
f 204/2/2 205/2/2 210/2/2
f 210/2/2 205/2/2 211/2/2
f 206/2/2 207/2/2 212/2/2
f 212/2/2 207/2/2 213/2/2
f 208/2/2 209/2/2 214/2/2
f 214/2/2 209/2/2 215/2/2
f 216/1/2 217/1/2 219/1/2
f 219/1/2 217/1/2 220/1/2
f 218/3/2 219/3/2 223/3/2
f 220/3/2 221/3/2 224/3/2
f 222/2/2 223/2/2 226/2/2
f 223/3/2 219/3/2 226/3/2
f 219/1/2 220/1/2 227/1/2
f 226/3/2 219/3/2 227/3/2
f 220/3/2 224/3/2 228/3/2
f 227/1/2 220/1/2 228/1/2
f 224/2/2 225/2/2 229/2/2
f 228/3/2 224/3/2 229/3/2
f 227/2/2 228/2/2 230/2/2
f 222/2/2 226/2/2 230/2/2
f 228/2/2 229/2/2 230/2/2
f 226/2/2 227/2/2 230/2/2
f 230/2/2 229/2/2 231/2/2
f 231/2/2 229/2/2 232/2/2
f 232/2/2 229/2/2 233/2/2
f 233/2/2 229/2/2 234/2/2
f 229/2/2 225/2/2 235/2/2
f 234/2/2 229/2/2 235/2/2
f 231/2/2 232/2/2 236/2/2
f 236/2/2 232/2/2 237/2/2
f 233/2/2 234/2/2 238/2/2
f 238/2/2 234/2/2 239/2/2
f 243/2/3 241/2/3 240/2/3
f 245/2/3 243/2/3 242/2/3
f 247/2/3 245/2/3 244/2/3
f 248/2/3 247/2/3 246/2/3
f 249/2/3 241/2/3 243/2/3
f 249/2/3 247/2/3 248/2/3
f 249/2/3 243/2/3 245/2/3
f 249/2/3 245/2/3 247/2/3
f 252/2/3 251/2/3 250/2/3
f 253/2/3 251/2/3 252/2/3
f 254/2/3 251/2/3 253/2/3
f 255/2/3 251/2/3 254/2/3
f 256/2/3 251/2/3 255/2/3
f 257/2/3 251/2/3 256/2/3
f 261/3/3 259/3/3 258/3/3
f 264/3/3 259/3/3 261/3/3
f 264/3/3 261/3/3 260/3/3
f 265/3/3 259/3/3 264/3/3
f 267/3/3 264/3/3 260/3/3
f 268/3/3 264/3/3 267/3/3
f 270/3/3 267/3/3 266/3/3
f 271/3/3 267/3/3 270/3/3
f 272/3/3 270/3/3 269/3/3
f 273/3/3 270/3/3 272/3/3
f 274/2/3 263/2/3 262/2/3
f 275/2/3 263/2/3 274/2/3
f 281/3/3 277/3/3 276/3/3
f 282/3/3 281/3/3 280/3/3
f 283/3/3 277/3/3 281/3/3
f 283/3/3 281/3/3 282/3/3
f 285/3/3 284/3/3 283/3/3
f 286/3/3 284/3/3 285/3/3
f 288/2/3 279/2/3 278/2/3
f 289/2/3 279/2/3 288/2/3
f 290/3/3 287/3/3 286/3/3
f 291/3/3 287/3/3 290/3/3
f 294/1/3 293/1/3 292/1/3
f 295/1/3 293/1/3 294/1/3
f 296/1/3 294/1/3 292/1/3
f 297/1/3 294/1/3 296/1/3
f 298/1/3 296/1/3 292/1/3
f 299/1/3 296/1/3 298/1/3
f 300/1/3 296/1/3 299/1/3
f 303/1/3 302/1/3 301/1/3
f 305/1/3 303/1/3 301/1/3
f 305/1/3 304/1/3 303/1/3
f 306/1/3 304/1/3 305/1/3
f 309/2/3 308/2/3 307/2/3
f 310/2/3 308/2/3 309/2/3
f 313/2/3 312/2/3 311/2/3
f 314/2/3 312/2/3 313/2/3
f 317/2/3 316/2/3 315/2/3
f 318/2/3 316/2/3 317/2/3
f 321/2/3 320/2/3 319/2/3
f 322/2/3 320/2/3 321/2/3
f 325/1/3 324/1/3 323/1/3
f 326/1/3 324/1/3 325/1/3
f 327/3/4 328/3/4 329/3/4
f 329/3/4 328/3/4 330/3/4
f 331/3/4 332/3/4 333/3/4
f 333/3/4 332/3/4 334/3/4
f 335/2/4 336/2/4 337/2/4
f 337/2/4 336/2/4 338/2/4
f 339/2/4 340/2/4 341/2/4
f 341/2/4 340/2/4 342/2/4
f 343/2/4 344/2/4 345/2/4
f 345/2/4 344/2/4 346/2/4
f 347/1/4 348/1/4 349/1/4
f 349/1/4 348/1/4 350/1/4
f 347/1/4 349/1/4 351/1/4
f 351/1/4 349/1/4 352/1/4
f 347/1/4 351/1/4 353/1/4
f 353/1/4 351/1/4 354/1/4
f 355/1/4 356/1/4 357/1/4
f 357/1/4 358/1/4 359/1/4
f 359/1/4 360/1/4 361/1/4
f 357/1/4 359/1/4 363/1/4
f 361/1/4 362/1/4 363/1/4
f 359/1/4 361/1/4 363/1/4
f 363/1/4 362/1/4 364/1/4
f 355/1/4 357/1/4 365/1/4
f 357/1/4 363/1/4 365/1/4
f 365/1/4 363/1/4 366/1/4
f 355/1/4 365/1/4 367/1/4
f 367/1/4 365/1/4 368/1/4
f 355/1/4 367/1/4 369/1/4
f 369/1/4 367/1/4 370/1/4
f 371/1/4 372/1/4 373/1/4
f 371/1/4 373/1/4 375/1/4
f 373/1/4 374/1/4 375/1/4
f 375/1/4 374/1/4 376/1/4
f 377/3/4 378/3/4 381/3/4
f 381/3/4 378/3/4 382/3/4
f 377/3/4 381/3/4 384/3/4
f 384/3/4 381/3/4 385/3/4
f 379/2/4 380/2/4 386/2/4
f 386/2/4 380/2/4 387/2/4
f 383/3/4 384/3/4 389/3/4
f 389/3/4 384/3/4 390/3/4
f 388/3/4 389/3/4 392/3/4
f 391/3/4 392/3/4 393/3/4
f 392/3/4 389/3/4 394/3/4
f 393/3/4 392/3/4 394/3/4
f 394/3/4 395/3/4 396/3/4
f 396/3/4 395/3/4 397/3/4
f 397/3/4 398/3/4 401/3/4
f 401/3/4 398/3/4 402/3/4
f 402/3/4 403/3/4 404/3/4
f 404/3/4 403/3/4 405/3/4
f 405/3/4 406/3/4 408/3/4
f 408/3/4 406/3/4 409/3/4
f 407/3/4 408/3/4 411/3/4
f 411/3/4 408/3/4 412/3/4
f 399/2/4 400/2/4 413/2/4
f 413/2/4 400/2/4 414/2/4
f 410/3/4 411/3/4 416/3/4
f 416/3/4 411/3/4 417/3/4
f 415/3/4 416/3/4 419/3/4
f 418/3/4 419/3/4 420/3/4
f 419/3/4 416/3/4 421/3/4
f 420/3/4 419/3/4 421/3/4
f 421/3/4 422/3/4 423/3/4
f 423/3/4 422/3/4 424/3/4
f 426/2/4 427/2/4 428/2/4
f 428/2/4 427/2/4 429/2/4
f 424/3/4 425/3/4 430/3/4
f 430/3/4 425/3/4 431/3/4
f 432/2/4 433/2/4 435/2/4
f 434/2/4 435/2/4 437/2/4
f 435/2/4 433/2/4 438/2/4
f 437/2/4 435/2/4 438/2/4
f 436/2/4 437/2/4 441/2/4
f 438/2/4 439/2/4 441/2/4
f 437/2/4 438/2/4 441/2/4
f 440/2/4 441/2/4 442/2/4
f 441/2/4 439/2/4 443/2/4
f 442/2/4 441/2/4 443/2/4
f 443/2/4 439/2/4 444/2/4
f 444/2/4 439/2/4 445/2/4
f 445/2/4 439/2/4 446/2/4
f 446/2/4 439/2/4 447/2/4
f 445/2/4 446/2/4 448/2/4
f 448/2/4 446/2/4 449/2/4
f 449/2/4 446/2/4 450/2/4
f 450/2/4 446/2/4 451/2/4
f 451/2/4 446/2/4 453/2/4
f 452/2/4 453/2/4 455/2/4
f 453/2/4 446/2/4 456/2/4
f 455/2/4 453/2/4 456/2/4
f 454/2/4 455/2/4 459/2/4
f 456/2/4 457/2/4 459/2/4
f 455/2/4 456/2/4 459/2/4
f 458/2/4 459/2/4 460/2/4
f 459/2/4 457/2/4 461/2/4
f 460/2/4 459/2/4 461/2/4
f 461/2/4 457/2/4 462/2/4
f 462/2/4 457/2/4 463/2/4
f 463/2/4 457/2/4 464/2/4
f 464/2/4 457/2/4 465/2/4
f 463/2/4 464/2/4 466/2/4
f 466/2/4 464/2/4 467/2/4
f 472/3/5 469/3/5 468/3/5
f 473/3/5 469/3/5 472/3/5
f 475/1/5 471/1/5 470/1/5
f 476/1/5 474/1/5 473/1/5
f 476/1/5 473/1/5 472/1/5
f 477/1/5 475/1/5 470/1/5
f 477/1/5 476/1/5 475/1/5
f 478/1/5 476/1/5 477/1/5
f 479/1/5 476/1/5 478/1/5
f 480/1/5 474/1/5 476/1/5
f 480/1/5 476/1/5 479/1/5
f 481/1/5 474/1/5 480/1/5
f 482/1/5 474/1/5 481/1/5
f 483/3/5 479/3/5 478/3/5
f 484/3/5 479/3/5 483/3/5
f 485/3/5 481/3/5 480/3/5
f 486/3/5 481/3/5 485/3/5
f 491/3/5 488/3/5 487/3/5
f 492/3/5 488/3/5 491/3/5
f 493/3/5 490/3/5 489/3/5
f 494/3/5 490/3/5 493/3/5
f 499/3/5 496/3/5 495/3/5
f 500/3/5 496/3/5 499/3/5
f 501/3/5 498/3/5 497/3/5
f 502/3/5 498/3/5 501/3/5
f 508/2/5 504/2/5 503/2/5
f 509/2/5 504/2/5 508/2/5
f 510/2/5 506/2/5 505/2/5
f 511/2/5 506/2/5 510/2/5
f 513/3/5 508/3/5 507/3/5
f 514/3/5 508/3/5 513/3/5
f 515/3/5 512/3/5 511/3/5
f 516/3/5 512/3/5 515/3/5
f 525/3/5 518/3/5 517/3/5
f 526/3/5 518/3/5 525/3/5
f 527/3/5 520/3/5 519/3/5
f 528/3/5 520/3/5 527/3/5
f 529/3/5 522/3/5 521/3/5
f 530/3/5 522/3/5 529/3/5
f 531/3/5 524/3/5 523/3/5
f 532/3/5 524/3/5 531/3/5
f 533/2/5 527/2/5 526/2/5
f 534/2/5 527/2/5 533/2/5
f 535/2/5 531/2/5 530/2/5
f 536/2/5 531/2/5 535/2/5
f 542/2/5 538/2/5 537/2/5
f 543/2/5 538/2/5 542/2/5
f 544/2/5 540/2/5 539/2/5
f 545/2/5 540/2/5 544/2/5
f 547/3/5 542/3/5 541/3/5
f 548/3/5 542/3/5 547/3/5
f 549/3/5 546/3/5 545/3/5
f 550/3/5 546/3/5 549/3/5
f 557/3/5 552/3/5 551/3/5
f 558/3/5 552/3/5 557/3/5
f 560/3/5 554/3/5 553/3/5
f 561/3/5 554/3/5 560/3/5
f 564/3/5 556/3/5 555/3/5
f 565/3/5 556/3/5 564/3/5
f 566/2/5 559/2/5 558/2/5
f 567/2/5 559/2/5 566/2/5
f 568/2/5 562/2/5 561/2/5
f 569/2/5 562/2/5 568/2/5
f 570/2/5 564/2/5 563/2/5
f 571/2/5 564/2/5 570/2/5
f 578/2/5 573/2/5 572/2/5
f 579/2/5 573/2/5 578/2/5
f 580/2/5 575/2/5 574/2/5
f 581/2/5 575/2/5 580/2/5
f 582/3/5 577/3/5 576/3/5
f 583/3/5 577/3/5 582/3/5
f 589/3/5 585/3/5 584/3/5
f 590/3/5 585/3/5 589/3/5
f 593/2/5 587/2/5 586/2/5
f 594/2/5 587/2/5 593/2/5
f 595/2/5 589/2/5 588/2/5
f 596/2/5 589/2/5 595/2/5
f 597/2/5 592/2/5 591/2/5
f 598/2/5 592/2/5 597/2/5
f 602/3/5 600/3/5 599/3/5
f 603/3/5 600/3/5 602/3/5
f 604/2/5 602/2/5 601/2/5
f 605/2/5 602/2/5 604/2/5
f 608/2/5 607/2/5 606/2/5
f 609/2/5 607/2/5 608/2/5
f 615/3/5 611/3/5 610/3/5
f 616/3/5 611/3/5 615/3/5
f 618/2/5 613/2/5 612/2/5
f 619/2/5 613/2/5 618/2/5
f 620/2/5 615/2/5 614/2/5
f 621/2/5 615/2/5 620/2/5
f 622/2/5 617/2/5 616/2/5
f 623/2/5 617/2/5 622/2/5
f 628/2/5 625/2/5 624/2/5
f 629/2/5 627/2/5 626/2/5
f 630/2/5 628/2/5 624/2/5
f 630/2/5 629/2/5 628/2/5
f 631/2/5 627/2/5 629/2/5
f 631/2/5 629/2/5 630/2/5
f 634/2/5 633/2/5 632/2/5
f 635/2/5 633/2/5 634/2/5
f 636/2/6 637/2/6 640/2/6
f 640/2/6 637/2/6 641/2/6
f 638/2/6 639/2/6 642/2/6
f 642/2/6 639/2/6 643/2/6
f 636/2/6 640/2/6 644/2/6
f 644/2/6 640/2/6 645/2/6
f 643/2/6 639/2/6 646/2/6
f 646/2/6 639/2/6 647/2/6
f 648/2/6 649/2/6 652/2/6
f 652/2/6 649/2/6 653/2/6
f 650/2/6 651/2/6 656/2/6
f 654/2/6 655/2/6 661/2/6
f 650/2/6 656/2/6 662/2/6
f 656/2/6 657/2/6 662/2/6
f 662/2/6 657/2/6 663/2/6
f 658/2/6 659/2/6 664/2/6
f 664/2/6 659/2/6 665/2/6
f 660/2/6 661/2/6 666/2/6
f 661/2/6 655/2/6 667/2/6
f 666/2/6 661/2/6 667/2/6
f 668/2/6 669/2/6 673/2/6
f 670/2/6 671/2/6 674/2/6
f 670/2/6 674/2/6 676/2/6
f 674/2/6 675/2/6 676/2/6
f 676/2/6 675/2/6 677/2/6
f 672/2/6 673/2/6 678/2/6
f 673/2/6 669/2/6 679/2/6
f 678/2/6 673/2/6 679/2/6
f 679/2/6 669/2/6 680/2/6
f 670/2/6 676/2/6 681/2/6
f 681/2/6 676/2/6 682/2/6
f 680/2/6 681/2/6 684/2/6
f 682/2/6 683/2/6 684/2/6
f 681/2/6 682/2/6 684/2/6
f 684/2/6 683/2/6 685/2/6
f 679/2/6 680/2/6 686/2/6
f 680/2/6 684/2/6 686/2/6
f 686/2/6 684/2/6 687/2/6
f 687/2/6 684/2/6 688/2/6
f 688/2/6 684/2/6 689/2/6
f 689/2/6 684/2/6 690/2/6
f 690/2/6 684/2/6 691/2/6
f 687/2/6 688/2/6 692/2/6
f 692/2/6 688/2/6 693/2/6
f 689/2/6 690/2/6 694/2/6
f 694/2/6 690/2/6 695/2/6
