# MagicaVoxel @ Ephtracy

# group
o 

# material
mtllib Floors-18.mtl
usemtl palette

# normals
vn -1 0 0
vn 1 0 0
vn 0 0 1
vn 0 0 -1
vn 0 -1 0
vn 0 1 0

# texcoords
vt 0.0332031 0.5
vt 0.0371094 0.5
vt 0.189453 0.5

# verts
v -4.9 4.8 0.9
v -4.9 4.8 0.8
v -4.9 4.8 -0.8
v -4.9 4.8 -0.9
v -4.9 5 1
v -4.9 5 0.9
v -4.9 5 -0.9
v -4.9 5 -1
v -4.9 5.1 0.9
v -4.9 5.1 0.8
v -4.9 5.1 -0.8
v -4.9 5.1 -0.9
v -4.9 5.2 1
v -4.9 5.2 0.7
v -4.9 5.2 0.5
v -4.9 5.2 0.4
v -4.9 5.2 -0.3
v -4.9 5.2 -1
v -4.9 5.3 0.7
v -4.9 5.3 0.5
v -4.9 5.3 0.4
v -4.9 5.3 -0.3
v -4.8 5.2 0.5
v -4.8 5.2 0.4
v -4.8 5.2 -0.3
v -4.8 5.2 -0.7
v -4.8 5.2 -0.8
v -4.8 5.2 -0.9
v -4.8 5.3 0.5
v -4.8 5.3 0.4
v -4.8 5.3 -0.3
v -4.8 5.3 -0.7
v -4.8 5.3 -0.8
v -4.8 5.3 -0.9
v -4.7 4.8 1
v -4.7 4.8 0.9
v -4.7 4.8 -0.9
v -4.7 4.8 -1
v -4.7 5 1
v -4.7 5 0.9
v -4.7 5 -0.9
v -4.7 5 -1
v -4.7 5.2 0.8
v -4.7 5.2 0.7
v -4.7 5.2 -0.7
v -4.7 5.2 -0.8
v -4.7 5.3 0.8
v -4.7 5.3 0.7
v -4.7 5.3 -0.7
v -4.7 5.3 -0.8
v -4.6 5.2 0.9
v -4.6 5.2 0.8
v -4.6 5.2 -0.9
v -4.6 5.2 -1
v -4.6 5.3 0.9
v -4.6 5.3 0.8
v -4.6 5.3 -0.9
v -4.6 5.3 -1
v -4 5.2 0.9
v -4 5.2 0.8
v -4 5.3 0.9
v -4 5.3 0.8
v -3.8 4.8 0.9
v -3.8 4.8 0.8
v -3.8 4.8 -0.8
v -3.8 4.8 -0.9
v -3.8 4.9 0.9
v -3.8 4.9 0.8
v -3.8 5 1
v -3.8 5 0.9
v -3.8 5 -0.8
v -3.8 5 -0.9
v -3.8 5 -1
v -3.8 5.1 1
v -3.8 5.1 0.9
v -3.8 5.1 -0.9
v -3.8 5.1 -1
v -3.8 5.2 1
v -3.8 5.2 0.9
v -3.8 5.3 1
v -3.8 5.3 0.9
v -3.7 4.8 1
v -3.7 4.8 0.9
v -3.7 4.8 -0.9
v -3.7 4.8 -1
v -3.7 5 1
v -3.7 5 0.9
v -3.7 5 -0.9
v -3.7 5 -1
v -3.7 5.2 -0.8
v -3.7 5.2 -1
v -3.7 5.3 -0.8
v -3.7 5.3 -1
v -4.2 4.8 1
v -4.2 4.8 0.9
v -4.2 4.8 -0.9
v -4.2 4.8 -1
v -4.2 4.9 1
v -4.2 4.9 0.9
v -4.2 4.9 -0.9
v -4.2 4.9 -1
v -4.2 5.2 -0.9
v -4.2 5.2 -1
v -4.2 5.3 -0.9
v -4.2 5.3 -1
v -4.1 4.8 -0.8
v -4.1 4.8 -0.9
v -4.1 4.9 1
v -4.1 4.9 0.9
v -4.1 4.9 -0.8
v -4.1 4.9 -0.9
v -4.1 4.9 -1
v -4.1 5 1
v -4.1 5 0.9
v -4.1 5 -0.9
v -4.1 5 -1
v -4.1 5.2 0.9
v -4.1 5.2 0.8
v -4.1 5.3 0.9
v -4.1 5.3 0.8
v -4 4.8 0.9
v -4 4.8 0.8
v -4 4.9 0.9
v -4 4.9 0.8
v -3.9 4.9 -0.8
v -3.9 4.9 -0.9
v -3.9 5 1
v -3.9 5 0.9
v -3.9 5 -0.8
v -3.9 5 -0.9
v -3.9 5 -1
v -3.9 5.1 1
v -3.9 5.1 0.9
v -3.9 5.1 -0.9
v -3.9 5.1 -1
v -3.9 5.2 -0.8
v -3.9 5.2 -0.9
v -3.9 5.3 -0.8
v -3.9 5.3 -0.9
v -3.6 5.2 1
v -3.6 5.2 0.9
v -3.6 5.3 1
v -3.6 5.3 0.9
v -3.3 5.2 0.9
v -3.3 5.2 0.8
v -3.3 5.2 0.4
v -3.3 5.2 0.3
v -3.3 5.2 0
v -3.3 5.2 -0.2
v -3.3 5.2 -0.9
v -3.3 5.2 -1
v -3.3 5.3 0.9
v -3.3 5.3 0.8
v -3.3 5.3 0.4
v -3.3 5.3 0.3
v -3.3 5.3 0
v -3.3 5.3 -0.2
v -3.3 5.3 -0.9
v -3.3 5.3 -1
v -3.2 5.2 0.8
v -3.2 5.2 0.4
v -3.2 5.2 -0.2
v -3.2 5.2 -0.4
v -3.2 5.2 -0.7
v -3.2 5.2 -0.9
v -3.2 5.3 0.8
v -3.2 5.3 0.4
v -3.2 5.3 -0.2
v -3.2 5.3 -0.4
v -3.2 5.3 -0.7
v -3.2 5.3 -0.9
v -3.1 4.8 1
v -3.1 4.8 0.9
v -3.1 4.8 0.8
v -3.1 4.8 -0.8
v -3.1 4.8 -0.9
v -3.1 4.8 -1
v -3.1 5.1 0.9
v -3.1 5.1 0.8
v -3.1 5.1 -0.8
v -3.1 5.1 -0.9
v -3.1 5.2 1
v -3.1 5.2 0.3
v -3.1 5.2 0
v -3.1 5.2 -0.4
v -3.1 5.2 -0.7
v -3.1 5.2 -1
v -3.1 5.3 0.3
v -3.1 5.3 0
v -3.1 5.3 -0.4
v -3.1 5.3 -0.7
v -4.9 5 1
v -4.9 5.2 1
v -4.7 4.8 1
v -4.7 5 1
v -4.2 4.8 1
v -4.2 4.9 1
v -4.1 4.9 1
v -4.1 5 1
v -3.9 5 1
v -3.9 5.1 1
v -3.8 5 1
v -3.8 5.1 1
v -3.8 5.2 1
v -3.8 5.3 1
v -3.7 4.8 1
v -3.7 5 1
v -3.6 5.2 1
v -3.6 5.3 1
v -3.1 4.8 1
v -3.1 5.2 1
v -4.9 4.8 0.9
v -4.9 5 0.9
v -4.7 4.8 0.9
v -4.7 5 0.9
v -4.6 5.2 0.9
v -4.6 5.3 0.9
v -4.2 4.8 0.9
v -4.2 4.9 0.9
v -4.1 4.9 0.9
v -4.1 5 0.9
v -4.1 5.2 0.9
v -4.1 5.3 0.9
v -4 4.8 0.9
v -4 4.9 0.9
v -4 5.2 0.9
v -4 5.3 0.9
v -3.9 5 0.9
v -3.9 5.1 0.9
v -3.8 4.8 0.9
v -3.8 4.9 0.9
v -3.8 5 0.9
v -3.8 5.1 0.9
v -3.8 5.2 0.9
v -3.8 5.3 0.9
v -3.7 4.8 0.9
v -3.7 5 0.9
v -3.6 5.2 0.9
v -3.6 5.3 0.9
v -3.3 5.2 0.9
v -3.3 5.3 0.9
v -4.7 5.2 0.8
v -4.7 5.3 0.8
v -4.6 5.2 0.8
v -4.6 5.3 0.8
v -4.1 5.2 0.8
v -4.1 5.3 0.8
v -4 4.8 0.8
v -4 4.9 0.8
v -4 5.2 0.8
v -4 5.3 0.8
v -3.8 4.8 0.8
v -3.8 4.9 0.8
v -3.3 5.2 0.8
v -3.3 5.3 0.8
v -3.2 5.2 0.8
v -3.2 5.3 0.8
v -4.9 5.2 0.7
v -4.9 5.3 0.7
v -4.7 5.2 0.7
v -4.7 5.3 0.7
v -4.9 5.2 0.4
v -4.9 5.3 0.4
v -4.8 5.2 0.4
v -4.8 5.3 0.4
v -3.3 5.2 0.3
v -3.3 5.3 0.3
v -3.1 5.2 0.3
v -3.1 5.3 0.3
v -3.3 5.2 -0.2
v -3.3 5.3 -0.2
v -3.2 5.2 -0.2
v -3.2 5.3 -0.2
v -3.2 5.2 -0.4
v -3.2 5.3 -0.4
v -3.1 5.2 -0.4
v -3.1 5.3 -0.4
v -4.8 5.2 -0.8
v -4.8 5.3 -0.8
v -4.7 5.2 -0.8
v -4.7 5.3 -0.8
v -4.9 5.2 0.5
v -4.9 5.3 0.5
v -4.8 5.2 0.5
v -4.8 5.3 0.5
v -3.3 5.2 0.4
v -3.3 5.3 0.4
v -3.2 5.2 0.4
v -3.2 5.3 0.4
v -3.3 5.2 0
v -3.3 5.3 0
v -3.1 5.2 0
v -3.1 5.3 0
v -4.9 5.2 -0.3
v -4.9 5.3 -0.3
v -4.8 5.2 -0.3
v -4.8 5.3 -0.3
v -4.8 5.2 -0.7
v -4.8 5.3 -0.7
v -4.7 5.2 -0.7
v -4.7 5.3 -0.7
v -3.2 5.2 -0.7
v -3.2 5.3 -0.7
v -3.1 5.2 -0.7
v -3.1 5.3 -0.7
v -4.1 4.8 -0.8
v -4.1 4.9 -0.8
v -3.9 4.9 -0.8
v -3.9 5 -0.8
v -3.9 5.2 -0.8
v -3.9 5.3 -0.8
v -3.8 4.8 -0.8
v -3.8 5 -0.8
v -3.7 5.2 -0.8
v -3.7 5.3 -0.8
v -4.9 4.8 -0.9
v -4.9 5 -0.9
v -4.8 5.2 -0.9
v -4.8 5.3 -0.9
v -4.7 4.8 -0.9
v -4.7 5 -0.9
v -4.6 5.2 -0.9
v -4.6 5.3 -0.9
v -4.2 4.8 -0.9
v -4.2 4.9 -0.9
v -4.2 5.2 -0.9
v -4.2 5.3 -0.9
v -4.1 4.8 -0.9
v -4.1 4.9 -0.9
v -4.1 5 -0.9
v -3.9 4.9 -0.9
v -3.9 5 -0.9
v -3.9 5.1 -0.9
v -3.9 5.2 -0.9
v -3.9 5.3 -0.9
v -3.8 4.8 -0.9
v -3.8 5 -0.9
v -3.8 5.1 -0.9
v -3.7 4.8 -0.9
v -3.7 5 -0.9
v -3.3 5.2 -0.9
v -3.3 5.3 -0.9
v -3.2 5.2 -0.9
v -3.2 5.3 -0.9
v -4.9 5 -1
v -4.9 5.2 -1
v -4.7 4.8 -1
v -4.7 5 -1
v -4.6 5.2 -1
v -4.6 5.3 -1
v -4.2 4.8 -1
v -4.2 4.9 -1
v -4.2 5.2 -1
v -4.2 5.3 -1
v -4.1 4.9 -1
v -4.1 5 -1
v -3.9 5 -1
v -3.9 5.1 -1
v -3.8 5 -1
v -3.8 5.1 -1
v -3.7 4.8 -1
v -3.7 5 -1
v -3.7 5.2 -1
v -3.7 5.3 -1
v -3.3 5.2 -1
v -3.3 5.3 -1
v -3.1 4.8 -1
v -3.1 5.2 -1
v -4.7 4.8 1
v -4.2 4.8 1
v -3.7 4.8 1
v -3.1 4.8 1
v -4.9 4.8 0.9
v -4.7 4.8 0.9
v -4.2 4.8 0.9
v -4 4.8 0.9
v -3.8 4.8 0.9
v -3.7 4.8 0.9
v -3.1 4.8 0.9
v -4.9 4.8 0.8
v -4 4.8 0.8
v -3.8 4.8 0.8
v -3.1 4.8 0.8
v -4.9 4.8 -0.8
v -4.1 4.8 -0.8
v -3.8 4.8 -0.8
v -3.1 4.8 -0.8
v -4.9 4.8 -0.9
v -4.7 4.8 -0.9
v -4.2 4.8 -0.9
v -4.1 4.8 -0.9
v -3.8 4.8 -0.9
v -3.7 4.8 -0.9
v -3.1 4.8 -0.9
v -4.7 4.8 -1
v -4.2 4.8 -1
v -3.7 4.8 -1
v -3.1 4.8 -1
v -4.2 4.9 1
v -4.1 4.9 1
v -4.2 4.9 0.9
v -4.1 4.9 0.9
v -4 4.9 0.9
v -3.8 4.9 0.9
v -4 4.9 0.8
v -3.8 4.9 0.8
v -4.1 4.9 -0.8
v -3.9 4.9 -0.8
v -4.2 4.9 -0.9
v -4.1 4.9 -0.9
v -3.9 4.9 -0.9
v -4.2 4.9 -1
v -4.1 4.9 -1
v -4.9 5 1
v -4.7 5 1
v -4.1 5 1
v -3.9 5 1
v -3.8 5 1
v -3.7 5 1
v -4.9 5 0.9
v -4.7 5 0.9
v -4.1 5 0.9
v -3.9 5 0.9
v -3.8 5 0.9
v -3.7 5 0.9
v -3.9 5 -0.8
v -3.8 5 -0.8
v -4.9 5 -0.9
v -4.7 5 -0.9
v -4.1 5 -0.9
v -3.9 5 -0.9
v -3.8 5 -0.9
v -3.7 5 -0.9
v -4.9 5 -1
v -4.7 5 -1
v -4.1 5 -1
v -3.9 5 -1
v -3.8 5 -1
v -3.7 5 -1
v -3.9 5.1 1
v -3.8 5.1 1
v -3.9 5.1 0.9
v -3.8 5.1 0.9
v -3.9 5.1 -0.9
v -3.8 5.1 -0.9
v -3.9 5.1 -1
v -3.8 5.1 -1
v -4.9 5.2 1
v -3.8 5.2 1
v -3.6 5.2 1
v -3.1 5.2 1
v -4.6 5.2 0.9
v -4.1 5.2 0.9
v -4 5.2 0.9
v -3.8 5.2 0.9
v -3.6 5.2 0.9
v -3.3 5.2 0.9
v -4.7 5.2 0.8
v -4.6 5.2 0.8
v -4.1 5.2 0.8
v -4 5.2 0.8
v -3.3 5.2 0.8
v -3.2 5.2 0.8
v -4.9 5.2 0.7
v -4.7 5.2 0.7
v -4.9 5.2 0.5
v -4.8 5.2 0.5
v -4.9 5.2 0.4
v -4.8 5.2 0.4
v -3.3 5.2 0.4
v -3.2 5.2 0.4
v -3.3 5.2 0.3
v -3.1 5.2 0.3
v -3.3 5.2 0
v -3.1 5.2 0
v -3.3 5.2 -0.2
v -3.2 5.2 -0.2
v -4.9 5.2 -0.3
v -4.8 5.2 -0.3
v -3.2 5.2 -0.4
v -3.1 5.2 -0.4
v -4.8 5.2 -0.7
v -4.7 5.2 -0.7
v -3.2 5.2 -0.7
v -3.1 5.2 -0.7
v -4.8 5.2 -0.8
v -4.7 5.2 -0.8
v -3.9 5.2 -0.8
v -3.7 5.2 -0.8
v -4.8 5.2 -0.9
v -4.6 5.2 -0.9
v -4.2 5.2 -0.9
v -3.9 5.2 -0.9
v -3.3 5.2 -0.9
v -3.2 5.2 -0.9
v -4.9 5.2 -1
v -4.6 5.2 -1
v -4.2 5.2 -1
v -3.7 5.2 -1
v -3.3 5.2 -1
v -3.1 5.2 -1
v -3.8 5.3 1
v -3.6 5.3 1
v -4.6 5.3 0.9
v -4.1 5.3 0.9
v -4 5.3 0.9
v -3.8 5.3 0.9
v -3.6 5.3 0.9
v -3.3 5.3 0.9
v -4.7 5.3 0.8
v -4.6 5.3 0.8
v -4.1 5.3 0.8
v -4 5.3 0.8
v -3.3 5.3 0.8
v -3.2 5.3 0.8
v -4.9 5.3 0.7
v -4.7 5.3 0.7
v -4.9 5.3 0.5
v -4.8 5.3 0.5
v -4.9 5.3 0.4
v -4.8 5.3 0.4
v -3.3 5.3 0.4
v -3.2 5.3 0.4
v -3.3 5.3 0.3
v -3.1 5.3 0.3
v -3.3 5.3 0
v -3.1 5.3 0
v -3.3 5.3 -0.2
v -3.2 5.3 -0.2
v -4.9 5.3 -0.3
v -4.8 5.3 -0.3
v -3.2 5.3 -0.4
v -3.1 5.3 -0.4
v -4.8 5.3 -0.7
v -4.7 5.3 -0.7
v -3.2 5.3 -0.7
v -3.1 5.3 -0.7
v -4.8 5.3 -0.8
v -4.7 5.3 -0.8
v -3.9 5.3 -0.8
v -3.7 5.3 -0.8
v -4.8 5.3 -0.9
v -4.6 5.3 -0.9
v -4.2 5.3 -0.9
v -3.9 5.3 -0.9
v -3.3 5.3 -0.9
v -3.2 5.3 -0.9
v -4.6 5.3 -1
v -4.2 5.3 -1
v -3.7 5.3 -1
v -3.3 5.3 -1

# faces
f 6/3/1 2/3/1 1/3/1
f 7/3/1 4/3/1 3/3/1
f 9/2/1 6/2/1 5/2/1
f 9/3/1 2/3/1 6/3/1
f 10/1/1 3/1/1 2/1/1
f 10/3/1 2/3/1 9/3/1
f 11/3/1 7/3/1 3/3/1
f 11/1/1 3/1/1 10/1/1
f 12/2/1 8/2/1 7/2/1
f 12/3/1 7/3/1 11/3/1
f 13/2/1 11/2/1 10/2/1
f 13/2/1 9/2/1 5/2/1
f 13/2/1 12/2/1 11/2/1
f 13/2/1 10/2/1 9/2/1
f 14/2/1 12/2/1 13/2/1
f 15/2/1 12/2/1 14/2/1
f 16/2/1 12/2/1 15/2/1
f 17/2/1 12/2/1 16/2/1
f 18/2/1 8/2/1 12/2/1
f 18/2/1 12/2/1 17/2/1
f 19/2/1 15/2/1 14/2/1
f 20/2/1 15/2/1 19/2/1
f 21/2/1 17/2/1 16/2/1
f 22/2/1 17/2/1 21/2/1
f 29/2/1 24/2/1 23/2/1
f 30/2/1 24/2/1 29/2/1
f 31/2/1 26/2/1 25/2/1
f 32/2/1 26/2/1 31/2/1
f 33/2/1 28/2/1 27/2/1
f 34/2/1 28/2/1 33/2/1
f 39/2/1 36/2/1 35/2/1
f 40/2/1 36/2/1 39/2/1
f 41/2/1 38/2/1 37/2/1
f 42/2/1 38/2/1 41/2/1
f 47/2/1 44/2/1 43/2/1
f 48/2/1 44/2/1 47/2/1
f 49/2/1 46/2/1 45/2/1
f 50/2/1 46/2/1 49/2/1
f 55/2/1 52/2/1 51/2/1
f 56/2/1 52/2/1 55/2/1
f 57/2/1 54/2/1 53/2/1
f 58/2/1 54/2/1 57/2/1
f 61/2/1 60/2/1 59/2/1
f 62/2/1 60/2/1 61/2/1
f 67/3/1 64/3/1 63/3/1
f 68/3/1 64/3/1 67/3/1
f 71/3/1 66/3/1 65/3/1
f 72/3/1 66/3/1 71/3/1
f 74/2/1 70/2/1 69/2/1
f 75/2/1 70/2/1 74/2/1
f 76/2/1 73/2/1 72/2/1
f 77/2/1 73/2/1 76/2/1
f 80/2/1 79/2/1 78/2/1
f 81/2/1 79/2/1 80/2/1
f 86/2/1 83/2/1 82/2/1
f 87/2/1 83/2/1 86/2/1
f 88/2/1 85/2/1 84/2/1
f 89/2/1 85/2/1 88/2/1
f 92/2/1 91/2/1 90/2/1
f 93/2/1 91/2/1 92/2/1
f 94/2/2 95/2/2 98/2/2
f 98/2/2 95/2/2 99/2/2
f 96/2/2 97/2/2 100/2/2
f 100/2/2 97/2/2 101/2/2
f 102/2/2 103/2/2 104/2/2
f 104/2/2 103/2/2 105/2/2
f 106/3/2 107/3/2 110/3/2
f 110/3/2 107/3/2 111/3/2
f 108/2/2 109/2/2 113/2/2
f 113/2/2 109/2/2 114/2/2
f 111/2/2 112/2/2 115/2/2
f 115/2/2 112/2/2 116/2/2
f 117/2/2 118/2/2 119/2/2
f 119/2/2 118/2/2 120/2/2
f 121/3/2 122/3/2 123/3/2
f 123/3/2 122/3/2 124/3/2
f 125/3/2 126/3/2 129/3/2
f 129/3/2 126/3/2 130/3/2
f 127/2/2 128/2/2 132/2/2
f 132/2/2 128/2/2 133/2/2
f 130/2/2 131/2/2 134/2/2
f 134/2/2 131/2/2 135/2/2
f 136/2/2 137/2/2 138/2/2
f 138/2/2 137/2/2 139/2/2
f 140/2/2 141/2/2 142/2/2
f 142/2/2 141/2/2 143/2/2
f 144/2/2 145/2/2 152/2/2
f 152/2/2 145/2/2 153/2/2
f 146/2/2 147/2/2 154/2/2
f 154/2/2 147/2/2 155/2/2
f 148/2/2 149/2/2 156/2/2
f 156/2/2 149/2/2 157/2/2
f 150/2/2 151/2/2 158/2/2
f 158/2/2 151/2/2 159/2/2
f 160/2/2 161/2/2 166/2/2
f 166/2/2 161/2/2 167/2/2
f 162/2/2 163/2/2 168/2/2
f 168/2/2 163/2/2 169/2/2
f 164/2/2 165/2/2 170/2/2
f 170/2/2 165/2/2 171/2/2
f 172/2/2 173/2/2 178/2/2
f 173/3/2 174/3/2 178/3/2
f 174/1/2 175/1/2 179/1/2
f 178/3/2 174/3/2 179/3/2
f 175/3/2 176/3/2 180/3/2
f 179/1/2 175/1/2 180/1/2
f 176/2/2 177/2/2 181/2/2
f 180/3/2 176/3/2 181/3/2
f 179/2/2 180/2/2 182/2/2
f 178/2/2 179/2/2 182/2/2
f 180/2/2 181/2/2 182/2/2
f 172/2/2 178/2/2 182/2/2
f 182/2/2 181/2/2 183/2/2
f 183/2/2 181/2/2 184/2/2
f 184/2/2 181/2/2 185/2/2
f 185/2/2 181/2/2 186/2/2
f 181/2/2 177/2/2 187/2/2
f 186/2/2 181/2/2 187/2/2
f 183/2/2 184/2/2 188/2/2
f 188/2/2 184/2/2 189/2/2
f 185/2/2 186/2/2 190/2/2
f 190/2/2 186/2/2 191/2/2
f 195/2/3 193/2/3 192/2/3
f 196/2/3 195/2/3 194/2/3
f 197/2/3 195/2/3 196/2/3
f 198/2/3 195/2/3 197/2/3
f 199/2/3 193/2/3 195/2/3
f 199/2/3 195/2/3 198/2/3
f 200/2/3 193/2/3 199/2/3
f 201/2/3 193/2/3 200/2/3
f 203/2/3 193/2/3 201/2/3
f 204/2/3 193/2/3 203/2/3
f 207/2/3 203/2/3 202/2/3
f 207/2/3 205/2/3 204/2/3
f 207/2/3 204/2/3 203/2/3
f 208/2/3 205/2/3 207/2/3
f 208/2/3 207/2/3 206/2/3
f 209/2/3 205/2/3 208/2/3
f 210/2/3 208/2/3 206/2/3
f 211/2/3 208/2/3 210/2/3
f 214/3/3 213/3/3 212/3/3
f 215/3/3 213/3/3 214/3/3
f 220/3/3 219/3/3 218/3/3
f 222/2/3 217/2/3 216/2/3
f 223/2/3 217/2/3 222/2/3
f 224/3/3 221/3/3 220/3/3
f 224/3/3 220/3/3 218/3/3
f 225/3/3 221/3/3 224/3/3
f 228/3/3 221/3/3 225/3/3
f 231/3/3 228/3/3 225/3/3
f 231/3/3 229/3/3 228/3/3
f 232/3/3 229/3/3 231/3/3
f 233/3/3 229/3/3 232/3/3
f 234/2/3 227/2/3 226/2/3
f 235/2/3 227/2/3 234/2/3
f 236/3/3 231/3/3 230/3/3
f 236/3/3 232/3/3 231/3/3
f 237/3/3 232/3/3 236/3/3
f 240/2/3 239/2/3 238/2/3
f 241/2/3 239/2/3 240/2/3
f 244/2/3 243/2/3 242/2/3
f 245/2/3 243/2/3 244/2/3
f 250/2/3 247/2/3 246/2/3
f 251/2/3 247/2/3 250/2/3
f 252/1/3 249/1/3 248/1/3
f 253/1/3 249/1/3 252/1/3
f 256/2/3 255/2/3 254/2/3
f 257/2/3 255/2/3 256/2/3
f 260/2/3 259/2/3 258/2/3
f 261/2/3 259/2/3 260/2/3
f 264/2/3 263/2/3 262/2/3
f 265/2/3 263/2/3 264/2/3
f 268/2/3 267/2/3 266/2/3
f 269/2/3 267/2/3 268/2/3
f 272/2/3 271/2/3 270/2/3
f 273/2/3 271/2/3 272/2/3
f 276/2/3 275/2/3 274/2/3
f 277/2/3 275/2/3 276/2/3
f 280/2/3 279/2/3 278/2/3
f 281/2/3 279/2/3 280/2/3
f 282/2/4 283/2/4 284/2/4
f 284/2/4 283/2/4 285/2/4
f 286/2/4 287/2/4 288/2/4
f 288/2/4 287/2/4 289/2/4
f 290/2/4 291/2/4 292/2/4
f 292/2/4 291/2/4 293/2/4
f 294/2/4 295/2/4 296/2/4
f 296/2/4 295/2/4 297/2/4
f 298/2/4 299/2/4 300/2/4
f 300/2/4 299/2/4 301/2/4
f 302/2/4 303/2/4 304/2/4
f 304/2/4 303/2/4 305/2/4
f 306/1/4 307/1/4 308/1/4
f 306/1/4 308/1/4 312/1/4
f 308/1/4 309/1/4 312/1/4
f 312/1/4 309/1/4 313/1/4
f 310/2/4 311/2/4 314/2/4
f 314/2/4 311/2/4 315/2/4
f 316/3/4 317/3/4 320/3/4
f 320/3/4 317/3/4 321/3/4
f 318/2/4 319/2/4 322/2/4
f 322/2/4 319/2/4 323/2/4
f 324/3/4 325/3/4 328/3/4
f 328/3/4 325/3/4 329/3/4
f 329/3/4 330/3/4 331/3/4
f 331/3/4 330/3/4 332/3/4
f 326/2/4 327/2/4 334/2/4
f 334/2/4 327/2/4 335/2/4
f 332/3/4 333/3/4 337/3/4
f 337/3/4 333/3/4 338/3/4
f 336/3/4 337/3/4 339/3/4
f 339/3/4 337/3/4 340/3/4
f 341/2/4 342/2/4 343/2/4
f 343/2/4 342/2/4 344/2/4
f 345/2/4 346/2/4 348/2/4
f 348/2/4 346/2/4 349/2/4
f 347/2/4 348/2/4 349/2/4
f 347/2/4 349/2/4 351/2/4
f 349/2/4 350/2/4 351/2/4
f 351/2/4 350/2/4 352/2/4
f 352/2/4 350/2/4 353/2/4
f 353/2/4 350/2/4 354/2/4
f 352/2/4 353/2/4 355/2/4
f 355/2/4 353/2/4 356/2/4
f 356/2/4 353/2/4 357/2/4
f 357/2/4 353/2/4 358/2/4
f 358/2/4 353/2/4 360/2/4
f 359/2/4 360/2/4 362/2/4
f 360/2/4 353/2/4 363/2/4
f 362/2/4 360/2/4 363/2/4
f 361/2/4 362/2/4 365/2/4
f 363/2/4 364/2/4 365/2/4
f 362/2/4 363/2/4 365/2/4
f 365/2/4 364/2/4 366/2/4
f 361/2/4 365/2/4 367/2/4
f 367/2/4 365/2/4 368/2/4
f 374/2/5 370/2/5 369/2/5
f 375/2/5 370/2/5 374/2/5
f 378/2/5 372/2/5 371/2/5
f 379/2/5 372/2/5 378/2/5
f 380/3/5 376/3/5 375/3/5
f 380/3/5 374/3/5 373/3/5
f 380/3/5 375/3/5 374/3/5
f 381/3/5 376/3/5 380/3/5
f 382/3/5 379/3/5 378/3/5
f 382/3/5 378/3/5 377/3/5
f 383/3/5 379/3/5 382/3/5
f 384/1/5 381/1/5 380/1/5
f 384/1/5 382/1/5 381/1/5
f 384/1/5 383/1/5 382/1/5
f 385/1/5 383/1/5 384/1/5
f 386/1/5 383/1/5 385/1/5
f 387/1/5 383/1/5 386/1/5
f 388/3/5 385/3/5 384/3/5
f 389/3/5 385/3/5 388/3/5
f 390/3/5 385/3/5 389/3/5
f 391/3/5 385/3/5 390/3/5
f 392/3/5 387/3/5 386/3/5
f 393/3/5 387/3/5 392/3/5
f 394/3/5 387/3/5 393/3/5
f 395/2/5 390/2/5 389/2/5
f 396/2/5 390/2/5 395/2/5
f 397/2/5 394/2/5 393/2/5
f 398/2/5 394/2/5 397/2/5
f 401/2/5 400/2/5 399/2/5
f 402/2/5 400/2/5 401/2/5
f 405/3/5 404/3/5 403/3/5
f 406/3/5 404/3/5 405/3/5
f 410/3/5 408/3/5 407/3/5
f 411/3/5 408/3/5 410/3/5
f 412/2/5 410/2/5 409/2/5
f 413/2/5 410/2/5 412/2/5
f 420/2/5 415/2/5 414/2/5
f 421/2/5 415/2/5 420/2/5
f 422/2/5 417/2/5 416/2/5
f 423/2/5 417/2/5 422/2/5
f 424/2/5 419/2/5 418/2/5
f 425/2/5 419/2/5 424/2/5
f 431/3/5 427/3/5 426/3/5
f 432/3/5 427/3/5 431/3/5
f 434/2/5 429/2/5 428/2/5
f 435/2/5 429/2/5 434/2/5
f 436/2/5 431/2/5 430/2/5
f 437/2/5 431/2/5 436/2/5
f 438/2/5 433/2/5 432/2/5
f 439/2/5 433/2/5 438/2/5
f 442/2/5 441/2/5 440/2/5
f 443/2/5 441/2/5 442/2/5
f 446/2/5 445/2/5 444/2/5
f 447/2/5 445/2/5 446/2/5
f 448/2/6 449/2/6 452/2/6
f 452/2/6 449/2/6 453/2/6
f 453/2/6 449/2/6 454/2/6
f 454/2/6 449/2/6 455/2/6
f 450/2/6 451/2/6 456/2/6
f 456/2/6 451/2/6 457/2/6
f 448/2/6 452/2/6 458/2/6
f 458/2/6 452/2/6 459/2/6
f 453/2/6 454/2/6 460/2/6
f 460/2/6 454/2/6 461/2/6
f 457/2/6 451/2/6 462/2/6
f 462/2/6 451/2/6 463/2/6
f 448/2/6 458/2/6 464/2/6
f 464/2/6 458/2/6 465/2/6
f 466/2/6 467/2/6 468/2/6
f 468/2/6 467/2/6 469/2/6
f 463/2/6 451/2/6 471/2/6
f 470/2/6 471/2/6 472/2/6
f 471/2/6 451/2/6 473/2/6
f 472/2/6 471/2/6 473/2/6
f 474/2/6 475/2/6 476/2/6
f 476/2/6 475/2/6 477/2/6
f 477/2/6 475/2/6 480/2/6
f 480/2/6 475/2/6 481/2/6
f 478/2/6 479/2/6 482/2/6
f 478/2/6 482/2/6 486/2/6
f 482/2/6 483/2/6 486/2/6
f 486/2/6 483/2/6 487/2/6
f 478/2/6 486/2/6 490/2/6
f 488/2/6 489/2/6 493/2/6
f 484/2/6 485/2/6 495/2/6
f 490/2/6 491/2/6 496/2/6
f 478/2/6 490/2/6 496/2/6
f 496/2/6 491/2/6 497/2/6
f 492/2/6 493/2/6 498/2/6
f 493/2/6 489/2/6 499/2/6
f 498/2/6 493/2/6 499/2/6
f 494/2/6 495/2/6 500/2/6
f 495/2/6 485/2/6 501/2/6
f 500/2/6 495/2/6 501/2/6
f 502/2/6 503/2/6 507/2/6
f 507/2/6 503/2/6 508/2/6
f 504/2/6 505/2/6 511/2/6
f 511/2/6 505/2/6 512/2/6
f 508/2/6 509/2/6 513/2/6
f 506/2/6 507/2/6 513/2/6
f 507/2/6 508/2/6 513/2/6
f 513/2/6 509/2/6 514/2/6
f 511/2/6 512/2/6 517/2/6
f 514/2/6 515/2/6 517/2/6
f 513/2/6 514/2/6 517/2/6
f 512/2/6 513/2/6 517/2/6
f 510/2/6 511/2/6 517/2/6
f 516/2/6 517/2/6 518/2/6
f 518/2/6 517/2/6 519/2/6
f 519/2/6 517/2/6 521/2/6
f 517/2/6 515/2/6 522/2/6
f 521/2/6 517/2/6 522/2/6
f 522/2/6 515/2/6 523/2/6
f 520/2/6 521/2/6 524/2/6
f 521/2/6 522/2/6 524/2/6
f 520/2/6 524/2/6 526/2/6
f 524/2/6 525/2/6 526/2/6
f 526/2/6 525/2/6 527/2/6
f 520/2/6 526/2/6 528/2/6
f 520/2/6 528/2/6 530/2/6
f 528/2/6 529/2/6 530/2/6
f 530/2/6 529/2/6 531/2/6
f 531/2/6 529/2/6 532/2/6
f 531/2/6 532/2/6 534/2/6
f 532/2/6 533/2/6 534/2/6
f 534/2/6 533/2/6 535/2/6
f 535/2/6 533/2/6 536/2/6
f 536/2/6 533/2/6 537/2/6
f 535/2/6 536/2/6 539/2/6
f 539/2/6 536/2/6 540/2/6
f 540/2/6 536/2/6 541/2/6
f 538/2/6 539/2/6 542/2/6
f 539/2/6 540/2/6 542/2/6
f 542/2/6 540/2/6 543/2/6
f 543/2/6 540/2/6 544/2/6
f 544/2/6 540/2/6 545/2/6
f 541/2/6 536/2/6 546/2/6
f 546/2/6 536/2/6 547/2/6
f 543/2/6 544/2/6 548/2/6
f 548/2/6 544/2/6 549/2/6
f 541/2/6 546/2/6 550/2/6
f 550/2/6 546/2/6 551/2/6
