# MagicaVoxel @ Ephtracy

# group
o 

# material
mtllib ancla.mtl
usemtl palette

# normals
vn -1 0 0
vn 1 0 0
vn 0 0 1
vn 0 0 -1
vn 0 -1 0
vn 0 1 0

# texcoords
vt 0.00585938 0.5
vt 0.00976563 0.5
vt 0.0136719 0.5

# verts
v -0.2 0.2 0.1
v -0.2 0.2 -0.1
v -0.2 0.3 0.3
v -0.2 0.3 0.1
v -0.2 0.3 -0.1
v -0.2 0.3 -0.3
v -0.2 0.4 0.5
v -0.2 0.4 0.3
v -0.2 0.4 0.1
v -0.2 0.4 -0.1
v -0.2 0.4 -0.3
v -0.2 0.4 -0.5
v -0.2 0.5 0.6
v -0.2 0.5 0.5
v -0.2 0.5 0.4
v -0.2 0.5 0.3
v -0.2 0.5 -5.96046e-008
v -0.2 0.5 -0.1
v -0.2 0.5 -0.2
v -0.2 0.5 -0.3
v -0.2 0.5 -0.5
v -0.2 0.5 -0.6
v -0.2 0.6 0.7
v -0.2 0.6 0.6
v -0.2 0.6 0.5
v -0.2 0.6 0.4
v -0.2 0.6 0.3
v -0.2 0.6 0.1
v -0.2 0.6 -5.96046e-008
v -0.2 0.6 -0.1
v -0.2 0.6 -0.2
v -0.2 0.6 -0.3
v -0.2 0.6 -0.4
v -0.2 0.6 -0.5
v -0.2 0.6 -0.6
v -0.2 0.6 -0.7
v -0.2 0.7 0.5
v -0.2 0.7 0.3
v -0.2 0.7 -5.96046e-008
v -0.2 0.7 -0.1
v -0.2 0.7 -0.3
v -0.2 0.7 -0.4
v -0.2 0.7 -0.5
v -0.2 0.8 0.8
v -0.2 0.8 0.7
v -0.2 0.8 0.6
v -0.2 0.8 0.1
v -0.2 0.8 -5.96046e-008
v -0.2 0.8 -0.1
v -0.2 0.8 -0.6
v -0.2 0.8 -0.7
v -0.2 0.8 -0.8
v -0.2 0.9 0.8
v -0.2 0.9 0.7
v -0.2 0.9 0.6
v -0.2 0.9 0.5
v -0.2 0.9 -0.5
v -0.2 0.9 -0.6
v -0.2 0.9 -0.7
v -0.2 0.9 -0.8
v -0.2 1 0.7
v -0.2 1 0.6
v -0.2 1 0.1
v -0.2 1 -5.96046e-008
v -0.2 1 -0.1
v -0.2 1 -0.6
v -0.2 1 -0.7
v -0.2 1.1 -5.96046e-008
v -0.2 1.1 -0.1
v -0.2 1.2 0.5
v -0.2 1.2 0.4
v -0.2 1.2 0.2
v -0.2 1.2 0.1
v -0.2 1.2 -0.1
v -0.2 1.2 -0.2
v -0.2 1.2 -0.4
v -0.2 1.2 -0.5
v -0.2 1.3 0.6
v -0.2 1.3 0.5
v -0.2 1.3 0.4
v -0.2 1.3 0.2
v -0.2 1.3 -0.2
v -0.2 1.3 -0.4
v -0.2 1.3 -0.5
v -0.2 1.3 -0.6
v -0.2 1.4 0.6
v -0.2 1.4 0.5
v -0.2 1.4 0.4
v -0.2 1.4 0.2
v -0.2 1.4 0.1
v -0.2 1.4 -0.1
v -0.2 1.4 -0.2
v -0.2 1.4 -0.4
v -0.2 1.4 -0.5
v -0.2 1.4 -0.6
v -0.2 1.5 0.5
v -0.2 1.5 0.4
v -0.2 1.5 -5.96046e-008
v -0.2 1.5 -0.1
v -0.2 1.5 -0.4
v -0.2 1.5 -0.5
v -0.2 1.6 0.2
v -0.2 1.6 0.1
v -0.2 1.6 -5.96046e-008
v -0.2 1.6 -0.1
v -0.2 1.6 -0.2
v -0.2 1.7 0.2
v -0.2 1.7 0.1
v -0.2 1.8 0.2
v -0.2 1.8 0.1
v -0.2 1.8 -0.1
v -0.2 1.8 -0.2
v -0.2 1.9 0.1
v -0.2 1.9 -0.1
v 0 0.2 0.1
v 0 0.2 -0.1
v 0 0.3 0.3
v 0 0.3 0.1
v 0 0.3 -0.1
v 0 0.3 -0.3
v 0 0.4 0.5
v 0 0.4 0.3
v 0 0.4 0.2
v 0 0.4 0.1
v 0 0.4 -5.96046e-008
v 0 0.4 -0.1
v 0 0.4 -0.3
v 0 0.4 -0.5
v 0 0.5 0.6
v 0 0.5 0.5
v 0 0.5 0.3
v 0 0.5 0.2
v 0 0.5 -5.96046e-008
v 0 0.5 -0.2
v 0 0.5 -0.3
v 0 0.5 -0.5
v 0 0.5 -0.6
v 0 0.6 0.7
v 0 0.6 0.6
v 0 0.6 0.5
v 0 0.6 0.4
v 0 0.6 0.3
v 0 0.6 0.1
v 0 0.6 -0.1
v 0 0.6 -0.2
v 0 0.6 -0.3
v 0 0.6 -0.4
v 0 0.6 -0.5
v 0 0.6 -0.6
v 0 0.6 -0.7
v 0 0.7 0.5
v 0 0.7 0.4
v 0 0.7 0.3
v 0 0.7 0.1
v 0 0.7 -5.96046e-008
v 0 0.7 -0.3
v 0 0.7 -0.4
v 0 0.7 -0.5
v 0 0.8 0.8
v 0 0.8 0.7
v 0 0.8 0.6
v 0 0.8 0.5
v 0 0.8 0.1
v 0 0.8 -5.96046e-008
v 0 0.8 -0.1
v 0 0.8 -0.6
v 0 0.8 -0.7
v 0 0.8 -0.8
v 0 0.9 0.8
v 0 0.9 0.7
v 0 0.9 0.6
v 0 0.9 0.5
v 0 0.9 -0.5
v 0 0.9 -0.6
v 0 0.9 -0.7
v 0 0.9 -0.8
v 0 1 0.7
v 0 1 0.6
v 0 1 -0.6
v 0 1 -0.7
v 0 1.1 -5.96046e-008
v 0 1.1 -0.1
v 0 1.2 0.5
v 0 1.2 0.4
v 0 1.2 0.2
v 0 1.2 0.1
v 0 1.2 -0.1
v 0 1.2 -0.2
v 0 1.2 -0.4
v 0 1.2 -0.5
v 0 1.3 0.6
v 0 1.3 0.5
v 0 1.3 0.4
v 0 1.3 0.2
v 0 1.3 -0.2
v 0 1.3 -0.4
v 0 1.3 -0.5
v 0 1.3 -0.6
v 0 1.4 0.6
v 0 1.4 0.5
v 0 1.4 0.4
v 0 1.4 0.1
v 0 1.4 -0.1
v 0 1.4 -0.4
v 0 1.4 -0.5
v 0 1.4 -0.6
v 0 1.5 0.5
v 0 1.5 0.4
v 0 1.5 -5.96046e-008
v 0 1.5 -0.1
v 0 1.5 -0.4
v 0 1.5 -0.5
v 0 1.6 0.2
v 0 1.6 0.1
v 0 1.6 -5.96046e-008
v 0 1.6 -0.1
v 0 1.6 -0.2
v 0 1.7 -0.1
v 0 1.7 -0.2
v 0 1.8 0.2
v 0 1.8 0.1
v 0 1.8 -0.1
v 0 1.8 -0.2
v 0 1.9 0.1
v 0 1.9 -0.1
v -0.2 0.8 0.8
v -0.2 0.9 0.8
v 0 0.8 0.8
v 0 0.9 0.8
v -0.2 0.6 0.7
v -0.2 0.8 0.7
v -0.2 0.9 0.7
v -0.2 1 0.7
v 0 0.6 0.7
v 0 0.8 0.7
v 0 0.9 0.7
v 0 1 0.7
v -0.2 0.5 0.6
v -0.2 0.6 0.6
v -0.2 1.3 0.6
v -0.2 1.4 0.6
v 0 0.5 0.6
v 0 0.6 0.6
v 0 1.3 0.6
v 0 1.4 0.6
v -0.2 0.4 0.5
v -0.2 0.5 0.5
v -0.2 1.2 0.5
v -0.2 1.3 0.5
v -0.2 1.4 0.5
v -0.2 1.5 0.5
v -0.1 1.2 0.5
v -0.1 1.3 0.5
v -0.1 1.4 0.5
v -0.1 1.5 0.5
v 0 0.4 0.5
v 0 0.5 0.5
v 0 1.2 0.5
v 0 1.3 0.5
v 0 1.4 0.5
v 0 1.5 0.5
v -0.2 0.3 0.3
v -0.2 0.4 0.3
v 0 0.3 0.3
v 0 0.4 0.3
v -0.2 1.2 0.2
v -0.2 1.3 0.2
v -0.2 1.6 0.2
v -0.2 1.7 0.2
v -0.2 1.8 0.2
v -0.1 1.3 0.2
v -0.1 1.6 0.2
v -0.1 1.7 0.2
v 0 1.2 0.2
v 0 1.3 0.2
v 0 1.6 0.2
v 0 1.8 0.2
v -0.2 0.2 0.1
v -0.2 0.3 0.1
v -0.2 0.6 0.1
v -0.2 0.8 0.1
v -0.2 1 0.1
v -0.2 1.2 0.1
v -0.2 1.4 0.1
v -0.2 1.6 0.1
v -0.2 1.8 0.1
v -0.2 1.9 0.1
v -0.1 0.7 0.1
v -0.1 0.8 0.1
v -0.1 1 0.1
v -0.1 1.6 0.1
v -0.1 1.8 0.1
v -0.1 1.9 0.1
v 0 0.2 0.1
v 0 0.3 0.1
v 0 0.6 0.1
v 0 0.7 0.1
v 0 0.8 0.1
v 0 1.2 0.1
v 0 1.4 0.1
v 0 1.6 0.1
v 0 1.8 0.1
v 0 1.9 0.1
v -0.2 1.6 -0.1
v -0.2 1.8 -0.1
v -0.1 1.6 -0.1
v -0.1 1.7 -0.1
v -0.1 1.8 -0.1
v 0 1.6 -0.1
v 0 1.7 -0.1
v 0 1.8 -0.1
v -0.2 0.6 -0.3
v -0.2 0.7 -0.3
v -0.1 0.6 -0.3
v -0.1 0.7 -0.3
v 0 0.6 -0.3
v 0 0.7 -0.3
v -0.2 1.2 -0.4
v -0.2 1.3 -0.4
v -0.2 1.4 -0.4
v -0.2 1.5 -0.4
v -0.1 1.3 -0.4
v -0.1 1.4 -0.4
v -0.1 1.5 -0.4
v 0 1.2 -0.4
v 0 1.3 -0.4
v 0 1.4 -0.4
v 0 1.5 -0.4
v -0.2 0.7 -0.5
v -0.2 0.9 -0.5
v -0.1 0.7 -0.5
v 0 0.7 -0.5
v 0 0.9 -0.5
v -0.2 0.9 -0.6
v -0.2 1 -0.6
v 0 0.9 -0.6
v 0 1 -0.6
v -0.2 0.9 0.6
v -0.2 1 0.6
v -0.1 0.9 0.6
v 0 0.9 0.6
v 0 1 0.6
v -0.2 0.7 0.5
v -0.2 0.9 0.5
v -0.1 0.7 0.5
v -0.1 0.8 0.5
v -0.1 0.9 0.5
v 0 0.7 0.5
v 0 0.8 0.5
v 0 0.9 0.5
v -0.2 1.2 0.4
v -0.2 1.3 0.4
v -0.2 1.4 0.4
v -0.2 1.5 0.4
v -0.1 1.2 0.4
v -0.1 1.3 0.4
v -0.1 1.4 0.4
v -0.1 1.5 0.4
v 0 1.2 0.4
v 0 1.3 0.4
v 0 1.4 0.4
v 0 1.5 0.4
v -0.2 0.6 0.3
v -0.2 0.7 0.3
v 0 0.6 0.3
v 0 0.7 0.3
v -0.2 1.6 0.1
v -0.2 1.7 0.1
v -0.2 1.8 0.1
v -0.1 1.6 0.1
v -0.1 1.7 0.1
v -0.1 1.8 0.1
v 0 1.6 0.1
v 0 1.8 0.1
v -0.2 0.2 -0.1
v -0.2 0.3 -0.1
v -0.2 0.6 -0.1
v -0.2 0.7 -0.1
v -0.2 0.8 -0.1
v -0.2 1 -0.1
v -0.2 1.1 -0.1
v -0.2 1.2 -0.1
v -0.2 1.4 -0.1
v -0.2 1.5 -0.1
v -0.2 1.6 -0.1
v -0.2 1.8 -0.1
v -0.2 1.9 -0.1
v -0.1 0.7 -0.1
v -0.1 0.8 -0.1
v -0.1 1 -0.1
v -0.1 1.6 -0.1
v -0.1 1.8 -0.1
v -0.1 1.9 -0.1
v 0 0.2 -0.1
v 0 0.3 -0.1
v 0 0.6 -0.1
v 0 0.8 -0.1
v 0 1.1 -0.1
v 0 1.2 -0.1
v 0 1.4 -0.1
v 0 1.5 -0.1
v 0 1.6 -0.1
v 0 1.8 -0.1
v 0 1.9 -0.1
v -0.2 1.2 -0.2
v -0.2 1.3 -0.2
v -0.2 1.6 -0.2
v -0.2 1.8 -0.2
v -0.1 1.3 -0.2
v -0.1 1.6 -0.2
v -0.1 1.7 -0.2
v 0 1.2 -0.2
v 0 1.3 -0.2
v 0 1.6 -0.2
v 0 1.7 -0.2
v 0 1.8 -0.2
v -0.2 0.3 -0.3
v -0.2 0.4 -0.3
v 0 0.3 -0.3
v 0 0.4 -0.3
v -0.2 0.4 -0.5
v -0.2 0.5 -0.5
v -0.2 1.2 -0.5
v -0.2 1.3 -0.5
v -0.2 1.4 -0.5
v -0.2 1.5 -0.5
v -0.1 1.4 -0.5
v -0.1 1.5 -0.5
v 0 0.4 -0.5
v 0 0.5 -0.5
v 0 1.2 -0.5
v 0 1.3 -0.5
v 0 1.4 -0.5
v 0 1.5 -0.5
v -0.2 0.5 -0.6
v -0.2 0.6 -0.6
v -0.2 1.3 -0.6
v -0.2 1.4 -0.6
v 0 0.5 -0.6
v 0 0.6 -0.6
v 0 1.3 -0.6
v 0 1.4 -0.6
v -0.2 0.6 -0.7
v -0.2 0.8 -0.7
v -0.2 0.9 -0.7
v -0.2 1 -0.7
v 0 0.6 -0.7
v 0 0.8 -0.7
v 0 0.9 -0.7
v 0 1 -0.7
v -0.2 0.8 -0.8
v -0.2 0.9 -0.8
v 0 0.8 -0.8
v 0 0.9 -0.8
v -0.2 0.2 0.1
v 0 0.2 0.1
v -0.2 0.2 -0.1
v 0 0.2 -0.1
v -0.2 0.3 0.3
v 0 0.3 0.3
v -0.2 0.3 0.1
v 0 0.3 0.1
v -0.2 0.3 -0.1
v 0 0.3 -0.1
v -0.2 0.3 -0.3
v 0 0.3 -0.3
v -0.2 0.4 0.5
v 0 0.4 0.5
v -0.2 0.4 0.3
v 0 0.4 0.3
v -0.2 0.4 -0.3
v 0 0.4 -0.3
v -0.2 0.4 -0.5
v 0 0.4 -0.5
v -0.2 0.5 0.6
v 0 0.5 0.6
v -0.2 0.5 0.5
v 0 0.5 0.5
v -0.2 0.5 -0.5
v 0 0.5 -0.5
v -0.2 0.5 -0.6
v 0 0.5 -0.6
v -0.2 0.6 0.7
v 0 0.6 0.7
v -0.2 0.6 0.6
v 0 0.6 0.6
v -0.2 0.6 -0.6
v 0 0.6 -0.6
v -0.2 0.6 -0.7
v 0 0.6 -0.7
v -0.2 0.8 0.8
v 0 0.8 0.8
v -0.2 0.8 0.7
v 0 0.8 0.7
v -0.2 0.8 -0.7
v 0 0.8 -0.7
v -0.2 0.8 -0.8
v 0 0.8 -0.8
v -0.2 1.2 0.5
v -0.1 1.2 0.5
v 0 1.2 0.5
v -0.2 1.2 0.4
v -0.1 1.2 0.4
v 0 1.2 0.4
v -0.2 1.2 0.2
v 0 1.2 0.2
v -0.2 1.2 0.1
v 0 1.2 0.1
v -0.2 1.2 -0.1
v 0 1.2 -0.1
v -0.2 1.2 -0.2
v 0 1.2 -0.2
v -0.2 1.2 -0.4
v 0 1.2 -0.4
v -0.2 1.2 -0.5
v 0 1.2 -0.5
v -0.2 1.3 0.6
v 0 1.3 0.6
v -0.2 1.3 0.5
v -0.1 1.3 0.5
v 0 1.3 0.5
v -0.2 1.3 0.4
v -0.1 1.3 0.4
v 0 1.3 0.4
v -0.2 1.3 0.2
v -0.1 1.3 0.2
v 0 1.3 0.2
v -0.2 1.3 -0.2
v -0.1 1.3 -0.2
v 0 1.3 -0.2
v -0.2 1.3 -0.4
v -0.1 1.3 -0.4
v 0 1.3 -0.4
v -0.2 1.3 -0.5
v 0 1.3 -0.5
v -0.2 1.3 -0.6
v 0 1.3 -0.6
v -0.2 1.6 0.2
v -0.1 1.6 0.2
v 0 1.6 0.2
v -0.2 1.6 0.1
v -0.1 1.6 0.1
v 0 1.6 0.1
v -0.2 1.6 -0.1
v -0.1 1.6 -0.1
v 0 1.6 -0.1
v -0.2 1.6 -0.2
v -0.1 1.6 -0.2
v 0 1.6 -0.2
v -0.2 1.8 0.1
v -0.1 1.8 0.1
v 0 1.8 0.1
v -0.2 1.8 -0.1
v -0.1 1.8 -0.1
v 0 1.8 -0.1
v -0.2 0.6 0.3
v 0 0.6 0.3
v -0.2 0.6 0.1
v 0 0.6 0.1
v -0.2 0.6 -0.1
v 0 0.6 -0.1
v -0.2 0.6 -0.2
v 0 0.6 -0.2
v -0.2 0.6 -0.3
v -0.1 0.6 -0.3
v 0 0.6 -0.3
v -0.2 0.7 0.5
v -0.1 0.7 0.5
v 0 0.7 0.5
v -0.1 0.7 0.4
v 0 0.7 0.4
v -0.2 0.7 0.3
v 0 0.7 0.3
v -0.2 0.7 -0.3
v -0.1 0.7 -0.3
v 0 0.7 -0.3
v -0.2 0.7 -0.4
v -0.1 0.7 -0.4
v 0 0.7 -0.4
v -0.2 0.7 -0.5
v -0.1 0.7 -0.5
v 0 0.7 -0.5
v -0.2 0.9 0.8
v 0 0.9 0.8
v -0.2 0.9 0.7
v 0 0.9 0.7
v -0.2 0.9 0.6
v -0.1 0.9 0.6
v 0 0.9 0.6
v -0.2 0.9 0.5
v -0.1 0.9 0.5
v 0 0.9 0.5
v -0.2 0.9 -0.5
v 0 0.9 -0.5
v -0.2 0.9 -0.6
v 0 0.9 -0.6
v -0.2 0.9 -0.7
v 0 0.9 -0.7
v -0.2 0.9 -0.8
v 0 0.9 -0.8
v -0.2 1 0.7
v 0 1 0.7
v -0.2 1 0.6
v 0 1 0.6
v -0.2 1 -0.6
v 0 1 -0.6
v -0.2 1 -0.7
v 0 1 -0.7
v -0.2 1.4 0.6
v 0 1.4 0.6
v -0.2 1.4 0.5
v -0.1 1.4 0.5
v 0 1.4 0.5
v -0.2 1.4 0.4
v -0.1 1.4 0.4
v 0 1.4 0.4
v -0.2 1.4 0.2
v -0.1 1.4 0.2
v -0.2 1.4 0.1
v 0 1.4 0.1
v -0.2 1.4 -0.1
v 0 1.4 -0.1
v -0.2 1.4 -0.2
v -0.1 1.4 -0.2
v -0.2 1.4 -0.4
v -0.1 1.4 -0.4
v 0 1.4 -0.4
v -0.2 1.4 -0.5
v -0.1 1.4 -0.5
v 0 1.4 -0.5
v -0.2 1.4 -0.6
v 0 1.4 -0.6
v -0.2 1.5 0.5
v -0.1 1.5 0.5
v 0 1.5 0.5
v -0.2 1.5 0.4
v -0.1 1.5 0.4
v 0 1.5 0.4
v -0.2 1.5 -0.4
v -0.1 1.5 -0.4
v 0 1.5 -0.4
v -0.2 1.5 -0.5
v -0.1 1.5 -0.5
v 0 1.5 -0.5
v -0.2 1.6 0.1
v -0.1 1.6 0.1
v 0 1.6 0.1
v -0.2 1.6 -5.96046e-008
v 0 1.6 -5.96046e-008
v -0.2 1.6 -0.1
v -0.1 1.6 -0.1
v 0 1.6 -0.1
v -0.2 1.8 0.2
v 0 1.8 0.2
v -0.2 1.8 0.1
v -0.1 1.8 0.1
v 0 1.8 0.1
v -0.2 1.8 -0.1
v -0.1 1.8 -0.1
v 0 1.8 -0.1
v -0.2 1.8 -0.2
v 0 1.8 -0.2
v -0.2 1.9 0.1
v -0.1 1.9 0.1
v 0 1.9 0.1
v -0.2 1.9 -0.1
v -0.1 1.9 -0.1
v 0 1.9 -0.1

# faces
f 4/1/1 2/1/1 1/1/1
f 5/1/1 2/1/1 4/1/1
f 8/1/1 4/1/1 3/1/1
f 9/2/1 5/2/1 4/2/1
f 9/1/1 4/1/1 8/1/1
f 10/1/1 6/1/1 5/1/1
f 10/2/1 5/2/1 9/2/1
f 11/1/1 6/1/1 10/1/1
f 14/1/1 8/1/1 7/1/1
f 15/1/1 8/1/1 14/1/1
f 16/2/1 9/2/1 8/2/1
f 16/1/1 8/1/1 15/1/1
f 17/3/1 10/3/1 9/3/1
f 18/2/1 11/2/1 10/2/1
f 18/3/1 10/3/1 17/3/1
f 19/2/1 11/2/1 18/2/1
f 20/1/1 12/1/1 11/1/1
f 20/2/1 11/2/1 19/2/1
f 21/1/1 12/1/1 20/1/1
f 24/1/1 14/1/1 13/1/1
f 25/2/1 15/2/1 14/2/1
f 25/1/1 14/1/1 24/1/1
f 26/3/1 16/3/1 15/3/1
f 26/2/1 15/2/1 25/2/1
f 27/2/1 9/2/1 16/2/1
f 27/3/1 16/3/1 26/3/1
f 28/3/1 17/3/1 9/3/1
f 28/2/1 9/2/1 27/2/1
f 29/2/1 19/2/1 18/2/1
f 29/3/1 17/3/1 28/3/1
f 29/2/1 18/2/1 17/2/1
f 30/2/1 19/2/1 29/2/1
f 31/3/1 20/3/1 19/3/1
f 31/2/1 19/2/1 30/2/1
f 32/2/1 21/2/1 20/2/1
f 32/3/1 20/3/1 31/3/1
f 33/2/1 21/2/1 32/2/1
f 34/1/1 22/1/1 21/1/1
f 34/2/1 21/2/1 33/2/1
f 35/1/1 22/1/1 34/1/1
f 37/3/1 26/3/1 25/3/1
f 37/3/1 27/3/1 26/3/1
f 37/2/1 25/2/1 24/2/1
f 38/3/1 27/3/1 37/3/1
f 39/2/1 29/2/1 28/2/1
f 39/2/1 30/2/1 29/2/1
f 40/2/1 30/2/1 39/2/1
f 41/2/1 33/2/1 32/2/1
f 42/3/1 34/3/1 33/3/1
f 42/2/1 33/2/1 41/2/1
f 43/2/1 35/2/1 34/2/1
f 43/3/1 34/3/1 42/3/1
f 45/1/1 24/1/1 23/1/1
f 46/2/1 37/2/1 24/2/1
f 46/1/1 24/1/1 45/1/1
f 47/2/1 39/2/1 28/2/1
f 48/3/1 40/3/1 39/3/1
f 48/2/1 39/2/1 47/2/1
f 49/3/1 40/3/1 48/3/1
f 50/1/1 36/1/1 35/1/1
f 50/2/1 35/2/1 43/2/1
f 51/1/1 36/1/1 50/1/1
f 53/1/1 45/1/1 44/1/1
f 54/2/1 46/2/1 45/2/1
f 54/1/1 45/1/1 53/1/1
f 55/2/1 37/2/1 46/2/1
f 55/2/1 46/2/1 54/2/1
f 56/2/1 37/2/1 55/2/1
f 57/2/1 50/2/1 43/2/1
f 57/2/1 51/2/1 50/2/1
f 58/2/1 51/2/1 57/2/1
f 59/1/1 52/1/1 51/1/1
f 59/2/1 51/2/1 58/2/1
f 60/1/1 52/1/1 59/1/1
f 61/1/1 55/1/1 54/1/1
f 62/1/1 55/1/1 61/1/1
f 63/3/1 48/3/1 47/3/1
f 64/2/1 49/2/1 48/2/1
f 64/3/1 48/3/1 63/3/1
f 65/2/1 49/2/1 64/2/1
f 66/1/1 59/1/1 58/1/1
f 67/1/1 59/1/1 66/1/1
f 68/3/1 65/3/1 64/3/1
f 68/2/1 64/2/1 63/2/1
f 69/3/1 65/3/1 68/3/1
f 73/2/1 68/2/1 63/2/1
f 73/2/1 69/2/1 68/2/1
f 74/2/1 69/2/1 73/2/1
f 79/3/1 71/3/1 70/3/1
f 80/3/1 71/3/1 79/3/1
f 81/2/1 74/2/1 73/2/1
f 81/2/1 73/2/1 72/2/1
f 81/2/1 75/2/1 74/2/1
f 82/2/1 75/2/1 81/2/1
f 83/2/1 77/2/1 76/2/1
f 84/2/1 77/2/1 83/2/1
f 86/2/1 79/2/1 78/2/1
f 87/3/1 80/3/1 79/3/1
f 87/2/1 79/2/1 86/2/1
f 87/3/1 81/3/1 80/3/1
f 88/3/1 81/3/1 87/3/1
f 89/2/1 82/2/1 81/2/1
f 89/3/1 81/3/1 88/3/1
f 90/2/1 82/2/1 89/2/1
f 91/2/1 82/2/1 90/2/1
f 92/3/1 83/3/1 82/3/1
f 92/2/1 82/2/1 91/2/1
f 93/2/1 85/2/1 84/2/1
f 93/3/1 83/3/1 92/3/1
f 93/2/1 84/2/1 83/2/1
f 94/2/1 85/2/1 93/2/1
f 95/2/1 85/2/1 94/2/1
f 96/2/1 88/2/1 87/2/1
f 97/2/1 88/2/1 96/2/1
f 98/2/1 91/2/1 90/2/1
f 99/2/1 91/2/1 98/2/1
f 100/3/1 94/3/1 93/3/1
f 101/3/1 94/3/1 100/3/1
f 103/2/1 98/2/1 90/2/1
f 104/3/1 99/3/1 98/3/1
f 104/2/1 98/2/1 103/2/1
f 105/3/1 99/3/1 104/3/1
f 107/3/1 103/3/1 102/3/1
f 108/3/1 103/3/1 107/3/1
f 109/2/1 108/2/1 107/2/1
f 110/2/1 108/2/1 109/2/1
f 111/3/1 106/3/1 105/3/1
f 112/3/1 106/3/1 111/3/1
f 113/2/1 111/2/1 110/2/1
f 114/2/1 111/2/1 113/2/1
f 115/1/2 116/1/2 118/1/2
f 118/1/2 116/1/2 119/1/2
f 117/1/2 118/1/2 122/1/2
f 122/1/2 118/1/2 123/1/2
f 118/2/2 119/2/2 124/2/2
f 123/1/2 118/1/2 124/1/2
f 124/2/2 119/2/2 125/2/2
f 119/1/2 120/1/2 126/1/2
f 125/2/2 119/2/2 126/2/2
f 126/1/2 120/1/2 127/1/2
f 121/1/2 122/1/2 130/1/2
f 122/2/2 123/2/2 131/2/2
f 130/1/2 122/1/2 131/1/2
f 124/3/2 125/3/2 132/3/2
f 131/2/2 123/2/2 132/2/2
f 123/3/2 124/3/2 132/3/2
f 125/2/2 126/2/2 133/2/2
f 132/3/2 125/3/2 133/3/2
f 126/2/2 127/2/2 133/2/2
f 133/2/2 127/2/2 134/2/2
f 127/1/2 128/1/2 135/1/2
f 134/2/2 127/2/2 135/2/2
f 135/1/2 128/1/2 136/1/2
f 129/1/2 130/1/2 139/1/2
f 130/2/2 131/2/2 140/2/2
f 133/2/2 134/2/2 140/2/2
f 139/1/2 130/1/2 140/1/2
f 131/2/2 132/2/2 140/2/2
f 132/2/2 133/2/2 140/2/2
f 140/2/2 134/2/2 141/2/2
f 141/2/2 134/2/2 142/2/2
f 142/2/2 134/2/2 143/2/2
f 143/2/2 134/2/2 144/2/2
f 134/3/2 135/3/2 145/3/2
f 144/2/2 134/2/2 145/2/2
f 135/2/2 136/2/2 146/2/2
f 145/3/2 135/3/2 146/3/2
f 146/2/2 136/2/2 147/2/2
f 136/1/2 137/1/2 148/1/2
f 147/2/2 136/2/2 148/2/2
f 148/1/2 137/1/2 149/1/2
f 139/2/2 140/2/2 151/2/2
f 140/2/2 141/2/2 151/2/2
f 141/3/2 142/3/2 152/3/2
f 151/2/2 141/2/2 152/2/2
f 152/3/2 142/3/2 153/3/2
f 143/2/2 144/2/2 154/2/2
f 154/2/2 144/2/2 155/2/2
f 146/3/2 147/3/2 156/3/2
f 148/2/2 149/2/2 157/2/2
f 156/3/2 147/3/2 157/3/2
f 147/2/2 148/2/2 157/2/2
f 157/2/2 149/2/2 158/2/2
f 138/1/2 139/1/2 160/1/2
f 139/2/2 151/2/2 161/2/2
f 160/1/2 139/1/2 161/1/2
f 161/2/2 151/2/2 162/2/2
f 154/3/2 155/3/2 163/3/2
f 155/2/2 144/2/2 164/2/2
f 163/3/2 155/3/2 164/3/2
f 164/2/2 144/2/2 165/2/2
f 149/1/2 150/1/2 166/1/2
f 158/2/2 149/2/2 166/2/2
f 166/1/2 150/1/2 167/1/2
f 159/1/2 160/1/2 169/1/2
f 160/2/2 161/2/2 170/2/2
f 169/1/2 160/1/2 170/1/2
f 161/3/2 162/3/2 171/3/2
f 170/2/2 161/2/2 171/2/2
f 171/3/2 162/3/2 172/3/2
f 158/2/2 166/2/2 173/2/2
f 166/2/2 167/2/2 173/2/2
f 173/2/2 167/2/2 174/2/2
f 167/1/2 168/1/2 175/1/2
f 174/2/2 167/2/2 175/2/2
f 175/1/2 168/1/2 176/1/2
f 170/1/2 171/1/2 177/1/2
f 177/1/2 171/1/2 178/1/2
f 174/1/2 175/1/2 179/1/2
f 179/1/2 175/1/2 180/1/2
f 164/3/2 165/3/2 181/3/2
f 163/2/2 164/2/2 181/2/2
f 181/3/2 165/3/2 182/3/2
f 163/2/2 181/2/2 186/2/2
f 181/2/2 182/2/2 186/2/2
f 186/2/2 182/2/2 187/2/2
f 183/2/2 184/2/2 192/2/2
f 192/2/2 184/2/2 193/2/2
f 186/2/2 187/2/2 194/2/2
f 185/2/2 186/2/2 194/2/2
f 187/2/2 188/2/2 194/2/2
f 194/2/2 188/2/2 195/2/2
f 189/2/2 190/2/2 196/2/2
f 196/2/2 190/2/2 197/2/2
f 194/2/2 195/2/2 199/2/2
f 197/2/2 198/2/2 199/2/2
f 196/2/2 197/2/2 199/2/2
f 195/2/2 196/2/2 199/2/2
f 192/2/2 193/2/2 199/2/2
f 193/2/2 194/2/2 199/2/2
f 191/2/2 192/2/2 199/2/2
f 199/2/2 198/2/2 200/2/2
f 200/2/2 198/2/2 201/2/2
f 201/2/2 198/2/2 202/2/2
f 202/2/2 198/2/2 203/2/2
f 203/2/2 198/2/2 204/2/2
f 204/2/2 198/2/2 205/2/2
f 205/2/2 198/2/2 206/2/2
f 200/3/2 201/3/2 207/3/2
f 207/3/2 201/3/2 208/3/2
f 202/2/2 203/2/2 209/2/2
f 209/2/2 203/2/2 210/2/2
f 204/2/2 205/2/2 211/2/2
f 211/2/2 205/2/2 212/2/2
f 202/2/2 209/2/2 214/2/2
f 209/3/2 210/3/2 215/3/2
f 214/2/2 209/2/2 215/2/2
f 215/3/2 210/3/2 216/3/2
f 216/2/2 217/2/2 218/2/2
f 218/2/2 217/2/2 219/2/2
f 213/2/2 214/2/2 220/2/2
f 220/2/2 214/2/2 221/2/2
f 218/3/2 219/3/2 222/3/2
f 222/3/2 219/3/2 223/3/2
f 221/3/2 222/3/2 224/3/2
f 224/3/2 222/3/2 225/3/2
f 228/1/3 227/1/3 226/1/3
f 229/1/3 227/1/3 228/1/3
f 234/1/3 231/1/3 230/1/3
f 235/1/3 231/1/3 234/1/3
f 236/1/3 233/1/3 232/1/3
f 237/1/3 233/1/3 236/1/3
f 242/1/3 239/1/3 238/1/3
f 243/1/3 239/1/3 242/1/3
f 244/2/3 241/2/3 240/2/3
f 245/2/3 241/2/3 244/2/3
f 252/3/3 249/3/3 248/3/3
f 253/3/3 249/3/3 252/3/3
f 254/2/3 251/2/3 250/2/3
f 255/2/3 251/2/3 254/2/3
f 256/1/3 247/1/3 246/1/3
f 257/1/3 247/1/3 256/1/3
f 258/2/3 253/2/3 252/2/3
f 259/2/3 253/2/3 258/2/3
f 260/3/3 255/3/3 254/3/3
f 261/3/3 255/3/3 260/3/3
f 264/1/3 263/1/3 262/1/3
f 265/1/3 263/1/3 264/1/3
f 271/2/3 267/2/3 266/2/3
f 272/3/3 269/3/3 268/3/3
f 273/2/3 270/2/3 269/2/3
f 273/3/3 269/3/3 272/3/3
f 274/2/3 271/2/3 266/2/3
f 275/2/3 271/2/3 274/2/3
f 276/2/3 273/2/3 272/2/3
f 277/2/3 270/2/3 273/2/3
f 277/2/3 273/2/3 276/2/3
f 288/2/3 281/2/3 280/2/3
f 289/3/3 282/3/3 281/3/3
f 289/2/3 281/2/3 288/2/3
f 290/2/3 283/2/3 282/2/3
f 290/3/3 282/3/3 289/3/3
f 291/2/3 285/2/3 284/2/3
f 292/2/3 287/2/3 286/2/3
f 293/2/3 287/2/3 292/2/3
f 294/1/3 279/1/3 278/1/3
f 295/1/3 279/1/3 294/1/3
f 296/2/3 288/2/3 280/2/3
f 297/3/3 289/3/3 288/3/3
f 297/2/3 288/2/3 296/2/3
f 298/2/3 290/2/3 289/2/3
f 298/3/3 289/3/3 297/3/3
f 299/2/3 283/2/3 290/2/3
f 299/2/3 290/2/3 298/2/3
f 300/2/3 291/2/3 284/2/3
f 301/2/3 291/2/3 300/2/3
f 302/3/3 293/3/3 292/3/3
f 303/3/3 293/3/3 302/3/3
f 306/3/3 305/3/3 304/3/3
f 307/3/3 305/3/3 306/3/3
f 308/3/3 305/3/3 307/3/3
f 309/2/3 307/2/3 306/2/3
f 310/3/3 308/3/3 307/3/3
f 310/2/3 307/2/3 309/2/3
f 311/3/3 308/3/3 310/3/3
f 314/2/3 313/2/3 312/2/3
f 315/2/3 313/2/3 314/2/3
f 316/3/3 315/3/3 314/3/3
f 317/3/3 315/3/3 316/3/3
f 322/2/3 319/2/3 318/2/3
f 323/3/3 321/3/3 320/3/3
f 324/3/3 321/3/3 323/3/3
f 325/2/3 322/2/3 318/2/3
f 326/2/3 322/2/3 325/2/3
f 327/2/3 324/2/3 323/2/3
f 328/2/3 324/2/3 327/2/3
f 331/2/3 330/2/3 329/2/3
f 332/2/3 330/2/3 331/2/3
f 333/2/3 330/2/3 332/2/3
f 336/1/3 335/1/3 334/1/3
f 337/1/3 335/1/3 336/1/3
f 338/1/4 339/1/4 340/1/4
f 340/1/4 339/1/4 341/1/4
f 341/1/4 339/1/4 342/1/4
f 343/2/4 344/2/4 345/2/4
f 345/2/4 344/2/4 346/2/4
f 346/2/4 344/2/4 347/2/4
f 345/2/4 346/2/4 348/2/4
f 346/3/4 347/3/4 349/3/4
f 348/2/4 346/2/4 349/2/4
f 349/3/4 347/3/4 350/3/4
f 351/3/4 352/3/4 355/3/4
f 355/3/4 352/3/4 356/3/4
f 353/2/4 354/2/4 357/2/4
f 357/2/4 354/2/4 358/2/4
f 355/2/4 356/2/4 359/2/4
f 359/2/4 356/2/4 360/2/4
f 357/3/4 358/3/4 361/3/4
f 361/3/4 358/3/4 362/3/4
f 363/3/4 364/3/4 365/3/4
f 365/3/4 364/3/4 366/3/4
f 367/3/4 368/3/4 370/3/4
f 368/2/4 369/2/4 371/2/4
f 370/3/4 368/3/4 371/3/4
f 371/2/4 369/2/4 372/2/4
f 370/2/4 371/2/4 373/2/4
f 371/2/4 372/2/4 373/2/4
f 373/2/4 372/2/4 374/2/4
f 377/2/4 378/2/4 388/2/4
f 378/3/4 379/3/4 388/3/4
f 379/2/4 380/2/4 389/2/4
f 388/3/4 379/3/4 389/3/4
f 380/3/4 381/3/4 390/3/4
f 389/2/4 380/2/4 390/2/4
f 384/3/4 385/3/4 391/3/4
f 386/2/4 387/2/4 392/2/4
f 392/2/4 387/2/4 393/2/4
f 375/1/4 376/1/4 394/1/4
f 394/1/4 376/1/4 395/1/4
f 377/2/4 388/2/4 396/2/4
f 388/2/4 389/2/4 396/2/4
f 389/3/4 390/3/4 397/3/4
f 396/2/4 389/2/4 397/2/4
f 390/3/4 381/3/4 398/3/4
f 397/3/4 390/3/4 398/3/4
f 381/2/4 382/2/4 398/2/4
f 398/2/4 382/2/4 399/2/4
f 383/2/4 384/2/4 400/2/4
f 384/3/4 391/3/4 401/3/4
f 400/2/4 384/2/4 401/2/4
f 401/3/4 391/3/4 402/3/4
f 392/3/4 393/3/4 403/3/4
f 403/3/4 393/3/4 404/3/4
f 405/2/4 406/2/4 409/2/4
f 407/3/4 408/3/4 410/3/4
f 410/3/4 408/3/4 411/3/4
f 405/2/4 409/2/4 412/2/4
f 412/2/4 409/2/4 413/2/4
f 410/2/4 411/2/4 414/2/4
f 411/3/4 408/3/4 415/3/4
f 414/2/4 411/2/4 415/2/4
f 415/3/4 408/3/4 416/3/4
f 417/1/4 418/1/4 419/1/4
f 419/1/4 418/1/4 420/1/4
f 425/3/4 426/3/4 427/3/4
f 427/3/4 426/3/4 428/3/4
f 421/1/4 422/1/4 429/1/4
f 429/1/4 422/1/4 430/1/4
f 423/2/4 424/2/4 431/2/4
f 431/2/4 424/2/4 432/2/4
f 427/2/4 428/2/4 433/2/4
f 433/2/4 428/2/4 434/2/4
f 435/1/4 436/1/4 439/1/4
f 439/1/4 436/1/4 440/1/4
f 437/2/4 438/2/4 441/2/4
f 441/2/4 438/2/4 442/2/4
f 443/1/4 444/1/4 447/1/4
f 447/1/4 444/1/4 448/1/4
f 445/1/4 446/1/4 449/1/4
f 449/1/4 446/1/4 450/1/4
f 451/1/4 452/1/4 453/1/4
f 453/1/4 452/1/4 454/1/4
f 457/1/5 456/1/5 455/1/5
f 458/1/5 456/1/5 457/1/5
f 461/1/5 460/1/5 459/1/5
f 462/1/5 460/1/5 461/1/5
f 465/1/5 464/1/5 463/1/5
f 466/1/5 464/1/5 465/1/5
f 469/1/5 468/1/5 467/1/5
f 470/1/5 468/1/5 469/1/5
f 473/1/5 472/1/5 471/1/5
f 474/1/5 472/1/5 473/1/5
f 477/1/5 476/1/5 475/1/5
f 478/1/5 476/1/5 477/1/5
f 481/1/5 480/1/5 479/1/5
f 482/1/5 480/1/5 481/1/5
f 485/1/5 484/1/5 483/1/5
f 486/1/5 484/1/5 485/1/5
f 489/1/5 488/1/5 487/1/5
f 490/1/5 488/1/5 489/1/5
f 493/1/5 492/1/5 491/1/5
f 494/1/5 492/1/5 493/1/5
f 497/1/5 496/1/5 495/1/5
f 498/1/5 496/1/5 497/1/5
f 502/3/5 500/3/5 499/3/5
f 503/2/5 501/2/5 500/2/5
f 503/3/5 500/3/5 502/3/5
f 504/2/5 501/2/5 503/2/5
f 507/2/5 506/2/5 505/2/5
f 508/2/5 506/2/5 507/2/5
f 511/2/5 510/2/5 509/2/5
f 512/2/5 510/2/5 511/2/5
f 515/2/5 514/2/5 513/2/5
f 516/2/5 514/2/5 515/2/5
f 519/2/5 518/2/5 517/2/5
f 520/2/5 518/2/5 519/2/5
f 521/2/5 518/2/5 520/2/5
f 525/3/5 523/3/5 522/3/5
f 526/2/5 524/2/5 523/2/5
f 526/3/5 523/3/5 525/3/5
f 527/2/5 524/2/5 526/2/5
f 531/3/5 529/3/5 528/3/5
f 532/2/5 530/2/5 529/2/5
f 532/3/5 529/3/5 531/3/5
f 533/2/5 530/2/5 532/2/5
f 536/2/5 535/2/5 534/2/5
f 537/2/5 535/2/5 536/2/5
f 541/3/5 539/3/5 538/3/5
f 542/2/5 540/2/5 539/2/5
f 542/3/5 539/3/5 541/3/5
f 543/2/5 540/2/5 542/2/5
f 547/3/5 545/3/5 544/3/5
f 548/2/5 546/2/5 545/2/5
f 548/3/5 545/3/5 547/3/5
f 549/2/5 546/2/5 548/2/5
f 553/2/5 551/2/5 550/2/5
f 554/3/5 552/3/5 551/3/5
f 554/2/5 551/2/5 553/2/5
f 555/3/5 552/3/5 554/3/5
f 556/2/6 557/2/6 558/2/6
f 558/2/6 557/2/6 559/2/6
f 560/2/6 561/2/6 562/2/6
f 562/2/6 561/2/6 563/2/6
f 562/3/6 563/3/6 564/3/6
f 564/3/6 563/3/6 565/3/6
f 565/3/6 563/3/6 566/3/6
f 567/3/6 568/3/6 570/3/6
f 568/2/6 569/2/6 570/2/6
f 570/2/6 569/2/6 571/2/6
f 567/3/6 570/3/6 572/3/6
f 570/3/6 571/3/6 572/3/6
f 572/3/6 571/3/6 573/3/6
f 574/2/6 575/2/6 577/2/6
f 575/3/6 576/3/6 578/3/6
f 577/2/6 575/2/6 578/2/6
f 578/3/6 576/3/6 579/3/6
f 577/3/6 578/3/6 580/3/6
f 578/2/6 579/2/6 581/2/6
f 580/3/6 578/3/6 581/3/6
f 581/2/6 579/2/6 582/2/6
f 583/1/6 584/1/6 585/1/6
f 585/1/6 584/1/6 586/1/6
f 587/2/6 588/2/6 590/2/6
f 588/3/6 589/3/6 591/3/6
f 590/2/6 588/2/6 591/2/6
f 591/3/6 589/3/6 592/3/6
f 593/2/6 594/2/6 595/2/6
f 595/2/6 594/2/6 596/2/6
f 597/1/6 598/1/6 599/1/6
f 599/1/6 598/1/6 600/1/6
f 601/1/6 602/1/6 603/1/6
f 603/1/6 602/1/6 604/1/6
f 605/1/6 606/1/6 607/1/6
f 607/1/6 606/1/6 608/1/6
f 609/2/6 610/2/6 611/2/6
f 611/2/6 610/2/6 612/2/6
f 612/2/6 610/2/6 613/2/6
f 614/3/6 615/3/6 617/3/6
f 615/2/6 616/2/6 618/2/6
f 617/3/6 615/3/6 618/3/6
f 617/2/6 618/2/6 619/2/6
f 618/2/6 616/2/6 620/2/6
f 619/2/6 618/2/6 620/2/6
f 621/2/6 622/2/6 623/2/6
f 623/2/6 622/2/6 624/2/6
f 623/3/6 624/3/6 625/3/6
f 624/2/6 622/2/6 626/2/6
f 625/3/6 624/3/6 626/3/6
f 626/2/6 622/2/6 627/2/6
f 628/2/6 629/2/6 631/2/6
f 629/2/6 630/2/6 631/2/6
f 631/2/6 630/2/6 632/2/6
f 633/2/6 634/2/6 636/2/6
f 634/3/6 635/3/6 637/3/6
f 636/2/6 634/2/6 637/2/6
f 637/3/6 635/3/6 638/3/6
f 639/3/6 640/3/6 642/3/6
f 640/2/6 641/2/6 643/2/6
f 642/3/6 640/3/6 643/3/6
f 643/2/6 641/2/6 644/2/6
f 645/2/6 646/2/6 648/2/6
f 646/2/6 647/2/6 648/2/6
f 648/2/6 647/2/6 649/2/6
f 648/3/6 649/3/6 650/3/6
f 650/3/6 649/3/6 651/3/6
f 651/3/6 649/3/6 652/3/6
f 653/2/6 654/2/6 655/2/6
f 655/2/6 654/2/6 656/2/6
f 656/2/6 654/2/6 657/2/6
f 658/3/6 659/3/6 661/3/6
f 659/3/6 660/3/6 661/3/6
f 661/3/6 660/3/6 662/3/6
f 663/2/6 664/2/6 666/2/6
f 664/3/6 665/3/6 667/3/6
f 666/2/6 664/2/6 667/2/6
f 667/3/6 665/3/6 668/3/6
