# MagicaVoxel @ Ephtracy

# group
o 

# material
mtllib barril.mtl
usemtl palette

# normals
vn -1 0 0
vn 1 0 0
vn 0 0 1
vn 0 0 -1
vn 0 -1 0
vn 0 1 0

# texcoords
vt 0.0292969 0.5
vt 0.0683594 0.5
vt 0.0839844 0.5
vt 0.0957031 0.5

# verts
v -0.4 0.2 0.2
v -0.4 0.2 0.1
v -0.4 0.2 -0.1
v -0.4 0.2 -0.2
v -0.4 0.3 0.2
v -0.4 0.3 0.1
v -0.4 0.3 -0.1
v -0.4 0.3 -0.2
v -0.4 0.4 0.2
v -0.4 0.4 0.1
v -0.4 0.4 -0.1
v -0.4 0.4 -0.2
v -0.4 0.7 0.2
v -0.4 0.7 0.1
v -0.4 0.7 -0.1
v -0.4 0.7 -0.2
v -0.4 0.8 0.2
v -0.4 0.8 0.1
v -0.4 0.8 -0.1
v -0.4 0.8 -0.2
v -0.4 0.9 0.2
v -0.4 0.9 0.1
v -0.4 0.9 -0.1
v -0.4 0.9 -0.2
v -0.3 0.1 0.2
v -0.3 0.1 -0.2
v -0.3 0.2 0.3
v -0.3 0.2 0.2
v -0.3 0.2 0.1
v -0.3 0.2 -0.1
v -0.3 0.2 -0.2
v -0.3 0.2 -0.3
v -0.3 0.3 0.3
v -0.3 0.3 0.2
v -0.3 0.3 -0.2
v -0.3 0.3 -0.3
v -0.3 0.4 0.3
v -0.3 0.4 0.2
v -0.3 0.4 -0.2
v -0.3 0.4 -0.3
v -0.3 0.7 0.3
v -0.3 0.7 0.2
v -0.3 0.7 -0.2
v -0.3 0.7 -0.3
v -0.3 0.8 0.3
v -0.3 0.8 0.2
v -0.3 0.8 -0.2
v -0.3 0.8 -0.3
v -0.3 0.9 0.3
v -0.3 0.9 0.2
v -0.3 0.9 0.1
v -0.3 0.9 -0.1
v -0.3 0.9 -0.2
v -0.3 0.9 -0.3
v -0.3 1 0.2
v -0.3 1 -0.2
v -0.2 0.1 0.3
v -0.2 0.1 0.2
v -0.2 0.1 -0.2
v -0.2 0.1 -0.3
v -0.2 0.2 0.4
v -0.2 0.2 0.3
v -0.2 0.2 0.2
v -0.2 0.2 -0.2
v -0.2 0.2 -0.3
v -0.2 0.2 -0.4
v -0.2 0.3 0.4
v -0.2 0.3 0.3
v -0.2 0.3 -0.3
v -0.2 0.3 -0.4
v -0.2 0.4 0.4
v -0.2 0.4 0.3
v -0.2 0.4 -0.3
v -0.2 0.4 -0.4
v -0.2 0.7 0.4
v -0.2 0.7 0.3
v -0.2 0.7 -0.3
v -0.2 0.7 -0.4
v -0.2 0.8 0.4
v -0.2 0.8 0.3
v -0.2 0.8 -0.3
v -0.2 0.8 -0.4
v -0.2 0.9 0.4
v -0.2 0.9 0.3
v -0.2 0.9 0.2
v -0.2 0.9 -0.2
v -0.2 0.9 -0.3
v -0.2 0.9 -0.4
v -0.2 1 0.3
v -0.2 1 0.2
v -0.2 1 -0.2
v -0.2 1 -0.3
v 0.2 0.1 0.2
v 0.2 0.1 -0.2
v 0.2 0.2 0.2
v 0.2 0.2 -0.2
v 0.2 0.9 0.2
v 0.2 0.9 -0.2
v 0.2 1 0.2
v 0.2 1 -0.2
v -0.2 0.1 0.2
v -0.2 0.1 -0.2
v -0.2 0.2 0.2
v -0.2 0.2 -0.2
v -0.2 0.9 0.2
v -0.2 0.9 -0.2
v -0.2 1 0.2
v -0.2 1 -0.2
v 0.2 0.1 0.3
v 0.2 0.1 0.2
v 0.2 0.1 -0.2
v 0.2 0.1 -0.3
v 0.2 0.2 0.4
v 0.2 0.2 0.3
v 0.2 0.2 0.2
v 0.2 0.2 -0.2
v 0.2 0.2 -0.3
v 0.2 0.2 -0.4
v 0.2 0.3 0.4
v 0.2 0.3 0.3
v 0.2 0.3 -0.3
v 0.2 0.3 -0.4
v 0.2 0.4 0.4
v 0.2 0.4 0.3
v 0.2 0.4 -0.3
v 0.2 0.4 -0.4
v 0.2 0.7 0.4
v 0.2 0.7 0.3
v 0.2 0.7 -0.3
v 0.2 0.7 -0.4
v 0.2 0.8 0.4
v 0.2 0.8 0.3
v 0.2 0.8 -0.3
v 0.2 0.8 -0.4
v 0.2 0.9 0.4
v 0.2 0.9 0.3
v 0.2 0.9 0.2
v 0.2 0.9 -0.2
v 0.2 0.9 -0.3
v 0.2 0.9 -0.4
v 0.2 1 0.3
v 0.2 1 0.2
v 0.2 1 -0.2
v 0.2 1 -0.3
v 0.3 0.1 0.2
v 0.3 0.1 -0.2
v 0.3 0.2 0.3
v 0.3 0.2 0.2
v 0.3 0.2 0.1
v 0.3 0.2 -0.1
v 0.3 0.2 -0.2
v 0.3 0.2 -0.3
v 0.3 0.3 0.3
v 0.3 0.3 0.2
v 0.3 0.3 -0.2
v 0.3 0.3 -0.3
v 0.3 0.4 0.3
v 0.3 0.4 0.2
v 0.3 0.4 -0.2
v 0.3 0.4 -0.3
v 0.3 0.7 0.3
v 0.3 0.7 0.2
v 0.3 0.7 -0.2
v 0.3 0.7 -0.3
v 0.3 0.8 0.3
v 0.3 0.8 0.2
v 0.3 0.8 -0.2
v 0.3 0.8 -0.3
v 0.3 0.9 0.3
v 0.3 0.9 0.2
v 0.3 0.9 0.1
v 0.3 0.9 -0.1
v 0.3 0.9 -0.2
v 0.3 0.9 -0.3
v 0.3 1 0.2
v 0.3 1 -0.2
v 0.4 0.2 0.2
v 0.4 0.2 0.1
v 0.4 0.2 -0.1
v 0.4 0.2 -0.2
v 0.4 0.3 0.2
v 0.4 0.3 0.1
v 0.4 0.3 -0.1
v 0.4 0.3 -0.2
v 0.4 0.4 0.2
v 0.4 0.4 0.1
v 0.4 0.4 -0.1
v 0.4 0.4 -0.2
v 0.4 0.7 0.2
v 0.4 0.7 0.1
v 0.4 0.7 -0.1
v 0.4 0.7 -0.2
v 0.4 0.8 0.2
v 0.4 0.8 0.1
v 0.4 0.8 -0.1
v 0.4 0.8 -0.2
v 0.4 0.9 0.2
v 0.4 0.9 0.1
v 0.4 0.9 -0.1
v 0.4 0.9 -0.2
v -0.2 0.2 0.4
v -0.2 0.3 0.4
v -0.2 0.4 0.4
v -0.2 0.7 0.4
v -0.2 0.8 0.4
v -0.2 0.9 0.4
v -0.1 0.2 0.4
v -0.1 0.3 0.4
v -0.1 0.4 0.4
v -0.1 0.7 0.4
v -0.1 0.8 0.4
v -0.1 0.9 0.4
v 0.1 0.2 0.4
v 0.1 0.3 0.4
v 0.1 0.4 0.4
v 0.1 0.7 0.4
v 0.1 0.8 0.4
v 0.1 0.9 0.4
v 0.2 0.2 0.4
v 0.2 0.3 0.4
v 0.2 0.4 0.4
v 0.2 0.7 0.4
v 0.2 0.8 0.4
v 0.2 0.9 0.4
v -0.3 0.2 0.3
v -0.3 0.3 0.3
v -0.3 0.4 0.3
v -0.3 0.7 0.3
v -0.3 0.8 0.3
v -0.3 0.9 0.3
v -0.2 0.1 0.3
v -0.2 0.2 0.3
v -0.2 0.3 0.3
v -0.2 0.4 0.3
v -0.2 0.7 0.3
v -0.2 0.8 0.3
v -0.2 0.9 0.3
v -0.2 1 0.3
v -0.1 0.2 0.3
v -0.1 0.9 0.3
v 0.1 0.2 0.3
v 0.1 0.9 0.3
v 0.2 0.1 0.3
v 0.2 0.2 0.3
v 0.2 0.3 0.3
v 0.2 0.4 0.3
v 0.2 0.7 0.3
v 0.2 0.8 0.3
v 0.2 0.9 0.3
v 0.2 1 0.3
v 0.3 0.2 0.3
v 0.3 0.3 0.3
v 0.3 0.4 0.3
v 0.3 0.7 0.3
v 0.3 0.8 0.3
v 0.3 0.9 0.3
v -0.4 0.2 0.2
v -0.4 0.3 0.2
v -0.4 0.4 0.2
v -0.4 0.7 0.2
v -0.4 0.8 0.2
v -0.4 0.9 0.2
v -0.3 0.1 0.2
v -0.3 0.2 0.2
v -0.3 0.3 0.2
v -0.3 0.4 0.2
v -0.3 0.7 0.2
v -0.3 0.8 0.2
v -0.3 0.9 0.2
v -0.3 1 0.2
v -0.2 0.1 0.2
v -0.2 0.2 0.2
v -0.2 0.9 0.2
v -0.2 1 0.2
v 0.2 0.1 0.2
v 0.2 0.2 0.2
v 0.2 0.9 0.2
v 0.2 1 0.2
v 0.3 0.1 0.2
v 0.3 0.2 0.2
v 0.3 0.3 0.2
v 0.3 0.4 0.2
v 0.3 0.7 0.2
v 0.3 0.8 0.2
v 0.3 0.9 0.2
v 0.3 1 0.2
v 0.4 0.2 0.2
v 0.4 0.3 0.2
v 0.4 0.4 0.2
v 0.4 0.7 0.2
v 0.4 0.8 0.2
v 0.4 0.9 0.2
v -0.2 0.1 -0.2
v -0.2 0.2 -0.2
v -0.2 0.9 -0.2
v -0.2 1 -0.2
v 0.2 0.1 -0.2
v 0.2 0.2 -0.2
v 0.2 0.9 -0.2
v 0.2 1 -0.2
v -0.2 0.1 0.2
v -0.2 0.2 0.2
v -0.2 0.9 0.2
v -0.2 1 0.2
v 0.2 0.1 0.2
v 0.2 0.2 0.2
v 0.2 0.9 0.2
v 0.2 1 0.2
v -0.4 0.2 -0.2
v -0.4 0.3 -0.2
v -0.4 0.4 -0.2
v -0.4 0.7 -0.2
v -0.4 0.8 -0.2
v -0.4 0.9 -0.2
v -0.3 0.1 -0.2
v -0.3 0.2 -0.2
v -0.3 0.3 -0.2
v -0.3 0.4 -0.2
v -0.3 0.7 -0.2
v -0.3 0.8 -0.2
v -0.3 0.9 -0.2
v -0.3 1 -0.2
v -0.2 0.1 -0.2
v -0.2 0.2 -0.2
v -0.2 0.9 -0.2
v -0.2 1 -0.2
v 0.2 0.1 -0.2
v 0.2 0.2 -0.2
v 0.2 0.9 -0.2
v 0.2 1 -0.2
v 0.3 0.1 -0.2
v 0.3 0.2 -0.2
v 0.3 0.3 -0.2
v 0.3 0.4 -0.2
v 0.3 0.7 -0.2
v 0.3 0.8 -0.2
v 0.3 0.9 -0.2
v 0.3 1 -0.2
v 0.4 0.2 -0.2
v 0.4 0.3 -0.2
v 0.4 0.4 -0.2
v 0.4 0.7 -0.2
v 0.4 0.8 -0.2
v 0.4 0.9 -0.2
v -0.3 0.2 -0.3
v -0.3 0.3 -0.3
v -0.3 0.4 -0.3
v -0.3 0.7 -0.3
v -0.3 0.8 -0.3
v -0.3 0.9 -0.3
v -0.2 0.1 -0.3
v -0.2 0.2 -0.3
v -0.2 0.3 -0.3
v -0.2 0.4 -0.3
v -0.2 0.7 -0.3
v -0.2 0.8 -0.3
v -0.2 0.9 -0.3
v -0.2 1 -0.3
v -0.1 0.2 -0.3
v -0.1 0.9 -0.3
v 0.1 0.2 -0.3
v 0.1 0.9 -0.3
v 0.2 0.1 -0.3
v 0.2 0.2 -0.3
v 0.2 0.3 -0.3
v 0.2 0.4 -0.3
v 0.2 0.7 -0.3
v 0.2 0.8 -0.3
v 0.2 0.9 -0.3
v 0.2 1 -0.3
v 0.3 0.2 -0.3
v 0.3 0.3 -0.3
v 0.3 0.4 -0.3
v 0.3 0.7 -0.3
v 0.3 0.8 -0.3
v 0.3 0.9 -0.3
v -0.2 0.2 -0.4
v -0.2 0.3 -0.4
v -0.2 0.4 -0.4
v -0.2 0.7 -0.4
v -0.2 0.8 -0.4
v -0.2 0.9 -0.4
v -0.1 0.2 -0.4
v -0.1 0.3 -0.4
v -0.1 0.4 -0.4
v -0.1 0.7 -0.4
v -0.1 0.8 -0.4
v -0.1 0.9 -0.4
v 0.1 0.2 -0.4
v 0.1 0.3 -0.4
v 0.1 0.4 -0.4
v 0.1 0.7 -0.4
v 0.1 0.8 -0.4
v 0.1 0.9 -0.4
v 0.2 0.2 -0.4
v 0.2 0.3 -0.4
v 0.2 0.4 -0.4
v 0.2 0.7 -0.4
v 0.2 0.8 -0.4
v 0.2 0.9 -0.4
v -0.2 0.1 0.3
v 0.2 0.1 0.3
v -0.3 0.1 0.2
v -0.2 0.1 0.2
v 0.2 0.1 0.2
v 0.3 0.1 0.2
v -0.3 0.1 -0.2
v -0.2 0.1 -0.2
v 0.2 0.1 -0.2
v 0.3 0.1 -0.2
v -0.2 0.1 -0.3
v 0.2 0.1 -0.3
v -0.2 0.2 0.4
v -0.1 0.2 0.4
v 0.1 0.2 0.4
v 0.2 0.2 0.4
v -0.3 0.2 0.3
v -0.2 0.2 0.3
v -0.1 0.2 0.3
v 0.1 0.2 0.3
v 0.2 0.2 0.3
v 0.3 0.2 0.3
v -0.4 0.2 0.2
v -0.3 0.2 0.2
v -0.2 0.2 0.2
v 0.2 0.2 0.2
v 0.3 0.2 0.2
v 0.4 0.2 0.2
v -0.4 0.2 0.1
v -0.3 0.2 0.1
v 0.3 0.2 0.1
v 0.4 0.2 0.1
v -0.4 0.2 -0.1
v -0.3 0.2 -0.1
v 0.3 0.2 -0.1
v 0.4 0.2 -0.1
v -0.4 0.2 -0.2
v -0.3 0.2 -0.2
v -0.2 0.2 -0.2
v 0.2 0.2 -0.2
v 0.3 0.2 -0.2
v 0.4 0.2 -0.2
v -0.3 0.2 -0.3
v -0.2 0.2 -0.3
v -0.1 0.2 -0.3
v 0.1 0.2 -0.3
v 0.2 0.2 -0.3
v 0.3 0.2 -0.3
v -0.2 0.2 -0.4
v -0.1 0.2 -0.4
v 0.1 0.2 -0.4
v 0.2 0.2 -0.4
v -0.2 0.9 0.4
v -0.1 0.9 0.4
v 0.1 0.9 0.4
v 0.2 0.9 0.4
v -0.3 0.9 0.3
v -0.2 0.9 0.3
v -0.1 0.9 0.3
v 0.1 0.9 0.3
v 0.2 0.9 0.3
v 0.3 0.9 0.3
v -0.4 0.9 0.2
v -0.3 0.9 0.2
v -0.2 0.9 0.2
v 0.2 0.9 0.2
v 0.3 0.9 0.2
v 0.4 0.9 0.2
v -0.4 0.9 0.1
v -0.3 0.9 0.1
v -0.1 0.9 0.1
v 0.1 0.9 0.1
v 0.3 0.9 0.1
v 0.4 0.9 0.1
v -0.4 0.9 -0.1
v -0.3 0.9 -0.1
v -0.1 0.9 -0.1
v 0.1 0.9 -0.1
v 0.3 0.9 -0.1
v 0.4 0.9 -0.1
v -0.4 0.9 -0.2
v -0.3 0.9 -0.2
v -0.2 0.9 -0.2
v 0.2 0.9 -0.2
v 0.3 0.9 -0.2
v 0.4 0.9 -0.2
v -0.3 0.9 -0.3
v -0.2 0.9 -0.3
v -0.1 0.9 -0.3
v 0.1 0.9 -0.3
v 0.2 0.9 -0.3
v 0.3 0.9 -0.3
v -0.2 0.9 -0.4
v -0.1 0.9 -0.4
v 0.1 0.9 -0.4
v 0.2 0.9 -0.4
v -0.2 1 0.3
v 0.2 1 0.3
v -0.3 1 0.2
v -0.2 1 0.2
v 0.2 1 0.2
v 0.3 1 0.2
v -0.3 1 -0.2
v -0.2 1 -0.2
v 0.2 1 -0.2
v 0.3 1 -0.2
v -0.2 1 -0.3
v 0.2 1 -0.3

# faces
f 5/2/1 2/2/1 1/2/1
f 6/3/1 3/3/1 2/3/1
f 6/2/1 2/2/1 5/2/1
f 7/2/1 4/2/1 3/2/1
f 7/3/1 3/3/1 6/3/1
f 8/2/1 4/2/1 7/2/1
f 9/1/1 6/1/1 5/1/1
f 9/1/1 7/1/1 6/1/1
f 9/1/1 8/1/1 7/1/1
f 10/1/1 8/1/1 9/1/1
f 11/1/1 8/1/1 10/1/1
f 12/1/1 8/1/1 11/1/1
f 13/2/1 10/2/1 9/2/1
f 14/3/1 11/3/1 10/3/1
f 14/2/1 10/2/1 13/2/1
f 15/2/1 12/2/1 11/2/1
f 15/3/1 11/3/1 14/3/1
f 16/2/1 12/2/1 15/2/1
f 17/1/1 14/1/1 13/1/1
f 17/1/1 15/1/1 14/1/1
f 17/1/1 16/1/1 15/1/1
f 18/1/1 16/1/1 17/1/1
f 19/1/1 16/1/1 18/1/1
f 20/1/1 16/1/1 19/1/1
f 21/2/1 18/2/1 17/2/1
f 22/3/1 19/3/1 18/3/1
f 22/2/1 18/2/1 21/2/1
f 23/2/1 20/2/1 19/2/1
f 23/3/1 19/3/1 22/3/1
f 24/2/1 20/2/1 23/2/1
f 28/1/1 26/1/1 25/1/1
f 29/1/1 26/1/1 28/1/1
f 30/1/1 26/1/1 29/1/1
f 31/1/1 26/1/1 30/1/1
f 33/3/1 28/3/1 27/3/1
f 34/3/1 28/3/1 33/3/1
f 35/3/1 32/3/1 31/3/1
f 36/3/1 32/3/1 35/3/1
f 37/1/1 34/1/1 33/1/1
f 38/1/1 34/1/1 37/1/1
f 39/1/1 36/1/1 35/1/1
f 40/1/1 36/1/1 39/1/1
f 41/3/1 38/3/1 37/3/1
f 42/3/1 38/3/1 41/3/1
f 43/3/1 40/3/1 39/3/1
f 44/3/1 40/3/1 43/3/1
f 45/1/1 42/1/1 41/1/1
f 46/1/1 42/1/1 45/1/1
f 47/1/1 44/1/1 43/1/1
f 48/1/1 44/1/1 47/1/1
f 49/3/1 46/3/1 45/3/1
f 50/3/1 46/3/1 49/3/1
f 53/3/1 48/3/1 47/3/1
f 54/3/1 48/3/1 53/3/1
f 55/1/1 52/1/1 51/1/1
f 55/1/1 53/1/1 52/1/1
f 55/1/1 51/1/1 50/1/1
f 56/1/1 53/1/1 55/1/1
f 62/1/1 58/1/1 57/1/1
f 63/1/1 58/1/1 62/1/1
f 64/1/1 60/1/1 59/1/1
f 65/1/1 60/1/1 64/1/1
f 67/2/1 62/2/1 61/2/1
f 68/2/1 62/2/1 67/2/1
f 69/2/1 66/2/1 65/2/1
f 70/2/1 66/2/1 69/2/1
f 71/1/1 68/1/1 67/1/1
f 72/1/1 68/1/1 71/1/1
f 73/1/1 70/1/1 69/1/1
f 74/1/1 70/1/1 73/1/1
f 75/2/1 72/2/1 71/2/1
f 76/2/1 72/2/1 75/2/1
f 77/2/1 74/2/1 73/2/1
f 78/2/1 74/2/1 77/2/1
f 79/1/1 76/1/1 75/1/1
f 80/1/1 76/1/1 79/1/1
f 81/1/1 78/1/1 77/1/1
f 82/1/1 78/1/1 81/1/1
f 83/2/1 80/2/1 79/2/1
f 84/2/1 80/2/1 83/2/1
f 87/2/1 82/2/1 81/2/1
f 88/2/1 82/2/1 87/2/1
f 89/1/1 85/1/1 84/1/1
f 90/1/1 85/1/1 89/1/1
f 91/1/1 87/1/1 86/1/1
f 92/1/1 87/1/1 91/1/1
f 95/1/1 94/1/1 93/1/1
f 96/1/1 94/1/1 95/1/1
f 99/1/1 98/1/1 97/1/1
f 100/1/1 98/1/1 99/1/1
f 101/1/2 102/1/2 103/1/2
f 103/1/2 102/1/2 104/1/2
f 105/1/2 106/1/2 107/1/2
f 107/1/2 106/1/2 108/1/2
f 109/1/2 110/1/2 114/1/2
f 114/1/2 110/1/2 115/1/2
f 111/1/2 112/1/2 116/1/2
f 116/1/2 112/1/2 117/1/2
f 113/2/2 114/2/2 119/2/2
f 119/2/2 114/2/2 120/2/2
f 117/2/2 118/2/2 121/2/2
f 121/2/2 118/2/2 122/2/2
f 119/1/2 120/1/2 123/1/2
f 123/1/2 120/1/2 124/1/2
f 121/1/2 122/1/2 125/1/2
f 125/1/2 122/1/2 126/1/2
f 123/2/2 124/2/2 127/2/2
f 127/2/2 124/2/2 128/2/2
f 125/2/2 126/2/2 129/2/2
f 129/2/2 126/2/2 130/2/2
f 127/1/2 128/1/2 131/1/2
f 131/1/2 128/1/2 132/1/2
f 129/1/2 130/1/2 133/1/2
f 133/1/2 130/1/2 134/1/2
f 131/2/2 132/2/2 135/2/2
f 135/2/2 132/2/2 136/2/2
f 133/2/2 134/2/2 139/2/2
f 139/2/2 134/2/2 140/2/2
f 136/1/2 137/1/2 141/1/2
f 141/1/2 137/1/2 142/1/2
f 138/1/2 139/1/2 143/1/2
f 143/1/2 139/1/2 144/1/2
f 145/1/2 146/1/2 148/1/2
f 148/1/2 146/1/2 149/1/2
f 149/1/2 146/1/2 150/1/2
f 150/1/2 146/1/2 151/1/2
f 147/3/2 148/3/2 153/3/2
f 153/3/2 148/3/2 154/3/2
f 151/3/2 152/3/2 155/3/2
f 155/3/2 152/3/2 156/3/2
f 153/1/2 154/1/2 157/1/2
f 157/1/2 154/1/2 158/1/2
f 155/1/2 156/1/2 159/1/2
f 159/1/2 156/1/2 160/1/2
f 157/3/2 158/3/2 161/3/2
f 161/3/2 158/3/2 162/3/2
f 159/3/2 160/3/2 163/3/2
f 163/3/2 160/3/2 164/3/2
f 161/1/2 162/1/2 165/1/2
f 165/1/2 162/1/2 166/1/2
f 163/1/2 164/1/2 167/1/2
f 167/1/2 164/1/2 168/1/2
f 165/3/2 166/3/2 169/3/2
f 169/3/2 166/3/2 170/3/2
f 167/3/2 168/3/2 173/3/2
f 173/3/2 168/3/2 174/3/2
f 171/1/2 172/1/2 175/1/2
f 172/1/2 173/1/2 175/1/2
f 170/1/2 171/1/2 175/1/2
f 175/1/2 173/1/2 176/1/2
f 177/2/2 178/2/2 181/2/2
f 178/3/2 179/3/2 182/3/2
f 181/2/2 178/2/2 182/2/2
f 179/2/2 180/2/2 183/2/2
f 182/3/2 179/3/2 183/3/2
f 183/2/2 180/2/2 184/2/2
f 181/1/2 182/1/2 185/1/2
f 182/1/2 183/1/2 185/1/2
f 183/1/2 184/1/2 185/1/2
f 185/1/2 184/1/2 186/1/2
f 186/1/2 184/1/2 187/1/2
f 187/1/2 184/1/2 188/1/2
f 185/2/2 186/2/2 189/2/2
f 186/3/2 187/3/2 190/3/2
f 189/2/2 186/2/2 190/2/2
f 187/2/2 188/2/2 191/2/2
f 190/3/2 187/3/2 191/3/2
f 191/2/2 188/2/2 192/2/2
f 189/1/2 190/1/2 193/1/2
f 190/1/2 191/1/2 193/1/2
f 191/1/2 192/1/2 193/1/2
f 193/1/2 192/1/2 194/1/2
f 194/1/2 192/1/2 195/1/2
f 195/1/2 192/1/2 196/1/2
f 193/2/2 194/2/2 197/2/2
f 194/3/2 195/3/2 198/3/2
f 197/2/2 194/2/2 198/2/2
f 195/2/2 196/2/2 199/2/2
f 198/3/2 195/3/2 199/3/2
f 199/2/2 196/2/2 200/2/2
f 207/2/3 202/2/3 201/2/3
f 208/1/3 203/1/3 202/1/3
f 208/2/3 202/2/3 207/2/3
f 209/2/3 204/2/3 203/2/3
f 209/1/3 203/1/3 208/1/3
f 210/1/3 205/1/3 204/1/3
f 210/2/3 204/2/3 209/2/3
f 211/2/3 206/2/3 205/2/3
f 211/1/3 205/1/3 210/1/3
f 212/2/3 206/2/3 211/2/3
f 213/3/3 208/3/3 207/3/3
f 214/1/3 209/1/3 208/1/3
f 214/3/3 208/3/3 213/3/3
f 215/3/3 210/3/3 209/3/3
f 215/1/3 209/1/3 214/1/3
f 216/1/3 211/1/3 210/1/3
f 216/3/3 210/3/3 215/3/3
f 217/3/3 212/3/3 211/3/3
f 217/1/3 211/1/3 216/1/3
f 218/3/3 212/3/3 217/3/3
f 219/2/3 214/2/3 213/2/3
f 220/1/3 215/1/3 214/1/3
f 220/2/3 214/2/3 219/2/3
f 221/2/3 216/2/3 215/2/3
f 221/1/3 215/1/3 220/1/3
f 222/1/3 217/1/3 216/1/3
f 222/2/3 216/2/3 221/2/3
f 223/2/3 218/2/3 217/2/3
f 223/1/3 217/1/3 222/1/3
f 224/2/3 218/2/3 223/2/3
f 232/3/3 226/3/3 225/3/3
f 233/1/3 227/1/3 226/1/3
f 233/3/3 226/3/3 232/3/3
f 234/3/3 228/3/3 227/3/3
f 234/1/3 227/1/3 233/1/3
f 235/1/3 229/1/3 228/1/3
f 235/3/3 228/3/3 234/3/3
f 236/3/3 230/3/3 229/3/3
f 236/1/3 229/1/3 235/1/3
f 237/3/3 230/3/3 236/3/3
f 239/1/3 232/1/3 231/1/3
f 240/1/3 238/1/3 237/1/3
f 241/1/3 239/1/3 231/1/3
f 242/1/3 238/1/3 240/1/3
f 243/1/3 241/1/3 231/1/3
f 244/1/3 241/1/3 243/1/3
f 249/1/3 238/1/3 242/1/3
f 250/1/3 238/1/3 249/1/3
f 251/3/3 245/3/3 244/3/3
f 252/1/3 246/1/3 245/1/3
f 252/3/3 245/3/3 251/3/3
f 253/3/3 247/3/3 246/3/3
f 253/1/3 246/1/3 252/1/3
f 254/1/3 248/1/3 247/1/3
f 254/3/3 247/3/3 253/3/3
f 255/3/3 249/3/3 248/3/3
f 255/1/3 248/1/3 254/1/3
f 256/3/3 249/3/3 255/3/3
f 264/2/3 258/2/3 257/2/3
f 265/1/3 259/1/3 258/1/3
f 265/2/3 258/2/3 264/2/3
f 266/2/3 260/2/3 259/2/3
f 266/1/3 259/1/3 265/1/3
f 267/1/3 261/1/3 260/1/3
f 267/2/3 260/2/3 266/2/3
f 268/2/3 262/2/3 261/2/3
f 268/1/3 261/1/3 267/1/3
f 269/2/3 262/2/3 268/2/3
f 271/1/3 264/1/3 263/1/3
f 272/1/3 264/1/3 271/1/3
f 273/1/3 270/1/3 269/1/3
f 274/1/3 270/1/3 273/1/3
f 279/1/3 276/1/3 275/1/3
f 280/1/3 276/1/3 279/1/3
f 285/1/3 278/1/3 277/1/3
f 286/1/3 278/1/3 285/1/3
f 287/2/3 281/2/3 280/2/3
f 288/1/3 282/1/3 281/1/3
f 288/2/3 281/2/3 287/2/3
f 289/2/3 283/2/3 282/2/3
f 289/1/3 282/1/3 288/1/3
f 290/1/3 284/1/3 283/1/3
f 290/2/3 283/2/3 289/2/3
f 291/2/3 285/2/3 284/2/3
f 291/1/3 284/1/3 290/1/3
f 292/2/3 285/2/3 291/2/3
f 297/1/3 294/1/3 293/1/3
f 298/1/3 294/1/3 297/1/3
f 299/1/3 296/1/3 295/1/3
f 300/1/3 296/1/3 299/1/3
f 301/1/4 302/1/4 305/1/4
f 305/1/4 302/1/4 306/1/4
f 303/1/4 304/1/4 307/1/4
f 307/1/4 304/1/4 308/1/4
f 309/2/4 310/2/4 316/2/4
f 310/1/4 311/1/4 317/1/4
f 316/2/4 310/2/4 317/2/4
f 311/2/4 312/2/4 318/2/4
f 317/1/4 311/1/4 318/1/4
f 312/1/4 313/1/4 319/1/4
f 318/2/4 312/2/4 319/2/4
f 313/2/4 314/2/4 320/2/4
f 319/1/4 313/1/4 320/1/4
f 320/2/4 314/2/4 321/2/4
f 315/1/4 316/1/4 323/1/4
f 323/1/4 316/1/4 324/1/4
f 321/1/4 322/1/4 325/1/4
f 325/1/4 322/1/4 326/1/4
f 327/1/4 328/1/4 331/1/4
f 331/1/4 328/1/4 332/1/4
f 329/1/4 330/1/4 337/1/4
f 337/1/4 330/1/4 338/1/4
f 332/2/4 333/2/4 339/2/4
f 333/1/4 334/1/4 340/1/4
f 339/2/4 333/2/4 340/2/4
f 334/2/4 335/2/4 341/2/4
f 340/1/4 334/1/4 341/1/4
f 335/1/4 336/1/4 342/1/4
f 341/2/4 335/2/4 342/2/4
f 336/2/4 337/2/4 343/2/4
f 342/1/4 336/1/4 343/1/4
f 343/2/4 337/2/4 344/2/4
f 345/3/4 346/3/4 352/3/4
f 346/1/4 347/1/4 353/1/4
f 352/3/4 346/3/4 353/3/4
f 347/3/4 348/3/4 354/3/4
f 353/1/4 347/1/4 354/1/4
f 348/1/4 349/1/4 355/1/4
f 354/3/4 348/3/4 355/3/4
f 349/3/4 350/3/4 356/3/4
f 355/1/4 349/1/4 356/1/4
f 356/3/4 350/3/4 357/3/4
f 351/1/4 352/1/4 359/1/4
f 357/1/4 358/1/4 360/1/4
f 351/1/4 359/1/4 361/1/4
f 360/1/4 358/1/4 362/1/4
f 351/1/4 361/1/4 363/1/4
f 363/1/4 361/1/4 364/1/4
f 362/1/4 358/1/4 369/1/4
f 369/1/4 358/1/4 370/1/4
f 364/3/4 365/3/4 371/3/4
f 365/1/4 366/1/4 372/1/4
f 371/3/4 365/3/4 372/3/4
f 366/3/4 367/3/4 373/3/4
f 372/1/4 366/1/4 373/1/4
f 367/1/4 368/1/4 374/1/4
f 373/3/4 367/3/4 374/3/4
f 368/3/4 369/3/4 375/3/4
f 374/1/4 368/1/4 375/1/4
f 375/3/4 369/3/4 376/3/4
f 377/2/4 378/2/4 383/2/4
f 378/1/4 379/1/4 384/1/4
f 383/2/4 378/2/4 384/2/4
f 379/2/4 380/2/4 385/2/4
f 384/1/4 379/1/4 385/1/4
f 380/1/4 381/1/4 386/1/4
f 385/2/4 380/2/4 386/2/4
f 381/2/4 382/2/4 387/2/4
f 386/1/4 381/1/4 387/1/4
f 387/2/4 382/2/4 388/2/4
f 383/3/4 384/3/4 389/3/4
f 384/1/4 385/1/4 390/1/4
f 389/3/4 384/3/4 390/3/4
f 385/3/4 386/3/4 391/3/4
f 390/1/4 385/1/4 391/1/4
f 386/1/4 387/1/4 392/1/4
f 391/3/4 386/3/4 392/3/4
f 387/3/4 388/3/4 393/3/4
f 392/1/4 387/1/4 393/1/4
f 393/3/4 388/3/4 394/3/4
f 389/2/4 390/2/4 395/2/4
f 390/1/4 391/1/4 396/1/4
f 395/2/4 390/2/4 396/2/4
f 391/2/4 392/2/4 397/2/4
f 396/1/4 391/1/4 397/1/4
f 392/1/4 393/1/4 398/1/4
f 397/2/4 392/2/4 398/2/4
f 393/2/4 394/2/4 399/2/4
f 398/1/4 393/1/4 399/1/4
f 399/2/4 394/2/4 400/2/4
f 404/1/5 402/1/5 401/1/5
f 405/1/5 402/1/5 404/1/5
f 407/1/5 404/1/5 403/1/5
f 408/1/5 404/1/5 407/1/5
f 409/1/5 406/1/5 405/1/5
f 410/1/5 406/1/5 409/1/5
f 411/1/5 409/1/5 408/1/5
f 412/1/5 409/1/5 411/1/5
f 418/2/5 414/2/5 413/2/5
f 419/3/5 415/3/5 414/3/5
f 419/2/5 414/2/5 418/2/5
f 420/2/5 416/2/5 415/2/5
f 420/3/5 415/3/5 419/3/5
f 421/2/5 416/2/5 420/2/5
f 424/3/5 418/3/5 417/3/5
f 425/3/5 418/3/5 424/3/5
f 426/3/5 422/3/5 421/3/5
f 427/3/5 422/3/5 426/3/5
f 429/2/5 424/2/5 423/2/5
f 430/2/5 424/2/5 429/2/5
f 431/2/5 428/2/5 427/2/5
f 432/2/5 428/2/5 431/2/5
f 433/3/5 430/3/5 429/3/5
f 434/3/5 430/3/5 433/3/5
f 435/3/5 432/3/5 431/3/5
f 436/3/5 432/3/5 435/3/5
f 437/2/5 434/2/5 433/2/5
f 438/2/5 434/2/5 437/2/5
f 439/3/5 426/3/5 425/3/5
f 440/3/5 426/3/5 439/3/5
f 441/2/5 436/2/5 435/2/5
f 442/2/5 436/2/5 441/2/5
f 443/3/5 439/3/5 438/3/5
f 444/3/5 439/3/5 443/3/5
f 447/3/5 441/3/5 440/3/5
f 448/3/5 441/3/5 447/3/5
f 449/2/5 445/2/5 444/2/5
f 450/3/5 446/3/5 445/3/5
f 450/2/5 445/2/5 449/2/5
f 451/2/5 447/2/5 446/2/5
f 451/3/5 446/3/5 450/3/5
f 452/2/5 447/2/5 451/2/5
f 453/2/6 454/2/6 458/2/6
f 454/3/6 455/3/6 459/3/6
f 458/2/6 454/2/6 459/2/6
f 455/2/6 456/2/6 460/2/6
f 459/3/6 455/3/6 460/3/6
f 460/2/6 456/2/6 461/2/6
f 457/3/6 458/3/6 464/3/6
f 464/3/6 458/3/6 465/3/6
f 461/3/6 462/3/6 466/3/6
f 466/3/6 462/3/6 467/3/6
f 463/2/6 464/2/6 469/2/6
f 469/2/6 464/2/6 470/2/6
f 465/3/6 466/3/6 471/3/6
f 471/3/6 466/3/6 472/3/6
f 467/2/6 468/2/6 473/2/6
f 473/2/6 468/2/6 474/2/6
f 469/3/6 470/3/6 475/3/6
f 475/3/6 470/3/6 476/3/6
f 465/3/6 471/3/6 477/3/6
f 471/4/6 472/4/6 477/4/6
f 472/3/6 466/3/6 478/3/6
f 477/4/6 472/4/6 478/4/6
f 473/3/6 474/3/6 479/3/6
f 479/3/6 474/3/6 480/3/6
f 475/2/6 476/2/6 481/2/6
f 481/2/6 476/2/6 482/2/6
f 465/3/6 477/3/6 483/3/6
f 477/3/6 478/3/6 483/3/6
f 478/3/6 466/3/6 484/3/6
f 483/3/6 478/3/6 484/3/6
f 479/2/6 480/2/6 485/2/6
f 485/2/6 480/2/6 486/2/6
f 482/3/6 483/3/6 487/3/6
f 487/3/6 483/3/6 488/3/6
f 484/3/6 485/3/6 491/3/6
f 491/3/6 485/3/6 492/3/6
f 488/2/6 489/2/6 493/2/6
f 489/3/6 490/3/6 494/3/6
f 493/2/6 489/2/6 494/2/6
f 490/2/6 491/2/6 495/2/6
f 494/3/6 490/3/6 495/3/6
f 495/2/6 491/2/6 496/2/6
f 497/1/6 498/1/6 500/1/6
f 500/1/6 498/1/6 501/1/6
f 499/1/6 500/1/6 503/1/6
f 503/1/6 500/1/6 504/1/6
f 501/1/6 502/1/6 505/1/6
f 505/1/6 502/1/6 506/1/6
f 504/1/6 505/1/6 507/1/6
f 507/1/6 505/1/6 508/1/6
