# MagicaVoxel @ Ephtracy

# group
o 

# material
mtllib piedra1.mtl
usemtl palette

# normals
vn -1 0 0
vn 1 0 0
vn 0 0 1
vn 0 0 -1
vn 0 -1 0
vn 0 1 0

# texcoords
vt 0.0253906 0.5
vt 0.0292969 0.5
vt 0.0332031 0.5

# verts
v -0.5 0 0.2
v -0.5 0 -0.4
v -0.5 0.1 0.2
v -0.5 0.1 -0.4
v -0.4 0 0.3
v -0.4 0 0.2
v -0.4 0 -0.4
v -0.4 0 -0.6
v -0.4 0.1 0.3
v -0.4 0.1 0.2
v -0.4 0.1 0.1
v -0.4 0.1 -0.2
v -0.4 0.1 -0.3
v -0.4 0.1 -0.4
v -0.4 0.1 -0.5
v -0.4 0.1 -0.6
v -0.4 0.2 0.2
v -0.4 0.2 0.1
v -0.4 0.2 -0.2
v -0.4 0.2 -0.3
v -0.4 0.2 -0.5
v -0.3 0 0.4
v -0.3 0 0.3
v -0.3 0 -0.6
v -0.3 0 -0.7
v -0.3 0.1 0.4
v -0.3 0.1 0.3
v -0.3 0.1 0.2
v -0.3 0.1 -0.5
v -0.3 0.1 -0.6
v -0.3 0.1 -0.7
v -0.3 0.2 0.3
v -0.3 0.2 0.2
v -0.3 0.2 0.1
v -0.3 0.2 -0.2
v -0.3 0.2 -0.3
v -0.3 0.2 -0.5
v -0.3 0.2 -0.6
v -0.3 0.3 0.1
v -0.3 0.3 -0.1
v -0.3 0.3 -0.4
v -0.3 0.3 -0.5
v -0.3 0.4 -0.1
v -0.3 0.4 -0.2
v -0.3 0.4 -0.3
v -0.3 0.4 -0.4
v -0.3 0.4 -0.5
v -0.3 0.5 -0.1
v -0.3 0.5 -0.2
v -0.3 0.5 -0.3
v -0.2 0.1 -0.6
v -0.2 0.1 -0.7
v -0.2 0.2 0.2
v -0.2 0.2 0.1
v -0.2 0.2 -0.5
v -0.2 0.2 -0.6
v -0.2 0.2 -0.7
v -0.2 0.3 0.2
v -0.2 0.3 0.1
v -0.2 0.3 -0.1
v -0.2 0.3 -0.5
v -0.2 0.3 -0.6
v -0.2 0.4 0.1
v -0.2 0.4 0
v -0.2 0.4 -0.1
v -0.2 0.4 -0.3
v -0.2 0.4 -0.4
v -0.2 0.5 0
v -0.2 0.5 -0.1
v -0.2 0.5 -0.2
v -0.2 0.5 -0.3
v -0.2 0.5 -0.4
v -0.2 0.6 0
v -0.2 0.6 -0.1
v -0.2 0.6 -0.2
v -0.2 0.6 -0.3
v -0.2 0.6 -0.4
v -0.2 0.7 -0.1
v -0.2 0.7 -0.2
v -0.2 0.7 -0.3
v -0.2 0.8 0
v -0.2 0.8 -0.1
v -0.2 0.8 -0.2
v -0.1 0.3 -0.5
v -0.1 0.3 -0.6
v -0.1 0.4 -0.5
v -0.1 0.4 -0.6
v 0.2 0.3 -0.4
v 0.2 0.3 -0.5
v 0.2 0.4 -0.4
v 0.2 0.4 -0.5
v 0 0.2 0.2
v 0 0.2 0.1
v 0 0.3 0.2
v 0 0.3 0.1
v 0 0.3 -0.1
v 0 0.4 0.1
v 0 0.4 0
v 0 0.5 0
v 0 0.5 -0.1
v 0 0.6 0
v 0 0.6 -0.1
v 0 0.7 0
v 0 0.7 -0.1
v 0 0.7 -0.2
v 0 0.8 0
v 0 0.8 -0.1
v 0 0.8 -0.2
v 0.1 0 0.4
v 0.1 0 0.3
v 0.1 0 -0.6
v 0.1 0 -0.7
v 0.1 0.1 0.4
v 0.1 0.1 0.3
v 0.1 0.1 0.2
v 0.1 0.1 -0.6
v 0.1 0.1 -0.7
v 0.1 0.2 0.3
v 0.1 0.2 0.2
v 0.1 0.2 0.1
v 0.1 0.2 0
v 0.1 0.2 -0.1
v 0.1 0.2 -0.5
v 0.1 0.2 -0.6
v 0.1 0.2 -0.7
v 0.1 0.3 0.1
v 0.1 0.3 -0.1
v 0.1 0.3 -0.4
v 0.1 0.3 -0.5
v 0.1 0.4 -0.4
v 0.1 0.4 -0.6
v 0.1 0.5 -0.3
v 0.1 0.5 -0.4
v 0.1 0.6 -0.1
v 0.1 0.6 -0.3
v 0.1 0.6 -0.4
v 0.1 0.7 -0.1
v 0.1 0.7 -0.3
v 0.3 0 0.3
v 0.3 0 0.2
v 0.3 0.1 0.3
v 0.3 0.1 0.2
v 0.3 0.1 0.1
v 0.3 0.1 0
v 0.3 0.1 -0.1
v 0.3 0.2 0.2
v 0.3 0.2 0.1
v 0.3 0.2 -0.1
v 0.3 0.4 -0.1
v 0.3 0.4 -0.2
v 0.3 0.5 -0.2
v 0.3 0.5 -0.3
v 0.3 0.6 -0.1
v 0.3 0.6 -0.3
v 0.4 0 0.2
v 0.4 0 0
v 0.4 0 -0.5
v 0.4 0 -0.6
v 0.4 0.1 0.2
v 0.4 0.1 0
v 0.4 0.1 -0.5
v 0.4 0.1 -0.6
v 0.4 0.2 -0.5
v 0.4 0.2 -0.6
v 0.4 0.3 -0.1
v 0.4 0.3 -0.2
v 0.4 0.3 -0.4
v 0.4 0.3 -0.5
v 0.4 0.4 -0.1
v 0.4 0.4 -0.2
v 0.4 0.4 -0.3
v 0.4 0.4 -0.4
v 0.4 0.4 -0.5
v 0.4 0.5 -0.2
v 0.4 0.5 -0.3
v 0.4 0.5 -0.4
v 0.5 0 0
v 0.5 0 -0.1
v 0.5 0 -0.4
v 0.5 0 -0.5
v 0.5 0.1 0
v 0.5 0.1 -0.1
v 0.5 0.1 -0.2
v 0.5 0.1 -0.4
v 0.5 0.1 -0.5
v 0.5 0.3 -0.1
v 0.5 0.3 -0.2
v 0.5 0.3 -0.4
v 0.5 0.3 -0.5
v 0.5 0.4 -0.2
v 0.5 0.4 -0.4
v 0.6 0 -0.1
v 0.6 0 -0.4
v 0.6 0.1 -0.1
v 0.6 0.1 -0.2
v 0.6 0.1 -0.4
v 0.6 0.3 -0.2
v 0.6 0.3 -0.4
v -0.3 0 0.4
v -0.3 0.1 0.4
v 0.1 0 0.4
v 0.1 0.1 0.4
v -0.4 0 0.3
v -0.4 0.1 0.3
v -0.3 0 0.3
v -0.3 0.1 0.3
v -0.3 0.2 0.3
v -0.2 0.1 0.3
v -0.2 0.2 0.3
v 0 0.1 0.3
v 0 0.2 0.3
v 0.1 0 0.3
v 0.1 0.1 0.3
v 0.1 0.2 0.3
v 0.3 0 0.3
v 0.3 0.1 0.3
v -0.5 0 0.2
v -0.5 0.1 0.2
v -0.4 0 0.2
v -0.4 0.1 0.2
v -0.4 0.2 0.2
v -0.3 0.1 0.2
v -0.3 0.2 0.2
v -0.2 0.2 0.2
v -0.2 0.3 0.2
v -0.1 0.2 0.2
v -0.1 0.3 0.2
v 0 0.2 0.2
v 0 0.3 0.2
v 0.1 0.1 0.2
v 0.1 0.2 0.2
v 0.2 0.1 0.2
v 0.2 0.2 0.2
v 0.3 0 0.2
v 0.3 0.1 0.2
v 0.3 0.2 0.2
v 0.4 0 0.2
v 0.4 0.1 0.2
v -0.3 0.2 0.1
v -0.3 0.3 0.1
v -0.2 0.2 0.1
v -0.2 0.3 0.1
v -0.2 0.4 0.1
v -0.1 0.3 0.1
v 0 0.2 0.1
v 0 0.3 0.1
v 0 0.4 0.1
v 0.1 0.2 0.1
v 0.1 0.3 0.1
v -0.2 0.4 0
v -0.2 0.5 0
v -0.2 0.6 0
v -0.2 0.8 0
v -0.1 0.7 0
v -0.1 0.8 0
v 0 0.4 0
v 0 0.5 0
v 0 0.6 0
v 0 0.7 0
v 0 0.8 0
v 0.4 0 0
v 0.4 0.1 0
v 0.5 0 0
v 0.5 0.1 0
v -0.3 0.3 -0.1
v -0.3 0.4 -0.1
v -0.3 0.5 -0.1
v -0.2 0.3 -0.1
v -0.2 0.4 -0.1
v -0.2 0.5 -0.1
v -0.2 0.6 -0.1
v 0 0.3 -0.1
v 0 0.5 -0.1
v 0 0.6 -0.1
v 0 0.7 -0.1
v 0.1 0.2 -0.1
v 0.1 0.3 -0.1
v 0.1 0.5 -0.1
v 0.1 0.6 -0.1
v 0.1 0.7 -0.1
v 0.2 0.3 -0.1
v 0.2 0.5 -0.1
v 0.3 0.1 -0.1
v 0.3 0.2 -0.1
v 0.3 0.4 -0.1
v 0.3 0.6 -0.1
v 0.4 0.1 -0.1
v 0.4 0.3 -0.1
v 0.4 0.4 -0.1
v 0.5 0 -0.1
v 0.5 0.1 -0.1
v 0.5 0.3 -0.1
v 0.6 0 -0.1
v 0.6 0.1 -0.1
v 0.3 0.4 -0.2
v 0.3 0.5 -0.2
v 0.4 0.3 -0.2
v 0.4 0.4 -0.2
v 0.4 0.5 -0.2
v 0.5 0.1 -0.2
v 0.5 0.3 -0.2
v 0.5 0.4 -0.2
v 0.6 0.1 -0.2
v 0.6 0.3 -0.2
v -0.2 0.7 -0.2
v -0.2 0.8 -0.2
v -0.1 0.7 -0.2
v -0.1 0.8 -0.2
v 0 0.7 -0.2
v 0 0.8 -0.2
v -0.3 0.4 -0.3
v -0.3 0.5 -0.3
v -0.2 0.4 -0.3
v -0.2 0.5 -0.3
v -0.2 0.6 -0.3
v -0.2 0.7 -0.3
v -0.1 0.6 -0.3
v 0 0.6 -0.3
v 0.1 0.5 -0.3
v 0.1 0.6 -0.3
v 0.1 0.7 -0.3
v 0.2 0.5 -0.3
v 0.3 0.5 -0.3
v 0.3 0.6 -0.3
v -0.5 0 -0.4
v -0.5 0.1 -0.4
v -0.4 0 -0.4
v -0.4 0.1 -0.4
v -0.2 0.4 -0.4
v -0.2 0.5 -0.4
v -0.2 0.6 -0.4
v -0.1 0.4 -0.4
v -0.1 0.5 -0.4
v -0.1 0.6 -0.4
v 0 0.4 -0.4
v 0 0.5 -0.4
v 0 0.6 -0.4
v 0.1 0.3 -0.4
v 0.1 0.4 -0.4
v 0.1 0.5 -0.4
v 0.1 0.6 -0.4
v 0.2 0.3 -0.4
v 0.2 0.4 -0.4
v 0.2 0.5 -0.4
v 0.3 0.4 -0.4
v 0.3 0.5 -0.4
v 0.4 0.3 -0.4
v 0.4 0.4 -0.4
v 0.4 0.5 -0.4
v 0.5 0 -0.4
v 0.5 0.1 -0.4
v 0.5 0.3 -0.4
v 0.5 0.4 -0.4
v 0.6 0 -0.4
v 0.6 0.1 -0.4
v 0.6 0.3 -0.4
v -0.4 0.1 -0.5
v -0.4 0.2 -0.5
v -0.3 0.1 -0.5
v -0.3 0.2 -0.5
v -0.3 0.3 -0.5
v -0.3 0.4 -0.5
v -0.2 0.2 -0.5
v -0.2 0.3 -0.5
v -0.2 0.4 -0.5
v -0.1 0.3 -0.5
v -0.1 0.4 -0.5
v 0.1 0.2 -0.5
v 0.1 0.3 -0.5
v 0.2 0.2 -0.5
v 0.2 0.3 -0.5
v 0.2 0.4 -0.5
v 0.4 0 -0.5
v 0.4 0.1 -0.5
v 0.4 0.2 -0.5
v 0.4 0.3 -0.5
v 0.4 0.4 -0.5
v 0.5 0 -0.5
v 0.5 0.1 -0.5
v 0.5 0.3 -0.5
v -0.4 0 -0.6
v -0.4 0.1 -0.6
v -0.3 0 -0.6
v -0.3 0.1 -0.6
v -0.3 0.2 -0.6
v -0.2 0.1 -0.6
v -0.2 0.2 -0.6
v -0.2 0.3 -0.6
v -0.1 0.3 -0.6
v -0.1 0.4 -0.6
v 0 0.2 -0.6
v 0.1 0 -0.6
v 0.1 0.1 -0.6
v 0.1 0.2 -0.6
v 0.1 0.4 -0.6
v 0.2 0.1 -0.6
v 0.2 0.2 -0.6
v 0.4 0 -0.6
v 0.4 0.1 -0.6
v 0.4 0.2 -0.6
v -0.3 0 -0.7
v -0.3 0.1 -0.7
v -0.2 0.1 -0.7
v -0.2 0.2 -0.7
v 0 0.1 -0.7
v 0 0.2 -0.7
v 0.1 0 -0.7
v 0.1 0.1 -0.7
v 0.1 0.2 -0.7
v -0.3 0 0.4
v 0.1 0 0.4
v -0.4 0 0.3
v -0.3 0 0.3
v 0 0 0.3
v 0.1 0 0.3
v 0.3 0 0.3
v -0.5 0 0.2
v -0.4 0 0.2
v -0.3 0 0.2
v 0 0 0.2
v 0.2 0 0.2
v 0.3 0 0.2
v 0.4 0 0.2
v 0.2 0 0.1
v 0.3 0 0.1
v 0.3 0 0
v 0.4 0 0
v 0.5 0 0
v 0.4 0 -0.1
v 0.5 0 -0.1
v 0.6 0 -0.1
v -0.5 0 -0.4
v -0.4 0 -0.4
v -0.3 0 -0.4
v 0.4 0 -0.4
v 0.5 0 -0.4
v 0.6 0 -0.4
v 0.1 0 -0.5
v 0.4 0 -0.5
v 0.5 0 -0.5
v -0.4 0 -0.6
v -0.3 0 -0.6
v 0.1 0 -0.6
v 0.4 0 -0.6
v -0.3 0 -0.7
v 0.1 0 -0.7
v -0.2 0.6 0
v 0 0.6 0
v -0.2 0.6 -0.1
v 0 0.6 -0.1
v -0.3 0.1 0.4
v 0.1 0.1 0.4
v -0.4 0.1 0.3
v -0.3 0.1 0.3
v -0.2 0.1 0.3
v 0 0.1 0.3
v 0.1 0.1 0.3
v 0.3 0.1 0.3
v -0.5 0.1 0.2
v -0.4 0.1 0.2
v -0.3 0.1 0.2
v 0.1 0.1 0.2
v 0.2 0.1 0.2
v 0.3 0.1 0.2
v 0.4 0.1 0.2
v -0.4 0.1 0.1
v 0.3 0.1 0.1
v 0.3 0.1 0
v 0.4 0.1 0
v 0.5 0.1 0
v 0.3 0.1 -0.1
v 0.4 0.1 -0.1
v 0.5 0.1 -0.1
v 0.6 0.1 -0.1
v -0.4 0.1 -0.2
v 0.5 0.1 -0.2
v 0.6 0.1 -0.2
v -0.4 0.1 -0.3
v -0.5 0.1 -0.4
v -0.4 0.1 -0.4
v -0.4 0.1 -0.5
v -0.3 0.1 -0.5
v -0.4 0.1 -0.6
v -0.3 0.1 -0.6
v -0.2 0.1 -0.6
v -0.3 0.1 -0.7
v -0.2 0.1 -0.7
v -0.3 0.2 0.3
v -0.2 0.2 0.3
v 0 0.2 0.3
v 0.1 0.2 0.3
v -0.4 0.2 0.2
v -0.3 0.2 0.2
v -0.2 0.2 0.2
v -0.1 0.2 0.2
v 0 0.2 0.2
v 0.1 0.2 0.2
v 0.2 0.2 0.2
v 0.3 0.2 0.2
v -0.4 0.2 0.1
v -0.3 0.2 0.1
v -0.2 0.2 0.1
v 0 0.2 0.1
v 0.1 0.2 0.1
v 0.2 0.2 0.1
v 0.3 0.2 0.1
v 0.1 0.2 0
v 0.2 0.2 0
v 0.1 0.2 -0.1
v 0.3 0.2 -0.1
v -0.4 0.2 -0.2
v -0.3 0.2 -0.2
v -0.4 0.2 -0.3
v -0.3 0.2 -0.3
v -0.4 0.2 -0.5
v -0.3 0.2 -0.5
v -0.2 0.2 -0.5
v 0.1 0.2 -0.5
v 0.2 0.2 -0.5
v 0.4 0.2 -0.5
v -0.3 0.2 -0.6
v -0.2 0.2 -0.6
v 0 0.2 -0.6
v 0.1 0.2 -0.6
v 0.2 0.2 -0.6
v 0.4 0.2 -0.6
v -0.2 0.2 -0.7
v 0 0.2 -0.7
v 0.1 0.2 -0.7
v -0.2 0.3 0.2
v -0.1 0.3 0.2
v 0 0.3 0.2
v -0.3 0.3 0.1
v -0.2 0.3 0.1
v -0.1 0.3 0.1
v 0 0.3 0.1
v 0.1 0.3 0.1
v -0.3 0.3 -0.1
v -0.2 0.3 -0.1
v 0 0.3 -0.1
v 0.1 0.3 -0.1
v 0.4 0.3 -0.1
v 0.5 0.3 -0.1
v 0.4 0.3 -0.2
v 0.5 0.3 -0.2
v 0.6 0.3 -0.2
v 0.1 0.3 -0.4
v 0.2 0.3 -0.4
v 0.4 0.3 -0.4
v 0.5 0.3 -0.4
v 0.6 0.3 -0.4
v -0.2 0.3 -0.5
v -0.1 0.3 -0.5
v 0.1 0.3 -0.5
v 0.2 0.3 -0.5
v 0.4 0.3 -0.5
v 0.5 0.3 -0.5
v -0.2 0.3 -0.6
v -0.1 0.3 -0.6
v -0.2 0.4 0.1
v 0 0.4 0.1
v -0.2 0.4 0
v 0 0.4 0
v 0.3 0.4 -0.1
v 0.4 0.4 -0.1
v 0.3 0.4 -0.2
v 0.4 0.4 -0.2
v 0.5 0.4 -0.2
v -0.3 0.4 -0.3
v -0.2 0.4 -0.3
v 0.4 0.4 -0.3
v -0.3 0.4 -0.4
v -0.2 0.4 -0.4
v -0.1 0.4 -0.4
v 0 0.4 -0.4
v 0.1 0.4 -0.4
v 0.2 0.4 -0.4
v 0.3 0.4 -0.4
v 0.4 0.4 -0.4
v 0.5 0.4 -0.4
v -0.3 0.4 -0.5
v -0.2 0.4 -0.5
v -0.1 0.4 -0.5
v 0 0.4 -0.5
v 0.2 0.4 -0.5
v 0.4 0.4 -0.5
v -0.1 0.4 -0.6
v 0.1 0.4 -0.6
v -0.2 0.5 0
v 0 0.5 0
v -0.3 0.5 -0.1
v -0.2 0.5 -0.1
v 0 0.5 -0.1
v -0.3 0.5 -0.2
v -0.2 0.5 -0.2
v 0.3 0.5 -0.2
v 0.4 0.5 -0.2
v -0.3 0.5 -0.3
v -0.2 0.5 -0.3
v 0.1 0.5 -0.3
v 0.2 0.5 -0.3
v 0.3 0.5 -0.3
v 0.4 0.5 -0.3
v 0.1 0.5 -0.4
v 0.2 0.5 -0.4
v 0.3 0.5 -0.4
v 0.4 0.5 -0.4
v 0.1 0.6 -0.1
v 0.3 0.6 -0.1
v -0.2 0.6 -0.3
v -0.1 0.6 -0.3
v 0 0.6 -0.3
v 0.1 0.6 -0.3
v 0.3 0.6 -0.3
v -0.2 0.6 -0.4
v -0.1 0.6 -0.4
v 0 0.6 -0.4
v 0.1 0.6 -0.4
v 0 0.7 -0.1
v 0.1 0.7 -0.1
v -0.2 0.7 -0.2
v -0.1 0.7 -0.2
v 0 0.7 -0.2
v -0.2 0.7 -0.3
v 0.1 0.7 -0.3
v -0.2 0.8 0
v -0.1 0.8 0
v 0 0.8 0
v -0.2 0.8 -0.1
v -0.1 0.8 -0.1
v 0 0.8 -0.1
v -0.2 0.8 -0.2
v -0.1 0.8 -0.2
v 0 0.8 -0.2

# faces
f 3/1/1 2/1/1 1/1/1
f 4/1/1 2/1/1 3/1/1
f 9/1/1 6/1/1 5/1/1
f 10/1/1 6/1/1 9/1/1
f 14/1/1 8/1/1 7/1/1
f 15/1/1 8/1/1 14/1/1
f 16/1/1 8/1/1 15/1/1
f 17/3/1 11/3/1 10/3/1
f 18/2/1 12/2/1 11/2/1
f 18/3/1 11/3/1 17/3/1
f 19/3/1 13/3/1 12/3/1
f 19/2/1 12/2/1 18/2/1
f 20/2/1 15/2/1 14/2/1
f 20/3/1 13/3/1 19/3/1
f 20/2/1 14/2/1 13/2/1
f 21/2/1 15/2/1 20/2/1
f 26/1/1 23/1/1 22/1/1
f 27/1/1 23/1/1 26/1/1
f 30/1/1 25/1/1 24/1/1
f 31/1/1 25/1/1 30/1/1
f 32/3/1 28/3/1 27/3/1
f 33/3/1 28/3/1 32/3/1
f 37/2/1 30/2/1 29/2/1
f 38/2/1 30/2/1 37/2/1
f 39/2/1 36/2/1 35/2/1
f 39/2/1 37/2/1 36/2/1
f 39/2/1 35/2/1 34/2/1
f 40/2/1 37/2/1 39/2/1
f 41/2/1 37/2/1 40/2/1
f 42/2/1 37/2/1 41/2/1
f 43/2/1 41/2/1 40/2/1
f 44/2/1 41/2/1 43/2/1
f 45/2/1 41/2/1 44/2/1
f 46/3/1 42/3/1 41/3/1
f 46/2/1 41/2/1 45/2/1
f 47/3/1 42/3/1 46/3/1
f 48/3/1 44/3/1 43/3/1
f 49/2/1 45/2/1 44/2/1
f 49/3/1 44/3/1 48/3/1
f 50/2/1 45/2/1 49/2/1
f 56/2/1 52/2/1 51/2/1
f 57/2/1 52/2/1 56/2/1
f 58/2/1 54/2/1 53/2/1
f 59/2/1 54/2/1 58/2/1
f 61/2/1 56/2/1 55/2/1
f 62/2/1 56/2/1 61/2/1
f 63/2/1 60/2/1 59/2/1
f 64/2/1 60/2/1 63/2/1
f 65/2/1 60/2/1 64/2/1
f 68/2/1 65/2/1 64/2/1
f 69/2/1 65/2/1 68/2/1
f 71/2/1 67/2/1 66/2/1
f 72/2/1 67/2/1 71/2/1
f 74/1/1 70/1/1 69/1/1
f 75/2/1 71/2/1 70/2/1
f 75/1/1 70/1/1 74/1/1
f 76/3/1 72/3/1 71/3/1
f 76/2/1 71/2/1 75/2/1
f 77/3/1 72/3/1 76/3/1
f 78/2/1 75/2/1 74/2/1
f 78/2/1 74/2/1 73/2/1
f 78/2/1 76/2/1 75/2/1
f 79/2/1 76/2/1 78/2/1
f 80/2/1 76/2/1 79/2/1
f 81/2/1 78/2/1 73/2/1
f 82/3/1 79/3/1 78/3/1
f 82/2/1 78/2/1 81/2/1
f 83/3/1 79/3/1 82/3/1
f 86/2/1 85/2/1 84/2/1
f 87/2/1 85/2/1 86/2/1
f 90/2/1 89/2/1 88/2/1
f 91/2/1 89/2/1 90/2/1
f 92/3/2 93/3/2 94/3/2
f 94/3/2 93/3/2 95/3/2
f 95/2/2 96/2/2 97/2/2
f 97/2/2 96/2/2 98/2/2
f 98/2/2 96/2/2 99/2/2
f 99/2/2 96/2/2 100/2/2
f 101/2/2 102/2/2 103/2/2
f 103/2/2 102/2/2 104/2/2
f 103/3/2 104/3/2 106/3/2
f 104/2/2 105/2/2 107/2/2
f 106/3/2 104/3/2 107/3/2
f 107/2/2 105/2/2 108/2/2
f 109/1/2 110/1/2 113/1/2
f 113/1/2 110/1/2 114/1/2
f 111/1/2 112/1/2 116/1/2
f 116/1/2 112/1/2 117/1/2
f 114/3/2 115/3/2 118/3/2
f 118/3/2 115/3/2 119/3/2
f 116/3/2 117/3/2 124/3/2
f 124/3/2 117/3/2 125/3/2
f 121/2/2 122/2/2 126/2/2
f 120/2/2 121/2/2 126/2/2
f 126/2/2 122/2/2 127/2/2
f 123/2/2 124/2/2 129/2/2
f 128/2/2 129/2/2 130/2/2
f 129/2/2 124/2/2 131/2/2
f 130/2/2 129/2/2 131/2/2
f 132/3/2 133/3/2 135/3/2
f 135/3/2 133/3/2 136/3/2
f 134/2/2 135/2/2 137/2/2
f 137/2/2 135/2/2 138/2/2
f 139/1/2 140/1/2 141/1/2
f 141/1/2 140/1/2 142/1/2
f 142/3/2 143/3/2 146/3/2
f 144/2/2 145/2/2 147/2/2
f 146/3/2 143/3/2 147/3/2
f 143/2/2 144/2/2 147/2/2
f 147/2/2 145/2/2 148/2/2
f 149/2/2 150/2/2 151/2/2
f 149/2/2 151/2/2 153/2/2
f 151/2/2 152/2/2 153/2/2
f 153/2/2 152/2/2 154/2/2
f 155/1/2 156/1/2 159/1/2
f 159/1/2 156/1/2 160/1/2
f 157/1/2 158/1/2 161/1/2
f 161/1/2 158/1/2 162/1/2
f 161/2/2 162/2/2 163/2/2
f 163/2/2 162/2/2 164/2/2
f 165/2/2 166/2/2 169/2/2
f 169/2/2 166/2/2 170/2/2
f 167/2/2 168/2/2 172/2/2
f 172/2/2 168/2/2 173/2/2
f 170/3/2 171/3/2 174/3/2
f 171/2/2 172/2/2 175/2/2
f 174/3/2 171/3/2 175/3/2
f 175/2/2 172/2/2 176/2/2
f 177/1/2 178/1/2 181/1/2
f 181/1/2 178/1/2 182/1/2
f 179/1/2 180/1/2 184/1/2
f 184/1/2 180/1/2 185/1/2
f 182/2/2 183/2/2 186/2/2
f 186/2/2 183/2/2 187/2/2
f 184/2/2 185/2/2 188/2/2
f 188/2/2 185/2/2 189/2/2
f 187/2/2 188/2/2 190/2/2
f 190/2/2 188/2/2 191/2/2
f 192/1/2 193/1/2 194/1/2
f 194/1/2 193/1/2 195/1/2
f 195/1/2 193/1/2 196/1/2
f 195/2/2 196/2/2 197/2/2
f 197/2/2 196/2/2 198/2/2
f 201/1/3 200/1/3 199/1/3
f 202/1/3 200/1/3 201/1/3
f 205/1/3 204/1/3 203/1/3
f 206/1/3 204/1/3 205/1/3
f 208/3/3 207/3/3 206/3/3
f 209/3/3 207/3/3 208/3/3
f 210/2/3 209/2/3 208/2/3
f 211/2/3 209/2/3 210/2/3
f 213/3/3 211/3/3 210/3/3
f 214/3/3 211/3/3 213/3/3
f 215/1/3 213/1/3 212/1/3
f 216/1/3 213/1/3 215/1/3
f 219/1/3 218/1/3 217/1/3
f 220/1/3 218/1/3 219/1/3
f 222/3/3 221/3/3 220/3/3
f 223/3/3 221/3/3 222/3/3
f 226/2/3 225/2/3 224/2/3
f 227/2/3 225/2/3 226/2/3
f 228/3/3 227/3/3 226/3/3
f 229/3/3 227/3/3 228/3/3
f 232/2/3 231/2/3 230/2/3
f 233/2/3 231/2/3 232/2/3
f 235/3/3 233/3/3 232/3/3
f 236/3/3 233/3/3 235/3/3
f 237/1/3 235/1/3 234/1/3
f 238/1/3 235/1/3 237/1/3
f 241/2/3 240/2/3 239/2/3
f 242/2/3 240/2/3 241/2/3
f 244/2/3 243/2/3 242/2/3
f 246/2/3 243/2/3 244/2/3
f 247/2/3 243/2/3 246/2/3
f 248/2/3 246/2/3 245/2/3
f 249/2/3 246/2/3 248/2/3
f 254/2/3 253/2/3 252/2/3
f 255/2/3 253/2/3 254/2/3
f 256/2/3 251/2/3 250/2/3
f 257/2/3 251/2/3 256/2/3
f 258/2/3 254/2/3 252/2/3
f 259/3/3 255/3/3 254/3/3
f 259/2/3 254/2/3 258/2/3
f 260/3/3 255/3/3 259/3/3
f 263/1/3 262/1/3 261/1/3
f 264/1/3 262/1/3 263/1/3
f 268/2/3 266/2/3 265/2/3
f 269/3/3 267/3/3 266/3/3
f 269/2/3 266/2/3 268/2/3
f 270/3/3 267/3/3 269/3/3
f 273/1/3 271/1/3 270/1/3
f 274/1/3 271/1/3 273/1/3
f 277/1/3 273/1/3 272/1/3
f 277/1/3 274/1/3 273/1/3
f 278/1/3 274/1/3 277/1/3
f 279/2/3 275/2/3 274/2/3
f 279/1/3 274/1/3 278/1/3
f 280/2/3 275/2/3 279/2/3
f 281/1/3 278/1/3 277/1/3
f 281/2/3 277/2/3 276/2/3
f 282/2/3 279/2/3 278/2/3
f 282/1/3 278/1/3 281/1/3
f 284/2/3 281/2/3 276/2/3
f 284/2/3 282/2/3 281/2/3
f 285/2/3 282/2/3 284/2/3
f 286/2/3 279/2/3 282/2/3
f 286/2/3 282/2/3 285/2/3
f 287/2/3 285/2/3 284/2/3
f 287/2/3 284/2/3 283/2/3
f 288/2/3 285/2/3 287/2/3
f 289/2/3 285/2/3 288/2/3
f 291/2/3 288/2/3 287/2/3
f 292/2/3 288/2/3 291/2/3
f 293/1/3 291/1/3 290/1/3
f 294/1/3 291/1/3 293/1/3
f 298/3/3 296/3/3 295/3/3
f 299/3/3 296/3/3 298/3/3
f 301/2/3 298/2/3 297/2/3
f 302/2/3 298/2/3 301/2/3
f 303/2/3 301/2/3 300/2/3
f 304/2/3 301/2/3 303/2/3
f 305/3/4 306/3/4 307/3/4
f 307/3/4 306/3/4 308/3/4
f 307/2/4 308/2/4 309/2/4
f 309/2/4 308/2/4 310/2/4
f 311/2/4 312/2/4 313/2/4
f 313/2/4 312/2/4 314/2/4
f 315/2/4 316/2/4 317/2/4
f 317/2/4 316/2/4 318/2/4
f 318/2/4 316/2/4 320/2/4
f 320/2/4 316/2/4 321/2/4
f 319/2/4 320/2/4 322/2/4
f 322/2/4 320/2/4 323/2/4
f 323/2/4 320/2/4 324/2/4
f 325/1/4 326/1/4 327/1/4
f 327/1/4 326/1/4 328/1/4
f 329/2/4 330/2/4 332/2/4
f 330/3/4 331/3/4 333/3/4
f 332/2/4 330/2/4 333/2/4
f 333/3/4 331/3/4 334/3/4
f 332/2/4 333/2/4 335/2/4
f 333/2/4 334/2/4 335/2/4
f 335/2/4 334/2/4 336/2/4
f 336/2/4 334/2/4 337/2/4
f 335/2/4 336/2/4 339/2/4
f 336/3/4 337/3/4 340/3/4
f 339/2/4 336/2/4 340/2/4
f 340/3/4 337/3/4 341/3/4
f 338/2/4 339/2/4 342/2/4
f 339/2/4 340/2/4 342/2/4
f 342/2/4 340/2/4 343/2/4
f 343/2/4 340/2/4 344/2/4
f 343/3/4 344/3/4 345/3/4
f 345/3/4 344/3/4 346/3/4
f 345/2/4 346/2/4 348/2/4
f 348/2/4 346/2/4 349/2/4
f 347/2/4 348/2/4 352/2/4
f 352/2/4 348/2/4 353/2/4
f 350/1/4 351/1/4 354/1/4
f 351/2/4 352/2/4 355/2/4
f 354/1/4 351/1/4 355/1/4
f 355/2/4 352/2/4 356/2/4
f 357/2/4 358/2/4 359/2/4
f 359/2/4 358/2/4 360/2/4
f 360/2/4 361/2/4 363/2/4
f 361/3/4 362/3/4 364/3/4
f 363/2/4 361/2/4 364/2/4
f 364/3/4 362/3/4 365/3/4
f 364/2/4 365/2/4 366/2/4
f 366/2/4 365/2/4 367/2/4
f 368/2/4 369/2/4 370/2/4
f 370/2/4 369/2/4 371/2/4
f 370/2/4 371/2/4 375/2/4
f 371/2/4 372/2/4 375/2/4
f 375/2/4 372/2/4 376/2/4
f 376/2/4 372/2/4 377/2/4
f 373/1/4 374/1/4 378/1/4
f 374/2/4 375/2/4 379/2/4
f 378/1/4 374/1/4 379/1/4
f 375/2/4 376/2/4 379/2/4
f 379/2/4 376/2/4 380/2/4
f 381/1/4 382/1/4 383/1/4
f 383/1/4 382/1/4 384/1/4
f 384/2/4 385/2/4 386/2/4
f 386/2/4 385/2/4 387/2/4
f 387/2/4 388/2/4 389/2/4
f 387/2/4 389/2/4 391/2/4
f 389/2/4 390/2/4 391/2/4
f 391/2/4 390/2/4 394/2/4
f 394/2/4 390/2/4 395/2/4
f 392/1/4 393/1/4 396/1/4
f 393/3/4 394/3/4 396/3/4
f 396/3/4 394/3/4 397/3/4
f 392/1/4 396/1/4 398/1/4
f 396/2/4 397/2/4 399/2/4
f 398/1/4 396/1/4 399/1/4
f 399/2/4 397/2/4 400/2/4
f 401/1/4 402/1/4 403/1/4
f 401/1/4 403/1/4 405/1/4
f 403/2/4 404/2/4 405/2/4
f 405/2/4 404/2/4 406/2/4
f 401/1/4 405/1/4 407/1/4
f 405/3/4 406/3/4 408/3/4
f 407/1/4 405/1/4 408/1/4
f 408/3/4 406/3/4 409/3/4
f 413/1/5 411/1/5 410/1/5
f 414/1/5 411/1/5 413/1/5
f 415/1/5 411/1/5 414/1/5
f 418/1/5 413/1/5 412/1/5
f 419/2/5 414/2/5 413/2/5
f 419/1/5 413/1/5 418/1/5
f 420/1/5 416/1/5 415/1/5
f 420/2/5 414/2/5 419/2/5
f 420/1/5 415/1/5 414/1/5
f 421/1/5 416/1/5 420/1/5
f 422/1/5 416/1/5 421/1/5
f 424/2/5 419/2/5 418/2/5
f 424/1/5 423/1/5 422/1/5
f 424/1/5 422/1/5 421/1/5
f 424/2/5 421/2/5 420/2/5
f 424/2/5 420/2/5 419/2/5
f 425/1/5 423/1/5 424/1/5
f 426/2/5 425/2/5 424/2/5
f 426/1/5 423/1/5 425/1/5
f 427/1/5 423/1/5 426/1/5
f 429/2/5 427/2/5 426/2/5
f 429/1/5 428/1/5 427/1/5
f 430/1/5 428/1/5 429/1/5
f 432/1/5 418/1/5 417/1/5
f 433/2/5 424/2/5 418/2/5
f 433/1/5 418/1/5 432/1/5
f 433/2/5 426/2/5 424/2/5
f 433/2/5 430/2/5 429/2/5
f 433/2/5 429/2/5 426/2/5
f 434/2/5 430/2/5 433/2/5
f 435/2/5 430/2/5 434/2/5
f 436/1/5 431/1/5 430/1/5
f 436/2/5 430/2/5 435/2/5
f 437/1/5 431/1/5 436/1/5
f 438/2/5 435/2/5 434/2/5
f 439/1/5 436/1/5 435/1/5
f 439/2/5 435/2/5 438/2/5
f 440/1/5 436/1/5 439/1/5
f 441/1/5 434/1/5 433/1/5
f 442/2/5 438/2/5 434/2/5
f 442/1/5 434/1/5 441/1/5
f 443/1/5 439/1/5 438/1/5
f 443/2/5 438/2/5 442/2/5
f 444/1/5 439/1/5 443/1/5
f 445/1/5 443/1/5 442/1/5
f 446/1/5 443/1/5 445/1/5
f 449/2/5 448/2/5 447/2/5
f 450/2/5 448/2/5 449/2/5
f 451/1/6 452/1/6 454/1/6
f 454/1/6 452/1/6 455/1/6
f 455/1/6 452/1/6 456/1/6
f 456/1/6 452/1/6 457/1/6
f 453/1/6 454/1/6 460/1/6
f 460/1/6 454/1/6 461/1/6
f 457/1/6 458/1/6 462/1/6
f 462/1/6 458/1/6 463/1/6
f 463/1/6 458/1/6 464/1/6
f 459/1/6 460/1/6 466/1/6
f 464/1/6 465/1/6 467/1/6
f 467/1/6 465/1/6 468/1/6
f 468/1/6 465/1/6 469/1/6
f 468/2/6 469/2/6 471/2/6
f 469/1/6 470/1/6 472/1/6
f 471/2/6 469/2/6 472/2/6
f 472/1/6 470/1/6 473/1/6
f 459/1/6 466/1/6 475/1/6
f 473/1/6 474/1/6 476/1/6
f 476/1/6 474/1/6 477/1/6
f 459/1/6 475/1/6 478/1/6
f 459/1/6 478/1/6 479/1/6
f 479/1/6 478/1/6 480/1/6
f 481/1/6 482/1/6 483/1/6
f 483/1/6 482/1/6 484/1/6
f 484/1/6 485/1/6 486/1/6
f 486/1/6 485/1/6 487/1/6
f 488/3/6 489/3/6 493/3/6
f 489/2/6 490/2/6 494/2/6
f 493/3/6 489/3/6 494/3/6
f 494/2/6 490/2/6 495/2/6
f 490/3/6 491/3/6 496/3/6
f 495/2/6 490/2/6 496/2/6
f 496/3/6 491/3/6 497/3/6
f 492/3/6 493/3/6 500/3/6
f 493/2/6 494/2/6 501/2/6
f 500/3/6 493/3/6 501/3/6
f 501/2/6 494/2/6 502/2/6
f 497/2/6 498/2/6 503/2/6
f 496/2/6 497/2/6 503/2/6
f 503/2/6 498/2/6 504/2/6
f 498/3/6 499/3/6 505/3/6
f 504/2/6 498/2/6 505/2/6
f 505/3/6 499/3/6 506/3/6
f 504/3/6 505/3/6 507/3/6
f 505/2/6 506/2/6 508/2/6
f 507/3/6 505/3/6 508/3/6
f 507/2/6 508/2/6 509/2/6
f 508/2/6 506/2/6 510/2/6
f 509/2/6 508/2/6 510/2/6
f 500/2/6 501/2/6 511/2/6
f 511/2/6 501/2/6 512/2/6
f 511/3/6 512/3/6 513/3/6
f 513/3/6 512/3/6 514/3/6
f 513/2/6 514/2/6 515/2/6
f 515/2/6 514/2/6 516/2/6
f 516/2/6 517/2/6 521/2/6
f 521/2/6 517/2/6 522/2/6
f 518/3/6 519/3/6 524/3/6
f 519/2/6 520/2/6 525/2/6
f 524/3/6 519/3/6 525/3/6
f 525/2/6 520/2/6 526/2/6
f 522/2/6 523/2/6 527/2/6
f 523/3/6 524/3/6 528/3/6
f 527/2/6 523/2/6 528/2/6
f 528/3/6 524/3/6 529/3/6
f 530/2/6 531/2/6 534/2/6
f 531/3/6 532/3/6 535/3/6
f 534/2/6 531/2/6 535/2/6
f 535/3/6 532/3/6 536/3/6
f 533/2/6 534/2/6 538/2/6
f 538/2/6 534/2/6 539/2/6
f 536/2/6 537/2/6 540/2/6
f 540/2/6 537/2/6 541/2/6
f 542/2/6 543/2/6 544/2/6
f 544/2/6 543/2/6 545/2/6
f 545/2/6 546/2/6 550/2/6
f 550/2/6 546/2/6 551/2/6
f 547/2/6 548/2/6 554/2/6
f 554/2/6 548/2/6 555/2/6
f 549/2/6 550/2/6 556/2/6
f 556/2/6 550/2/6 557/2/6
f 552/2/6 553/2/6 558/2/6
f 558/2/6 553/2/6 559/2/6
f 560/2/6 561/2/6 562/2/6
f 562/2/6 561/2/6 563/2/6
f 564/2/6 565/2/6 566/2/6
f 566/2/6 565/2/6 567/2/6
f 567/2/6 568/2/6 571/2/6
f 569/2/6 570/2/6 572/2/6
f 572/2/6 570/2/6 573/2/6
f 571/2/6 568/2/6 579/2/6
f 579/2/6 568/2/6 580/2/6
f 572/3/6 573/3/6 581/3/6
f 573/2/6 574/2/6 582/2/6
f 581/3/6 573/3/6 582/3/6
f 574/3/6 575/3/6 583/3/6
f 582/2/6 574/2/6 583/2/6
f 575/2/6 576/2/6 584/2/6
f 583/3/6 575/3/6 584/3/6
f 577/2/6 578/2/6 585/2/6
f 578/2/6 579/2/6 585/2/6
f 585/2/6 579/2/6 586/2/6
f 583/2/6 584/2/6 587/2/6
f 584/2/6 576/2/6 588/2/6
f 587/2/6 584/2/6 588/2/6
f 589/2/6 590/2/6 592/2/6
f 592/2/6 590/2/6 593/2/6
f 591/3/6 592/3/6 594/3/6
f 594/3/6 592/3/6 595/3/6
f 594/2/6 595/2/6 598/2/6
f 598/2/6 595/2/6 599/2/6
f 596/3/6 597/3/6 602/3/6
f 602/3/6 597/3/6 603/3/6
f 600/2/6 601/2/6 604/2/6
f 601/3/6 602/3/6 605/3/6
f 604/2/6 601/2/6 605/2/6
f 602/2/6 603/2/6 606/2/6
f 605/3/6 602/3/6 606/3/6
f 606/2/6 603/2/6 607/2/6
f 608/2/6 609/2/6 613/2/6
f 613/2/6 609/2/6 614/2/6
f 610/3/6 611/3/6 615/3/6
f 611/2/6 612/2/6 616/2/6
f 615/3/6 611/3/6 616/3/6
f 612/3/6 613/3/6 617/3/6
f 616/2/6 612/2/6 617/2/6
f 617/3/6 613/3/6 618/3/6
f 619/2/6 620/2/6 623/2/6
f 621/2/6 622/2/6 624/2/6
f 622/2/6 623/2/6 624/2/6
f 623/2/6 620/2/6 625/2/6
f 624/2/6 623/2/6 625/2/6
f 626/2/6 627/2/6 629/2/6
f 627/3/6 628/3/6 630/3/6
f 629/2/6 627/2/6 630/2/6
f 630/3/6 628/3/6 631/3/6
f 629/3/6 630/3/6 632/3/6
f 630/2/6 631/2/6 633/2/6
f 632/3/6 630/3/6 633/3/6
f 633/2/6 631/2/6 634/2/6
