# MagicaVoxel @ Ephtracy

# group
o 

# material
mtllib Smol-BrokenFence-1.mtl
usemtl palette

# normals
vn -1 0 0
vn 1 0 0
vn 0 0 1
vn 0 0 -1
vn 0 -1 0
vn 0 1 0

# texcoords
vt 0.0800781 0.5
vt 0.0839844 0.5

# verts
v -0.2 0 1.4
v -0.2 0 0.7
v -0.2 0.1 1.3
v -0.2 0.1 1.1
v -0.2 0.1 1
v -0.2 0.1 0.7
v -0.2 0.1 0.5
v -0.2 0.2 1.3
v -0.2 0.2 1.1
v -0.2 0.2 1
v -0.2 0.2 0.7
v -0.2 0.2 0.5
v -0.2 0.2 -0.1
v -0.2 0.3 1.4
v -0.2 0.3 1
v -0.2 0.3 0.5
v -0.2 0.3 -0.1
v -0.2 0.3 -1.4
v -0.2 0.4 1
v -0.2 0.4 0.5
v -0.2 0.4 -0.1
v -0.2 0.4 -1.3
v -0.2 0.5 0.5
v -0.2 0.5 -0.1
v -0.2 0.5 -0.7
v -0.2 0.5 -1
v -0.2 0.5 -1.1
v -0.2 0.6 -0.1
v -0.2 0.6 -0.7
v -0.2 0.6 -1
v -0.2 0.6 -1.1
v -0.2 0.6 -1.3
v -0.2 0.7 -0.7
v -0.2 0.7 -1.4
v -0.2 0.8 0.2
v -0.2 0.8 0.1
v -0.2 0.8 0
v -0.2 0.8 -0.1
v -0.2 0.9 0.1
v -0.2 0.9 0
v -0.2 0.9 -0.1
v -0.2 0.9 -0.2
v -0.2 0.9 -0.3
v -0.2 0.9 -0.5
v -0.2 1 0.1
v -0.2 1 -0.1
v -0.2 1 -0.3
v -0.2 1 -0.4
v -0.2 1 -0.5
v -0.2 1 -0.7
v -0.2 1 -0.8
v -0.2 1 -0.9
v -0.2 1.1 0.2
v -0.2 1.1 -0.1
v -0.2 1.1 -0.2
v -0.2 1.1 -0.4
v -0.2 1.1 -0.5
v -0.2 1.1 -0.7
v -0.2 1.1 -0.8
v -0.2 1.1 -0.9
v -0.2 1.1 -1.2
v -0.2 1.2 -0.1
v -0.2 1.2 -0.5
v -0.2 1.2 -0.7
v -0.2 1.2 -0.8
v -0.2 1.2 -0.9
v -0.2 1.2 -1
v -0.2 1.2 -1.1
v -0.2 1.2 -1.2
v -0.2 1.2 -1.3
v -0.2 1.3 -0.5
v -0.2 1.3 -0.9
v -0.2 1.3 -1
v -0.2 1.3 -1.1
v -0.2 1.3 -1.2
v -0.2 1.3 -1.3
v -0.2 1.3 -1.4
v -0.2 1.4 -0.9
v -0.2 1.4 -1.2
v -0.2 1.4 -1.3
v -0.2 1.5 -1.2
v -0.2 1.5 -1.4
v -0.1 0 1.4
v -0.1 0 0.7
v -0.1 0.1 1.3
v -0.1 0.1 1.1
v -0.1 0.1 1
v -0.1 0.1 0.7
v -0.1 0.1 0.5
v -0.1 0.2 1.3
v -0.1 0.2 1.1
v -0.1 0.2 1
v -0.1 0.2 0.7
v -0.1 0.2 0.5
v -0.1 0.2 -0.1
v -0.1 0.3 1.4
v -0.1 0.3 1
v -0.1 0.3 0.5
v -0.1 0.3 -0.1
v -0.1 0.3 -1.4
v -0.1 0.4 1
v -0.1 0.4 0.5
v -0.1 0.4 -0.1
v -0.1 0.4 -1.3
v -0.1 0.5 0.5
v -0.1 0.5 -0.1
v -0.1 0.5 -0.7
v -0.1 0.5 -1
v -0.1 0.5 -1.1
v -0.1 0.6 -0.1
v -0.1 0.6 -0.7
v -0.1 0.6 -1
v -0.1 0.6 -1.1
v -0.1 0.6 -1.3
v -0.1 0.7 -0.7
v -0.1 0.7 -1.4
v -0.1 0.8 0.2
v -0.1 0.8 0.1
v -0.1 0.8 0
v -0.1 0.8 -0.1
v -0.1 0.9 0.1
v -0.1 0.9 0
v -0.1 0.9 -0.1
v -0.1 0.9 -0.2
v -0.1 0.9 -0.3
v -0.1 0.9 -0.5
v -0.1 1 0.1
v -0.1 1 -0.1
v -0.1 1 -0.3
v -0.1 1 -0.4
v -0.1 1 -0.5
v -0.1 1 -0.7
v -0.1 1 -0.8
v -0.1 1 -0.9
v -0.1 1.1 0.2
v -0.1 1.1 -0.1
v -0.1 1.1 -0.2
v -0.1 1.1 -0.4
v -0.1 1.1 -0.5
v -0.1 1.1 -0.7
v -0.1 1.1 -0.8
v -0.1 1.1 -0.9
v -0.1 1.1 -1.2
v -0.1 1.2 -0.1
v -0.1 1.2 -0.5
v -0.1 1.2 -0.7
v -0.1 1.2 -0.8
v -0.1 1.2 -0.9
v -0.1 1.2 -1
v -0.1 1.2 -1.1
v -0.1 1.2 -1.2
v -0.1 1.2 -1.3
v -0.1 1.3 -0.5
v -0.1 1.3 -0.9
v -0.1 1.3 -1
v -0.1 1.3 -1.1
v -0.1 1.3 -1.2
v -0.1 1.3 -1.3
v -0.1 1.3 -1.4
v -0.1 1.4 -0.9
v -0.1 1.4 -1.2
v -0.1 1.4 -1.3
v -0.1 1.5 -1.2
v -0.1 1.5 -1.4
v -0.2 0 1.4
v -0.2 0.3 1.4
v -0.1 0 1.4
v -0.1 0.3 1.4
v -0.2 0.1 1
v -0.2 0.2 1
v -0.2 0.3 1
v -0.2 0.4 1
v -0.1 0.1 1
v -0.1 0.2 1
v -0.1 0.3 1
v -0.1 0.4 1
v -0.2 0.4 0.5
v -0.2 0.5 0.5
v -0.1 0.4 0.5
v -0.1 0.5 0.5
v -0.2 0.8 0.2
v -0.2 1.1 0.2
v -0.1 0.8 0.2
v -0.1 1.1 0.2
v -0.2 0.8 0
v -0.2 0.9 0
v -0.1 0.8 0
v -0.1 0.9 0
v -0.2 0.5 -0.1
v -0.2 0.6 -0.1
v -0.2 1.1 -0.1
v -0.2 1.2 -0.1
v -0.1 0.5 -0.1
v -0.1 0.6 -0.1
v -0.1 1.1 -0.1
v -0.1 1.2 -0.1
v -0.2 0.9 -0.3
v -0.2 1 -0.3
v -0.1 0.9 -0.3
v -0.1 1 -0.3
v -0.2 1 -0.4
v -0.2 1.1 -0.4
v -0.1 1 -0.4
v -0.1 1.1 -0.4
v -0.2 1.2 -0.5
v -0.2 1.3 -0.5
v -0.1 1.2 -0.5
v -0.1 1.3 -0.5
v -0.2 0.6 -0.7
v -0.2 0.7 -0.7
v -0.1 0.6 -0.7
v -0.1 0.7 -0.7
v -0.2 1 -0.8
v -0.2 1.1 -0.8
v -0.2 1.2 -0.8
v -0.1 1 -0.8
v -0.1 1.1 -0.8
v -0.1 1.2 -0.8
v -0.2 1.3 -0.9
v -0.2 1.4 -0.9
v -0.1 1.3 -0.9
v -0.1 1.4 -0.9
v -0.2 0.5 -1.1
v -0.2 0.6 -1.1
v -0.2 1.2 -1.1
v -0.2 1.3 -1.1
v -0.1 0.5 -1.1
v -0.1 0.6 -1.1
v -0.1 1.2 -1.1
v -0.1 1.3 -1.1
v -0.2 1.4 -1.2
v -0.2 1.5 -1.2
v -0.1 1.4 -1.2
v -0.1 1.5 -1.2
v -0.2 1.3 -1.3
v -0.2 1.4 -1.3
v -0.1 1.3 -1.3
v -0.1 1.4 -1.3
v -0.2 0.1 1.1
v -0.2 0.2 1.1
v -0.1 0.1 1.1
v -0.1 0.2 1.1
v -0.2 0 0.7
v -0.2 0.1 0.7
v -0.1 0 0.7
v -0.1 0.1 0.7
v -0.2 0.1 0.5
v -0.2 0.2 0.5
v -0.1 0.1 0.5
v -0.1 0.2 0.5
v -0.2 0.8 0.1
v -0.2 0.9 0.1
v -0.1 0.8 0.1
v -0.1 0.9 0.1
v -0.2 0.2 -0.1
v -0.2 0.3 -0.1
v -0.2 0.8 -0.1
v -0.2 0.9 -0.1
v -0.1 0.2 -0.1
v -0.1 0.3 -0.1
v -0.1 0.8 -0.1
v -0.1 0.9 -0.1
v -0.2 0.9 -0.2
v -0.2 1.1 -0.2
v -0.1 0.9 -0.2
v -0.1 1.1 -0.2
v -0.2 0.9 -0.5
v -0.2 1 -0.5
v -0.1 0.9 -0.5
v -0.1 1 -0.5
v -0.2 1 -0.7
v -0.2 1.1 -0.7
v -0.2 1.2 -0.7
v -0.1 1 -0.7
v -0.1 1.1 -0.7
v -0.1 1.2 -0.7
v -0.2 1 -0.9
v -0.2 1.1 -0.9
v -0.1 1 -0.9
v -0.1 1.1 -0.9
v -0.2 0.5 -1
v -0.2 0.6 -1
v -0.2 1.2 -1
v -0.2 1.3 -1
v -0.1 0.5 -1
v -0.1 0.6 -1
v -0.1 1.2 -1
v -0.1 1.3 -1
v -0.2 1.1 -1.2
v -0.2 1.2 -1.2
v -0.2 1.3 -1.2
v -0.2 1.4 -1.2
v -0.1 1.1 -1.2
v -0.1 1.2 -1.2
v -0.1 1.3 -1.2
v -0.1 1.4 -1.2
v -0.2 1.2 -1.3
v -0.2 1.3 -1.3
v -0.1 1.2 -1.3
v -0.1 1.3 -1.3
v -0.2 0.3 -1.4
v -0.2 0.7 -1.4
v -0.2 1.3 -1.4
v -0.2 1.5 -1.4
v -0.1 0.3 -1.4
v -0.1 0.7 -1.4
v -0.1 1.3 -1.4
v -0.1 1.5 -1.4
v -0.2 0 1.4
v -0.1 0 1.4
v -0.2 0 0.7
v -0.1 0 0.7
v -0.2 0.1 0.7
v -0.1 0.1 0.7
v -0.2 0.1 0.5
v -0.1 0.1 0.5
v -0.2 0.2 1.1
v -0.1 0.2 1.1
v -0.2 0.2 1
v -0.1 0.2 1
v -0.2 0.2 0.5
v -0.1 0.2 0.5
v -0.2 0.2 -0.1
v -0.1 0.2 -0.1
v -0.2 0.3 -0.1
v -0.1 0.3 -0.1
v -0.2 0.3 -1.4
v -0.1 0.3 -1.4
v -0.2 0.6 -1
v -0.1 0.6 -1
v -0.2 0.6 -1.1
v -0.1 0.6 -1.1
v -0.2 0.8 0.2
v -0.1 0.8 0.2
v -0.2 0.8 0.1
v -0.1 0.8 0.1
v -0.2 0.8 0
v -0.1 0.8 0
v -0.2 0.8 -0.1
v -0.1 0.8 -0.1
v -0.2 0.9 0.1
v -0.1 0.9 0.1
v -0.2 0.9 0
v -0.1 0.9 0
v -0.2 0.9 -0.1
v -0.1 0.9 -0.1
v -0.2 0.9 -0.2
v -0.1 0.9 -0.2
v -0.2 0.9 -0.3
v -0.1 0.9 -0.3
v -0.2 0.9 -0.5
v -0.1 0.9 -0.5
v -0.2 1 -0.5
v -0.1 1 -0.5
v -0.2 1 -0.7
v -0.1 1 -0.7
v -0.2 1 -0.8
v -0.1 1 -0.8
v -0.2 1 -0.9
v -0.1 1 -0.9
v -0.2 1.1 -0.2
v -0.1 1.1 -0.2
v -0.2 1.1 -0.4
v -0.1 1.1 -0.4
v -0.2 1.1 -0.9
v -0.1 1.1 -0.9
v -0.2 1.1 -1.2
v -0.1 1.1 -1.2
v -0.2 1.2 -0.7
v -0.1 1.2 -0.7
v -0.2 1.2 -0.8
v -0.1 1.2 -0.8
v -0.2 1.2 -1.2
v -0.1 1.2 -1.2
v -0.2 1.2 -1.3
v -0.1 1.2 -1.3
v -0.2 1.3 -1
v -0.1 1.3 -1
v -0.2 1.3 -1.1
v -0.1 1.3 -1.1
v -0.2 1.3 -1.3
v -0.1 1.3 -1.3
v -0.2 1.3 -1.4
v -0.1 1.3 -1.4
v -0.2 1.4 -1.2
v -0.1 1.4 -1.2
v -0.2 1.4 -1.3
v -0.1 1.4 -1.3
v -0.2 0.1 1.1
v -0.1 0.1 1.1
v -0.2 0.1 1
v -0.1 0.1 1
v -0.2 0.3 1.4
v -0.1 0.3 1.4
v -0.2 0.3 1
v -0.1 0.3 1
v -0.2 0.4 1
v -0.1 0.4 1
v -0.2 0.4 0.5
v -0.1 0.4 0.5
v -0.2 0.5 0.5
v -0.1 0.5 0.5
v -0.2 0.5 -0.1
v -0.1 0.5 -0.1
v -0.2 0.5 -1
v -0.1 0.5 -1
v -0.2 0.5 -1.1
v -0.1 0.5 -1.1
v -0.2 0.6 -0.1
v -0.1 0.6 -0.1
v -0.2 0.6 -0.7
v -0.1 0.6 -0.7
v -0.2 0.7 -0.7
v -0.1 0.7 -0.7
v -0.2 0.7 -1.4
v -0.1 0.7 -1.4
v -0.2 1 -0.3
v -0.1 1 -0.3
v -0.2 1 -0.4
v -0.1 1 -0.4
v -0.2 1.1 0.2
v -0.1 1.1 0.2
v -0.2 1.1 -0.1
v -0.1 1.1 -0.1
v -0.2 1.2 -0.1
v -0.1 1.2 -0.1
v -0.2 1.2 -0.5
v -0.1 1.2 -0.5
v -0.2 1.2 -1
v -0.1 1.2 -1
v -0.2 1.2 -1.1
v -0.1 1.2 -1.1
v -0.2 1.3 -0.5
v -0.1 1.3 -0.5
v -0.2 1.3 -0.9
v -0.1 1.3 -0.9
v -0.2 1.3 -1.2
v -0.1 1.3 -1.2
v -0.2 1.3 -1.3
v -0.1 1.3 -1.3
v -0.2 1.4 -0.9
v -0.1 1.4 -0.9
v -0.2 1.4 -1.2
v -0.1 1.4 -1.2
v -0.2 1.5 -1.2
v -0.1 1.5 -1.2
v -0.2 1.5 -1.4
v -0.1 1.5 -1.4

# faces
f 3/2/1 2/2/1 1/2/1
f 4/2/1 2/2/1 3/2/1
f 5/2/1 2/2/1 4/2/1
f 6/2/1 2/2/1 5/2/1
f 8/2/1 3/2/1 1/2/1
f 8/1/1 4/1/1 3/1/1
f 9/1/1 4/1/1 8/1/1
f 10/1/1 6/1/1 5/1/1
f 11/2/1 7/2/1 6/2/1
f 11/1/1 6/1/1 10/1/1
f 12/2/1 7/2/1 11/2/1
f 14/2/1 10/2/1 9/2/1
f 14/2/1 9/2/1 8/2/1
f 14/2/1 8/2/1 1/2/1
f 15/1/1 12/1/1 11/1/1
f 15/2/1 10/2/1 14/2/1
f 15/1/1 11/1/1 10/1/1
f 16/2/1 13/2/1 12/2/1
f 16/1/1 12/1/1 15/1/1
f 17/2/1 13/2/1 16/2/1
f 19/2/1 16/2/1 15/2/1
f 20/1/1 17/1/1 16/1/1
f 20/2/1 16/2/1 19/2/1
f 21/2/1 18/2/1 17/2/1
f 21/1/1 17/1/1 20/1/1
f 22/2/1 18/2/1 21/2/1
f 23/2/1 21/2/1 20/2/1
f 24/1/1 22/1/1 21/1/1
f 24/2/1 21/2/1 23/2/1
f 25/1/1 22/1/1 24/1/1
f 26/1/1 22/1/1 25/1/1
f 27/1/1 22/1/1 26/1/1
f 28/2/1 25/2/1 24/2/1
f 29/1/1 26/1/1 25/1/1
f 29/2/1 25/2/1 28/2/1
f 30/1/1 26/1/1 29/1/1
f 31/1/1 22/1/1 27/1/1
f 32/2/1 18/2/1 22/2/1
f 32/1/1 22/1/1 31/1/1
f 33/2/1 31/2/1 30/2/1
f 33/2/1 30/2/1 29/2/1
f 33/2/1 32/2/1 31/2/1
f 34/2/1 18/2/1 32/2/1
f 34/2/1 32/2/1 33/2/1
f 39/2/1 36/2/1 35/2/1
f 40/2/1 38/2/1 37/2/1
f 41/2/1 38/2/1 40/2/1
f 45/2/1 39/2/1 35/2/1
f 45/1/1 40/1/1 39/1/1
f 45/1/1 42/1/1 41/1/1
f 45/1/1 41/1/1 40/1/1
f 46/1/1 42/1/1 45/1/1
f 47/2/1 44/2/1 43/2/1
f 48/2/1 44/2/1 47/2/1
f 49/2/1 44/2/1 48/2/1
f 53/2/1 45/2/1 35/2/1
f 53/2/1 46/2/1 45/2/1
f 54/1/1 42/1/1 46/1/1
f 54/2/1 46/2/1 53/2/1
f 55/1/1 42/1/1 54/1/1
f 56/1/1 49/1/1 48/1/1
f 57/2/1 50/2/1 49/2/1
f 57/1/1 49/1/1 56/1/1
f 58/2/1 50/2/1 57/2/1
f 59/2/1 52/2/1 51/2/1
f 60/2/1 52/2/1 59/2/1
f 62/2/1 56/2/1 55/2/1
f 62/2/1 55/2/1 54/2/1
f 62/2/1 57/2/1 56/2/1
f 63/1/1 58/1/1 57/1/1
f 63/2/1 57/2/1 62/2/1
f 64/1/1 58/1/1 63/1/1
f 65/1/1 60/1/1 59/1/1
f 66/2/1 61/2/1 60/2/1
f 66/1/1 60/1/1 65/1/1
f 67/2/1 61/2/1 66/2/1
f 68/2/1 61/2/1 67/2/1
f 69/2/1 61/2/1 68/2/1
f 71/2/1 65/2/1 64/2/1
f 71/2/1 64/2/1 63/2/1
f 71/2/1 66/2/1 65/2/1
f 72/1/1 67/1/1 66/1/1
f 72/2/1 66/2/1 71/2/1
f 73/1/1 67/1/1 72/1/1
f 74/1/1 70/1/1 69/1/1
f 74/1/1 69/1/1 68/1/1
f 75/1/1 70/1/1 74/1/1
f 76/1/1 70/1/1 75/1/1
f 78/2/1 73/2/1 72/2/1
f 78/2/1 75/2/1 74/2/1
f 78/2/1 74/2/1 73/2/1
f 79/2/1 75/2/1 78/2/1
f 80/2/1 77/2/1 76/2/1
f 81/2/1 80/2/1 79/2/1
f 82/2/1 77/2/1 80/2/1
f 82/2/1 80/2/1 81/2/1
f 83/2/2 84/2/2 85/2/2
f 85/2/2 84/2/2 86/2/2
f 86/2/2 84/2/2 87/2/2
f 87/2/2 84/2/2 88/2/2
f 83/2/2 85/2/2 90/2/2
f 85/1/2 86/1/2 90/1/2
f 90/1/2 86/1/2 91/1/2
f 87/1/2 88/1/2 92/1/2
f 88/2/2 89/2/2 93/2/2
f 92/1/2 88/1/2 93/1/2
f 93/2/2 89/2/2 94/2/2
f 91/2/2 92/2/2 96/2/2
f 90/2/2 91/2/2 96/2/2
f 83/2/2 90/2/2 96/2/2
f 93/1/2 94/1/2 97/1/2
f 96/2/2 92/2/2 97/2/2
f 92/1/2 93/1/2 97/1/2
f 94/2/2 95/2/2 98/2/2
f 97/1/2 94/1/2 98/1/2
f 98/2/2 95/2/2 99/2/2
f 97/2/2 98/2/2 101/2/2
f 98/1/2 99/1/2 102/1/2
f 101/2/2 98/2/2 102/2/2
f 99/2/2 100/2/2 103/2/2
f 102/1/2 99/1/2 103/1/2
f 103/2/2 100/2/2 104/2/2
f 102/2/2 103/2/2 105/2/2
f 103/1/2 104/1/2 106/1/2
f 105/2/2 103/2/2 106/2/2
f 106/1/2 104/1/2 107/1/2
f 107/1/2 104/1/2 108/1/2
f 108/1/2 104/1/2 109/1/2
f 106/2/2 107/2/2 110/2/2
f 107/1/2 108/1/2 111/1/2
f 110/2/2 107/2/2 111/2/2
f 111/1/2 108/1/2 112/1/2
f 109/1/2 104/1/2 113/1/2
f 104/2/2 100/2/2 114/2/2
f 113/1/2 104/1/2 114/1/2
f 112/2/2 113/2/2 115/2/2
f 111/2/2 112/2/2 115/2/2
f 113/2/2 114/2/2 115/2/2
f 114/2/2 100/2/2 116/2/2
f 115/2/2 114/2/2 116/2/2
f 117/2/2 118/2/2 121/2/2
f 119/2/2 120/2/2 122/2/2
f 122/2/2 120/2/2 123/2/2
f 117/2/2 121/2/2 127/2/2
f 121/1/2 122/1/2 127/1/2
f 123/1/2 124/1/2 127/1/2
f 122/1/2 123/1/2 127/1/2
f 127/1/2 124/1/2 128/1/2
f 125/2/2 126/2/2 129/2/2
f 129/2/2 126/2/2 130/2/2
f 130/2/2 126/2/2 131/2/2
f 117/2/2 127/2/2 135/2/2
f 127/2/2 128/2/2 135/2/2
f 128/1/2 124/1/2 136/1/2
f 135/2/2 128/2/2 136/2/2
f 136/1/2 124/1/2 137/1/2
f 130/1/2 131/1/2 138/1/2
f 131/2/2 132/2/2 139/2/2
f 138/1/2 131/1/2 139/1/2
f 139/2/2 132/2/2 140/2/2
f 133/2/2 134/2/2 141/2/2
f 141/2/2 134/2/2 142/2/2
f 137/2/2 138/2/2 144/2/2
f 136/2/2 137/2/2 144/2/2
f 138/2/2 139/2/2 144/2/2
f 139/1/2 140/1/2 145/1/2
f 144/2/2 139/2/2 145/2/2
f 145/1/2 140/1/2 146/1/2
f 141/1/2 142/1/2 147/1/2
f 142/2/2 143/2/2 148/2/2
f 147/1/2 142/1/2 148/1/2
f 148/2/2 143/2/2 149/2/2
f 149/2/2 143/2/2 150/2/2
f 150/2/2 143/2/2 151/2/2
f 146/2/2 147/2/2 153/2/2
f 145/2/2 146/2/2 153/2/2
f 147/2/2 148/2/2 153/2/2
f 148/1/2 149/1/2 154/1/2
f 153/2/2 148/2/2 154/2/2
f 154/1/2 149/1/2 155/1/2
f 151/1/2 152/1/2 156/1/2
f 150/1/2 151/1/2 156/1/2
f 156/1/2 152/1/2 157/1/2
f 157/1/2 152/1/2 158/1/2
f 154/2/2 155/2/2 160/2/2
f 156/2/2 157/2/2 160/2/2
f 155/2/2 156/2/2 160/2/2
f 160/2/2 157/2/2 161/2/2
f 158/2/2 159/2/2 162/2/2
f 161/2/2 162/2/2 163/2/2
f 162/2/2 159/2/2 164/2/2
f 163/2/2 162/2/2 164/2/2
f 167/2/3 166/2/3 165/2/3
f 168/2/3 166/2/3 167/2/3
f 173/1/3 170/1/3 169/1/3
f 174/1/3 170/1/3 173/1/3
f 175/2/3 172/2/3 171/2/3
f 176/2/3 172/2/3 175/2/3
f 179/2/3 178/2/3 177/2/3
f 180/2/3 178/2/3 179/2/3
f 183/2/3 182/2/3 181/2/3
f 184/2/3 182/2/3 183/2/3
f 187/2/3 186/2/3 185/2/3
f 188/2/3 186/2/3 187/2/3
f 193/2/3 190/2/3 189/2/3
f 194/2/3 190/2/3 193/2/3
f 195/2/3 192/2/3 191/2/3
f 196/2/3 192/2/3 195/2/3
f 199/2/3 198/2/3 197/2/3
f 200/2/3 198/2/3 199/2/3
f 203/1/3 202/1/3 201/1/3
f 204/1/3 202/1/3 203/1/3
f 207/2/3 206/2/3 205/2/3
f 208/2/3 206/2/3 207/2/3
f 211/2/3 210/2/3 209/2/3
f 212/2/3 210/2/3 211/2/3
f 216/2/3 214/2/3 213/2/3
f 217/1/3 215/1/3 214/1/3
f 217/2/3 214/2/3 216/2/3
f 218/1/3 215/1/3 217/1/3
f 221/2/3 220/2/3 219/2/3
f 222/2/3 220/2/3 221/2/3
f 227/1/3 224/1/3 223/1/3
f 228/1/3 224/1/3 227/1/3
f 229/1/3 226/1/3 225/1/3
f 230/1/3 226/1/3 229/1/3
f 233/2/3 232/2/3 231/2/3
f 234/2/3 232/2/3 233/2/3
f 237/2/3 236/2/3 235/2/3
f 238/2/3 236/2/3 237/2/3
f 239/1/4 240/1/4 241/1/4
f 241/1/4 240/1/4 242/1/4
f 243/2/4 244/2/4 245/2/4
f 245/2/4 244/2/4 246/2/4
f 247/2/4 248/2/4 249/2/4
f 249/2/4 248/2/4 250/2/4
f 251/2/4 252/2/4 253/2/4
f 253/2/4 252/2/4 254/2/4
f 255/2/4 256/2/4 259/2/4
f 259/2/4 256/2/4 260/2/4
f 257/2/4 258/2/4 261/2/4
f 261/2/4 258/2/4 262/2/4
f 263/1/4 264/1/4 265/1/4
f 265/1/4 264/1/4 266/1/4
f 267/2/4 268/2/4 269/2/4
f 269/2/4 268/2/4 270/2/4
f 271/2/4 272/2/4 274/2/4
f 272/1/4 273/1/4 275/1/4
f 274/2/4 272/2/4 275/2/4
f 275/1/4 273/1/4 276/1/4
f 277/2/4 278/2/4 279/2/4
f 279/2/4 278/2/4 280/2/4
f 281/1/4 282/1/4 285/1/4
f 285/1/4 282/1/4 286/1/4
f 283/1/4 284/1/4 287/1/4
f 287/1/4 284/1/4 288/1/4
f 289/2/4 290/2/4 293/2/4
f 293/2/4 290/2/4 294/2/4
f 291/2/4 292/2/4 295/2/4
f 295/2/4 292/2/4 296/2/4
f 297/1/4 298/1/4 299/1/4
f 299/1/4 298/1/4 300/1/4
f 301/2/4 302/2/4 305/2/4
f 305/2/4 302/2/4 306/2/4
f 303/2/4 304/2/4 307/2/4
f 307/2/4 304/2/4 308/2/4
f 311/2/5 310/2/5 309/2/5
f 312/2/5 310/2/5 311/2/5
f 315/2/5 314/2/5 313/2/5
f 316/2/5 314/2/5 315/2/5
f 319/2/5 318/2/5 317/2/5
f 320/2/5 318/2/5 319/2/5
f 323/2/5 322/2/5 321/2/5
f 324/2/5 322/2/5 323/2/5
f 327/2/5 326/2/5 325/2/5
f 328/2/5 326/2/5 327/2/5
f 331/2/5 330/2/5 329/2/5
f 332/2/5 330/2/5 331/2/5
f 335/2/5 334/2/5 333/2/5
f 336/2/5 334/2/5 335/2/5
f 339/2/5 338/2/5 337/2/5
f 340/2/5 338/2/5 339/2/5
f 343/1/5 342/1/5 341/1/5
f 344/1/5 342/1/5 343/1/5
f 347/1/5 346/1/5 345/1/5
f 348/1/5 346/1/5 347/1/5
f 351/2/5 350/2/5 349/2/5
f 352/2/5 350/2/5 351/2/5
f 355/2/5 354/2/5 353/2/5
f 356/2/5 354/2/5 355/2/5
f 359/2/5 358/2/5 357/2/5
f 360/2/5 358/2/5 359/2/5
f 363/2/5 362/2/5 361/2/5
f 364/2/5 362/2/5 363/2/5
f 367/2/5 366/2/5 365/2/5
f 368/2/5 366/2/5 367/2/5
f 371/2/5 370/2/5 369/2/5
f 372/2/5 370/2/5 371/2/5
f 375/1/5 374/1/5 373/1/5
f 376/1/5 374/1/5 375/1/5
f 379/2/5 378/2/5 377/2/5
f 380/2/5 378/2/5 379/2/5
f 383/2/5 382/2/5 381/2/5
f 384/2/5 382/2/5 383/2/5
f 387/2/5 386/2/5 385/2/5
f 388/2/5 386/2/5 387/2/5
f 389/2/6 390/2/6 391/2/6
f 391/2/6 390/2/6 392/2/6
f 393/2/6 394/2/6 395/2/6
f 395/2/6 394/2/6 396/2/6
f 397/2/6 398/2/6 399/2/6
f 399/2/6 398/2/6 400/2/6
f 401/2/6 402/2/6 403/2/6
f 403/2/6 402/2/6 404/2/6
f 405/1/6 406/1/6 407/1/6
f 407/1/6 406/1/6 408/1/6
f 409/2/6 410/2/6 411/2/6
f 411/2/6 410/2/6 412/2/6
f 413/2/6 414/2/6 415/2/6
f 415/2/6 414/2/6 416/2/6
f 417/2/6 418/2/6 419/2/6
f 419/2/6 418/2/6 420/2/6
f 421/2/6 422/2/6 423/2/6
f 423/2/6 422/2/6 424/2/6
f 425/2/6 426/2/6 427/2/6
f 427/2/6 426/2/6 428/2/6
f 429/2/6 430/2/6 431/2/6
f 431/2/6 430/2/6 432/2/6
f 433/2/6 434/2/6 435/2/6
f 435/2/6 434/2/6 436/2/6
f 437/1/6 438/1/6 439/1/6
f 439/1/6 438/1/6 440/1/6
f 441/2/6 442/2/6 443/2/6
f 443/2/6 442/2/6 444/2/6
f 445/2/6 446/2/6 447/2/6
f 447/2/6 446/2/6 448/2/6
