# MagicaVoxel @ Ephtracy

# group
o 

# material
mtllib Smol-NewFence-1.mtl
usemtl palette

# normals
vn -1 0 0
vn 1 0 0
vn 0 0 1
vn 0 0 -1
vn 0 -1 0
vn 0 1 0

# texcoords
vt 0.0332031 0.5
vt 0.0800781 0.5
vt 0.0839844 0.5

# verts
v -0.3 0.5 1.1
v -0.3 0.5 1
v -0.3 0.5 -1
v -0.3 0.5 -1.1
v -0.3 0.6 1.1
v -0.3 0.6 1
v -0.3 0.6 -1
v -0.3 0.6 -1.1
v -0.3 1.2 1.1
v -0.3 1.2 1
v -0.3 1.2 -1
v -0.3 1.2 -1.1
v -0.3 1.3 1.1
v -0.3 1.3 1
v -0.3 1.3 -1
v -0.3 1.3 -1.1
v -0.2 0.3 1.4
v -0.2 0.3 0.7
v -0.2 0.3 -0.7
v -0.2 0.3 -1.4
v -0.2 0.4 1.3
v -0.2 0.4 0.8
v -0.2 0.4 0.7
v -0.2 0.4 -0.7
v -0.2 0.4 -0.8
v -0.2 0.4 -1.3
v -0.2 0.5 1.1
v -0.2 0.5 1
v -0.2 0.5 0.8
v -0.2 0.5 -0.8
v -0.2 0.5 -1
v -0.2 0.5 -1.1
v -0.2 0.6 1.3
v -0.2 0.6 1.1
v -0.2 0.6 1
v -0.2 0.6 -1
v -0.2 0.6 -1.1
v -0.2 0.6 -1.3
v -0.2 0.7 1.4
v -0.2 0.7 -1.4
v -0.2 1 1.4
v -0.2 1 0.7
v -0.2 1 -0.7
v -0.2 1 -1.4
v -0.2 1.1 1.3
v -0.2 1.1 0.8
v -0.2 1.1 0.7
v -0.2 1.1 -0.7
v -0.2 1.1 -0.8
v -0.2 1.1 -1.3
v -0.2 1.2 1.1
v -0.2 1.2 1
v -0.2 1.2 0.8
v -0.2 1.2 -0.8
v -0.2 1.2 -1
v -0.2 1.2 -1.1
v -0.2 1.3 1.3
v -0.2 1.3 1.1
v -0.2 1.3 1
v -0.2 1.3 -1
v -0.2 1.3 -1.1
v -0.2 1.3 -1.3
v -0.2 1.4 1.4
v -0.2 1.4 -1.4
v -0.1 0.3 1.4
v -0.1 0.3 0.7
v -0.1 0.3 -0.7
v -0.1 0.3 -1.4
v -0.1 0.4 1.3
v -0.1 0.4 0.8
v -0.1 0.4 0.7
v -0.1 0.4 -0.7
v -0.1 0.4 -0.8
v -0.1 0.4 -1.3
v -0.1 0.5 1.1
v -0.1 0.5 1
v -0.1 0.5 0.8
v -0.1 0.5 -0.8
v -0.1 0.5 -1
v -0.1 0.5 -1.1
v -0.1 0.6 1.3
v -0.1 0.6 1.1
v -0.1 0.6 1
v -0.1 0.6 -1
v -0.1 0.6 -1.1
v -0.1 0.6 -1.3
v -0.1 0.7 1.4
v -0.1 0.7 -1.4
v -0.1 1 1.4
v -0.1 1 0.7
v -0.1 1 -0.7
v -0.1 1 -1.4
v -0.1 1.1 1.3
v -0.1 1.1 0.8
v -0.1 1.1 0.7
v -0.1 1.1 -0.7
v -0.1 1.1 -0.8
v -0.1 1.1 -1.3
v -0.1 1.2 1.1
v -0.1 1.2 1
v -0.1 1.2 0.8
v -0.1 1.2 -0.8
v -0.1 1.2 -1
v -0.1 1.2 -1.1
v -0.1 1.3 1.3
v -0.1 1.3 1.1
v -0.1 1.3 1
v -0.1 1.3 -1
v -0.1 1.3 -1.1
v -0.1 1.3 -1.3
v -0.1 1.4 1.4
v -0.1 1.4 -1.4
v 0.2 0.5 1.1
v 0.2 0.5 1
v 0.2 0.5 -1
v 0.2 0.5 -1.1
v 0.2 0.6 1.1
v 0.2 0.6 1
v 0.2 0.6 -1
v 0.2 0.6 -1.1
v 0.2 1.2 1.1
v 0.2 1.2 1
v 0.2 1.2 -1
v 0.2 1.2 -1.1
v 0.2 1.3 1.1
v 0.2 1.3 1
v 0.2 1.3 -1
v 0.2 1.3 -1.1
v -0.2 0.3 1.4
v -0.2 0.7 1.4
v -0.2 1 1.4
v -0.2 1.4 1.4
v -0.1 0.3 1.4
v -0.1 0.7 1.4
v -0.1 1 1.4
v -0.1 1.4 1.4
v -0.3 0.5 1.1
v -0.3 0.6 1.1
v -0.3 1.2 1.1
v -0.3 1.3 1.1
v -0.2 0.5 1.1
v -0.2 0.6 1.1
v -0.2 1.2 1.1
v -0.2 1.3 1.1
v -0.1 0.5 1.1
v -0.1 0.6 1.1
v -0.1 1.2 1.1
v -0.1 1.3 1.1
v 0.2 0.5 1.1
v 0.2 0.6 1.1
v 0.2 1.2 1.1
v 0.2 1.3 1.1
v -0.2 0.3 -0.7
v -0.2 0.4 -0.7
v -0.2 1 -0.7
v -0.2 1.1 -0.7
v -0.1 0.3 -0.7
v -0.1 0.4 -0.7
v -0.1 1 -0.7
v -0.1 1.1 -0.7
v -0.3 0.5 -1
v -0.3 0.6 -1
v -0.3 1.2 -1
v -0.3 1.3 -1
v -0.2 0.5 -1
v -0.2 0.6 -1
v -0.2 1.2 -1
v -0.2 1.3 -1
v -0.1 0.5 -1
v -0.1 0.6 -1
v -0.1 1.2 -1
v -0.1 1.3 -1
v 0.2 0.5 -1
v 0.2 0.6 -1
v 0.2 1.2 -1
v 0.2 1.3 -1
v -0.3 0.5 1
v -0.3 0.6 1
v -0.3 1.2 1
v -0.3 1.3 1
v -0.2 0.5 1
v -0.2 0.6 1
v -0.2 1.2 1
v -0.2 1.3 1
v -0.1 0.5 1
v -0.1 0.6 1
v -0.1 1.2 1
v -0.1 1.3 1
v 0.2 0.5 1
v 0.2 0.6 1
v 0.2 1.2 1
v 0.2 1.3 1
v -0.2 0.3 0.7
v -0.2 0.4 0.7
v -0.2 1 0.7
v -0.2 1.1 0.7
v -0.1 0.3 0.7
v -0.1 0.4 0.7
v -0.1 1 0.7
v -0.1 1.1 0.7
v -0.3 0.5 -1.1
v -0.3 0.6 -1.1
v -0.3 1.2 -1.1
v -0.3 1.3 -1.1
v -0.2 0.5 -1.1
v -0.2 0.6 -1.1
v -0.2 1.2 -1.1
v -0.2 1.3 -1.1
v -0.1 0.5 -1.1
v -0.1 0.6 -1.1
v -0.1 1.2 -1.1
v -0.1 1.3 -1.1
v 0.2 0.5 -1.1
v 0.2 0.6 -1.1
v 0.2 1.2 -1.1
v 0.2 1.3 -1.1
v -0.2 0.3 -1.4
v -0.2 0.7 -1.4
v -0.2 1 -1.4
v -0.2 1.4 -1.4
v -0.1 0.3 -1.4
v -0.1 0.7 -1.4
v -0.1 1 -1.4
v -0.1 1.4 -1.4
v -0.2 0.3 1.4
v -0.1 0.3 1.4
v -0.2 0.3 0.7
v -0.1 0.3 0.7
v -0.2 0.3 -0.7
v -0.1 0.3 -0.7
v -0.2 0.3 -1.4
v -0.1 0.3 -1.4
v -0.2 0.4 0.7
v -0.1 0.4 0.7
v -0.2 0.4 -0.7
v -0.1 0.4 -0.7
v -0.3 0.5 1.1
v -0.2 0.5 1.1
v -0.1 0.5 1.1
v 0.2 0.5 1.1
v -0.3 0.5 1
v -0.2 0.5 1
v -0.1 0.5 1
v 0.2 0.5 1
v -0.3 0.5 -1
v -0.2 0.5 -1
v -0.1 0.5 -1
v 0.2 0.5 -1
v -0.3 0.5 -1.1
v -0.2 0.5 -1.1
v -0.1 0.5 -1.1
v 0.2 0.5 -1.1
v -0.2 1 1.4
v -0.1 1 1.4
v -0.2 1 0.7
v -0.1 1 0.7
v -0.2 1 -0.7
v -0.1 1 -0.7
v -0.2 1 -1.4
v -0.1 1 -1.4
v -0.2 1.1 0.7
v -0.1 1.1 0.7
v -0.2 1.1 -0.7
v -0.1 1.1 -0.7
v -0.3 1.2 1.1
v -0.2 1.2 1.1
v -0.1 1.2 1.1
v 0.2 1.2 1.1
v -0.3 1.2 1
v -0.2 1.2 1
v -0.1 1.2 1
v 0.2 1.2 1
v -0.3 1.2 -1
v -0.2 1.2 -1
v -0.1 1.2 -1
v 0.2 1.2 -1
v -0.3 1.2 -1.1
v -0.2 1.2 -1.1
v -0.1 1.2 -1.1
v 0.2 1.2 -1.1
v -0.3 0.6 1.1
v -0.2 0.6 1.1
v -0.1 0.6 1.1
v 0.2 0.6 1.1
v -0.3 0.6 1
v -0.2 0.6 1
v -0.1 0.6 1
v 0.2 0.6 1
v -0.3 0.6 -1
v -0.2 0.6 -1
v -0.1 0.6 -1
v 0.2 0.6 -1
v -0.3 0.6 -1.1
v -0.2 0.6 -1.1
v -0.1 0.6 -1.1
v 0.2 0.6 -1.1
v -0.2 0.7 1.4
v -0.1 0.7 1.4
v -0.2 0.7 -1.4
v -0.1 0.7 -1.4
v -0.3 1.3 1.1
v -0.2 1.3 1.1
v -0.1 1.3 1.1
v 0.2 1.3 1.1
v -0.3 1.3 1
v -0.2 1.3 1
v -0.1 1.3 1
v 0.2 1.3 1
v -0.3 1.3 -1
v -0.2 1.3 -1
v -0.1 1.3 -1
v 0.2 1.3 -1
v -0.3 1.3 -1.1
v -0.2 1.3 -1.1
v -0.1 1.3 -1.1
v 0.2 1.3 -1.1
v -0.2 1.4 1.4
v -0.1 1.4 1.4
v -0.2 1.4 -1.4
v -0.1 1.4 -1.4

# faces
f 5/1/1 2/1/1 1/1/1
f 6/1/1 2/1/1 5/1/1
f 7/1/1 4/1/1 3/1/1
f 8/1/1 4/1/1 7/1/1
f 13/1/1 10/1/1 9/1/1
f 14/1/1 10/1/1 13/1/1
f 15/1/1 12/1/1 11/1/1
f 16/1/1 12/1/1 15/1/1
f 21/3/1 18/3/1 17/3/1
f 22/3/1 18/3/1 21/3/1
f 23/3/1 18/3/1 22/3/1
f 24/3/1 20/3/1 19/3/1
f 25/3/1 20/3/1 24/3/1
f 26/3/1 20/3/1 25/3/1
f 27/2/1 22/2/1 21/2/1
f 28/2/1 22/2/1 27/2/1
f 29/3/1 23/3/1 22/3/1
f 29/2/1 22/2/1 28/2/1
f 29/3/1 24/3/1 23/3/1
f 29/3/1 25/3/1 24/3/1
f 30/2/1 26/2/1 25/2/1
f 30/3/1 25/3/1 29/3/1
f 31/2/1 26/2/1 30/2/1
f 32/2/1 26/2/1 31/2/1
f 33/3/1 21/3/1 17/3/1
f 33/2/1 27/2/1 21/2/1
f 34/2/1 27/2/1 33/2/1
f 35/2/1 31/2/1 30/2/1
f 35/2/1 30/2/1 29/2/1
f 35/2/1 29/2/1 28/2/1
f 36/2/1 31/2/1 35/2/1
f 37/2/1 26/2/1 32/2/1
f 38/3/1 20/3/1 26/3/1
f 38/2/1 26/2/1 37/2/1
f 39/3/1 36/3/1 35/3/1
f 39/3/1 34/3/1 33/3/1
f 39/3/1 38/3/1 37/3/1
f 39/3/1 37/3/1 36/3/1
f 39/3/1 35/3/1 34/3/1
f 39/3/1 33/3/1 17/3/1
f 40/3/1 20/3/1 38/3/1
f 40/3/1 38/3/1 39/3/1
f 45/3/1 42/3/1 41/3/1
f 46/3/1 42/3/1 45/3/1
f 47/3/1 42/3/1 46/3/1
f 48/3/1 44/3/1 43/3/1
f 49/3/1 44/3/1 48/3/1
f 50/3/1 44/3/1 49/3/1
f 51/2/1 46/2/1 45/2/1
f 52/2/1 46/2/1 51/2/1
f 53/3/1 47/3/1 46/3/1
f 53/2/1 46/2/1 52/2/1
f 53/3/1 48/3/1 47/3/1
f 53/3/1 49/3/1 48/3/1
f 54/2/1 50/2/1 49/2/1
f 54/3/1 49/3/1 53/3/1
f 55/2/1 50/2/1 54/2/1
f 56/2/1 50/2/1 55/2/1
f 57/3/1 45/3/1 41/3/1
f 57/2/1 51/2/1 45/2/1
f 58/2/1 51/2/1 57/2/1
f 59/2/1 55/2/1 54/2/1
f 59/2/1 54/2/1 53/2/1
f 59/2/1 53/2/1 52/2/1
f 60/2/1 55/2/1 59/2/1
f 61/2/1 50/2/1 56/2/1
f 62/3/1 44/3/1 50/3/1
f 62/2/1 50/2/1 61/2/1
f 63/3/1 60/3/1 59/3/1
f 63/3/1 58/3/1 57/3/1
f 63/3/1 62/3/1 61/3/1
f 63/3/1 61/3/1 60/3/1
f 63/3/1 59/3/1 58/3/1
f 63/3/1 57/3/1 41/3/1
f 64/3/1 44/3/1 62/3/1
f 64/3/1 62/3/1 63/3/1
f 65/3/2 66/3/2 69/3/2
f 69/3/2 66/3/2 70/3/2
f 70/3/2 66/3/2 71/3/2
f 67/3/2 68/3/2 72/3/2
f 72/3/2 68/3/2 73/3/2
f 73/3/2 68/3/2 74/3/2
f 69/2/2 70/2/2 75/2/2
f 75/2/2 70/2/2 76/2/2
f 70/3/2 71/3/2 77/3/2
f 76/2/2 70/2/2 77/2/2
f 71/3/2 72/3/2 77/3/2
f 72/3/2 73/3/2 77/3/2
f 73/2/2 74/2/2 78/2/2
f 77/3/2 73/3/2 78/3/2
f 78/2/2 74/2/2 79/2/2
f 79/2/2 74/2/2 80/2/2
f 65/3/2 69/3/2 81/3/2
f 69/2/2 75/2/2 81/2/2
f 81/2/2 75/2/2 82/2/2
f 78/2/2 79/2/2 83/2/2
f 77/2/2 78/2/2 83/2/2
f 76/2/2 77/2/2 83/2/2
f 83/2/2 79/2/2 84/2/2
f 80/2/2 74/2/2 85/2/2
f 74/3/2 68/3/2 86/3/2
f 85/2/2 74/2/2 86/2/2
f 83/3/2 84/3/2 87/3/2
f 81/3/2 82/3/2 87/3/2
f 85/3/2 86/3/2 87/3/2
f 84/3/2 85/3/2 87/3/2
f 82/3/2 83/3/2 87/3/2
f 65/3/2 81/3/2 87/3/2
f 86/3/2 68/3/2 88/3/2
f 87/3/2 86/3/2 88/3/2
f 89/3/2 90/3/2 93/3/2
f 93/3/2 90/3/2 94/3/2
f 94/3/2 90/3/2 95/3/2
f 91/3/2 92/3/2 96/3/2
f 96/3/2 92/3/2 97/3/2
f 97/3/2 92/3/2 98/3/2
f 93/2/2 94/2/2 99/2/2
f 99/2/2 94/2/2 100/2/2
f 94/3/2 95/3/2 101/3/2
f 100/2/2 94/2/2 101/2/2
f 95/3/2 96/3/2 101/3/2
f 96/3/2 97/3/2 101/3/2
f 97/2/2 98/2/2 102/2/2
f 101/3/2 97/3/2 102/3/2
f 102/2/2 98/2/2 103/2/2
f 103/2/2 98/2/2 104/2/2
f 89/3/2 93/3/2 105/3/2
f 93/2/2 99/2/2 105/2/2
f 105/2/2 99/2/2 106/2/2
f 102/2/2 103/2/2 107/2/2
f 101/2/2 102/2/2 107/2/2
f 100/2/2 101/2/2 107/2/2
f 107/2/2 103/2/2 108/2/2
f 104/2/2 98/2/2 109/2/2
f 98/3/2 92/3/2 110/3/2
f 109/2/2 98/2/2 110/2/2
f 107/3/2 108/3/2 111/3/2
f 105/3/2 106/3/2 111/3/2
f 109/3/2 110/3/2 111/3/2
f 108/3/2 109/3/2 111/3/2
f 106/3/2 107/3/2 111/3/2
f 89/3/2 105/3/2 111/3/2
f 110/3/2 92/3/2 112/3/2
f 111/3/2 110/3/2 112/3/2
f 113/1/2 114/1/2 117/1/2
f 117/1/2 114/1/2 118/1/2
f 115/1/2 116/1/2 119/1/2
f 119/1/2 116/1/2 120/1/2
f 121/1/2 122/1/2 125/1/2
f 125/1/2 122/1/2 126/1/2
f 123/1/2 124/1/2 127/1/2
f 127/1/2 124/1/2 128/1/2
f 133/3/3 130/3/3 129/3/3
f 134/3/3 130/3/3 133/3/3
f 135/3/3 132/3/3 131/3/3
f 136/3/3 132/3/3 135/3/3
f 141/1/3 138/1/3 137/1/3
f 142/1/3 138/1/3 141/1/3
f 143/1/3 140/1/3 139/1/3
f 144/1/3 140/1/3 143/1/3
f 149/1/3 146/1/3 145/1/3
f 150/1/3 146/1/3 149/1/3
f 151/1/3 148/1/3 147/1/3
f 152/1/3 148/1/3 151/1/3
f 157/3/3 154/3/3 153/3/3
f 158/3/3 154/3/3 157/3/3
f 159/3/3 156/3/3 155/3/3
f 160/3/3 156/3/3 159/3/3
f 165/1/3 162/1/3 161/1/3
f 166/1/3 162/1/3 165/1/3
f 167/1/3 164/1/3 163/1/3
f 168/1/3 164/1/3 167/1/3
f 173/1/3 170/1/3 169/1/3
f 174/1/3 170/1/3 173/1/3
f 175/1/3 172/1/3 171/1/3
f 176/1/3 172/1/3 175/1/3
f 177/1/4 178/1/4 181/1/4
f 181/1/4 178/1/4 182/1/4
f 179/1/4 180/1/4 183/1/4
f 183/1/4 180/1/4 184/1/4
f 185/1/4 186/1/4 189/1/4
f 189/1/4 186/1/4 190/1/4
f 187/1/4 188/1/4 191/1/4
f 191/1/4 188/1/4 192/1/4
f 193/3/4 194/3/4 197/3/4
f 197/3/4 194/3/4 198/3/4
f 195/3/4 196/3/4 199/3/4
f 199/3/4 196/3/4 200/3/4
f 201/1/4 202/1/4 205/1/4
f 205/1/4 202/1/4 206/1/4
f 203/1/4 204/1/4 207/1/4
f 207/1/4 204/1/4 208/1/4
f 209/1/4 210/1/4 213/1/4
f 213/1/4 210/1/4 214/1/4
f 211/1/4 212/1/4 215/1/4
f 215/1/4 212/1/4 216/1/4
f 217/3/4 218/3/4 221/3/4
f 221/3/4 218/3/4 222/3/4
f 219/3/4 220/3/4 223/3/4
f 223/3/4 220/3/4 224/3/4
f 227/3/5 226/3/5 225/3/5
f 228/3/5 226/3/5 227/3/5
f 231/3/5 230/3/5 229/3/5
f 232/3/5 230/3/5 231/3/5
f 235/3/5 234/3/5 233/3/5
f 236/3/5 234/3/5 235/3/5
f 241/1/5 238/1/5 237/1/5
f 242/1/5 238/1/5 241/1/5
f 243/1/5 240/1/5 239/1/5
f 244/1/5 240/1/5 243/1/5
f 249/1/5 246/1/5 245/1/5
f 250/1/5 246/1/5 249/1/5
f 251/1/5 248/1/5 247/1/5
f 252/1/5 248/1/5 251/1/5
f 255/3/5 254/3/5 253/3/5
f 256/3/5 254/3/5 255/3/5
f 259/3/5 258/3/5 257/3/5
f 260/3/5 258/3/5 259/3/5
f 263/3/5 262/3/5 261/3/5
f 264/3/5 262/3/5 263/3/5
f 269/1/5 266/1/5 265/1/5
f 270/1/5 266/1/5 269/1/5
f 271/1/5 268/1/5 267/1/5
f 272/1/5 268/1/5 271/1/5
f 277/1/5 274/1/5 273/1/5
f 278/1/5 274/1/5 277/1/5
f 279/1/5 276/1/5 275/1/5
f 280/1/5 276/1/5 279/1/5
f 281/1/6 282/1/6 285/1/6
f 285/1/6 282/1/6 286/1/6
f 283/1/6 284/1/6 287/1/6
f 287/1/6 284/1/6 288/1/6
f 289/1/6 290/1/6 293/1/6
f 293/1/6 290/1/6 294/1/6
f 291/1/6 292/1/6 295/1/6
f 295/1/6 292/1/6 296/1/6
f 297/3/6 298/3/6 299/3/6
f 299/3/6 298/3/6 300/3/6
f 301/1/6 302/1/6 305/1/6
f 305/1/6 302/1/6 306/1/6
f 303/1/6 304/1/6 307/1/6
f 307/1/6 304/1/6 308/1/6
f 309/1/6 310/1/6 313/1/6
f 313/1/6 310/1/6 314/1/6
f 311/1/6 312/1/6 315/1/6
f 315/1/6 312/1/6 316/1/6
f 317/3/6 318/3/6 319/3/6
f 319/3/6 318/3/6 320/3/6
