# MagicaVoxel @ Ephtracy

# group
o 

# material
mtllib Floors-12.mtl
usemtl palette

# normals
vn -1 0 0
vn 1 0 0
vn 0 0 1
vn 0 0 -1
vn 0 -1 0
vn 0 1 0

# texcoords
vt 0.0214844 0.5
vt 0.0253906 0.5
vt 0.0292969 0.5

# verts
v -1 0 0.8
v -1 0 -0.8
v -1 0.2 0.9
v -1 0.2 0.8
v -1 0.2 -0.8
v -1 0.2 -0.9
v -1 0.3 1
v -1 0.3 0.9
v -1 0.3 -0.9
v -1 0.3 -1
v -1 0.7 0.8
v -1 0.7 -0.8
v -1 0.9 1
v -1 0.9 -1
v -0.8 0.9 1
v -0.8 0.9 -0.9
v -0.8 1 1
v -0.8 1 -0.9
v -0.3 0 -0.5
v -0.3 0 -0.6
v -0.3 0.2 -0.5
v -0.3 0.2 -0.6
v -0.2 0.3 -0.5
v -0.2 0.3 -0.6
v -0.2 0.5 -0.5
v -0.2 0.5 -0.6
v -0.1 0.1 -0.5
v -0.1 0.1 -0.6
v -0.1 0.3 -0.5
v -0.1 0.3 -0.6
v -0.1 0.4 -0.9
v -0.1 0.4 -1
v -0.1 0.5 -0.9
v -0.1 0.5 -1
v 0.1 0.1 -0.5
v 0.1 0.1 -0.6
v 0.1 0.4 -0.5
v 0.1 0.4 -0.6
v 0.2 0.4 -0.5
v 0.2 0.4 -0.6
v 0.2 0.7 -0.5
v 0.2 0.7 -0.6
v 0.4 0 -0.5
v 0.4 0 -0.6
v 0.4 0.2 0.9
v 0.4 0.2 0.8
v 0.4 0.5 1
v 0.4 0.5 0.9
v 0.4 0.6 -0.5
v 0.4 0.6 -0.6
v 0.4 0.7 0.8
v 0.4 0.7 -0.4
v 0.4 1 1
v 0.4 1 -0.4
v 0.5 0 0.8
v 0.5 0 0.6
v 0.5 0 0.5
v 0.5 0 0.3
v 0.5 0 0.2
v 0.5 0 -0.2
v 0.5 0 -0.3
v 0.5 0 -0.5
v 0.5 0.1 0.5
v 0.5 0.1 0.4
v 0.5 0.2 0.8
v 0.5 0.2 0.6
v 0.5 0.2 0.5
v 0.5 0.2 0.2
v 0.5 0.2 0.1
v 0.5 0.2 -0.1
v 0.5 0.2 -0.2
v 0.5 0.3 0.6
v 0.5 0.3 0.5
v 0.5 0.3 0.3
v 0.5 0.3 0.2
v 0.5 0.3 0
v 0.5 0.3 -0.1
v 0.5 0.3 -0.2
v 0.5 0.3 -0.3
v 0.5 0.4 0.5
v 0.5 0.4 0.4
v 0.5 0.4 0
v 0.5 0.4 -0.1
v 0.5 0.6 0.2
v 0.5 0.6 0.1
v 0.5 0.7 0.8
v 0.5 0.7 0.6
v 0.5 0.7 0.5
v 0.5 0.7 -0.1
v 0.5 0.7 -0.2
v 0.5 0.7 -0.5
v 0.6 0 0.6
v 0.6 0 0.5
v 0.6 0 0.3
v 0.6 0 0.2
v 0.6 0 -0.2
v 0.6 0 -0.3
v 0.6 0.1 0.5
v 0.6 0.1 0.4
v 0.6 0.2 0.6
v 0.6 0.2 0.5
v 0.6 0.2 0.2
v 0.6 0.2 0.1
v 0.6 0.2 -0.1
v 0.6 0.2 -0.2
v 0.6 0.3 0.6
v 0.6 0.3 0.5
v 0.6 0.3 0.3
v 0.6 0.3 0.2
v 0.6 0.3 0
v 0.6 0.3 -0.1
v 0.6 0.3 -0.2
v 0.6 0.3 -0.3
v 0.6 0.4 0.5
v 0.6 0.4 0.4
v 0.6 0.4 0
v 0.6 0.4 -0.1
v 0.6 0.6 0.2
v 0.6 0.6 0.1
v 0.6 0.7 0.6
v 0.6 0.7 0.5
v 0.6 0.7 -0.1
v 0.6 0.7 -0.2
v -0.6 0 0.6
v -0.6 0 0.5
v -0.6 0 0.2
v -0.6 0 0.1
v -0.6 0 -0.2
v -0.6 0 -0.4
v -0.6 0.1 -0.2
v -0.6 0.1 -0.3
v -0.6 0.3 0.5
v -0.6 0.3 0.4
v -0.6 0.3 0.3
v -0.6 0.3 0.2
v -0.6 0.3 0.1
v -0.6 0.3 0
v -0.6 0.3 -0.2
v -0.6 0.3 -0.3
v -0.6 0.4 0.6
v -0.6 0.4 0.5
v -0.6 0.4 0.2
v -0.6 0.4 0.1
v -0.6 0.4 -0.3
v -0.6 0.4 -0.4
v -0.6 0.6 0.5
v -0.6 0.6 0.4
v -0.6 0.6 0.1
v -0.6 0.6 0
v -0.6 0.7 0.3
v -0.6 0.7 0.2
v -0.6 0.7 -0.2
v -0.6 0.7 -0.3
v -0.5 0 0.8
v -0.5 0 0.6
v -0.5 0 0.5
v -0.5 0 0.2
v -0.5 0 0.1
v -0.5 0 -0.2
v -0.5 0 -0.4
v -0.5 0 -0.5
v -0.5 0.1 -0.2
v -0.5 0.1 -0.3
v -0.5 0.2 0.8
v -0.5 0.3 0.5
v -0.5 0.3 0.4
v -0.5 0.3 0.3
v -0.5 0.3 0.2
v -0.5 0.3 0.1
v -0.5 0.3 0
v -0.5 0.3 -0.2
v -0.5 0.3 -0.3
v -0.5 0.4 0.6
v -0.5 0.4 0.5
v -0.5 0.4 0.2
v -0.5 0.4 0.1
v -0.5 0.4 -0.3
v -0.5 0.4 -0.4
v -0.5 0.6 0.5
v -0.5 0.6 0.4
v -0.5 0.6 0.1
v -0.5 0.6 0
v -0.5 0.7 0.8
v -0.5 0.7 0.3
v -0.5 0.7 0.2
v -0.5 0.7 -0.2
v -0.5 0.7 -0.3
v -0.5 0.7 -0.5
v -0.4 0 -0.5
v -0.4 0 -0.6
v -0.4 0.2 0.9
v -0.4 0.2 0.8
v -0.4 0.3 1
v -0.4 0.3 0.9
v -0.4 0.3 -0.9
v -0.4 0.3 -1
v -0.4 0.4 -0.5
v -0.4 0.4 -0.6
v -0.4 0.5 -0.9
v -0.4 0.5 -1
v -0.4 0.7 0.8
v -0.4 0.7 -0.4
v -0.4 1 1
v -0.4 1 -0.4
v -0.3 0.4 -0.5
v -0.3 0.4 -0.6
v -0.3 0.5 -0.5
v -0.3 0.5 -0.6
v -0.2 0.1 -0.5
v -0.2 0.1 -0.6
v -0.2 0.2 -0.5
v -0.2 0.2 -0.6
v 0 0.1 -0.5
v 0 0.1 -0.6
v 0 0.5 -0.5
v 0 0.5 -0.6
v 0.1 0.5 -0.5
v 0.1 0.5 -0.6
v 0.1 0.7 -0.5
v 0.1 0.7 -0.6
v 0.3 0 -0.5
v 0.3 0 -0.6
v 0.3 0.6 -0.5
v 0.3 0.6 -0.6
v 0.5 0.4 -0.9
v 0.5 0.4 -1
v 0.5 0.5 -0.9
v 0.5 0.5 -1
v 0.8 0.9 1
v 0.8 0.9 -0.9
v 0.8 1 1
v 0.8 1 -0.9
v 1 0 0.8
v 1 0 -0.8
v 1 0.2 0.9
v 1 0.2 0.8
v 1 0.2 -0.8
v 1 0.2 -0.9
v 1 0.5 1
v 1 0.5 0.9
v 1 0.5 -0.9
v 1 0.5 -1
v 1 0.7 0.8
v 1 0.7 -0.8
v 1 0.9 1
v 1 0.9 -1
v -1 0.3 1
v -1 0.9 1
v -0.8 0.9 1
v -0.8 1 1
v -0.4 0.3 1
v -0.4 1 1
v 0.4 0.5 1
v 0.4 1 1
v 0.8 0.9 1
v 0.8 1 1
v 1 0.5 1
v 1 0.9 1
v -1 0.2 0.9
v -1 0.3 0.9
v -0.4 0.2 0.9
v -0.4 0.3 0.9
v 0.4 0.2 0.9
v 0.4 0.5 0.9
v 1 0.2 0.9
v 1 0.5 0.9
v -1 0 0.8
v -1 0.2 0.8
v -0.5 0 0.8
v -0.5 0.2 0.8
v 0.5 0 0.8
v 0.5 0.2 0.8
v 1 0 0.8
v 1 0.2 0.8
v -0.6 0 0.5
v -0.6 0.3 0.5
v -0.5 0 0.5
v -0.5 0.3 0.5
v 0.5 0 0.5
v 0.5 0.1 0.5
v 0.5 0.4 0.5
v 0.5 0.7 0.5
v 0.6 0 0.5
v 0.6 0.1 0.5
v 0.6 0.4 0.5
v 0.6 0.7 0.5
v -0.6 0.3 0.4
v -0.6 0.6 0.4
v -0.5 0.3 0.4
v -0.5 0.6 0.4
v 0.5 0.1 0.4
v 0.5 0.4 0.4
v 0.6 0.1 0.4
v 0.6 0.4 0.4
v -0.6 0.4 0.2
v -0.6 0.7 0.2
v -0.5 0.4 0.2
v -0.5 0.7 0.2
v 0.5 0 0.2
v 0.5 0.2 0.2
v 0.6 0 0.2
v 0.6 0.2 0.2
v -0.6 0 0.1
v -0.6 0.3 0.1
v -0.5 0 0.1
v -0.5 0.3 0.1
v 0.5 0.2 0.1
v 0.5 0.6 0.1
v 0.6 0.2 0.1
v 0.6 0.6 0.1
v -0.6 0.3 0
v -0.6 0.6 0
v -0.5 0.3 0
v -0.5 0.6 0
v 0.5 0.3 -0.2
v 0.5 0.7 -0.2
v 0.6 0.3 -0.2
v 0.6 0.7 -0.2
v -0.6 0.4 -0.3
v -0.6 0.7 -0.3
v -0.5 0.4 -0.3
v -0.5 0.7 -0.3
v 0.5 0 -0.3
v 0.5 0.3 -0.3
v 0.6 0 -0.3
v 0.6 0.3 -0.3
v -0.6 0 -0.4
v -0.6 0.4 -0.4
v -0.5 0 -0.4
v -0.5 0.4 -0.4
v -0.4 0.7 -0.4
v -0.4 1 -0.4
v 0.4 0.7 -0.4
v 0.4 1 -0.4
v -0.5 0 -0.5
v -0.5 0.7 -0.5
v -0.4 0 -0.5
v -0.4 0.4 -0.5
v -0.3 0 -0.5
v -0.3 0.2 -0.5
v -0.3 0.4 -0.5
v -0.3 0.5 -0.5
v -0.2 0.1 -0.5
v -0.2 0.2 -0.5
v -0.2 0.3 -0.5
v -0.2 0.5 -0.5
v -0.1 0.1 -0.5
v -0.1 0.3 -0.5
v 0 0.1 -0.5
v 0 0.5 -0.5
v 0.1 0.1 -0.5
v 0.1 0.4 -0.5
v 0.1 0.5 -0.5
v 0.1 0.7 -0.5
v 0.2 0.4 -0.5
v 0.2 0.7 -0.5
v 0.3 0 -0.5
v 0.3 0.6 -0.5
v 0.4 0 -0.5
v 0.4 0.6 -0.5
v 0.5 0 -0.5
v 0.5 0.7 -0.5
v -0.4 0 -0.6
v -0.4 0.4 -0.6
v -0.3 0 -0.6
v -0.3 0.2 -0.6
v -0.3 0.4 -0.6
v -0.3 0.5 -0.6
v -0.2 0.1 -0.6
v -0.2 0.2 -0.6
v -0.2 0.3 -0.6
v -0.2 0.5 -0.6
v -0.1 0.1 -0.6
v -0.1 0.3 -0.6
v 0 0.1 -0.6
v 0 0.5 -0.6
v 0.1 0.1 -0.6
v 0.1 0.4 -0.6
v 0.1 0.5 -0.6
v 0.1 0.7 -0.6
v 0.2 0.4 -0.6
v 0.2 0.7 -0.6
v 0.3 0 -0.6
v 0.3 0.6 -0.6
v 0.4 0 -0.6
v 0.4 0.6 -0.6
v -0.5 0.2 0.8
v -0.5 0.7 0.8
v -0.4 0.2 0.8
v -0.4 0.7 0.8
v 0.4 0.2 0.8
v 0.4 0.7 0.8
v 0.5 0.2 0.8
v 0.5 0.7 0.8
v -0.6 0 0.6
v -0.6 0.4 0.6
v -0.5 0 0.6
v -0.5 0.4 0.6
v 0.5 0 0.6
v 0.5 0.2 0.6
v 0.5 0.3 0.6
v 0.5 0.7 0.6
v 0.6 0 0.6
v 0.6 0.2 0.6
v 0.6 0.3 0.6
v 0.6 0.7 0.6
v -0.6 0.4 0.5
v -0.6 0.6 0.5
v -0.5 0.4 0.5
v -0.5 0.6 0.5
v 0.5 0.2 0.5
v 0.5 0.3 0.5
v 0.6 0.2 0.5
v 0.6 0.3 0.5
v -0.6 0.3 0.3
v -0.6 0.7 0.3
v -0.5 0.3 0.3
v -0.5 0.7 0.3
v 0.5 0 0.3
v 0.5 0.3 0.3
v 0.6 0 0.3
v 0.6 0.3 0.3
v -0.6 0 0.2
v -0.6 0.3 0.2
v -0.5 0 0.2
v -0.5 0.3 0.2
v 0.5 0.3 0.2
v 0.5 0.6 0.2
v 0.6 0.3 0.2
v 0.6 0.6 0.2
v -0.6 0.4 0.1
v -0.6 0.6 0.1
v -0.5 0.4 0.1
v -0.5 0.6 0.1
v 0.5 0.3 0
v 0.5 0.4 0
v 0.6 0.3 0
v 0.6 0.4 0
v 0.5 0.2 -0.1
v 0.5 0.3 -0.1
v 0.5 0.4 -0.1
v 0.5 0.7 -0.1
v 0.6 0.2 -0.1
v 0.6 0.3 -0.1
v 0.6 0.4 -0.1
v 0.6 0.7 -0.1
v -0.6 0 -0.2
v -0.6 0.1 -0.2
v -0.6 0.3 -0.2
v -0.6 0.7 -0.2
v -0.5 0 -0.2
v -0.5 0.1 -0.2
v -0.5 0.3 -0.2
v -0.5 0.7 -0.2
v 0.5 0 -0.2
v 0.5 0.2 -0.2
v 0.6 0 -0.2
v 0.6 0.2 -0.2
v -0.6 0.1 -0.3
v -0.6 0.3 -0.3
v -0.5 0.1 -0.3
v -0.5 0.3 -0.3
v -1 0 -0.8
v -1 0.2 -0.8
v 1 0 -0.8
v 1 0.2 -0.8
v -1 0.2 -0.9
v -1 0.3 -0.9
v -0.8 0.9 -0.9
v -0.8 1 -0.9
v -0.4 0.3 -0.9
v -0.4 0.5 -0.9
v -0.1 0.4 -0.9
v -0.1 0.5 -0.9
v 0.5 0.4 -0.9
v 0.5 0.5 -0.9
v 0.8 0.9 -0.9
v 0.8 1 -0.9
v 1 0.2 -0.9
v 1 0.5 -0.9
v -1 0.3 -1
v -1 0.9 -1
v -0.4 0.3 -1
v -0.4 0.5 -1
v -0.1 0.4 -1
v -0.1 0.5 -1
v 0.5 0.4 -1
v 0.5 0.5 -1
v 1 0.5 -1
v 1 0.9 -1
v -1 0 0.8
v -0.5 0 0.8
v 0.5 0 0.8
v 1 0 0.8
v -0.7 0 0.6
v -0.6 0 0.6
v -0.5 0 0.6
v 0.5 0 0.6
v 0.6 0 0.6
v 0.7 0 0.6
v -0.7 0 0.5
v -0.6 0 0.5
v -0.5 0 0.5
v 0.5 0 0.5
v 0.6 0 0.5
v 0.7 0 0.5
v 0.5 0 0.3
v 0.6 0 0.3
v 0.7 0 0.3
v -0.7 0 0.2
v -0.6 0 0.2
v -0.5 0 0.2
v 0.5 0 0.2
v 0.6 0 0.2
v 0.7 0 0.2
v -0.7 0 0.1
v -0.6 0 0.1
v -0.5 0 0.1
v -0.7 0 -0.2
v -0.6 0 -0.2
v -0.5 0 -0.2
v 0.5 0 -0.2
v 0.6 0 -0.2
v 0.7 0 -0.2
v 0.5 0 -0.3
v 0.6 0 -0.3
v 0.7 0 -0.3
v -0.7 0 -0.4
v -0.6 0 -0.4
v -0.5 0 -0.4
v -0.5 0 -0.5
v -0.4 0 -0.5
v -0.3 0 -0.5
v 0.3 0 -0.5
v 0.4 0 -0.5
v 0.5 0 -0.5
v -0.4 0 -0.6
v -0.3 0 -0.6
v 0.3 0 -0.6
v 0.4 0 -0.6
v -0.4 0 -0.7
v -0.3 0 -0.7
v 0.3 0 -0.7
v 0.4 0 -0.7
v -1 0 -0.8
v 1 0 -0.8
v -0.6 0.1 -0.2
v -0.5 0.1 -0.2
v -0.6 0.1 -0.3
v -0.5 0.1 -0.3
v -1 0.2 0.9
v -0.4 0.2 0.9
v 0.4 0.2 0.9
v 1 0.2 0.9
v -1 0.2 0.8
v -0.5 0.2 0.8
v -0.4 0.2 0.8
v 0.4 0.2 0.8
v 0.5 0.2 0.8
v 1 0.2 0.8
v 0.5 0.2 0.6
v 0.6 0.2 0.6
v 0.5 0.2 0.5
v 0.6 0.2 0.5
v -1 0.2 -0.8
v 1 0.2 -0.8
v -1 0.2 -0.9
v 1 0.2 -0.9
v -1 0.3 1
v -0.4 0.3 1
v -1 0.3 0.9
v -0.4 0.3 0.9
v 0.5 0.3 0.3
v 0.6 0.3 0.3
v 0.5 0.3 0.2
v 0.6 0.3 0.2
v 0.5 0.3 -0.2
v 0.6 0.3 -0.2
v 0.5 0.3 -0.3
v 0.6 0.3 -0.3
v -0.2 0.3 -0.5
v -0.1 0.3 -0.5
v -0.2 0.3 -0.6
v -0.1 0.3 -0.6
v -1 0.3 -0.9
v -0.4 0.3 -0.9
v -1 0.3 -1
v -0.4 0.3 -1
v -0.6 0.4 0.6
v -0.5 0.4 0.6
v -0.6 0.4 0.5
v -0.5 0.4 0.5
v 0.5 0.4 0.5
v 0.6 0.4 0.5
v 0.5 0.4 0.4
v 0.6 0.4 0.4
v -0.6 0.4 0.2
v -0.5 0.4 0.2
v -0.6 0.4 0.1
v -0.5 0.4 0.1
v 0.5 0.4 0
v 0.6 0.4 0
v 0.5 0.4 -0.1
v 0.6 0.4 -0.1
v -0.6 0.4 -0.3
v -0.5 0.4 -0.3
v -0.6 0.4 -0.4
v -0.5 0.4 -0.4
v -0.4 0.4 -0.5
v -0.3 0.4 -0.5
v -0.4 0.4 -0.6
v -0.3 0.4 -0.6
v -0.1 0.4 -0.9
v 0.5 0.4 -0.9
v -0.1 0.4 -1
v 0.5 0.4 -1
v 0.4 0.5 1
v 1 0.5 1
v 0.4 0.5 0.9
v 1 0.5 0.9
v -0.3 0.5 -0.5
v -0.2 0.5 -0.5
v 0 0.5 -0.5
v 0.1 0.5 -0.5
v -0.3 0.5 -0.6
v -0.2 0.5 -0.6
v 0 0.5 -0.6
v 0.1 0.5 -0.6
v -0.4 0.5 -0.9
v -0.1 0.5 -0.9
v 0.5 0.5 -0.9
v 1 0.5 -0.9
v -0.4 0.5 -1
v -0.1 0.5 -1
v 0.5 0.5 -1
v 1 0.5 -1
v -0.6 0.6 0.5
v -0.5 0.6 0.5
v -0.6 0.6 0.4
v -0.5 0.6 0.4
v 0.5 0.6 0.2
v 0.6 0.6 0.2
v -0.6 0.6 0.1
v -0.5 0.6 0.1
v 0.5 0.6 0.1
v 0.6 0.6 0.1
v -0.6 0.6 0
v -0.5 0.6 0
v 0.3 0.6 -0.5
v 0.4 0.6 -0.5
v 0.3 0.6 -0.6
v 0.4 0.6 -0.6
v -0.5 0.7 0.8
v -0.4 0.7 0.8
v 0.4 0.7 0.8
v 0.5 0.7 0.8
v 0.5 0.7 0.6
v 0.6 0.7 0.6
v 0.5 0.7 0.5
v 0.6 0.7 0.5
v -0.6 0.7 0.3
v -0.5 0.7 0.3
v -0.6 0.7 0.2
v -0.5 0.7 0.2
v 0.5 0.7 -0.1
v 0.6 0.7 -0.1
v -0.6 0.7 -0.2
v -0.5 0.7 -0.2
v 0.5 0.7 -0.2
v 0.6 0.7 -0.2
v -0.6 0.7 -0.3
v -0.5 0.7 -0.3
v -0.4 0.7 -0.4
v 0.4 0.7 -0.4
v -0.5 0.7 -0.5
v 0.1 0.7 -0.5
v 0.2 0.7 -0.5
v 0.5 0.7 -0.5
v 0.1 0.7 -0.6
v 0.2 0.7 -0.6
v 0.5 0.1 0.5
v 0.6 0.1 0.5
v 0.5 0.1 0.4
v 0.6 0.1 0.4
v -0.2 0.1 -0.5
v -0.1 0.1 -0.5
v 0 0.1 -0.5
v 0.1 0.1 -0.5
v -0.2 0.1 -0.6
v -0.1 0.1 -0.6
v 0 0.1 -0.6
v 0.1 0.1 -0.6
v 0.5 0.2 0.2
v 0.6 0.2 0.2
v 0.5 0.2 0.1
v 0.6 0.2 0.1
v 0.5 0.2 -0.1
v 0.6 0.2 -0.1
v 0.5 0.2 -0.2
v 0.6 0.2 -0.2
v -0.3 0.2 -0.5
v -0.2 0.2 -0.5
v -0.3 0.2 -0.6
v -0.2 0.2 -0.6
v 0.5 0.3 0.6
v 0.6 0.3 0.6
v -0.6 0.3 0.5
v -0.5 0.3 0.5
v 0.5 0.3 0.5
v 0.6 0.3 0.5
v -0.6 0.3 0.4
v -0.5 0.3 0.4
v -0.6 0.3 0.3
v -0.5 0.3 0.3
v -0.6 0.3 0.2
v -0.5 0.3 0.2
v -0.6 0.3 0.1
v -0.5 0.3 0.1
v -0.6 0.3 0
v -0.5 0.3 0
v 0.5 0.3 0
v 0.6 0.3 0
v 0.5 0.3 -0.1
v 0.6 0.3 -0.1
v -0.6 0.3 -0.2
v -0.5 0.3 -0.2
v -0.6 0.3 -0.3
v -0.5 0.3 -0.3
v 0.1 0.4 -0.5
v 0.2 0.4 -0.5
v 0.1 0.4 -0.6
v 0.2 0.4 -0.6
v -1 0.9 1
v -0.8 0.9 1
v 0.8 0.9 1
v 1 0.9 1
v -0.8 0.9 -0.9
v 0.8 0.9 -0.9
v -1 0.9 -1
v 1 0.9 -1
v -0.8 1 1
v -0.4 1 1
v 0.4 1 1
v 0.8 1 1
v -0.4 1 -0.4
v 0.4 1 -0.4
v -0.8 1 -0.9
v 0.8 1 -0.9

# faces
f 4/2/1 2/2/1 1/2/1
f 5/2/1 2/2/1 4/2/1
f 8/3/1 4/3/1 3/3/1
f 9/3/1 6/3/1 5/3/1
f 11/3/1 8/3/1 7/3/1
f 11/2/1 5/2/1 4/2/1
f 11/3/1 4/3/1 8/3/1
f 12/3/1 10/3/1 9/3/1
f 12/2/1 5/2/1 11/2/1
f 12/3/1 9/3/1 5/3/1
f 13/3/1 11/3/1 7/3/1
f 13/3/1 12/3/1 11/3/1
f 14/3/1 10/3/1 12/3/1
f 14/3/1 12/3/1 13/3/1
f 17/3/1 16/3/1 15/3/1
f 18/3/1 16/3/1 17/3/1
f 21/2/1 20/2/1 19/2/1
f 22/2/1 20/2/1 21/2/1
f 25/2/1 24/2/1 23/2/1
f 26/2/1 24/2/1 25/2/1
f 29/2/1 28/2/1 27/2/1
f 30/2/1 28/2/1 29/2/1
f 33/3/1 32/3/1 31/3/1
f 34/3/1 32/3/1 33/3/1
f 37/2/1 36/2/1 35/2/1
f 38/2/1 36/2/1 37/2/1
f 41/2/1 40/2/1 39/2/1
f 42/2/1 40/2/1 41/2/1
f 48/3/1 46/3/1 45/3/1
f 49/2/1 44/2/1 43/2/1
f 50/2/1 44/2/1 49/2/1
f 51/3/1 48/3/1 47/3/1
f 51/3/1 46/3/1 48/3/1
f 53/3/1 51/3/1 47/3/1
f 53/3/1 52/3/1 51/3/1
f 54/3/1 52/3/1 53/3/1
f 63/2/1 58/2/1 57/2/1
f 64/2/1 58/2/1 63/2/1
f 65/2/1 56/2/1 55/2/1
f 66/2/1 56/2/1 65/2/1
f 68/2/1 60/2/1 59/2/1
f 69/2/1 60/2/1 68/2/1
f 70/2/1 60/2/1 69/2/1
f 71/2/1 60/2/1 70/2/1
f 72/2/1 67/2/1 66/2/1
f 72/2/1 66/2/1 65/2/1
f 73/2/1 67/2/1 72/2/1
f 74/2/1 58/2/1 64/2/1
f 76/2/1 70/2/1 69/2/1
f 77/2/1 70/2/1 76/2/1
f 79/2/1 62/2/1 61/2/1
f 81/2/1 75/2/1 74/2/1
f 81/2/1 74/2/1 64/2/1
f 82/2/1 76/2/1 69/2/1
f 84/2/1 81/2/1 80/2/1
f 84/2/1 75/2/1 81/2/1
f 85/2/1 83/2/1 82/2/1
f 85/2/1 82/2/1 69/2/1
f 86/2/1 72/2/1 65/2/1
f 87/2/1 72/2/1 86/2/1
f 88/2/1 84/2/1 80/2/1
f 88/2/1 85/2/1 84/2/1
f 89/2/1 83/2/1 85/2/1
f 89/2/1 85/2/1 88/2/1
f 90/2/1 79/2/1 78/2/1
f 91/2/1 62/2/1 79/2/1
f 91/2/1 79/2/1 90/2/1
f 98/1/1 93/1/1 92/1/1
f 100/1/1 98/1/1 92/1/1
f 100/1/1 99/1/1 98/1/1
f 101/1/1 99/1/1 100/1/1
f 102/1/1 95/1/1 94/1/1
f 105/1/1 97/1/1 96/1/1
f 107/1/1 99/1/1 101/1/1
f 108/1/1 103/1/1 102/1/1
f 108/1/1 102/1/1 94/1/1
f 109/1/1 103/1/1 108/1/1
f 111/1/1 105/1/1 104/1/1
f 112/1/1 97/1/1 105/1/1
f 112/1/1 105/1/1 111/1/1
f 113/1/1 97/1/1 112/1/1
f 114/1/1 107/1/1 106/1/1
f 114/1/1 99/1/1 107/1/1
f 115/1/1 99/1/1 114/1/1
f 116/1/1 111/1/1 110/1/1
f 116/1/1 112/1/1 111/1/1
f 117/1/1 112/1/1 116/1/1
f 118/1/1 103/1/1 109/1/1
f 119/1/1 103/1/1 118/1/1
f 120/1/1 114/1/1 106/1/1
f 121/1/1 114/1/1 120/1/1
f 122/1/1 112/1/1 117/1/1
f 123/1/1 112/1/1 122/1/1
f 128/1/2 129/1/2 130/1/2
f 130/1/2 129/1/2 131/1/2
f 124/1/2 125/1/2 132/1/2
f 126/1/2 127/1/2 135/1/2
f 135/1/2 127/1/2 136/1/2
f 131/1/2 129/1/2 139/1/2
f 132/1/2 133/1/2 140/1/2
f 124/1/2 132/1/2 140/1/2
f 140/1/2 133/1/2 141/1/2
f 136/1/2 137/1/2 142/1/2
f 134/1/2 135/1/2 142/1/2
f 135/1/2 136/1/2 142/1/2
f 142/1/2 137/1/2 143/1/2
f 138/1/2 139/1/2 144/1/2
f 139/1/2 129/1/2 144/1/2
f 144/1/2 129/1/2 145/1/2
f 141/1/2 133/1/2 146/1/2
f 146/1/2 133/1/2 147/1/2
f 143/1/2 137/1/2 148/1/2
f 148/1/2 137/1/2 149/1/2
f 134/1/2 142/1/2 150/1/2
f 150/1/2 142/1/2 151/1/2
f 138/1/2 144/1/2 152/1/2
f 152/1/2 144/1/2 153/1/2
f 158/2/2 159/2/2 162/2/2
f 154/2/2 155/2/2 164/2/2
f 156/2/2 157/2/2 165/2/2
f 165/2/2 157/2/2 166/2/2
f 166/2/2 157/2/2 167/2/2
f 167/2/2 157/2/2 168/2/2
f 162/2/2 163/2/2 169/2/2
f 158/2/2 162/2/2 169/2/2
f 169/2/2 163/2/2 170/2/2
f 170/2/2 163/2/2 171/2/2
f 171/2/2 163/2/2 172/2/2
f 164/2/2 155/2/2 173/2/2
f 160/2/2 161/2/2 178/2/2
f 173/2/2 174/2/2 179/2/2
f 166/2/2 167/2/2 180/2/2
f 175/2/2 176/2/2 181/2/2
f 170/2/2 171/2/2 182/2/2
f 179/2/2 180/2/2 183/2/2
f 173/2/2 179/2/2 183/2/2
f 164/2/2 173/2/2 183/2/2
f 180/2/2 167/2/2 184/2/2
f 183/2/2 180/2/2 184/2/2
f 181/2/2 182/2/2 185/2/2
f 175/2/2 181/2/2 185/2/2
f 182/2/2 171/2/2 186/2/2
f 185/2/2 182/2/2 186/2/2
f 177/2/2 178/2/2 187/2/2
f 178/2/2 161/2/2 188/2/2
f 187/2/2 178/2/2 188/2/2
f 191/3/2 192/3/2 194/3/2
f 189/2/2 190/2/2 197/2/2
f 197/2/2 190/2/2 198/2/2
f 195/3/2 196/3/2 199/3/2
f 199/3/2 196/3/2 200/3/2
f 194/3/2 192/3/2 201/3/2
f 193/3/2 194/3/2 201/3/2
f 193/3/2 201/3/2 203/3/2
f 201/3/2 202/3/2 203/3/2
f 203/3/2 202/3/2 204/3/2
f 205/2/2 206/2/2 207/2/2
f 207/2/2 206/2/2 208/2/2
f 209/2/2 210/2/2 211/2/2
f 211/2/2 210/2/2 212/2/2
f 213/2/2 214/2/2 215/2/2
f 215/2/2 214/2/2 216/2/2
f 217/2/2 218/2/2 219/2/2
f 219/2/2 218/2/2 220/2/2
f 221/2/2 222/2/2 223/2/2
f 223/2/2 222/2/2 224/2/2
f 225/3/2 226/3/2 227/3/2
f 227/3/2 226/3/2 228/3/2
f 229/3/2 230/3/2 231/3/2
f 231/3/2 230/3/2 232/3/2
f 233/2/2 234/2/2 236/2/2
f 236/2/2 234/2/2 237/2/2
f 235/3/2 236/3/2 240/3/2
f 237/3/2 238/3/2 241/3/2
f 239/3/2 240/3/2 243/3/2
f 236/2/2 237/2/2 243/2/2
f 240/3/2 236/3/2 243/3/2
f 241/3/2 242/3/2 244/3/2
f 243/2/2 237/2/2 244/2/2
f 237/3/2 241/3/2 244/3/2
f 239/3/2 243/3/2 245/3/2
f 243/3/2 244/3/2 245/3/2
f 244/3/2 242/3/2 246/3/2
f 245/3/2 244/3/2 246/3/2
f 249/3/3 248/3/3 247/3/3
f 251/3/3 249/3/3 247/3/3
f 251/3/3 250/3/3 249/3/3
f 252/3/3 250/3/3 251/3/3
f 255/3/3 254/3/3 253/3/3
f 256/3/3 254/3/3 255/3/3
f 257/3/3 255/3/3 253/3/3
f 258/3/3 255/3/3 257/3/3
f 261/3/3 260/3/3 259/3/3
f 262/3/3 260/3/3 261/3/3
f 265/3/3 264/3/3 263/3/3
f 266/3/3 264/3/3 265/3/3
f 269/2/3 268/2/3 267/2/3
f 270/2/3 268/2/3 269/2/3
f 273/2/3 272/2/3 271/2/3
f 274/2/3 272/2/3 273/2/3
f 277/2/3 276/2/3 275/2/3
f 278/2/3 276/2/3 277/2/3
f 283/2/3 280/2/3 279/2/3
f 284/2/3 280/2/3 283/2/3
f 285/2/3 282/2/3 281/2/3
f 286/2/3 282/2/3 285/2/3
f 289/2/3 288/2/3 287/2/3
f 290/2/3 288/2/3 289/2/3
f 293/2/3 292/2/3 291/2/3
f 294/2/3 292/2/3 293/2/3
f 297/2/3 296/2/3 295/2/3
f 298/2/3 296/2/3 297/2/3
f 301/2/3 300/2/3 299/2/3
f 302/2/3 300/2/3 301/2/3
f 305/2/3 304/2/3 303/2/3
f 306/2/3 304/2/3 305/2/3
f 309/2/3 308/2/3 307/2/3
f 310/2/3 308/2/3 309/2/3
f 313/2/3 312/2/3 311/2/3
f 314/2/3 312/2/3 313/2/3
f 317/2/3 316/2/3 315/2/3
f 318/2/3 316/2/3 317/2/3
f 321/2/3 320/2/3 319/2/3
f 322/2/3 320/2/3 321/2/3
f 325/2/3 324/2/3 323/2/3
f 326/2/3 324/2/3 325/2/3
f 329/2/3 328/2/3 327/2/3
f 330/2/3 328/2/3 329/2/3
f 333/3/3 332/3/3 331/3/3
f 334/3/3 332/3/3 333/3/3
f 337/2/3 336/2/3 335/2/3
f 338/2/3 336/2/3 337/2/3
f 341/2/3 336/2/3 338/2/3
f 342/2/3 336/2/3 341/2/3
f 343/2/3 340/2/3 339/2/3
f 344/2/3 340/2/3 343/2/3
f 346/2/3 336/2/3 342/2/3
f 347/2/3 343/2/3 339/2/3
f 348/2/3 346/2/3 345/2/3
f 349/2/3 347/2/3 339/2/3
f 349/2/3 348/2/3 347/2/3
f 350/2/3 346/2/3 348/2/3
f 350/2/3 348/2/3 349/2/3
f 350/2/3 336/2/3 346/2/3
f 351/2/3 349/2/3 339/2/3
f 353/2/3 336/2/3 350/2/3
f 354/2/3 336/2/3 353/2/3
f 355/2/3 352/2/3 351/2/3
f 357/2/3 351/2/3 339/2/3
f 357/2/3 356/2/3 355/2/3
f 357/2/3 355/2/3 351/2/3
f 358/2/3 356/2/3 357/2/3
f 360/2/3 356/2/3 358/2/3
f 361/2/3 360/2/3 359/2/3
f 362/2/3 356/2/3 360/2/3
f 362/2/3 360/2/3 361/2/3
f 365/1/3 364/1/3 363/1/3
f 366/1/3 364/1/3 365/1/3
f 367/1/3 364/1/3 366/1/3
f 370/1/3 368/1/3 367/1/3
f 370/1/3 367/1/3 366/1/3
f 371/1/3 368/1/3 370/1/3
f 372/1/3 368/1/3 371/1/3
f 373/1/3 370/1/3 369/1/3
f 373/1/3 371/1/3 370/1/3
f 374/1/3 371/1/3 373/1/3
f 377/1/3 376/1/3 375/1/3
f 378/1/3 376/1/3 377/1/3
f 379/1/3 376/1/3 378/1/3
f 381/1/3 379/1/3 378/1/3
f 381/1/3 380/1/3 379/1/3
f 382/1/3 380/1/3 381/1/3
f 385/1/3 384/1/3 383/1/3
f 386/1/3 384/1/3 385/1/3
f 387/3/4 388/3/4 389/3/4
f 389/3/4 388/3/4 390/3/4
f 391/3/4 392/3/4 393/3/4
f 393/3/4 392/3/4 394/3/4
f 395/2/4 396/2/4 397/2/4
f 397/2/4 396/2/4 398/2/4
f 399/2/4 400/2/4 403/2/4
f 403/2/4 400/2/4 404/2/4
f 401/2/4 402/2/4 405/2/4
f 405/2/4 402/2/4 406/2/4
f 407/2/4 408/2/4 409/2/4
f 409/2/4 408/2/4 410/2/4
f 411/2/4 412/2/4 413/2/4
f 413/2/4 412/2/4 414/2/4
f 415/2/4 416/2/4 417/2/4
f 417/2/4 416/2/4 418/2/4
f 419/2/4 420/2/4 421/2/4
f 421/2/4 420/2/4 422/2/4
f 423/2/4 424/2/4 425/2/4
f 425/2/4 424/2/4 426/2/4
f 427/2/4 428/2/4 429/2/4
f 429/2/4 428/2/4 430/2/4
f 431/2/4 432/2/4 433/2/4
f 433/2/4 432/2/4 434/2/4
f 435/2/4 436/2/4 437/2/4
f 437/2/4 436/2/4 438/2/4
f 439/2/4 440/2/4 443/2/4
f 443/2/4 440/2/4 444/2/4
f 441/2/4 442/2/4 445/2/4
f 445/2/4 442/2/4 446/2/4
f 447/2/4 448/2/4 451/2/4
f 451/2/4 448/2/4 452/2/4
f 449/2/4 450/2/4 453/2/4
f 453/2/4 450/2/4 454/2/4
f 455/2/4 456/2/4 457/2/4
f 457/2/4 456/2/4 458/2/4
f 459/2/4 460/2/4 461/2/4
f 461/2/4 460/2/4 462/2/4
f 463/2/4 464/2/4 465/2/4
f 465/2/4 464/2/4 466/2/4
f 467/3/4 468/3/4 471/3/4
f 471/3/4 472/3/4 473/3/4
f 473/3/4 472/3/4 474/3/4
f 471/3/4 473/3/4 475/3/4
f 469/3/4 470/3/4 477/3/4
f 477/3/4 470/3/4 478/3/4
f 475/3/4 476/3/4 479/3/4
f 467/3/4 471/3/4 479/3/4
f 471/3/4 475/3/4 479/3/4
f 479/3/4 476/3/4 480/3/4
f 481/3/4 482/3/4 483/3/4
f 483/3/4 482/3/4 484/3/4
f 484/3/4 482/3/4 486/3/4
f 485/3/4 486/3/4 487/3/4
f 486/3/4 482/3/4 488/3/4
f 487/3/4 486/3/4 488/3/4
f 488/3/4 482/3/4 489/3/4
f 489/3/4 482/3/4 490/3/4
f 495/2/5 492/2/5 491/2/5
f 496/2/5 492/2/5 495/2/5
f 497/2/5 492/2/5 496/2/5
f 498/2/5 494/2/5 493/2/5
f 499/2/5 494/2/5 498/2/5
f 500/2/5 494/2/5 499/2/5
f 501/2/5 495/2/5 491/2/5
f 501/1/5 496/1/5 495/1/5
f 502/1/5 496/1/5 501/1/5
f 505/1/5 500/1/5 499/1/5
f 506/2/5 494/2/5 500/2/5
f 506/1/5 500/1/5 505/1/5
f 507/2/5 505/2/5 504/2/5
f 507/2/5 506/2/5 505/2/5
f 508/2/5 506/2/5 507/2/5
f 509/2/5 494/2/5 506/2/5
f 509/2/5 506/2/5 508/2/5
f 510/2/5 503/2/5 502/2/5
f 510/2/5 501/2/5 491/2/5
f 510/2/5 502/2/5 501/2/5
f 511/2/5 503/2/5 510/2/5
f 512/2/5 503/2/5 511/2/5
f 514/1/5 509/1/5 508/1/5
f 515/2/5 494/2/5 509/2/5
f 515/1/5 509/1/5 514/1/5
f 516/2/5 510/2/5 491/2/5
f 516/1/5 511/1/5 510/1/5
f 517/1/5 511/1/5 516/1/5
f 519/2/5 516/2/5 491/2/5
f 519/2/5 518/2/5 517/2/5
f 519/2/5 517/2/5 516/2/5
f 520/2/5 518/2/5 519/2/5
f 521/2/5 518/2/5 520/2/5
f 522/2/5 514/2/5 513/2/5
f 522/2/5 515/2/5 514/2/5
f 523/2/5 515/2/5 522/2/5
f 524/2/5 494/2/5 515/2/5
f 524/2/5 515/2/5 523/2/5
f 526/1/5 524/1/5 523/1/5
f 527/2/5 494/2/5 524/2/5
f 527/1/5 524/1/5 526/1/5
f 528/1/5 520/1/5 519/1/5
f 528/2/5 519/2/5 491/2/5
f 529/1/5 520/1/5 528/1/5
f 531/2/5 529/2/5 528/2/5
f 531/2/5 530/2/5 529/2/5
f 536/2/5 526/2/5 525/2/5
f 536/2/5 527/2/5 526/2/5
f 537/2/5 532/2/5 531/2/5
f 538/2/5 534/2/5 533/2/5
f 539/2/5 534/2/5 538/2/5
f 540/2/5 536/2/5 535/2/5
f 541/2/5 537/2/5 531/2/5
f 541/1/5 538/1/5 537/1/5
f 542/2/5 539/2/5 538/2/5
f 542/1/5 538/1/5 541/1/5
f 543/1/5 540/1/5 539/1/5
f 543/2/5 539/2/5 542/2/5
f 544/2/5 536/2/5 540/2/5
f 544/1/5 540/1/5 543/1/5
f 545/2/5 542/2/5 541/2/5
f 545/2/5 541/2/5 531/2/5
f 545/2/5 544/2/5 543/2/5
f 545/2/5 528/2/5 491/2/5
f 545/2/5 543/2/5 542/2/5
f 545/2/5 531/2/5 528/2/5
f 546/2/5 536/2/5 544/2/5
f 546/2/5 544/2/5 545/2/5
f 546/2/5 494/2/5 527/2/5
f 546/2/5 527/2/5 536/2/5
f 549/2/5 548/2/5 547/2/5
f 550/2/5 548/2/5 549/2/5
f 555/3/5 552/3/5 551/3/5
f 556/3/5 552/3/5 555/3/5
f 557/3/5 552/3/5 556/3/5
f 558/3/5 554/3/5 553/3/5
f 559/3/5 554/3/5 558/3/5
f 560/3/5 554/3/5 559/3/5
f 563/2/5 562/2/5 561/2/5
f 564/2/5 562/2/5 563/2/5
f 567/3/5 566/3/5 565/3/5
f 568/3/5 566/3/5 567/3/5
f 571/3/5 570/3/5 569/3/5
f 572/3/5 570/3/5 571/3/5
f 575/2/5 574/2/5 573/2/5
f 576/2/5 574/2/5 575/2/5
f 579/2/5 578/2/5 577/2/5
f 580/2/5 578/2/5 579/2/5
f 583/2/5 582/2/5 581/2/5
f 584/2/5 582/2/5 583/2/5
f 587/3/5 586/3/5 585/3/5
f 588/3/5 586/3/5 587/3/5
f 591/2/5 590/2/5 589/2/5
f 592/2/5 590/2/5 591/2/5
f 595/2/5 594/2/5 593/2/5
f 596/2/5 594/2/5 595/2/5
f 599/2/5 598/2/5 597/2/5
f 600/2/5 598/2/5 599/2/5
f 603/2/5 602/2/5 601/2/5
f 604/2/5 602/2/5 603/2/5
f 607/2/5 606/2/5 605/2/5
f 608/2/5 606/2/5 607/2/5
f 611/2/5 610/2/5 609/2/5
f 612/2/5 610/2/5 611/2/5
f 615/3/5 614/3/5 613/3/5
f 616/3/5 614/3/5 615/3/5
f 619/3/5 618/3/5 617/3/5
f 620/3/5 618/3/5 619/3/5
f 625/2/5 622/2/5 621/2/5
f 626/2/5 622/2/5 625/2/5
f 627/2/5 624/2/5 623/2/5
f 628/2/5 624/2/5 627/2/5
f 633/3/5 630/3/5 629/3/5
f 634/3/5 630/3/5 633/3/5
f 635/3/5 632/3/5 631/3/5
f 636/3/5 632/3/5 635/3/5
f 639/2/5 638/2/5 637/2/5
f 640/2/5 638/2/5 639/2/5
f 645/2/5 642/2/5 641/2/5
f 646/2/5 642/2/5 645/2/5
f 647/2/5 644/2/5 643/2/5
f 648/2/5 644/2/5 647/2/5
f 651/2/5 650/2/5 649/2/5
f 652/2/5 650/2/5 651/2/5
f 657/3/5 656/3/5 655/3/5
f 659/3/5 657/3/5 655/3/5
f 659/3/5 658/3/5 657/3/5
f 660/3/5 658/3/5 659/3/5
f 662/3/5 654/3/5 653/3/5
f 663/3/5 662/3/5 661/3/5
f 664/3/5 654/3/5 662/3/5
f 664/3/5 662/3/5 663/3/5
f 665/3/5 659/3/5 655/3/5
f 668/3/5 654/3/5 664/3/5
f 669/3/5 666/3/5 665/3/5
f 669/3/5 665/3/5 655/3/5
f 670/3/5 666/3/5 669/3/5
f 671/3/5 668/3/5 667/3/5
f 672/3/5 654/3/5 668/3/5
f 672/3/5 668/3/5 671/3/5
f 673/3/5 654/3/5 672/3/5
f 674/3/5 669/3/5 655/3/5
f 675/3/5 673/3/5 672/3/5
f 675/3/5 674/3/5 673/3/5
f 676/3/5 674/3/5 675/3/5
f 677/3/5 674/3/5 676/3/5
f 678/3/5 669/3/5 674/3/5
f 678/3/5 674/3/5 677/3/5
f 679/3/5 677/3/5 676/3/5
f 680/3/5 677/3/5 679/3/5
f 681/2/6 682/2/6 683/2/6
f 683/2/6 682/2/6 684/2/6
f 685/2/6 686/2/6 689/2/6
f 689/2/6 686/2/6 690/2/6
f 687/2/6 688/2/6 691/2/6
f 691/2/6 688/2/6 692/2/6
f 693/2/6 694/2/6 695/2/6
f 695/2/6 694/2/6 696/2/6
f 697/2/6 698/2/6 699/2/6
f 699/2/6 698/2/6 700/2/6
f 701/2/6 702/2/6 703/2/6
f 703/2/6 702/2/6 704/2/6
f 705/2/6 706/2/6 709/2/6
f 709/2/6 706/2/6 710/2/6
f 707/2/6 708/2/6 711/2/6
f 711/2/6 708/2/6 712/2/6
f 713/2/6 714/2/6 715/2/6
f 715/2/6 714/2/6 716/2/6
f 717/2/6 718/2/6 719/2/6
f 719/2/6 718/2/6 720/2/6
f 721/2/6 722/2/6 723/2/6
f 723/2/6 722/2/6 724/2/6
f 725/2/6 726/2/6 727/2/6
f 727/2/6 726/2/6 728/2/6
f 729/2/6 730/2/6 731/2/6
f 731/2/6 730/2/6 732/2/6
f 733/3/6 734/3/6 737/3/6
f 735/3/6 736/3/6 738/3/6
f 733/3/6 737/3/6 739/3/6
f 737/3/6 738/3/6 739/3/6
f 738/3/6 736/3/6 740/3/6
f 739/3/6 738/3/6 740/3/6
f 741/3/6 742/3/6 745/3/6
f 743/3/6 744/3/6 746/3/6
f 741/3/6 745/3/6 747/3/6
f 745/3/6 746/3/6 747/3/6
f 746/3/6 744/3/6 748/3/6
f 747/3/6 746/3/6 748/3/6
