# MagicaVoxel @ Ephtracy

# group
o 

# material
mtllib Floors-18.mtl
usemtl palette

# normals
vn -1 0 0
vn 1 0 0
vn 0 0 1
vn 0 0 -1
vn 0 -1 0
vn 0 1 0

# texcoords
vt 0.0253906 0.5
vt 0.0292969 0.5

# verts
v -1 0 0.8
v -1 0 -0.8
v -1 0.2 0.9
v -1 0.2 0.8
v -1 0.2 -0.8
v -1 0.2 -0.9
v -1 0.4 1
v -1 0.4 0.9
v -1 0.4 0.8
v -1 0.4 -0.8
v -1 0.4 -0.9
v -1 0.4 -1
v -1 0.5 1
v -1 0.5 0.9
v -1 0.5 -0.9
v -1 0.5 -1
v -1 0.6 0.9
v -1 0.6 -0.9
v -0.7 0.5 1
v -0.7 0.5 0.9
v -0.7 0.5 -0.9
v -0.7 0.5 -1
v -0.7 0.6 1
v -0.7 0.6 0.9
v -0.7 0.6 -0.9
v -0.7 0.6 -1
v -0.7 0.7 0.9
v -0.7 0.7 -0.9
v -0.5 0.6 1
v -0.5 0.6 0.9
v -0.5 0.6 -0.9
v -0.5 0.6 -1
v -0.5 0.7 1
v -0.5 0.7 0.9
v -0.5 0.7 -0.9
v -0.5 0.7 -1
v -0.5 0.8 0.9
v -0.5 0.8 -0.9
v -0.3 0.7 1
v -0.3 0.7 0.9
v -0.3 0.7 -0.9
v -0.3 0.7 -1
v -0.3 0.8 1
v -0.3 0.8 0.9
v -0.3 0.8 -0.9
v -0.3 0.8 -1
v -0.3 0.9 0.9
v -0.3 0.9 -0.9
v -0.1 0.8 1
v -0.1 0.8 0.9
v -0.1 0.8 -0.9
v -0.1 0.8 -1
v -0.1 0.9 1
v -0.1 0.9 0.9
v -0.1 0.9 -0.9
v -0.1 0.9 -1
v -0.1 1 0.9
v -0.1 1 -0.9
v 0.1 0.9 1
v 0.1 0.9 0.9
v 0.1 0.9 -0.9
v 0.1 0.9 -1
v 0.1 1 1
v 0.1 1 0.9
v 0.1 1 -0.9
v 0.1 1 -1
v 0.1 1.1 0.9
v 0.1 1.1 -0.9
v 0.2 0.4 1
v 0.2 0.4 0.9
v 0.2 0.4 -0.9
v 0.2 0.4 -1
v 0.2 0.5 1
v 0.2 0.5 0.9
v 0.2 0.5 -0.9
v 0.2 0.5 -1
v 0.3 1 1
v 0.3 1 0.9
v 0.3 1 -0.9
v 0.3 1 -1
v 0.3 1.1 1
v 0.3 1.1 0.9
v 0.3 1.1 -0.9
v 0.3 1.1 -1
v 0.3 1.2 0.9
v 0.3 1.2 -0.9
v 0.5 1.1 1
v 0.5 1.1 0.9
v 0.5 1.1 -0.9
v 0.5 1.1 -1
v 0.5 1.2 1
v 0.5 1.2 0.9
v 0.5 1.2 -0.9
v 0.5 1.2 -1
v 0.5 1.3 0.9
v 0.5 1.3 -0.9
v 0.7 1.2 1
v 0.7 1.2 0.9
v 0.7 1.2 -0.9
v 0.7 1.2 -1
v 0.7 1.3 1
v 0.7 1.3 0.9
v 0.7 1.3 -0.9
v 0.7 1.3 -1
v 0.7 1.4 0.9
v 0.7 1.4 -0.9
v -0.3 0.4 1
v -0.3 0.4 0.9
v -0.3 0.4 -0.9
v -0.3 0.4 -1
v -0.3 0.5 1
v -0.3 0.5 0.9
v -0.3 0.5 -0.9
v -0.3 0.5 -1
v 0.6 0.4 1
v 0.6 0.4 0.9
v 0.6 0.4 -0.9
v 0.6 0.4 -1
v 0.6 0.6 1
v 0.6 0.6 0.9
v 0.6 0.6 -0.9
v 0.6 0.6 -1
v 1 0 0.8
v 1 0 -0.8
v 1 0.2 0.9
v 1 0.2 0.8
v 1 0.2 -0.8
v 1 0.2 -0.9
v 1 0.6 1
v 1 0.6 0.9
v 1 0.6 -0.9
v 1 0.6 -1
v 1 1.2 0.8
v 1 1.2 -0.8
v 1 1.3 1
v 1 1.3 0.9
v 1 1.3 -0.9
v 1 1.3 -1
v 1 1.4 0.9
v 1 1.4 -0.9
v -1 0.4 1
v -1 0.5 1
v -0.7 0.5 1
v -0.7 0.6 1
v -0.5 0.6 1
v -0.5 0.7 1
v -0.3 0.4 1
v -0.3 0.5 1
v -0.3 0.7 1
v -0.3 0.8 1
v -0.1 0.8 1
v -0.1 0.9 1
v 0.1 0.9 1
v 0.1 1 1
v 0.2 0.4 1
v 0.2 0.5 1
v 0.3 1 1
v 0.3 1.1 1
v 0.5 1.1 1
v 0.5 1.2 1
v 0.6 0.4 1
v 0.6 0.6 1
v 0.7 1.2 1
v 0.7 1.3 1
v 1 0.6 1
v 1 1.3 1
v -1 0.2 0.9
v -1 0.4 0.9
v -1 0.5 0.9
v -1 0.6 0.9
v -0.7 0.5 0.9
v -0.7 0.6 0.9
v -0.7 0.7 0.9
v -0.5 0.6 0.9
v -0.5 0.7 0.9
v -0.5 0.8 0.9
v -0.3 0.4 0.9
v -0.3 0.5 0.9
v -0.3 0.7 0.9
v -0.3 0.8 0.9
v -0.3 0.9 0.9
v -0.1 0.8 0.9
v -0.1 0.9 0.9
v -0.1 1 0.9
v 0.1 0.9 0.9
v 0.1 1 0.9
v 0.1 1.1 0.9
v 0.2 0.4 0.9
v 0.2 0.5 0.9
v 0.3 1 0.9
v 0.3 1.1 0.9
v 0.3 1.2 0.9
v 0.5 1.1 0.9
v 0.5 1.2 0.9
v 0.5 1.3 0.9
v 0.6 0.4 0.9
v 0.6 0.6 0.9
v 0.7 1.2 0.9
v 0.7 1.3 0.9
v 0.7 1.4 0.9
v 1 0.2 0.9
v 1 0.6 0.9
v 1 1.3 0.9
v 1 1.4 0.9
v -1 0 0.8
v -1 0.2 0.8
v 1 0 0.8
v 1 0.2 0.8
v -1 0 -0.8
v -1 0.2 -0.8
v 1 0 -0.8
v 1 0.2 -0.8
v -1 0.2 -0.9
v -1 0.4 -0.9
v -1 0.5 -0.9
v -1 0.6 -0.9
v -0.7 0.5 -0.9
v -0.7 0.6 -0.9
v -0.7 0.7 -0.9
v -0.5 0.6 -0.9
v -0.5 0.7 -0.9
v -0.5 0.8 -0.9
v -0.3 0.4 -0.9
v -0.3 0.5 -0.9
v -0.3 0.7 -0.9
v -0.3 0.8 -0.9
v -0.3 0.9 -0.9
v -0.1 0.8 -0.9
v -0.1 0.9 -0.9
v -0.1 1 -0.9
v 0.1 0.9 -0.9
v 0.1 1 -0.9
v 0.1 1.1 -0.9
v 0.2 0.4 -0.9
v 0.2 0.5 -0.9
v 0.3 1 -0.9
v 0.3 1.1 -0.9
v 0.3 1.2 -0.9
v 0.5 1.1 -0.9
v 0.5 1.2 -0.9
v 0.5 1.3 -0.9
v 0.6 0.4 -0.9
v 0.6 0.6 -0.9
v 0.7 1.2 -0.9
v 0.7 1.3 -0.9
v 0.7 1.4 -0.9
v 1 0.2 -0.9
v 1 0.6 -0.9
v 1 1.3 -0.9
v 1 1.4 -0.9
v -1 0.4 -1
v -1 0.5 -1
v -0.7 0.5 -1
v -0.7 0.6 -1
v -0.5 0.6 -1
v -0.5 0.7 -1
v -0.3 0.4 -1
v -0.3 0.5 -1
v -0.3 0.7 -1
v -0.3 0.8 -1
v -0.1 0.8 -1
v -0.1 0.9 -1
v 0.1 0.9 -1
v 0.1 1 -1
v 0.2 0.4 -1
v 0.2 0.5 -1
v 0.3 1 -1
v 0.3 1.1 -1
v 0.5 1.1 -1
v 0.5 1.2 -1
v 0.6 0.4 -1
v 0.6 0.6 -1
v 0.7 1.2 -1
v 0.7 1.3 -1
v 1 0.6 -1
v 1 1.3 -1
v -1 0 0.8
v 1 0 0.8
v -1 0 -0.8
v 1 0 -0.8
v -1 0.2 0.9
v 1 0.2 0.9
v -1 0.2 0.8
v 1 0.2 0.8
v -1 0.2 -0.8
v 1 0.2 -0.8
v -1 0.2 -0.9
v 1 0.2 -0.9
v -1 0.4 1
v -0.3 0.4 1
v 0.2 0.4 1
v 0.6 0.4 1
v -1 0.4 0.9
v -0.3 0.4 0.9
v 0.2 0.4 0.9
v 0.6 0.4 0.9
v -1 0.4 -0.9
v -0.3 0.4 -0.9
v 0.2 0.4 -0.9
v 0.6 0.4 -0.9
v -1 0.4 -1
v -0.3 0.4 -1
v 0.2 0.4 -1
v 0.6 0.4 -1
v -0.3 0.5 1
v 0.2 0.5 1
v -0.3 0.5 0.9
v 0.2 0.5 0.9
v -0.3 0.5 -0.9
v 0.2 0.5 -0.9
v -0.3 0.5 -1
v 0.2 0.5 -1
v 0.6 0.6 1
v 1 0.6 1
v 0.6 0.6 0.9
v 1 0.6 0.9
v 0.6 0.6 -0.9
v 1 0.6 -0.9
v 0.6 0.6 -1
v 1 0.6 -1
v -1 0.5 1
v -0.7 0.5 1
v -1 0.5 0.9
v -0.7 0.5 0.9
v -1 0.5 -0.9
v -0.7 0.5 -0.9
v -1 0.5 -1
v -0.7 0.5 -1
v -0.7 0.6 1
v -0.5 0.6 1
v -1 0.6 0.9
v -0.7 0.6 0.9
v -0.5 0.6 0.9
v -1 0.6 -0.9
v -0.7 0.6 -0.9
v -0.5 0.6 -0.9
v -0.7 0.6 -1
v -0.5 0.6 -1
v -0.5 0.7 1
v -0.3 0.7 1
v -0.7 0.7 0.9
v -0.5 0.7 0.9
v -0.3 0.7 0.9
v -0.7 0.7 -0.9
v -0.5 0.7 -0.9
v -0.3 0.7 -0.9
v -0.5 0.7 -1
v -0.3 0.7 -1
v -0.3 0.8 1
v -0.1 0.8 1
v -0.5 0.8 0.9
v -0.3 0.8 0.9
v -0.1 0.8 0.9
v -0.5 0.8 -0.9
v -0.3 0.8 -0.9
v -0.1 0.8 -0.9
v -0.3 0.8 -1
v -0.1 0.8 -1
v -0.1 0.9 1
v 0.1 0.9 1
v -0.3 0.9 0.9
v -0.1 0.9 0.9
v 0.1 0.9 0.9
v -0.3 0.9 -0.9
v -0.1 0.9 -0.9
v 0.1 0.9 -0.9
v -0.1 0.9 -1
v 0.1 0.9 -1
v 0.1 1 1
v 0.3 1 1
v -0.1 1 0.9
v 0.1 1 0.9
v 0.3 1 0.9
v -0.1 1 -0.9
v 0.1 1 -0.9
v 0.3 1 -0.9
v 0.1 1 -1
v 0.3 1 -1
v 0.3 1.1 1
v 0.5 1.1 1
v 0.1 1.1 0.9
v 0.3 1.1 0.9
v 0.5 1.1 0.9
v 0.1 1.1 -0.9
v 0.3 1.1 -0.9
v 0.5 1.1 -0.9
v 0.3 1.1 -1
v 0.5 1.1 -1
v 0.5 1.2 1
v 0.7 1.2 1
v 0.3 1.2 0.9
v 0.5 1.2 0.9
v 0.7 1.2 0.9
v 0.3 1.2 -0.9
v 0.5 1.2 -0.9
v 0.7 1.2 -0.9
v 0.5 1.2 -1
v 0.7 1.2 -1
v 0.7 1.3 1
v 1 1.3 1
v 0.5 1.3 0.9
v 0.7 1.3 0.9
v 1 1.3 0.9
v 0.5 1.3 -0.9
v 0.7 1.3 -0.9
v 1 1.3 -0.9
v 0.7 1.3 -1
v 1 1.3 -1
v 0.7 1.4 0.9
v 1 1.4 0.9
v 0.7 1.4 -0.9
v 1 1.4 -0.9

# faces
f 4/1/1 2/1/1 1/1/1
f 5/1/1 2/1/1 4/1/1
f 8/2/1 4/2/1 3/2/1
f 9/1/1 5/1/1 4/1/1
f 9/2/1 4/2/1 8/2/1
f 10/2/1 6/2/1 5/2/1
f 10/1/1 5/1/1 9/1/1
f 11/2/1 6/2/1 10/2/1
f 13/2/1 9/2/1 8/2/1
f 13/2/1 12/2/1 11/2/1
f 13/2/1 11/2/1 10/2/1
f 13/2/1 10/2/1 9/2/1
f 13/2/1 8/2/1 7/2/1
f 14/2/1 12/2/1 13/2/1
f 15/2/1 12/2/1 14/2/1
f 16/2/1 12/2/1 15/2/1
f 17/2/1 15/2/1 14/2/1
f 18/2/1 15/2/1 17/2/1
f 23/2/1 20/2/1 19/2/1
f 24/2/1 20/2/1 23/2/1
f 25/2/1 22/2/1 21/2/1
f 26/2/1 22/2/1 25/2/1
f 27/2/1 25/2/1 24/2/1
f 28/2/1 25/2/1 27/2/1
f 33/2/1 30/2/1 29/2/1
f 34/2/1 30/2/1 33/2/1
f 35/2/1 32/2/1 31/2/1
f 36/2/1 32/2/1 35/2/1
f 37/2/1 35/2/1 34/2/1
f 38/2/1 35/2/1 37/2/1
f 43/2/1 40/2/1 39/2/1
f 44/2/1 40/2/1 43/2/1
f 45/2/1 42/2/1 41/2/1
f 46/2/1 42/2/1 45/2/1
f 47/2/1 45/2/1 44/2/1
f 48/2/1 45/2/1 47/2/1
f 53/2/1 50/2/1 49/2/1
f 54/2/1 50/2/1 53/2/1
f 55/2/1 52/2/1 51/2/1
f 56/2/1 52/2/1 55/2/1
f 57/2/1 55/2/1 54/2/1
f 58/2/1 55/2/1 57/2/1
f 63/2/1 60/2/1 59/2/1
f 64/2/1 60/2/1 63/2/1
f 65/2/1 62/2/1 61/2/1
f 66/2/1 62/2/1 65/2/1
f 67/2/1 65/2/1 64/2/1
f 68/2/1 65/2/1 67/2/1
f 73/2/1 70/2/1 69/2/1
f 74/2/1 70/2/1 73/2/1
f 75/2/1 72/2/1 71/2/1
f 76/2/1 72/2/1 75/2/1
f 81/2/1 78/2/1 77/2/1
f 82/2/1 78/2/1 81/2/1
f 83/2/1 80/2/1 79/2/1
f 84/2/1 80/2/1 83/2/1
f 85/2/1 83/2/1 82/2/1
f 86/2/1 83/2/1 85/2/1
f 91/2/1 88/2/1 87/2/1
f 92/2/1 88/2/1 91/2/1
f 93/2/1 90/2/1 89/2/1
f 94/2/1 90/2/1 93/2/1
f 95/2/1 93/2/1 92/2/1
f 96/2/1 93/2/1 95/2/1
f 101/2/1 98/2/1 97/2/1
f 102/2/1 98/2/1 101/2/1
f 103/2/1 100/2/1 99/2/1
f 104/2/1 100/2/1 103/2/1
f 105/2/1 103/2/1 102/2/1
f 106/2/1 103/2/1 105/2/1
f 107/2/2 108/2/2 111/2/2
f 111/2/2 108/2/2 112/2/2
f 109/2/2 110/2/2 113/2/2
f 113/2/2 110/2/2 114/2/2
f 115/2/2 116/2/2 119/2/2
f 119/2/2 116/2/2 120/2/2
f 117/2/2 118/2/2 121/2/2
f 121/2/2 118/2/2 122/2/2
f 123/1/2 124/1/2 126/1/2
f 126/1/2 124/1/2 127/1/2
f 125/2/2 126/2/2 130/2/2
f 127/2/2 128/2/2 131/2/2
f 129/2/2 130/2/2 133/2/2
f 126/1/2 127/1/2 133/1/2
f 130/2/2 126/2/2 133/2/2
f 131/2/2 132/2/2 134/2/2
f 133/1/2 127/1/2 134/1/2
f 127/2/2 131/2/2 134/2/2
f 129/2/2 133/2/2 135/2/2
f 133/2/2 134/2/2 135/2/2
f 135/2/2 134/2/2 136/2/2
f 134/2/2 132/2/2 137/2/2
f 136/2/2 134/2/2 137/2/2
f 137/2/2 132/2/2 138/2/2
f 136/2/2 137/2/2 139/2/2
f 139/2/2 137/2/2 140/2/2
f 143/2/3 142/2/3 141/2/3
f 145/2/3 144/2/3 143/2/3
f 147/2/3 143/2/3 141/2/3
f 147/2/3 146/2/3 145/2/3
f 147/2/3 145/2/3 143/2/3
f 148/2/3 146/2/3 147/2/3
f 149/2/3 146/2/3 148/2/3
f 151/2/3 150/2/3 149/2/3
f 151/2/3 149/2/3 148/2/3
f 153/2/3 152/2/3 151/2/3
f 156/2/3 151/2/3 148/2/3
f 156/2/3 154/2/3 153/2/3
f 156/2/3 153/2/3 151/2/3
f 157/2/3 154/2/3 156/2/3
f 157/2/3 156/2/3 155/2/3
f 159/2/3 158/2/3 157/2/3
f 161/2/3 157/2/3 155/2/3
f 161/2/3 160/2/3 159/2/3
f 161/2/3 159/2/3 157/2/3
f 162/2/3 160/2/3 161/2/3
f 163/2/3 160/2/3 162/2/3
f 165/2/3 163/2/3 162/2/3
f 165/2/3 164/2/3 163/2/3
f 166/2/3 164/2/3 165/2/3
f 171/2/3 170/2/3 169/2/3
f 172/2/3 170/2/3 171/2/3
f 174/2/3 173/2/3 172/2/3
f 175/2/3 173/2/3 174/2/3
f 177/2/3 168/2/3 167/2/3
f 179/2/3 176/2/3 175/2/3
f 180/2/3 176/2/3 179/2/3
f 182/2/3 181/2/3 180/2/3
f 183/2/3 181/2/3 182/2/3
f 185/2/3 184/2/3 183/2/3
f 186/2/3 184/2/3 185/2/3
f 188/2/3 178/2/3 177/2/3
f 188/2/3 177/2/3 167/2/3
f 189/2/3 178/2/3 188/2/3
f 190/2/3 187/2/3 186/2/3
f 191/2/3 187/2/3 190/2/3
f 193/2/3 192/2/3 191/2/3
f 194/2/3 192/2/3 193/2/3
f 196/2/3 188/2/3 167/2/3
f 198/2/3 195/2/3 194/2/3
f 199/2/3 195/2/3 198/2/3
f 201/2/3 197/2/3 196/2/3
f 201/2/3 196/2/3 167/2/3
f 202/2/3 197/2/3 201/2/3
f 203/2/3 200/2/3 199/2/3
f 204/2/3 200/2/3 203/2/3
f 207/1/3 206/1/3 205/1/3
f 208/1/3 206/1/3 207/1/3
f 209/1/4 210/1/4 211/1/4
f 211/1/4 210/1/4 212/1/4
f 215/2/4 216/2/4 217/2/4
f 217/2/4 216/2/4 218/2/4
f 218/2/4 219/2/4 220/2/4
f 220/2/4 219/2/4 221/2/4
f 213/2/4 214/2/4 223/2/4
f 221/2/4 222/2/4 225/2/4
f 225/2/4 222/2/4 226/2/4
f 226/2/4 227/2/4 228/2/4
f 228/2/4 227/2/4 229/2/4
f 229/2/4 230/2/4 231/2/4
f 231/2/4 230/2/4 232/2/4
f 223/2/4 224/2/4 234/2/4
f 213/2/4 223/2/4 234/2/4
f 234/2/4 224/2/4 235/2/4
f 232/2/4 233/2/4 236/2/4
f 236/2/4 233/2/4 237/2/4
f 237/2/4 238/2/4 239/2/4
f 239/2/4 238/2/4 240/2/4
f 213/2/4 234/2/4 242/2/4
f 240/2/4 241/2/4 244/2/4
f 244/2/4 241/2/4 245/2/4
f 242/2/4 243/2/4 247/2/4
f 213/2/4 242/2/4 247/2/4
f 247/2/4 243/2/4 248/2/4
f 245/2/4 246/2/4 249/2/4
f 249/2/4 246/2/4 250/2/4
f 251/2/4 252/2/4 253/2/4
f 253/2/4 254/2/4 255/2/4
f 251/2/4 253/2/4 257/2/4
f 255/2/4 256/2/4 257/2/4
f 253/2/4 255/2/4 257/2/4
f 257/2/4 256/2/4 258/2/4
f 258/2/4 256/2/4 259/2/4
f 259/2/4 260/2/4 261/2/4
f 258/2/4 259/2/4 261/2/4
f 261/2/4 262/2/4 263/2/4
f 258/2/4 261/2/4 266/2/4
f 263/2/4 264/2/4 266/2/4
f 261/2/4 263/2/4 266/2/4
f 266/2/4 264/2/4 267/2/4
f 265/2/4 266/2/4 267/2/4
f 267/2/4 268/2/4 269/2/4
f 265/2/4 267/2/4 271/2/4
f 269/2/4 270/2/4 271/2/4
f 267/2/4 269/2/4 271/2/4
f 271/2/4 270/2/4 272/2/4
f 272/2/4 270/2/4 273/2/4
f 272/2/4 273/2/4 275/2/4
f 273/2/4 274/2/4 275/2/4
f 275/2/4 274/2/4 276/2/4
f 279/1/5 278/1/5 277/1/5
f 280/1/5 278/1/5 279/1/5
f 283/2/5 282/2/5 281/2/5
f 284/2/5 282/2/5 283/2/5
f 287/2/5 286/2/5 285/2/5
f 288/2/5 286/2/5 287/2/5
f 293/2/5 290/2/5 289/2/5
f 294/2/5 290/2/5 293/2/5
f 295/2/5 292/2/5 291/2/5
f 296/2/5 292/2/5 295/2/5
f 301/2/5 298/2/5 297/2/5
f 302/2/5 298/2/5 301/2/5
f 303/2/5 300/2/5 299/2/5
f 304/2/5 300/2/5 303/2/5
f 307/2/5 306/2/5 305/2/5
f 308/2/5 306/2/5 307/2/5
f 311/2/5 310/2/5 309/2/5
f 312/2/5 310/2/5 311/2/5
f 315/2/5 314/2/5 313/2/5
f 316/2/5 314/2/5 315/2/5
f 319/2/5 318/2/5 317/2/5
f 320/2/5 318/2/5 319/2/5
f 321/2/6 322/2/6 323/2/6
f 323/2/6 322/2/6 324/2/6
f 325/2/6 326/2/6 327/2/6
f 327/2/6 326/2/6 328/2/6
f 329/2/6 330/2/6 332/2/6
f 332/2/6 330/2/6 333/2/6
f 331/2/6 332/2/6 334/2/6
f 334/2/6 332/2/6 335/2/6
f 335/2/6 336/2/6 337/2/6
f 337/2/6 336/2/6 338/2/6
f 339/2/6 340/2/6 342/2/6
f 342/2/6 340/2/6 343/2/6
f 341/2/6 342/2/6 344/2/6
f 344/2/6 342/2/6 345/2/6
f 345/2/6 346/2/6 347/2/6
f 347/2/6 346/2/6 348/2/6
f 349/2/6 350/2/6 352/2/6
f 352/2/6 350/2/6 353/2/6
f 351/2/6 352/2/6 354/2/6
f 354/2/6 352/2/6 355/2/6
f 355/2/6 356/2/6 357/2/6
f 357/2/6 356/2/6 358/2/6
f 359/2/6 360/2/6 362/2/6
f 362/2/6 360/2/6 363/2/6
f 361/2/6 362/2/6 364/2/6
f 364/2/6 362/2/6 365/2/6
f 365/2/6 366/2/6 367/2/6
f 367/2/6 366/2/6 368/2/6
f 369/2/6 370/2/6 372/2/6
f 372/2/6 370/2/6 373/2/6
f 371/2/6 372/2/6 374/2/6
f 374/2/6 372/2/6 375/2/6
f 375/2/6 376/2/6 377/2/6
f 377/2/6 376/2/6 378/2/6
f 379/2/6 380/2/6 382/2/6
f 382/2/6 380/2/6 383/2/6
f 381/2/6 382/2/6 384/2/6
f 384/2/6 382/2/6 385/2/6
f 385/2/6 386/2/6 387/2/6
f 387/2/6 386/2/6 388/2/6
f 389/2/6 390/2/6 392/2/6
f 392/2/6 390/2/6 393/2/6
f 391/2/6 392/2/6 394/2/6
f 394/2/6 392/2/6 395/2/6
f 395/2/6 396/2/6 397/2/6
f 397/2/6 396/2/6 398/2/6
f 399/2/6 400/2/6 402/2/6
f 402/2/6 400/2/6 403/2/6
f 401/2/6 402/2/6 404/2/6
f 404/2/6 402/2/6 405/2/6
f 405/2/6 406/2/6 407/2/6
f 407/2/6 406/2/6 408/2/6
f 409/2/6 410/2/6 411/2/6
f 411/2/6 410/2/6 412/2/6
