# MagicaVoxel @ Ephtracy

# group
o 

# material
mtllib Floors-25.mtl
usemtl palette

# normals
vn -1 0 0
vn 1 0 0
vn 0 0 1
vn 0 0 -1
vn 0 -1 0
vn 0 1 0

# texcoords
vt 0.0332031 0.5
vt 0.0371094 0.5
vt 0.189453 0.5

# verts
v -1 0 0.9
v -1 0 0.8
v -1 0 -0.8
v -1 0 -0.9
v -1 0.2 1
v -1 0.2 0.9
v -1 0.2 -0.9
v -1 0.2 -1
v -1 0.3 0.9
v -1 0.3 0.8
v -1 0.3 -0.8
v -1 0.3 -0.9
v -1 0.4 1
v -1 0.4 0.7
v -1 0.4 0.5
v -1 0.4 0.4
v -1 0.4 -0.3
v -1 0.4 -1
v -1 0.5 0.7
v -1 0.5 0.5
v -1 0.5 0.4
v -1 0.5 -0.3
v -0.9 0.4 0.8
v -0.9 0.4 0.7
v -0.9 0.4 -0.3
v -0.9 0.4 -0.6
v -0.9 0.5 0.8
v -0.9 0.5 0.7
v -0.9 0.5 -0.3
v -0.9 0.5 -0.6
v -0.8 0.4 0.5
v -0.8 0.4 0.4
v -0.8 0.4 -0.6
v -0.8 0.4 -0.7
v -0.8 0.4 -0.8
v -0.8 0.4 -0.9
v -0.8 0.5 0.5
v -0.8 0.5 0.4
v -0.8 0.5 -0.6
v -0.8 0.5 -0.7
v -0.8 0.5 -0.8
v -0.8 0.5 -0.9
v -0.7 0 1
v -0.7 0 0.9
v -0.7 0 -0.9
v -0.7 0 -1
v -0.7 0.2 1
v -0.7 0.2 0.9
v -0.7 0.2 -0.9
v -0.7 0.2 -1
v -0.7 0.4 0.9
v -0.7 0.4 0.8
v -0.7 0.4 -0.7
v -0.7 0.4 -0.8
v -0.7 0.5 0.9
v -0.7 0.5 0.8
v -0.7 0.5 -0.7
v -0.7 0.5 -0.8
v -0.6 0.4 -0.9
v -0.6 0.4 -1
v -0.6 0.5 -0.9
v -0.6 0.5 -1
v 0 0.4 0.9
v 0 0.4 0.8
v 0 0.5 0.9
v 0 0.5 0.8
v 0.2 0 0.9
v 0.2 0 0.8
v 0.2 0 -0.8
v 0.2 0 -0.9
v 0.2 0.1 0.9
v 0.2 0.1 0.8
v 0.2 0.2 1
v 0.2 0.2 0.9
v 0.2 0.2 -0.8
v 0.2 0.2 -0.9
v 0.2 0.2 -1
v 0.2 0.3 1
v 0.2 0.3 0.9
v 0.2 0.3 -0.9
v 0.2 0.3 -1
v 0.2 0.4 1
v 0.2 0.4 0.9
v 0.2 0.4 -0.8
v 0.2 0.4 -0.9
v 0.2 0.5 1
v 0.2 0.5 0.9
v 0.2 0.5 -0.8
v 0.2 0.5 -0.9
v 0.3 0 1
v 0.3 0 0.9
v 0.3 0 -0.9
v 0.3 0 -1
v 0.3 0.2 1
v 0.3 0.2 0.9
v 0.3 0.2 -0.9
v 0.3 0.2 -1
v 0.3 0.4 -0.9
v 0.3 0.4 -1
v 0.3 0.5 -0.9
v 0.3 0.5 -1
v 0.9 0.4 0.8
v 0.9 0.4 0.7
v 0.9 0.4 -0.4
v 0.9 0.4 -0.5
v 0.9 0.4 -0.7
v 0.9 0.4 -0.8
v 0.9 0.5 0.8
v 0.9 0.5 0.7
v 0.9 0.5 -0.4
v 0.9 0.5 -0.5
v 0.9 0.5 -0.7
v 0.9 0.5 -0.8
v -0.2 0 1
v -0.2 0 0.9
v -0.2 0 -0.9
v -0.2 0 -1
v -0.2 0.1 1
v -0.2 0.1 0.9
v -0.2 0.1 -0.9
v -0.2 0.1 -1
v -0.2 0.4 -0.9
v -0.2 0.4 -1
v -0.2 0.5 -0.9
v -0.2 0.5 -1
v -0.1 0 -0.8
v -0.1 0 -0.9
v -0.1 0.1 1
v -0.1 0.1 0.9
v -0.1 0.1 -0.8
v -0.1 0.1 -0.9
v -0.1 0.1 -1
v -0.1 0.2 1
v -0.1 0.2 0.9
v -0.1 0.2 -0.9
v -0.1 0.2 -1
v -0.1 0.4 0.9
v -0.1 0.4 0.8
v -0.1 0.5 0.9
v -0.1 0.5 0.8
v 0 0 0.9
v 0 0 0.8
v 0 0.1 0.9
v 0 0.1 0.8
v 0.1 0.1 -0.8
v 0.1 0.1 -0.9
v 0.1 0.2 1
v 0.1 0.2 0.9
v 0.1 0.2 -0.8
v 0.1 0.2 -0.9
v 0.1 0.2 -1
v 0.1 0.3 1
v 0.1 0.3 0.9
v 0.1 0.3 -0.9
v 0.1 0.3 -1
v 0.1 0.4 -0.8
v 0.1 0.4 -0.9
v 0.1 0.5 -0.8
v 0.1 0.5 -0.9
v 0.4 0.4 1
v 0.4 0.4 0.9
v 0.4 0.5 1
v 0.4 0.5 0.9
v 0.7 0.4 0.9
v 0.7 0.4 0.8
v 0.7 0.4 -0.3
v 0.7 0.4 -0.4
v 0.7 0.4 -0.9
v 0.7 0.4 -1
v 0.7 0.5 0.9
v 0.7 0.5 0.8
v 0.7 0.5 -0.3
v 0.7 0.5 -0.4
v 0.7 0.5 -0.9
v 0.7 0.5 -1
v 0.8 0.4 0.8
v 0.8 0.4 0.7
v 0.8 0.4 -0.2
v 0.8 0.4 -0.3
v 0.8 0.4 -0.4
v 0.8 0.4 -0.5
v 0.8 0.4 -0.7
v 0.8 0.4 -0.9
v 0.8 0.5 0.8
v 0.8 0.5 0.7
v 0.8 0.5 -0.2
v 0.8 0.5 -0.3
v 0.8 0.5 -0.4
v 0.8 0.5 -0.5
v 0.8 0.5 -0.7
v 0.8 0.5 -0.9
v 0.9 0.4 -0.1
v 0.9 0.4 -0.2
v 0.9 0.5 -0.1
v 0.9 0.5 -0.2
v 1 0 1
v 1 0 0.9
v 1 0 0.8
v 1 0 -0.8
v 1 0 -0.9
v 1 0 -1
v 1 0.3 0.9
v 1 0.3 0.8
v 1 0.3 -0.8
v 1 0.3 -0.9
v 1 0.4 1
v 1 0.4 0.8
v 1 0.4 -0.1
v 1 0.4 -0.4
v 1 0.4 -0.8
v 1 0.4 -1
v 1 0.5 0.8
v 1 0.5 -0.1
v 1 0.5 -0.4
v 1 0.5 -0.8
v -1 0.2 1
v -1 0.4 1
v -0.7 0 1
v -0.7 0.2 1
v -0.2 0 1
v -0.2 0.1 1
v -0.1 0.1 1
v -0.1 0.2 1
v 0.1 0.2 1
v 0.1 0.3 1
v 0.2 0.2 1
v 0.2 0.3 1
v 0.2 0.4 1
v 0.2 0.5 1
v 0.3 0 1
v 0.3 0.2 1
v 0.4 0.4 1
v 0.4 0.5 1
v 1 0 1
v 1 0.4 1
v -1 0 0.9
v -1 0.2 0.9
v -0.7 0 0.9
v -0.7 0.2 0.9
v -0.7 0.4 0.9
v -0.7 0.5 0.9
v -0.2 0 0.9
v -0.2 0.1 0.9
v -0.1 0.1 0.9
v -0.1 0.2 0.9
v -0.1 0.4 0.9
v -0.1 0.5 0.9
v 0 0 0.9
v 0 0.1 0.9
v 0 0.4 0.9
v 0 0.5 0.9
v 0.1 0.2 0.9
v 0.1 0.3 0.9
v 0.2 0 0.9
v 0.2 0.1 0.9
v 0.2 0.2 0.9
v 0.2 0.3 0.9
v 0.2 0.4 0.9
v 0.2 0.5 0.9
v 0.3 0 0.9
v 0.3 0.2 0.9
v 0.4 0.4 0.9
v 0.4 0.5 0.9
v 0.7 0.4 0.9
v 0.7 0.5 0.9
v -0.9 0.4 0.8
v -0.9 0.5 0.8
v -0.7 0.4 0.8
v -0.7 0.5 0.8
v -0.1 0.4 0.8
v -0.1 0.5 0.8
v 0 0 0.8
v 0 0.1 0.8
v 0 0.4 0.8
v 0 0.5 0.8
v 0.2 0 0.8
v 0.2 0.1 0.8
v 0.7 0.4 0.8
v 0.7 0.5 0.8
v 0.8 0.4 0.8
v 0.8 0.5 0.8
v 0.9 0.4 0.8
v 0.9 0.5 0.8
v 1 0.4 0.8
v 1 0.5 0.8
v -1 0.4 0.7
v -1 0.5 0.7
v -0.9 0.4 0.7
v -0.9 0.5 0.7
v 0.8 0.4 0.7
v 0.8 0.5 0.7
v 0.9 0.4 0.7
v 0.9 0.5 0.7
v -1 0.4 0.4
v -1 0.5 0.4
v -0.8 0.4 0.4
v -0.8 0.5 0.4
v 0.7 0.4 -0.4
v 0.7 0.5 -0.4
v 0.8 0.4 -0.4
v 0.8 0.5 -0.4
v 0.9 0.4 -0.4
v 0.9 0.5 -0.4
v 1 0.4 -0.4
v 1 0.5 -0.4
v 0.8 0.4 -0.5
v 0.8 0.5 -0.5
v 0.9 0.4 -0.5
v 0.9 0.5 -0.5
v -0.8 0.4 -0.8
v -0.8 0.5 -0.8
v -0.7 0.4 -0.8
v -0.7 0.5 -0.8
v -1 0.4 0.5
v -1 0.5 0.5
v -0.8 0.4 0.5
v -0.8 0.5 0.5
v 0.9 0.4 -0.1
v 0.9 0.5 -0.1
v 1 0.4 -0.1
v 1 0.5 -0.1
v 0.8 0.4 -0.2
v 0.8 0.5 -0.2
v 0.9 0.4 -0.2
v 0.9 0.5 -0.2
v -1 0.4 -0.3
v -1 0.5 -0.3
v -0.9 0.4 -0.3
v -0.9 0.5 -0.3
v 0.7 0.4 -0.3
v 0.7 0.5 -0.3
v 0.8 0.4 -0.3
v 0.8 0.5 -0.3
v -0.9 0.4 -0.6
v -0.9 0.5 -0.6
v -0.8 0.4 -0.6
v -0.8 0.5 -0.6
v -0.8 0.4 -0.7
v -0.8 0.5 -0.7
v -0.7 0.4 -0.7
v -0.7 0.5 -0.7
v 0.8 0.4 -0.7
v 0.8 0.5 -0.7
v 0.9 0.4 -0.7
v 0.9 0.5 -0.7
v -0.1 0 -0.8
v -0.1 0.1 -0.8
v 0.1 0.1 -0.8
v 0.1 0.2 -0.8
v 0.1 0.4 -0.8
v 0.1 0.5 -0.8
v 0.2 0 -0.8
v 0.2 0.2 -0.8
v 0.2 0.4 -0.8
v 0.2 0.5 -0.8
v 0.9 0.4 -0.8
v 0.9 0.5 -0.8
v 1 0.4 -0.8
v 1 0.5 -0.8
v -1 0 -0.9
v -1 0.2 -0.9
v -0.8 0.4 -0.9
v -0.8 0.5 -0.9
v -0.7 0 -0.9
v -0.7 0.2 -0.9
v -0.6 0.4 -0.9
v -0.6 0.5 -0.9
v -0.2 0 -0.9
v -0.2 0.1 -0.9
v -0.2 0.4 -0.9
v -0.2 0.5 -0.9
v -0.1 0 -0.9
v -0.1 0.1 -0.9
v -0.1 0.2 -0.9
v 0.1 0.1 -0.9
v 0.1 0.2 -0.9
v 0.1 0.3 -0.9
v 0.1 0.4 -0.9
v 0.1 0.5 -0.9
v 0.2 0 -0.9
v 0.2 0.2 -0.9
v 0.2 0.3 -0.9
v 0.2 0.4 -0.9
v 0.2 0.5 -0.9
v 0.3 0 -0.9
v 0.3 0.2 -0.9
v 0.3 0.4 -0.9
v 0.3 0.5 -0.9
v 0.7 0.4 -0.9
v 0.7 0.5 -0.9
v 0.8 0.4 -0.9
v 0.8 0.5 -0.9
v -1 0.2 -1
v -1 0.4 -1
v -0.7 0 -1
v -0.7 0.2 -1
v -0.6 0.4 -1
v -0.6 0.5 -1
v -0.2 0 -1
v -0.2 0.1 -1
v -0.2 0.4 -1
v -0.2 0.5 -1
v -0.1 0.1 -1
v -0.1 0.2 -1
v 0.1 0.2 -1
v 0.1 0.3 -1
v 0.2 0.2 -1
v 0.2 0.3 -1
v 0.3 0 -1
v 0.3 0.2 -1
v 0.3 0.4 -1
v 0.3 0.5 -1
v 0.7 0.4 -1
v 0.7 0.5 -1
v 1 0 -1
v 1 0.4 -1
v -0.7 0 1
v -0.2 0 1
v 0.3 0 1
v 1 0 1
v -1 0 0.9
v -0.7 0 0.9
v -0.2 0 0.9
v 0 0 0.9
v 0.2 0 0.9
v 0.3 0 0.9
v 1 0 0.9
v -1 0 0.8
v 0 0 0.8
v 0.2 0 0.8
v 1 0 0.8
v -1 0 -0.8
v -0.1 0 -0.8
v 0.2 0 -0.8
v 1 0 -0.8
v -1 0 -0.9
v -0.7 0 -0.9
v -0.2 0 -0.9
v -0.1 0 -0.9
v 0.2 0 -0.9
v 0.3 0 -0.9
v 1 0 -0.9
v -0.7 0 -1
v -0.2 0 -1
v 0.3 0 -1
v 1 0 -1
v -0.2 0.1 1
v -0.1 0.1 1
v -0.2 0.1 0.9
v -0.1 0.1 0.9
v 0 0.1 0.9
v 0.2 0.1 0.9
v 0 0.1 0.8
v 0.2 0.1 0.8
v -0.1 0.1 -0.8
v 0.1 0.1 -0.8
v -0.2 0.1 -0.9
v -0.1 0.1 -0.9
v 0.1 0.1 -0.9
v -0.2 0.1 -1
v -0.1 0.1 -1
v -1 0.2 1
v -0.7 0.2 1
v -0.1 0.2 1
v 0.1 0.2 1
v 0.2 0.2 1
v 0.3 0.2 1
v -1 0.2 0.9
v -0.7 0.2 0.9
v -0.1 0.2 0.9
v 0.1 0.2 0.9
v 0.2 0.2 0.9
v 0.3 0.2 0.9
v 0.1 0.2 -0.8
v 0.2 0.2 -0.8
v -1 0.2 -0.9
v -0.7 0.2 -0.9
v -0.1 0.2 -0.9
v 0.1 0.2 -0.9
v 0.2 0.2 -0.9
v 0.3 0.2 -0.9
v -1 0.2 -1
v -0.7 0.2 -1
v -0.1 0.2 -1
v 0.1 0.2 -1
v 0.2 0.2 -1
v 0.3 0.2 -1
v 0.1 0.3 1
v 0.2 0.3 1
v 0.1 0.3 0.9
v 0.2 0.3 0.9
v 0.1 0.3 -0.9
v 0.2 0.3 -0.9
v 0.1 0.3 -1
v 0.2 0.3 -1
v -1 0.4 1
v 0.2 0.4 1
v 0.4 0.4 1
v 1 0.4 1
v -0.7 0.4 0.9
v -0.1 0.4 0.9
v 0 0.4 0.9
v 0.2 0.4 0.9
v 0.4 0.4 0.9
v 0.7 0.4 0.9
v -0.9 0.4 0.8
v -0.7 0.4 0.8
v -0.1 0.4 0.8
v 0 0.4 0.8
v 0.7 0.4 0.8
v 0.8 0.4 0.8
v 0.9 0.4 0.8
v 1 0.4 0.8
v -1 0.4 0.7
v -0.9 0.4 0.7
v 0.8 0.4 0.7
v 0.9 0.4 0.7
v -1 0.4 0.5
v -0.8 0.4 0.5
v -1 0.4 0.4
v -0.8 0.4 0.4
v 0.9 0.4 -0.1
v 1 0.4 -0.1
v 0.8 0.4 -0.2
v 0.9 0.4 -0.2
v -1 0.4 -0.3
v -0.9 0.4 -0.3
v 0.7 0.4 -0.3
v 0.8 0.4 -0.3
v 0.7 0.4 -0.4
v 0.8 0.4 -0.4
v 0.9 0.4 -0.4
v 1 0.4 -0.4
v 0.8 0.4 -0.5
v 0.9 0.4 -0.5
v -0.9 0.4 -0.6
v -0.8 0.4 -0.6
v -0.8 0.4 -0.7
v -0.7 0.4 -0.7
v 0.8 0.4 -0.7
v 0.9 0.4 -0.7
v -0.8 0.4 -0.8
v -0.7 0.4 -0.8
v 0.1 0.4 -0.8
v 0.2 0.4 -0.8
v 0.9 0.4 -0.8
v 1 0.4 -0.8
v -0.8 0.4 -0.9
v -0.6 0.4 -0.9
v -0.2 0.4 -0.9
v 0.1 0.4 -0.9
v 0.2 0.4 -0.9
v 0.3 0.4 -0.9
v 0.7 0.4 -0.9
v 0.8 0.4 -0.9
v -1 0.4 -1
v -0.6 0.4 -1
v -0.2 0.4 -1
v 0.3 0.4 -1
v 0.7 0.4 -1
v 1 0.4 -1
v 0.2 0.5 1
v 0.4 0.5 1
v -0.7 0.5 0.9
v -0.1 0.5 0.9
v 0 0.5 0.9
v 0.2 0.5 0.9
v 0.4 0.5 0.9
v 0.7 0.5 0.9
v -0.9 0.5 0.8
v -0.7 0.5 0.8
v -0.1 0.5 0.8
v 0 0.5 0.8
v 0.7 0.5 0.8
v 0.8 0.5 0.8
v 0.9 0.5 0.8
v 1 0.5 0.8
v -1 0.5 0.7
v -0.9 0.5 0.7
v 0.8 0.5 0.7
v 0.9 0.5 0.7
v -1 0.5 0.5
v -0.8 0.5 0.5
v -1 0.5 0.4
v -0.8 0.5 0.4
v 0.9 0.5 -0.1
v 1 0.5 -0.1
v 0.8 0.5 -0.2
v 0.9 0.5 -0.2
v -1 0.5 -0.3
v -0.9 0.5 -0.3
v 0.7 0.5 -0.3
v 0.8 0.5 -0.3
v 0.7 0.5 -0.4
v 0.8 0.5 -0.4
v 0.9 0.5 -0.4
v 1 0.5 -0.4
v 0.8 0.5 -0.5
v 0.9 0.5 -0.5
v -0.9 0.5 -0.6
v -0.8 0.5 -0.6
v -0.8 0.5 -0.7
v -0.7 0.5 -0.7
v 0.8 0.5 -0.7
v 0.9 0.5 -0.7
v -0.8 0.5 -0.8
v -0.7 0.5 -0.8
v 0.1 0.5 -0.8
v 0.2 0.5 -0.8
v 0.9 0.5 -0.8
v 1 0.5 -0.8
v -0.8 0.5 -0.9
v -0.6 0.5 -0.9
v -0.2 0.5 -0.9
v 0.1 0.5 -0.9
v 0.2 0.5 -0.9
v 0.3 0.5 -0.9
v 0.7 0.5 -0.9
v 0.8 0.5 -0.9
v -0.6 0.5 -1
v -0.2 0.5 -1
v 0.3 0.5 -1
v 0.7 0.5 -1

# faces
f 6/3/1 2/3/1 1/3/1
f 7/3/1 4/3/1 3/3/1
f 9/2/1 6/2/1 5/2/1
f 9/3/1 2/3/1 6/3/1
f 10/1/1 3/1/1 2/1/1
f 10/3/1 2/3/1 9/3/1
f 11/3/1 7/3/1 3/3/1
f 11/1/1 3/1/1 10/1/1
f 12/2/1 8/2/1 7/2/1
f 12/3/1 7/3/1 11/3/1
f 13/2/1 11/2/1 10/2/1
f 13/2/1 9/2/1 5/2/1
f 13/2/1 12/2/1 11/2/1
f 13/2/1 10/2/1 9/2/1
f 14/2/1 12/2/1 13/2/1
f 15/2/1 12/2/1 14/2/1
f 16/2/1 12/2/1 15/2/1
f 17/2/1 12/2/1 16/2/1
f 18/2/1 8/2/1 12/2/1
f 18/2/1 12/2/1 17/2/1
f 19/2/1 15/2/1 14/2/1
f 20/2/1 15/2/1 19/2/1
f 21/2/1 17/2/1 16/2/1
f 22/2/1 17/2/1 21/2/1
f 27/2/1 24/2/1 23/2/1
f 28/2/1 24/2/1 27/2/1
f 29/2/1 26/2/1 25/2/1
f 30/2/1 26/2/1 29/2/1
f 37/2/1 32/2/1 31/2/1
f 38/2/1 32/2/1 37/2/1
f 39/2/1 34/2/1 33/2/1
f 40/2/1 34/2/1 39/2/1
f 41/2/1 36/2/1 35/2/1
f 42/2/1 36/2/1 41/2/1
f 47/2/1 44/2/1 43/2/1
f 48/2/1 44/2/1 47/2/1
f 49/2/1 46/2/1 45/2/1
f 50/2/1 46/2/1 49/2/1
f 55/2/1 52/2/1 51/2/1
f 56/2/1 52/2/1 55/2/1
f 57/2/1 54/2/1 53/2/1
f 58/2/1 54/2/1 57/2/1
f 61/2/1 60/2/1 59/2/1
f 62/2/1 60/2/1 61/2/1
f 65/2/1 64/2/1 63/2/1
f 66/2/1 64/2/1 65/2/1
f 71/3/1 68/3/1 67/3/1
f 72/3/1 68/3/1 71/3/1
f 75/3/1 70/3/1 69/3/1
f 76/3/1 70/3/1 75/3/1
f 78/2/1 74/2/1 73/2/1
f 79/2/1 74/2/1 78/2/1
f 80/2/1 77/2/1 76/2/1
f 81/2/1 77/2/1 80/2/1
f 86/2/1 83/2/1 82/2/1
f 87/2/1 83/2/1 86/2/1
f 88/2/1 85/2/1 84/2/1
f 89/2/1 85/2/1 88/2/1
f 94/2/1 91/2/1 90/2/1
f 95/2/1 91/2/1 94/2/1
f 96/2/1 93/2/1 92/2/1
f 97/2/1 93/2/1 96/2/1
f 100/2/1 99/2/1 98/2/1
f 101/2/1 99/2/1 100/2/1
f 108/2/1 103/2/1 102/2/1
f 109/2/1 103/2/1 108/2/1
f 110/2/1 105/2/1 104/2/1
f 111/2/1 105/2/1 110/2/1
f 112/2/1 107/2/1 106/2/1
f 113/2/1 107/2/1 112/2/1
f 114/2/2 115/2/2 118/2/2
f 118/2/2 115/2/2 119/2/2
f 116/2/2 117/2/2 120/2/2
f 120/2/2 117/2/2 121/2/2
f 122/2/2 123/2/2 124/2/2
f 124/2/2 123/2/2 125/2/2
f 126/3/2 127/3/2 130/3/2
f 130/3/2 127/3/2 131/3/2
f 128/2/2 129/2/2 133/2/2
f 133/2/2 129/2/2 134/2/2
f 131/2/2 132/2/2 135/2/2
f 135/2/2 132/2/2 136/2/2
f 137/2/2 138/2/2 139/2/2
f 139/2/2 138/2/2 140/2/2
f 141/3/2 142/3/2 143/3/2
f 143/3/2 142/3/2 144/3/2
f 145/3/2 146/3/2 149/3/2
f 149/3/2 146/3/2 150/3/2
f 147/2/2 148/2/2 152/2/2
f 152/2/2 148/2/2 153/2/2
f 150/2/2 151/2/2 154/2/2
f 154/2/2 151/2/2 155/2/2
f 156/2/2 157/2/2 158/2/2
f 158/2/2 157/2/2 159/2/2
f 160/2/2 161/2/2 162/2/2
f 162/2/2 161/2/2 163/2/2
f 164/2/2 165/2/2 170/2/2
f 170/2/2 165/2/2 171/2/2
f 166/2/2 167/2/2 172/2/2
f 172/2/2 167/2/2 173/2/2
f 168/2/2 169/2/2 174/2/2
f 174/2/2 169/2/2 175/2/2
f 176/2/2 177/2/2 184/2/2
f 184/2/2 177/2/2 185/2/2
f 178/2/2 179/2/2 186/2/2
f 186/2/2 179/2/2 187/2/2
f 180/2/2 181/2/2 188/2/2
f 188/2/2 181/2/2 189/2/2
f 182/2/2 183/2/2 190/2/2
f 190/2/2 183/2/2 191/2/2
f 192/2/2 193/2/2 194/2/2
f 194/2/2 193/2/2 195/2/2
f 196/2/2 197/2/2 202/2/2
f 197/3/2 198/3/2 202/3/2
f 198/1/2 199/1/2 203/1/2
f 202/3/2 198/3/2 203/3/2
f 199/3/2 200/3/2 204/3/2
f 203/1/2 199/1/2 204/1/2
f 200/2/2 201/2/2 205/2/2
f 204/3/2 200/3/2 205/3/2
f 203/2/2 204/2/2 206/2/2
f 202/2/2 203/2/2 206/2/2
f 204/2/2 205/2/2 206/2/2
f 196/2/2 202/2/2 206/2/2
f 206/2/2 205/2/2 207/2/2
f 207/2/2 205/2/2 208/2/2
f 208/2/2 205/2/2 209/2/2
f 209/2/2 205/2/2 210/2/2
f 205/2/2 201/2/2 211/2/2
f 210/2/2 205/2/2 211/2/2
f 207/2/2 208/2/2 212/2/2
f 212/2/2 208/2/2 213/2/2
f 209/2/2 210/2/2 214/2/2
f 214/2/2 210/2/2 215/2/2
f 219/2/3 217/2/3 216/2/3
f 220/2/3 219/2/3 218/2/3
f 221/2/3 219/2/3 220/2/3
f 222/2/3 219/2/3 221/2/3
f 223/2/3 217/2/3 219/2/3
f 223/2/3 219/2/3 222/2/3
f 224/2/3 217/2/3 223/2/3
f 225/2/3 217/2/3 224/2/3
f 227/2/3 217/2/3 225/2/3
f 228/2/3 217/2/3 227/2/3
f 231/2/3 227/2/3 226/2/3
f 231/2/3 229/2/3 228/2/3
f 231/2/3 228/2/3 227/2/3
f 232/2/3 229/2/3 231/2/3
f 232/2/3 231/2/3 230/2/3
f 233/2/3 229/2/3 232/2/3
f 234/2/3 232/2/3 230/2/3
f 235/2/3 232/2/3 234/2/3
f 238/3/3 237/3/3 236/3/3
f 239/3/3 237/3/3 238/3/3
f 244/3/3 243/3/3 242/3/3
f 246/2/3 241/2/3 240/2/3
f 247/2/3 241/2/3 246/2/3
f 248/3/3 245/3/3 244/3/3
f 248/3/3 244/3/3 242/3/3
f 249/3/3 245/3/3 248/3/3
f 252/3/3 245/3/3 249/3/3
f 255/3/3 252/3/3 249/3/3
f 255/3/3 253/3/3 252/3/3
f 256/3/3 253/3/3 255/3/3
f 257/3/3 253/3/3 256/3/3
f 258/2/3 251/2/3 250/2/3
f 259/2/3 251/2/3 258/2/3
f 260/3/3 255/3/3 254/3/3
f 260/3/3 256/3/3 255/3/3
f 261/3/3 256/3/3 260/3/3
f 264/2/3 263/2/3 262/2/3
f 265/2/3 263/2/3 264/2/3
f 268/2/3 267/2/3 266/2/3
f 269/2/3 267/2/3 268/2/3
f 274/2/3 271/2/3 270/2/3
f 275/2/3 271/2/3 274/2/3
f 276/1/3 273/1/3 272/1/3
f 277/1/3 273/1/3 276/1/3
f 280/2/3 279/2/3 278/2/3
f 281/2/3 279/2/3 280/2/3
f 284/2/3 283/2/3 282/2/3
f 285/2/3 283/2/3 284/2/3
f 288/2/3 287/2/3 286/2/3
f 289/2/3 287/2/3 288/2/3
f 292/2/3 291/2/3 290/2/3
f 293/2/3 291/2/3 292/2/3
f 296/2/3 295/2/3 294/2/3
f 297/2/3 295/2/3 296/2/3
f 300/2/3 299/2/3 298/2/3
f 301/2/3 299/2/3 300/2/3
f 304/2/3 303/2/3 302/2/3
f 305/2/3 303/2/3 304/2/3
f 308/2/3 307/2/3 306/2/3
f 309/2/3 307/2/3 308/2/3
f 312/2/3 311/2/3 310/2/3
f 313/2/3 311/2/3 312/2/3
f 314/2/4 315/2/4 316/2/4
f 316/2/4 315/2/4 317/2/4
f 318/2/4 319/2/4 320/2/4
f 320/2/4 319/2/4 321/2/4
f 322/2/4 323/2/4 324/2/4
f 324/2/4 323/2/4 325/2/4
f 326/2/4 327/2/4 328/2/4
f 328/2/4 327/2/4 329/2/4
f 330/2/4 331/2/4 332/2/4
f 332/2/4 331/2/4 333/2/4
f 334/2/4 335/2/4 336/2/4
f 336/2/4 335/2/4 337/2/4
f 338/2/4 339/2/4 340/2/4
f 340/2/4 339/2/4 341/2/4
f 342/2/4 343/2/4 344/2/4
f 344/2/4 343/2/4 345/2/4
f 346/1/4 347/1/4 348/1/4
f 346/1/4 348/1/4 352/1/4
f 348/1/4 349/1/4 352/1/4
f 352/1/4 349/1/4 353/1/4
f 350/2/4 351/2/4 354/2/4
f 354/2/4 351/2/4 355/2/4
f 356/2/4 357/2/4 358/2/4
f 358/2/4 357/2/4 359/2/4
f 360/3/4 361/3/4 364/3/4
f 364/3/4 361/3/4 365/3/4
f 362/2/4 363/2/4 366/2/4
f 366/2/4 363/2/4 367/2/4
f 368/3/4 369/3/4 372/3/4
f 372/3/4 369/3/4 373/3/4
f 373/3/4 374/3/4 375/3/4
f 375/3/4 374/3/4 376/3/4
f 370/2/4 371/2/4 378/2/4
f 378/2/4 371/2/4 379/2/4
f 376/3/4 377/3/4 381/3/4
f 381/3/4 377/3/4 382/3/4
f 380/3/4 381/3/4 385/3/4
f 385/3/4 381/3/4 386/3/4
f 383/2/4 384/2/4 387/2/4
f 387/2/4 384/2/4 388/2/4
f 389/2/4 390/2/4 391/2/4
f 391/2/4 390/2/4 392/2/4
f 393/2/4 394/2/4 396/2/4
f 396/2/4 394/2/4 397/2/4
f 395/2/4 396/2/4 397/2/4
f 395/2/4 397/2/4 399/2/4
f 397/2/4 398/2/4 399/2/4
f 399/2/4 398/2/4 400/2/4
f 400/2/4 398/2/4 401/2/4
f 401/2/4 398/2/4 402/2/4
f 400/2/4 401/2/4 403/2/4
f 403/2/4 401/2/4 404/2/4
f 404/2/4 401/2/4 405/2/4
f 405/2/4 401/2/4 406/2/4
f 406/2/4 401/2/4 408/2/4
f 407/2/4 408/2/4 410/2/4
f 408/2/4 401/2/4 411/2/4
f 410/2/4 408/2/4 411/2/4
f 409/2/4 410/2/4 413/2/4
f 411/2/4 412/2/4 413/2/4
f 410/2/4 411/2/4 413/2/4
f 413/2/4 412/2/4 414/2/4
f 409/2/4 413/2/4 415/2/4
f 415/2/4 413/2/4 416/2/4
f 422/2/5 418/2/5 417/2/5
f 423/2/5 418/2/5 422/2/5
f 426/2/5 420/2/5 419/2/5
f 427/2/5 420/2/5 426/2/5
f 428/3/5 424/3/5 423/3/5
f 428/3/5 422/3/5 421/3/5
f 428/3/5 423/3/5 422/3/5
f 429/3/5 424/3/5 428/3/5
f 430/3/5 427/3/5 426/3/5
f 430/3/5 426/3/5 425/3/5
f 431/3/5 427/3/5 430/3/5
f 432/1/5 429/1/5 428/1/5
f 432/1/5 430/1/5 429/1/5
f 432/1/5 431/1/5 430/1/5
f 433/1/5 431/1/5 432/1/5
f 434/1/5 431/1/5 433/1/5
f 435/1/5 431/1/5 434/1/5
f 436/3/5 433/3/5 432/3/5
f 437/3/5 433/3/5 436/3/5
f 438/3/5 433/3/5 437/3/5
f 439/3/5 433/3/5 438/3/5
f 440/3/5 435/3/5 434/3/5
f 441/3/5 435/3/5 440/3/5
f 442/3/5 435/3/5 441/3/5
f 443/2/5 438/2/5 437/2/5
f 444/2/5 438/2/5 443/2/5
f 445/2/5 442/2/5 441/2/5
f 446/2/5 442/2/5 445/2/5
f 449/2/5 448/2/5 447/2/5
f 450/2/5 448/2/5 449/2/5
f 453/3/5 452/3/5 451/3/5
f 454/3/5 452/3/5 453/3/5
f 458/3/5 456/3/5 455/3/5
f 459/3/5 456/3/5 458/3/5
f 460/2/5 458/2/5 457/2/5
f 461/2/5 458/2/5 460/2/5
f 468/2/5 463/2/5 462/2/5
f 469/2/5 463/2/5 468/2/5
f 470/2/5 465/2/5 464/2/5
f 471/2/5 465/2/5 470/2/5
f 472/2/5 467/2/5 466/2/5
f 473/2/5 467/2/5 472/2/5
f 479/3/5 475/3/5 474/3/5
f 480/3/5 475/3/5 479/3/5
f 482/2/5 477/2/5 476/2/5
f 483/2/5 477/2/5 482/2/5
f 484/2/5 479/2/5 478/2/5
f 485/2/5 479/2/5 484/2/5
f 486/2/5 481/2/5 480/2/5
f 487/2/5 481/2/5 486/2/5
f 490/2/5 489/2/5 488/2/5
f 491/2/5 489/2/5 490/2/5
f 494/2/5 493/2/5 492/2/5
f 495/2/5 493/2/5 494/2/5
f 496/2/6 497/2/6 500/2/6
f 500/2/6 497/2/6 501/2/6
f 501/2/6 497/2/6 502/2/6
f 502/2/6 497/2/6 503/2/6
f 498/2/6 499/2/6 504/2/6
f 504/2/6 499/2/6 505/2/6
f 496/2/6 500/2/6 506/2/6
f 506/2/6 500/2/6 507/2/6
f 501/2/6 502/2/6 508/2/6
f 508/2/6 502/2/6 509/2/6
f 505/2/6 499/2/6 510/2/6
f 510/2/6 499/2/6 511/2/6
f 511/2/6 499/2/6 512/2/6
f 512/2/6 499/2/6 513/2/6
f 496/2/6 506/2/6 514/2/6
f 514/2/6 506/2/6 515/2/6
f 511/2/6 512/2/6 516/2/6
f 516/2/6 512/2/6 517/2/6
f 518/2/6 519/2/6 520/2/6
f 520/2/6 519/2/6 521/2/6
f 522/2/6 523/2/6 525/2/6
f 524/2/6 525/2/6 529/2/6
f 528/2/6 529/2/6 530/2/6
f 529/2/6 525/2/6 531/2/6
f 530/2/6 529/2/6 531/2/6
f 525/2/6 523/2/6 532/2/6
f 531/2/6 525/2/6 532/2/6
f 532/2/6 523/2/6 533/2/6
f 531/2/6 532/2/6 534/2/6
f 534/2/6 532/2/6 535/2/6
f 526/2/6 527/2/6 536/2/6
f 536/2/6 537/2/6 538/2/6
f 536/2/6 538/2/6 542/2/6
f 538/2/6 539/2/6 542/2/6
f 542/2/6 539/2/6 543/2/6
f 540/2/6 541/2/6 546/2/6
f 536/2/6 542/2/6 548/2/6
f 544/2/6 545/2/6 551/2/6
f 551/2/6 545/2/6 552/2/6
f 540/2/6 546/2/6 555/2/6
f 546/2/6 547/2/6 555/2/6
f 526/2/6 536/2/6 556/2/6
f 548/2/6 549/2/6 556/2/6
f 536/2/6 548/2/6 556/2/6
f 556/2/6 549/2/6 557/2/6
f 552/2/6 553/2/6 558/2/6
f 551/2/6 552/2/6 558/2/6
f 550/2/6 551/2/6 558/2/6
f 558/2/6 553/2/6 559/2/6
f 554/2/6 555/2/6 560/2/6
f 555/2/6 547/2/6 561/2/6
f 560/2/6 555/2/6 561/2/6
f 562/2/6 563/2/6 567/2/6
f 567/2/6 563/2/6 568/2/6
f 564/2/6 565/2/6 571/2/6
f 571/2/6 565/2/6 572/2/6
f 568/2/6 569/2/6 573/2/6
f 566/2/6 567/2/6 573/2/6
f 567/2/6 568/2/6 573/2/6
f 573/2/6 569/2/6 574/2/6
f 571/2/6 572/2/6 579/2/6
f 570/2/6 571/2/6 579/2/6
f 574/2/6 575/2/6 579/2/6
f 573/2/6 574/2/6 579/2/6
f 572/2/6 573/2/6 579/2/6
f 579/2/6 575/2/6 580/2/6
f 576/2/6 577/2/6 581/2/6
f 579/2/6 580/2/6 582/2/6
f 580/2/6 581/2/6 582/2/6
f 578/2/6 579/2/6 582/2/6
f 582/2/6 581/2/6 583/2/6
f 583/2/6 581/2/6 585/2/6
f 581/2/6 577/2/6 586/2/6
f 584/2/6 585/2/6 586/2/6
f 585/2/6 581/2/6 586/2/6
f 586/2/6 577/2/6 587/2/6
f 584/2/6 586/2/6 588/2/6
f 588/2/6 586/2/6 589/2/6
f 584/2/6 588/2/6 590/2/6
f 590/2/6 588/2/6 591/2/6
f 591/2/6 588/2/6 592/2/6
f 592/2/6 588/2/6 593/2/6
f 591/2/6 592/2/6 594/2/6
f 594/2/6 595/2/6 598/2/6
f 596/2/6 597/2/6 599/2/6
f 591/2/6 594/2/6 600/2/6
f 598/2/6 599/2/6 600/2/6
f 594/2/6 598/2/6 600/2/6
f 600/2/6 599/2/6 601/2/6
f 601/2/6 599/2/6 602/2/6
f 602/2/6 599/2/6 603/2/6
f 603/2/6 599/2/6 604/2/6
f 599/2/6 597/2/6 605/2/6
f 604/2/6 599/2/6 605/2/6
f 603/2/6 604/2/6 607/2/6
f 607/2/6 604/2/6 608/2/6
f 608/2/6 604/2/6 609/2/6
f 605/2/6 597/2/6 610/2/6
f 610/2/6 597/2/6 611/2/6
f 606/2/6 607/2/6 612/2/6
f 607/2/6 608/2/6 612/2/6
f 612/2/6 608/2/6 613/2/6
f 613/2/6 608/2/6 614/2/6
f 614/2/6 608/2/6 615/2/6
f 609/2/6 604/2/6 616/2/6
f 616/2/6 604/2/6 617/2/6
f 617/2/6 604/2/6 618/2/6
f 618/2/6 604/2/6 619/2/6
f 613/2/6 614/2/6 620/2/6
f 620/2/6 614/2/6 621/2/6
f 617/2/6 618/2/6 622/2/6
f 622/2/6 618/2/6 623/2/6
