# MagicaVoxel @ Ephtracy

# group
o 

# material
mtllib Smol-Platform 3.mtl
usemtl palette

# normals
vn 0 0 1
vn 0 0 -1
vn 1 0 0
vn -1 0 0
vn 0 -1 0
vn 0 1 0

# texcoords
vt 0.0253906 0.5
vt 0.189453 0.5

# verts
v 0.9 1 0.6
v -0.9 1 0.6
v 0.9 1.1 0.6
v -0.9 1.1 0.6
v 1 1 0.5
v 0.9 1 0.5
v -0.9 1 0.5
v -1 1 0.5
v 1 1.1 0.5
v 0.9 1.1 0.5
v 0.7 1.1 0.5
v -0.7 1.1 0.5
v -0.9 1.1 0.5
v -1 1.1 0.5
v 0.7 1.2 0.5
v -0.7 1.2 0.5
v 0.5 0.9 0.4
v -0.5 0.9 0.4
v 1.1 1 0.4
v 1 1 0.4
v 0.5 1 0.4
v -0.5 1 0.4
v -1 1 0.4
v -1.1 1 0.4
v 1.1 1.1 0.4
v 1 1.1 0.4
v 0.8 1.1 0.4
v 0.7 1.1 0.4
v -0.7 1.1 0.4
v -0.8 1.1 0.4
v -1 1.1 0.4
v -1.1 1.1 0.4
v 0.8 1.2 0.4
v 0.7 1.2 0.4
v -0.7 1.2 0.4
v -0.8 1.2 0.4
v 0.8 0.9 0.3
v 0.5 0.9 0.3
v -0.5 0.9 0.3
v -0.8 0.9 0.3
v 0.8 1 0.3
v 0.5 1 0.3
v -0.5 1 0.3
v -0.8 1 0.3
v 0.9 1.1 0.3
v 0.8 1.1 0.3
v -0.8 1.1 0.3
v -0.9 1.1 0.3
v 0.9 1.2 0.3
v 0.8 1.2 0.3
v -0.8 1.2 0.3
v -0.9 1.2 0.3
v 1.1 1.1 0.2
v 0.9 1.1 0.2
v -0.9 1.1 0.2
v -1.1 1.1 0.2
v 1.1 1.2 0.2
v 0.9 1.2 0.2
v -0.9 1.2 0.2
v -1.1 1.2 0.2
v 1.2 0.9 0.1
v 1.1 0.9 0.1
v -1.1 0.9 0.1
v -1.2 0.9 0.1
v 1.1 1 0.1
v -1.1 1 0.1
v 1.2 1.1 0.1
v 1.1 1.1 0.1
v -1.1 1.1 0.1
v -1.2 1.1 0.1
v 1.2 0.7 0
v 1.1 0.7 0
v -1.1 0.7 0
v -1.2 0.7 0
v 1.2 0.9 0
v 1.1 0.9 0
v -1.1 0.9 0
v -1.2 0.9 0
v 1.2 0.7 -0.1
v 1.1 0.7 -0.1
v -1.1 0.7 -0.1
v -1.2 0.7 -0.1
v 1.1 1 -0.1
v -1.1 1 -0.1
v 1.2 1.1 -0.1
v 1.1 1.1 -0.1
v -1.1 1.1 -0.1
v -1.2 1.1 -0.1
v 1.1 1.1 -0.2
v 0.9 1.1 -0.2
v -0.9 1.1 -0.2
v -1.1 1.1 -0.2
v 1.1 1.2 -0.2
v 0.9 1.2 -0.2
v -0.9 1.2 -0.2
v -1.1 1.2 -0.2
v 0.8 0.9 -0.3
v 0.5 0.9 -0.3
v -0.5 0.9 -0.3
v -0.8 0.9 -0.3
v 0.8 1 -0.3
v 0.5 1 -0.3
v -0.5 1 -0.3
v -0.8 1 -0.3
v 0.9 1.1 -0.3
v 0.8 1.1 -0.3
v -0.8 1.1 -0.3
v -0.9 1.1 -0.3
v 0.9 1.2 -0.3
v 0.8 1.2 -0.3
v -0.8 1.2 -0.3
v -0.9 1.2 -0.3
v 0.5 0.9 -0.4
v -0.5 0.9 -0.4
v 1.1 1 -0.4
v 1 1 -0.4
v 0.5 1 -0.4
v -0.5 1 -0.4
v -1 1 -0.4
v -1.1 1 -0.4
v 1.1 1.1 -0.4
v 1 1.1 -0.4
v 0.8 1.1 -0.4
v 0.7 1.1 -0.4
v -0.7 1.1 -0.4
v -0.8 1.1 -0.4
v -1 1.1 -0.4
v -1.1 1.1 -0.4
v 0.8 1.2 -0.4
v 0.7 1.2 -0.4
v -0.7 1.2 -0.4
v -0.8 1.2 -0.4
v 1 1 -0.5
v 0.9 1 -0.5
v -0.9 1 -0.5
v -1 1 -0.5
v 1 1.1 -0.5
v 0.9 1.1 -0.5
v 0.7 1.1 -0.5
v -0.7 1.1 -0.5
v -0.9 1.1 -0.5
v -1 1.1 -0.5
v 0.7 1.2 -0.5
v -0.7 1.2 -0.5
v 0.9 1 -0.6
v -0.9 1 -0.6
v 0.9 1.1 -0.6
v -0.9 1.1 -0.6
v 1.2 0.9 0.1
v 1.2 1.1 0.1
v 1.2 0.7 0
v 1.2 0.9 0
v 1.2 0.7 -0.1
v 1.2 1.1 -0.1
v 1.1 1 0.4
v 1.1 1.1 0.4
v 1.1 1.1 0.2
v 1.1 1.2 0.2
v 1.1 1 0.1
v 1.1 1.1 0.1
v 1.1 1 -0.1
v 1.1 1.1 -0.1
v 1.1 1.1 -0.2
v 1.1 1.2 -0.2
v 1.1 1 -0.4
v 1.1 1.1 -0.4
v 1 1 0.5
v 1 1.1 0.5
v 1 1 0.4
v 1 1.1 0.4
v 1 1 -0.4
v 1 1.1 -0.4
v 1 1 -0.5
v 1 1.1 -0.5
v 0.9 1 0.6
v 0.9 1.1 0.6
v 0.9 1 0.5
v 0.9 1.1 0.5
v 0.9 1.1 0.3
v 0.9 1.2 0.3
v 0.9 1.1 0.2
v 0.9 1.2 0.2
v 0.9 1.1 -0.2
v 0.9 1.2 -0.2
v 0.9 1.1 -0.3
v 0.9 1.2 -0.3
v 0.9 1 -0.5
v 0.9 1.1 -0.5
v 0.9 1 -0.6
v 0.9 1.1 -0.6
v 0.8 1.1 0.4
v 0.8 1.2 0.4
v 0.8 0.9 0.3
v 0.8 1 0.3
v 0.8 1.1 0.3
v 0.8 1.2 0.3
v 0.8 0.9 -0.3
v 0.8 1 -0.3
v 0.8 1.1 -0.3
v 0.8 1.2 -0.3
v 0.8 1.1 -0.4
v 0.8 1.2 -0.4
v 0.7 1.1 0.5
v 0.7 1.2 0.5
v 0.7 1.1 0.4
v 0.7 1.2 0.4
v 0.7 1.1 -0.4
v 0.7 1.2 -0.4
v 0.7 1.1 -0.5
v 0.7 1.2 -0.5
v 0.5 0.9 0.4
v 0.5 1 0.4
v 0.5 0.9 0.3
v 0.5 1 0.3
v 0.5 0.9 -0.3
v 0.5 1 -0.3
v 0.5 0.9 -0.4
v 0.5 1 -0.4
v -1.1 0.9 0.1
v -1.1 1 0.1
v -1.1 0.7 0
v -1.1 0.9 0
v -1.1 0.7 -0.1
v -1.1 1 -0.1
v 1.1 0.9 0.1
v 1.1 1 0.1
v 1.1 0.7 0
v 1.1 0.9 0
v 1.1 0.7 -0.1
v 1.1 1 -0.1
v -0.5 0.9 0.4
v -0.5 1 0.4
v -0.5 0.9 0.3
v -0.5 1 0.3
v -0.5 0.9 -0.3
v -0.5 1 -0.3
v -0.5 0.9 -0.4
v -0.5 1 -0.4
v -0.7 1.1 0.5
v -0.7 1.2 0.5
v -0.7 1.1 0.4
v -0.7 1.2 0.4
v -0.7 1.1 -0.4
v -0.7 1.2 -0.4
v -0.7 1.1 -0.5
v -0.7 1.2 -0.5
v -0.8 1.1 0.4
v -0.8 1.2 0.4
v -0.8 0.9 0.3
v -0.8 1 0.3
v -0.8 1.1 0.3
v -0.8 1.2 0.3
v -0.8 0.9 -0.3
v -0.8 1 -0.3
v -0.8 1.1 -0.3
v -0.8 1.2 -0.3
v -0.8 1.1 -0.4
v -0.8 1.2 -0.4
v -0.9 1 0.6
v -0.9 1.1 0.6
v -0.9 1 0.5
v -0.9 1.1 0.5
v -0.9 1.1 0.3
v -0.9 1.2 0.3
v -0.9 1.1 0.2
v -0.9 1.2 0.2
v -0.9 1.1 -0.2
v -0.9 1.2 -0.2
v -0.9 1.1 -0.3
v -0.9 1.2 -0.3
v -0.9 1 -0.5
v -0.9 1.1 -0.5
v -0.9 1 -0.6
v -0.9 1.1 -0.6
v -1 1 0.5
v -1 1.1 0.5
v -1 1 0.4
v -1 1.1 0.4
v -1 1 -0.4
v -1 1.1 -0.4
v -1 1 -0.5
v -1 1.1 -0.5
v -1.1 1 0.4
v -1.1 1.1 0.4
v -1.1 1.1 0.2
v -1.1 1.2 0.2
v -1.1 1 0.1
v -1.1 1.1 0.1
v -1.1 1 -0.1
v -1.1 1.1 -0.1
v -1.1 1.1 -0.2
v -1.1 1.2 -0.2
v -1.1 1 -0.4
v -1.1 1.1 -0.4
v -1.2 0.9 0.1
v -1.2 1.1 0.1
v -1.2 0.7 0
v -1.2 0.9 0
v -1.2 0.7 -0.1
v -1.2 1.1 -0.1
v 1.2 0.7 0
v 1.2 0.7 -0.1
v 1.1 0.7 0
v 1.1 0.7 -0.1
v -1.1 0.7 0
v -1.1 0.7 -0.1
v -1.2 0.7 0
v -1.2 0.7 -0.1
v 1.2 0.9 0.1
v 1.2 0.9 0
v 1.1 0.9 0.1
v 1.1 0.9 0
v 0.8 0.9 0.3
v 0.8 0.9 -0.3
v 0.5 0.9 0.4
v 0.5 0.9 0.3
v 0.5 0.9 -0.3
v 0.5 0.9 -0.4
v -0.5 0.9 0.4
v -0.5 0.9 0.3
v -0.5 0.9 -0.3
v -0.5 0.9 -0.4
v -0.8 0.9 0.3
v -0.8 0.9 -0.3
v -1.1 0.9 0.1
v -1.1 0.9 0
v -1.2 0.9 0.1
v -1.2 0.9 0
v 1.1 1 0.4
v 1.1 1 0.1
v 1.1 1 -0.1
v 1.1 1 -0.4
v 1 1 0.5
v 1 1 0.4
v 1 1 -0.4
v 1 1 -0.5
v 0.9 1 0.6
v 0.9 1 0.5
v 0.9 1 -0.5
v 0.9 1 -0.6
v 0.8 1 0.3
v 0.8 1 -0.3
v 0.5 1 0.4
v 0.5 1 0.3
v 0.5 1 -0.3
v 0.5 1 -0.4
v -0.5 1 0.4
v -0.5 1 0.3
v -0.5 1 -0.3
v -0.5 1 -0.4
v -0.8 1 0.3
v -0.8 1 -0.3
v -0.9 1 0.6
v -0.9 1 0.5
v -0.9 1 -0.5
v -0.9 1 -0.6
v -1 1 0.5
v -1 1 0.4
v -1 1 -0.4
v -1 1 -0.5
v -1.1 1 0.4
v -1.1 1 0.1
v -1.1 1 -0.1
v -1.1 1 -0.4
v 1.2 1.1 0.1
v 1.2 1.1 -0.1
v 1.1 1.1 0.4
v 1.1 1.1 0.2
v 1.1 1.1 0.1
v 1.1 1.1 -0.1
v 1.1 1.1 -0.2
v 1.1 1.1 -0.4
v 1 1.1 0.5
v 1 1.1 0.4
v 1 1.1 -0.4
v 1 1.1 -0.5
v 0.9 1.1 0.6
v 0.9 1.1 0.5
v 0.9 1.1 0.3
v 0.9 1.1 0.2
v 0.9 1.1 -0.2
v 0.9 1.1 -0.3
v 0.9 1.1 -0.5
v 0.9 1.1 -0.6
v 0.8 1.1 0.4
v 0.8 1.1 0.3
v 0.8 1.1 -0.3
v 0.8 1.1 -0.4
v 0.7 1.1 0.5
v 0.7 1.1 0.4
v 0.7 1.1 -0.4
v 0.7 1.1 -0.5
v -0.7 1.1 0.5
v -0.7 1.1 0.4
v -0.7 1.1 -0.4
v -0.7 1.1 -0.5
v -0.8 1.1 0.4
v -0.8 1.1 0.3
v -0.8 1.1 -0.3
v -0.8 1.1 -0.4
v -0.9 1.1 0.6
v -0.9 1.1 0.5
v -0.9 1.1 0.3
v -0.9 1.1 0.2
v -0.9 1.1 -0.2
v -0.9 1.1 -0.3
v -0.9 1.1 -0.5
v -0.9 1.1 -0.6
v -1 1.1 0.5
v -1 1.1 0.4
v -1 1.1 -0.4
v -1 1.1 -0.5
v -1.1 1.1 0.4
v -1.1 1.1 0.2
v -1.1 1.1 0.1
v -1.1 1.1 -0.1
v -1.1 1.1 -0.2
v -1.1 1.1 -0.4
v -1.2 1.1 0.1
v -1.2 1.1 -0.1
v 1.1 1.2 0.2
v 1.1 1.2 -0.2
v 0.9 1.2 0.3
v 0.9 1.2 0.2
v 0.9 1.2 -0.2
v 0.9 1.2 -0.3
v 0.8 1.2 0.4
v 0.8 1.2 0.3
v 0.8 1.2 -0.3
v 0.8 1.2 -0.4
v 0.7 1.2 0.5
v 0.7 1.2 0.4
v 0.7 1.2 0.3
v 0.7 1.2 0.2
v 0.7 1.2 -0.2
v 0.7 1.2 -0.3
v 0.7 1.2 -0.4
v 0.7 1.2 -0.5
v -0.7 1.2 0.5
v -0.7 1.2 0.4
v -0.7 1.2 0.3
v -0.7 1.2 0.2
v -0.7 1.2 -0.2
v -0.7 1.2 -0.3
v -0.7 1.2 -0.4
v -0.7 1.2 -0.5
v -0.8 1.2 0.4
v -0.8 1.2 0.3
v -0.8 1.2 -0.3
v -0.8 1.2 -0.4
v -0.9 1.2 0.3
v -0.9 1.2 0.2
v -0.9 1.2 -0.2
v -0.9 1.2 -0.3
v -1.1 1.2 0.2
v -1.1 1.2 -0.2

# faces
f 3/1/1 2/1/1 1/1/1
f 4/1/1 2/1/1 3/1/1
f 9/1/1 6/1/1 5/1/1
f 10/1/1 6/1/1 9/1/1
f 13/1/1 8/1/1 7/1/1
f 14/1/1 8/1/1 13/1/1
f 15/1/1 12/1/1 11/1/1
f 16/1/1 12/1/1 15/1/1
f 21/1/1 18/1/1 17/1/1
f 22/1/1 18/1/1 21/1/1
f 25/1/1 20/1/1 19/1/1
f 26/1/1 20/1/1 25/1/1
f 31/1/1 24/1/1 23/1/1
f 32/1/1 24/1/1 31/1/1
f 33/1/1 28/1/1 27/1/1
f 34/1/1 28/1/1 33/1/1
f 35/1/1 30/1/1 29/1/1
f 36/1/1 30/1/1 35/1/1
f 41/1/1 38/1/1 37/1/1
f 42/1/1 38/1/1 41/1/1
f 43/1/1 40/1/1 39/1/1
f 44/1/1 40/1/1 43/1/1
f 49/2/1 46/2/1 45/2/1
f 50/2/1 46/2/1 49/2/1
f 51/2/1 48/2/1 47/2/1
f 52/2/1 48/2/1 51/2/1
f 57/2/1 54/2/1 53/2/1
f 58/2/1 54/2/1 57/2/1
f 59/2/1 56/2/1 55/2/1
f 60/2/1 56/2/1 59/2/1
f 65/2/1 62/2/1 61/2/1
f 66/2/1 64/2/1 63/2/1
f 67/2/1 65/2/1 61/2/1
f 68/2/1 65/2/1 67/2/1
f 69/2/1 64/2/1 66/2/1
f 70/2/1 64/2/1 69/2/1
f 75/2/1 72/2/1 71/2/1
f 76/2/1 72/2/1 75/2/1
f 77/2/1 74/2/1 73/2/1
f 78/2/1 74/2/1 77/2/1
f 79/2/2 80/2/2 83/2/2
f 81/2/2 82/2/2 84/2/2
f 79/2/2 83/2/2 85/2/2
f 85/2/2 83/2/2 86/2/2
f 84/2/2 82/2/2 87/2/2
f 87/2/2 82/2/2 88/2/2
f 89/2/2 90/2/2 93/2/2
f 93/2/2 90/2/2 94/2/2
f 91/2/2 92/2/2 95/2/2
f 95/2/2 92/2/2 96/2/2
f 97/1/2 98/1/2 101/1/2
f 101/1/2 98/1/2 102/1/2
f 99/1/2 100/1/2 103/1/2
f 103/1/2 100/1/2 104/1/2
f 105/2/2 106/2/2 109/2/2
f 109/2/2 106/2/2 110/2/2
f 107/2/2 108/2/2 111/2/2
f 111/2/2 108/2/2 112/2/2
f 113/1/2 114/1/2 117/1/2
f 117/1/2 114/1/2 118/1/2
f 115/1/2 116/1/2 121/1/2
f 121/1/2 116/1/2 122/1/2
f 119/1/2 120/1/2 127/1/2
f 127/1/2 120/1/2 128/1/2
f 123/1/2 124/1/2 129/1/2
f 129/1/2 124/1/2 130/1/2
f 125/1/2 126/1/2 131/1/2
f 131/1/2 126/1/2 132/1/2
f 133/1/2 134/1/2 137/1/2
f 137/1/2 134/1/2 138/1/2
f 135/1/2 136/1/2 141/1/2
f 141/1/2 136/1/2 142/1/2
f 139/1/2 140/1/2 143/1/2
f 143/1/2 140/1/2 144/1/2
f 145/1/2 146/1/2 147/1/2
f 147/1/2 146/1/2 148/1/2
f 152/2/3 150/2/3 149/2/3
f 153/2/3 152/2/3 151/2/3
f 154/2/3 150/2/3 152/2/3
f 154/2/3 152/2/3 153/2/3
f 157/1/3 156/1/3 155/1/3
f 159/1/3 157/1/3 155/1/3
f 160/2/3 158/2/3 157/2/3
f 160/1/3 157/1/3 159/1/3
f 162/2/3 158/2/3 160/2/3
f 163/2/3 158/2/3 162/2/3
f 163/1/3 162/1/3 161/1/3
f 164/2/3 158/2/3 163/2/3
f 165/1/3 163/1/3 161/1/3
f 166/1/3 163/1/3 165/1/3
f 169/1/3 168/1/3 167/1/3
f 170/1/3 168/1/3 169/1/3
f 173/1/3 172/1/3 171/1/3
f 174/1/3 172/1/3 173/1/3
f 177/1/3 176/1/3 175/1/3
f 178/1/3 176/1/3 177/1/3
f 181/2/3 180/2/3 179/2/3
f 182/2/3 180/2/3 181/2/3
f 185/2/3 184/2/3 183/2/3
f 186/2/3 184/2/3 185/2/3
f 189/1/3 188/1/3 187/1/3
f 190/1/3 188/1/3 189/1/3
f 195/1/3 192/1/3 191/1/3
f 196/1/3 192/1/3 195/1/3
f 197/1/3 194/1/3 193/1/3
f 198/1/3 194/1/3 197/1/3
f 201/1/3 200/1/3 199/1/3
f 202/1/3 200/1/3 201/1/3
f 205/1/3 204/1/3 203/1/3
f 206/1/3 204/1/3 205/1/3
f 209/1/3 208/1/3 207/1/3
f 210/1/3 208/1/3 209/1/3
f 213/1/3 212/1/3 211/1/3
f 214/1/3 212/1/3 213/1/3
f 217/1/3 216/1/3 215/1/3
f 218/1/3 216/1/3 217/1/3
f 222/2/3 220/2/3 219/2/3
f 223/2/3 222/2/3 221/2/3
f 224/2/3 220/2/3 222/2/3
f 224/2/3 222/2/3 223/2/3
f 225/2/4 226/2/4 228/2/4
f 227/2/4 228/2/4 229/2/4
f 228/2/4 226/2/4 230/2/4
f 229/2/4 228/2/4 230/2/4
f 231/1/4 232/1/4 233/1/4
f 233/1/4 232/1/4 234/1/4
f 235/1/4 236/1/4 237/1/4
f 237/1/4 236/1/4 238/1/4
f 239/1/4 240/1/4 241/1/4
f 241/1/4 240/1/4 242/1/4
f 243/1/4 244/1/4 245/1/4
f 245/1/4 244/1/4 246/1/4
f 247/1/4 248/1/4 251/1/4
f 251/1/4 248/1/4 252/1/4
f 249/1/4 250/1/4 253/1/4
f 253/1/4 250/1/4 254/1/4
f 255/1/4 256/1/4 257/1/4
f 257/1/4 256/1/4 258/1/4
f 259/1/4 260/1/4 261/1/4
f 261/1/4 260/1/4 262/1/4
f 263/2/4 264/2/4 265/2/4
f 265/2/4 264/2/4 266/2/4
f 267/2/4 268/2/4 269/2/4
f 269/2/4 268/2/4 270/2/4
f 271/1/4 272/1/4 273/1/4
f 273/1/4 272/1/4 274/1/4
f 275/1/4 276/1/4 277/1/4
f 277/1/4 276/1/4 278/1/4
f 279/1/4 280/1/4 281/1/4
f 281/1/4 280/1/4 282/1/4
f 283/1/4 284/1/4 285/1/4
f 283/1/4 285/1/4 287/1/4
f 285/2/4 286/2/4 288/2/4
f 287/1/4 285/1/4 288/1/4
f 288/2/4 286/2/4 290/2/4
f 290/2/4 286/2/4 291/2/4
f 289/1/4 290/1/4 291/1/4
f 291/2/4 286/2/4 292/2/4
f 289/1/4 291/1/4 293/1/4
f 293/1/4 291/1/4 294/1/4
f 295/2/4 296/2/4 298/2/4
f 297/2/4 298/2/4 299/2/4
f 298/2/4 296/2/4 300/2/4
f 299/2/4 298/2/4 300/2/4
f 303/2/5 302/2/5 301/2/5
f 304/2/5 302/2/5 303/2/5
f 307/2/5 306/2/5 305/2/5
f 308/2/5 306/2/5 307/2/5
f 311/2/5 310/2/5 309/2/5
f 312/2/5 310/2/5 311/2/5
f 316/1/5 314/1/5 313/1/5
f 317/1/5 314/1/5 316/1/5
f 319/1/5 316/1/5 315/1/5
f 319/1/5 318/1/5 317/1/5
f 319/1/5 317/1/5 316/1/5
f 320/1/5 318/1/5 319/1/5
f 321/1/5 318/1/5 320/1/5
f 322/1/5 318/1/5 321/1/5
f 323/1/5 321/1/5 320/1/5
f 324/1/5 321/1/5 323/1/5
f 327/2/5 326/2/5 325/2/5
f 328/2/5 326/2/5 327/2/5
f 334/1/5 330/1/5 329/1/5
f 334/1/5 332/1/5 331/1/5
f 334/1/5 331/1/5 330/1/5
f 335/1/5 332/1/5 334/1/5
f 338/1/5 334/1/5 333/1/5
f 338/1/5 336/1/5 335/1/5
f 338/1/5 335/1/5 334/1/5
f 339/1/5 336/1/5 338/1/5
f 341/1/5 338/1/5 337/1/5
f 341/1/5 340/1/5 339/1/5
f 341/1/5 339/1/5 338/1/5
f 342/1/5 340/1/5 341/1/5
f 343/1/5 341/1/5 337/1/5
f 344/1/5 341/1/5 343/1/5
f 345/1/5 340/1/5 342/1/5
f 346/1/5 340/1/5 345/1/5
f 347/1/5 343/1/5 337/1/5
f 350/1/5 340/1/5 346/1/5
f 351/1/5 348/1/5 347/1/5
f 352/1/5 350/1/5 349/1/5
f 353/1/5 351/1/5 347/1/5
f 353/1/5 352/1/5 351/1/5
f 353/1/5 347/1/5 337/1/5
f 354/1/5 352/1/5 353/1/5
f 355/1/5 350/1/5 352/1/5
f 355/1/5 352/1/5 354/1/5
f 355/1/5 340/1/5 350/1/5
f 356/1/5 340/1/5 355/1/5
f 357/1/5 355/1/5 354/1/5
f 358/1/5 355/1/5 357/1/5
f 359/1/5 355/1/5 358/1/5
f 360/1/5 355/1/5 359/1/5
f 361/1/5 359/1/5 358/1/5
f 362/1/5 359/1/5 361/1/5
f 363/1/5 359/1/5 362/1/5
f 364/1/5 359/1/5 363/1/5
f 365/2/6 366/2/6 369/2/6
f 369/2/6 366/2/6 370/2/6
f 367/1/6 368/1/6 374/1/6
f 371/1/6 372/1/6 375/1/6
f 373/1/6 374/1/6 378/1/6
f 374/1/6 368/1/6 379/1/6
f 378/1/6 374/1/6 379/1/6
f 379/1/6 368/1/6 380/1/6
f 375/1/6 376/1/6 381/1/6
f 371/1/6 375/1/6 381/1/6
f 381/1/6 376/1/6 382/1/6
f 382/1/6 376/1/6 383/1/6
f 377/1/6 378/1/6 385/1/6
f 378/1/6 379/1/6 385/1/6
f 385/1/6 379/1/6 386/1/6
f 383/1/6 384/1/6 387/1/6
f 382/1/6 383/1/6 387/1/6
f 387/1/6 384/1/6 388/1/6
f 377/1/6 385/1/6 389/1/6
f 389/1/6 385/1/6 390/1/6
f 388/1/6 384/1/6 391/1/6
f 391/1/6 384/1/6 392/1/6
f 377/1/6 389/1/6 393/1/6
f 392/1/6 384/1/6 396/1/6
f 393/1/6 394/1/6 397/1/6
f 395/1/6 396/1/6 400/1/6
f 397/1/6 398/1/6 401/1/6
f 377/1/6 393/1/6 401/1/6
f 393/1/6 397/1/6 401/1/6
f 401/1/6 398/1/6 402/1/6
f 402/1/6 398/1/6 403/1/6
f 399/1/6 400/1/6 406/1/6
f 400/1/6 396/1/6 407/1/6
f 396/1/6 384/1/6 407/1/6
f 406/1/6 400/1/6 407/1/6
f 407/1/6 384/1/6 408/1/6
f 403/1/6 404/1/6 409/1/6
f 402/1/6 403/1/6 409/1/6
f 409/1/6 404/1/6 410/1/6
f 405/1/6 406/1/6 411/1/6
f 406/1/6 407/1/6 411/1/6
f 411/1/6 407/1/6 412/1/6
f 410/1/6 404/1/6 413/1/6
f 413/1/6 404/1/6 414/1/6
f 405/1/6 411/1/6 417/1/6
f 417/1/6 411/1/6 418/1/6
f 415/2/6 416/2/6 419/2/6
f 419/2/6 416/2/6 420/2/6
f 421/2/6 422/2/6 424/2/6
f 424/2/6 422/2/6 425/2/6
f 423/2/6 424/2/6 428/2/6
f 425/2/6 426/2/6 428/2/6
f 424/2/6 425/2/6 428/2/6
f 428/2/6 426/2/6 429/2/6
f 427/1/6 428/1/6 432/1/6
f 428/2/6 429/2/6 433/2/6
f 432/1/6 428/1/6 433/1/6
f 433/2/6 429/2/6 434/2/6
f 434/2/6 429/2/6 435/2/6
f 429/1/6 430/1/6 436/1/6
f 435/2/6 429/2/6 436/2/6
f 436/1/6 430/1/6 437/1/6
f 431/1/6 432/1/6 439/1/6
f 432/1/6 433/1/6 439/1/6
f 433/1/6 434/1/6 439/1/6
f 439/1/6 434/1/6 440/1/6
f 440/1/6 434/1/6 441/1/6
f 434/2/6 435/2/6 442/2/6
f 441/1/6 434/1/6 442/1/6
f 437/1/6 438/1/6 443/1/6
f 442/2/6 435/2/6 443/2/6
f 436/1/6 437/1/6 443/1/6
f 435/1/6 436/1/6 443/1/6
f 443/1/6 438/1/6 444/1/6
f 444/1/6 438/1/6 445/1/6
f 445/1/6 438/1/6 446/1/6
f 440/1/6 441/1/6 447/1/6
f 441/2/6 442/2/6 448/2/6
f 447/1/6 441/1/6 448/1/6
f 442/2/6 443/2/6 448/2/6
f 443/2/6 444/2/6 448/2/6
f 444/1/6 445/1/6 449/1/6
f 448/2/6 444/2/6 449/2/6
f 449/1/6 445/1/6 450/1/6
f 448/2/6 449/2/6 451/2/6
f 451/2/6 449/2/6 452/2/6
f 452/2/6 449/2/6 453/2/6
f 453/2/6 449/2/6 454/2/6
f 452/2/6 453/2/6 455/2/6
f 455/2/6 453/2/6 456/2/6
